<?xml version="1.0" standalone="no"?>
<!DOCTYPE svg PUBLIC "-//W3C//DTD SVG 1.1//EN" "http://www.w3.org/Graphics/SVG/1.1/DTD/svg11.dtd" >
<svg xmlns="http://www.w3.org/2000/svg" xmlns:xlink="http://www.w3.org/1999/xlink" version="1.1">
<metadata>
Created by FontForge 20161003 at Sat Aug  5 02:32:16 2017
 By www-data
Copyright (C) 1996, 2009 Hoefler &#38; Co. http://www.typography.com
</metadata>
<defs>
<font id="WhitneyRegular" horiz-adv-x="1071" >
  <font-face 
    font-family="WhitneyRegular"
    font-weight="325"
    font-stretch="normal"
    units-per-em="2048"
    panose-1="0 0 0 0 0 0 0 0 0 0"
    ascent="1638"
    descent="-410"
    x-height="969"
    cap-height="1413"
    bbox="-193 -549 2007 2073"
    underline-thickness="102"
    underline-position="-714"
    unicode-range="U+0020-FB04"
  />
<missing-glyph horiz-adv-x="748" 
d="M68 0v1365h544v-1365h-544zM136 68h408v1229h-408v-1229z" />
    <glyph glyph-name=".notdef" horiz-adv-x="748" 
d="M68 0v1365h544v-1365h-544zM136 68h408v1229h-408v-1229z" />
    <glyph glyph-name="glyph1" horiz-adv-x="0" 
 />
    <glyph glyph-name="glyph2" horiz-adv-x="682" 
 />
    <glyph glyph-name="space" unicode=" " horiz-adv-x="462" 
 />
    <glyph glyph-name="exclam" unicode="!" horiz-adv-x="548" 
d="M356 1413l-41 -1003l-82 -19l-40 1022h163zM354 0h-159v201h159v-201z" />
    <glyph glyph-name="quotedbl" unicode="&#x22;" horiz-adv-x="792" 
d="M649 1384l-43 -399l-76 16l-45 383h164zM305 1384l-43 -399l-78 16l-41 383h162z" />
    <glyph glyph-name="numbersign" unicode="#" horiz-adv-x="1327" 
d="M1069 1376l-57 -360h225v-115h-244l-65 -418h248l18 -114h-285l-57 -373h-109l58 373h-379l-62 -383l-104 22l57 361h-223v114h242l65 418h-247l-19 115h285l59 373h109l-62 -373h381l62 383zM506 901l-66 -418h379l68 418h-381z" />
    <glyph glyph-name="dollar" unicode="$" horiz-adv-x="1097" 
d="M733 1522l-24 -142q108 -19 211 -61l-21 -127q-99 50 -211 74l-78 -502q194 -69 279.5 -157t85.5 -230q0 -175 -120 -280t-329 -105h-37l-36 -244l-99 23l37 229q-138 20 -280 84l18 127q147 -75 283 -96l86 559q-190 65 -274.5 145t-84.5 221q0 164 114.5 258.5
t305.5 94.5q33 0 49 -2l25 155zM850 367q0 95 -54.5 157.5t-203.5 118.5l-84 -539h31q150 0 230.5 72t80.5 191zM264 1051q0 -95 56 -149t196 -105l76 483q-16 2 -47 2q-135 0 -208 -64t-73 -167z" />
    <glyph glyph-name="percent" unicode="%" horiz-adv-x="1802" 
d="M750 1012q0 -178 -89.5 -283.5t-226.5 -105.5q-138 0 -227.5 105.5t-89.5 283.5q0 177 89.5 283t227.5 106q137 0 226.5 -106.5t89.5 -282.5zM510 -14l-104 26l444 693l438 694l107 -27l-445 -692zM1686 373q0 -176 -90.5 -282.5t-227.5 -106.5q-136 0 -225.5 106.5
t-89.5 282.5t89.5 282.5t225.5 106.5q137 0 227.5 -106.5t90.5 -282.5zM629 1012q0 126 -52.5 207t-144.5 81t-143 -80t-51 -208q0 -127 52.5 -209t145.5 -82q92 0 142.5 81.5t50.5 209.5zM1563 373q0 128 -51.5 209.5t-143.5 81.5q-93 0 -143.5 -81t-50.5 -210
q0 -126 52 -207.5t144 -81.5t142.5 80.5t50.5 208.5z" />
    <glyph glyph-name="ampersand" unicode="&#x26;" horiz-adv-x="1398" 
d="M1374 23l-145 -35l-225 225q-182 -236 -465 -236q-206 0 -327.5 104t-121.5 277q0 149 89 253t249 177q-78 82 -113.5 154.5t-35.5 165.5q0 141 100.5 234.5t267.5 93.5q177 0 334 -88l-27 -142q-167 107 -311 107q-104 0 -163.5 -56t-59.5 -143q0 -73 33.5 -134.5
t115.5 -145.5l414 -418q80 159 117 407l129 -26q-50 -284 -154 -473zM541 98q228 0 374 203l-405 404q-134 -56 -205.5 -140.5t-71.5 -193.5q0 -118 86.5 -195.5t221.5 -77.5z" />
    <glyph glyph-name="quotesingle" unicode="'" horiz-adv-x="448" 
d="M305 1384l-43 -399l-78 16l-41 383h162z" />
    <glyph glyph-name="parenleft" unicode="(" horiz-adv-x="802" 
d="M715 -168l-135 -29q-213 188 -325 388t-112 446q0 520 519 852l22 -127q-203 -142 -300 -318.5t-97 -410.5q0 -219 107 -415t321 -386z" />
    <glyph glyph-name="parenright" unicode=")" horiz-adv-x="802" 
d="M86 1452l135 29q213 -188 324.5 -388t111.5 -446q0 -523 -518 -852l-22 127q204 143 301.5 318.5t97.5 410.5q0 219 -107.5 415t-322.5 386z" />
    <glyph glyph-name="asterisk" unicode="*" horiz-adv-x="831" 
d="M731 1180l-237 -105l131 -229l-35 -25l-174 199l-174 -199l-37 25l131 229l-236 105l13 41l254 -54l24 258h47l25 -258l254 54z" />
    <glyph glyph-name="plus" unicode="+" horiz-adv-x="1167" 
d="M1049 637h-406v-414h-119v414h-407v111h407v413h119v-413h406v-111z" />
    <glyph glyph-name="comma" unicode="," horiz-adv-x="448" 
d="M336 201l-197 -473l-71 18l104 455h164z" />
    <glyph glyph-name="hyphen" unicode="-" horiz-adv-x="745" 
d="M621 512h-496v135h496v-135z" />
    <glyph glyph-name="period" unicode="." horiz-adv-x="448" 
d="M303 0h-158v201h158v-201z" />
    <glyph glyph-name="slash" unicode="/" horiz-adv-x="1058" 
d="M1016 1401l-967 -1655l-121 25l967 1656z" />
    <glyph glyph-name="zero" unicode="0" horiz-adv-x="1261" 
d="M1139 694q0 -330 -137.5 -525.5t-370.5 -195.5q-234 0 -371 194t-137 523q0 330 137.5 525.5t370.5 195.5q234 0 371 -194t137 -523zM999 692q0 276 -96 437t-272 161t-272.5 -161t-96.5 -437t96.5 -437t272.5 -161t272 161t96 437z" />
    <glyph glyph-name="one" unicode="1" horiz-adv-x="727" 
d="M510 0h-135v1243l-297 -119l-19 111l340 156h111v-1391z" />
    <glyph glyph-name="two" unicode="2" horiz-adv-x="1095" 
d="M975 0h-873v100l510 543q111 120 155 203.5t44 179.5q0 124 -72.5 193t-201.5 69q-185 0 -377 -166l-21 135q183 154 406 154q190 0 298.5 -102.5t108.5 -274.5q0 -124 -54 -227t-185 -240l-426 -446h669z" />
    <glyph glyph-name="three" unicode="3" 
d="M950 375q0 -177 -131 -289.5t-340 -112.5q-217 0 -387 109l23 135q92 -63 178 -92t194 -29q147 0 234.5 75.5t87.5 201.5q0 140 -99 217.5t-302 77.5h-62l-18 123h94q175 0 267.5 70t92.5 194q0 105 -72 169t-206 64q-198 0 -371 -133l-18 129q177 127 395 127
q201 0 307.5 -100t106.5 -250q0 -127 -73 -208t-192 -120q291 -83 291 -358z" />
    <glyph glyph-name="four" unicode="4" horiz-adv-x="1214" 
d="M1147 328h-227v-328h-127v328h-709v96l670 967h166v-951h227v-112zM793 440v801l-560 -801h560z" />
    <glyph glyph-name="five" unicode="5" horiz-adv-x="1093" 
d="M983 426q0 -138 -67 -241.5t-178.5 -156.5t-248.5 -53q-221 0 -385 101l21 131q178 -113 369 -113q149 0 250.5 86t101.5 240q0 138 -85.5 218.5t-240.5 80.5q-139 0 -262 -53l-92 22l49 696h696l21 -120h-602l-33 -465q121 41 235 41q207 0 329 -112.5t122 -301.5z" />
    <glyph glyph-name="six" unicode="6" horiz-adv-x="1163" 
d="M864 1288q-528 -146 -596 -579q181 125 375 125q193 0 307.5 -112t114.5 -302q0 -198 -128.5 -322.5t-324.5 -124.5q-216 0 -351.5 158.5t-135.5 429.5q0 172 51 313t148 244.5t226.5 175.5t295.5 119zM621 715q-184 0 -361 -140v-8q0 -211 98 -343t256 -132
q141 0 226.5 88t85.5 234q0 138 -78 219.5t-227 81.5z" />
    <glyph glyph-name="seven" unicode="7" horiz-adv-x="1089" 
d="M979 1282l-573 -1296l-132 30l551 1246h-712l-19 122h885v-102z" />
    <glyph glyph-name="eight" unicode="8" horiz-adv-x="1169" 
d="M117 348q0 236 295 383q-242 110 -242 334q0 149 119.5 247.5t304.5 98.5q187 0 300.5 -97t113.5 -245q0 -207 -248 -344q144 -62 218.5 -150.5t74.5 -222.5q0 -161 -132.5 -270t-334.5 -109q-214 0 -341.5 107.5t-127.5 267.5zM252 356q0 -120 94 -194t244 -74
q138 0 233 75t95 191q0 114 -82 184.5t-301 143.5q-131 -54 -207 -139t-76 -187zM305 1067q0 -102 72.5 -166.5t261.5 -128.5q110 54 171.5 128.5t61.5 162.5q0 102 -77.5 168.5t-204.5 66.5q-131 0 -208 -68.5t-77 -162.5z" />
    <glyph glyph-name="nine" unicode="9" horiz-adv-x="1163" 
d="M279 96q256 57 414 195.5t198 361.5q-177 -121 -369 -121q-193 0 -307.5 115t-114.5 311t126.5 324.5t326.5 128.5q218 0 351.5 -158t133.5 -430q0 -172 -52.5 -314t-151 -246.5t-232.5 -177t-303 -114.5zM545 653q194 0 360 135v29q0 214 -98 344.5t-256 130.5
q-144 0 -228.5 -89t-84.5 -238q0 -143 79 -227.5t228 -84.5z" />
    <glyph glyph-name="colon" unicode=":" horiz-adv-x="464" 
d="M313 768h-159v201h159v-201zM313 0h-159v201h159v-201z" />
    <glyph glyph-name="semicolon" unicode=";" horiz-adv-x="464" 
d="M324 768h-160v201h160v-201zM328 201l-197 -473l-74 18l107 455h164z" />
    <glyph glyph-name="less" unicode="&#x3c;" horiz-adv-x="1167" 
d="M1016 182l-897 457v106l897 457v-131l-758 -377l758 -379v-133z" />
    <glyph glyph-name="equal" unicode="=" horiz-adv-x="1236" 
d="M1079 856h-921v123h921v-123zM1079 406h-921v122h921v-122z" />
    <glyph glyph-name="greater" unicode="&#x3e;" horiz-adv-x="1167" 
d="M1049 639l-897 -457v131l757 377l-757 379v133l897 -457v-106z" />
    <glyph glyph-name="question" unicode="?" horiz-adv-x="1019" 
d="M905 1092q0 -78 -24.5 -140t-78 -114t-115 -91.5t-157.5 -89.5l-18 -247l-90 -21l-25 340l58 25q173 85 240 157.5t67 173.5q0 106 -72.5 167t-193.5 61q-193 0 -381 -150l-19 137q186 140 406 140q179 0 291 -94.5t112 -253.5zM547 0h-160v201h160v-201z" />
    <glyph glyph-name="at" unicode="@" horiz-adv-x="1722" 
d="M1239 96q-106 0 -170 53.5t-72 147.5q-91 -106 -158 -153.5t-141 -47.5q-89 0 -150 70t-61 194q0 119 39 223t103 175t147 112t170 41q121 0 252 -57l-74 -432q-10 -72 -10 -109q0 -65 35 -103t106 -38q118 0 197.5 124.5t79.5 340.5q0 276 -157 429t-427 153
q-156 0 -295.5 -62t-242 -171.5t-162.5 -267.5t-60 -341q0 -297 160 -450.5t434 -153.5q249 0 443 98l10 -59q-200 -99 -461 -99q-310 0 -484.5 173t-174.5 489q0 254 110 461.5t302.5 325.5t426.5 118q303 0 475.5 -173t172.5 -468q0 -246 -104 -394.5t-259 -148.5z
M729 203q54 0 115 48.5t157 166.5l66 364q-68 27 -133 27q-60 0 -118 -31t-104 -86t-74 -138t-28 -179q0 -87 31.5 -129.5t87.5 -42.5z" />
    <glyph glyph-name="A" unicode="A" horiz-adv-x="1415" 
d="M80 0l557 1421h145l553 -1405l-139 -30l-180 471h-617l-174 -457h-145zM707 1257l-258 -675h518z" />
    <glyph glyph-name="B" unicode="B" horiz-adv-x="1120" 
d="M1016 408q0 -198 -134.5 -303t-367.5 -105h-326v1413h328q213 0 324.5 -94.5t111.5 -257.5q0 -111 -57.5 -189.5t-157.5 -119.5q132 -37 205.5 -122.5t73.5 -221.5zM813 1055q0 112 -75.5 173.5t-225.5 61.5h-184v-491h180q146 0 225.5 71t79.5 185zM877 399
q0 141 -94.5 212t-264.5 71h-190v-559h198q163 0 257 72.5t94 203.5z" />
    <glyph glyph-name="C" unicode="C" horiz-adv-x="1306" 
d="M1196 115q-84 -64 -197 -103t-233 -39q-287 0 -464 202.5t-177 529.5q0 215 81 382t229.5 260t340.5 93q225 0 398 -121l-23 -143q-185 137 -377 137q-231 0 -367.5 -166.5t-136.5 -437.5q0 -273 136.5 -440t365.5 -167q211 0 404 148z" />
    <glyph glyph-name="D" unicode="D" horiz-adv-x="1435" 
d="M1309 709q0 -326 -200.5 -517.5t-541.5 -191.5h-379v1413h385q174 0 313.5 -51t232 -143.5t141.5 -222.5t49 -287zM1163 707q0 187 -74 318.5t-205 196t-309 64.5h-245v-1159h245q275 0 431.5 148t156.5 432z" />
    <glyph glyph-name="E" unicode="E" horiz-adv-x="1038" 
d="M946 0h-758v1413h738v-129h-596v-481h471l20 -127h-491v-547h616v-129z" />
    <glyph glyph-name="F" unicode="F" horiz-adv-x="976" 
d="M897 1284h-567v-504h454l21 -127h-475v-653h-142v1413h709v-129z" />
    <glyph glyph-name="G" unicode="G" horiz-adv-x="1421" 
d="M1253 117q-219 -144 -465 -144q-205 0 -356.5 93t-229 258t-77.5 381t80 382.5t228 259.5t343 93q242 0 418 -123l-25 -146q-176 142 -395 142q-234 0 -369 -165t-135 -441q0 -278 137.5 -442.5t383.5 -164.5q175 0 323 90v422h-340l-20 129h499v-624z" />
    <glyph glyph-name="H" unicode="H" horiz-adv-x="1443" 
d="M1255 0h-141v676h-784v-676h-142v1413h142v-610h784v610h141v-1413z" />
    <glyph glyph-name="I" unicode="I" horiz-adv-x="548" 
d="M344 0h-141v1413h141v-1413z" />
    <glyph glyph-name="J" unicode="J" horiz-adv-x="745" 
d="M565 344q0 -177 -98 -266.5t-266 -89.5q-55 0 -125 12l-21 131q72 -20 148 -20q106 0 163.5 58.5t57.5 176.5v1067h141v-1069z" />
    <glyph glyph-name="K" unicode="K" horiz-adv-x="1241" 
d="M1206 18l-159 -32l-717 743v-729h-142v1413h142v-643l655 643h182l-680 -659z" />
    <glyph glyph-name="L" unicode="L" horiz-adv-x="954" 
d="M895 0h-707v1413h142v-1282h544z" />
    <glyph glyph-name="M" unicode="M" horiz-adv-x="1857" 
d="M1702 0h-137l-92 1212l-490 -1220h-113l-489 1220l-92 -1212h-131l112 1413h174l486 -1233l487 1233h172z" />
    <glyph glyph-name="N" unicode="N" horiz-adv-x="1443" 
d="M1255 0h-108l-825 1190v-1190h-134v1413h134l800 -1153v1153h133v-1413z" />
    <glyph glyph-name="O" unicode="O" horiz-adv-x="1525" 
d="M1401 709q0 -214 -80.5 -381.5t-226.5 -261t-334 -93.5q-282 0 -458.5 204t-176.5 528q0 161 47 297.5t130.5 233t202.5 150.5t259 54q188 0 333 -92.5t224.5 -258.5t79.5 -380zM1255 705q0 272 -135.5 440t-357.5 168t-357 -167t-135 -437q0 -272 136 -440.5t358 -168.5
t356.5 167.5t134.5 437.5z" />
    <glyph glyph-name="P" unicode="P" horiz-adv-x="1087" 
d="M1001 1016q0 -203 -135.5 -311.5t-359.5 -108.5h-176v-596h-142v1413h349q218 0 341 -104t123 -293zM858 1012q0 136 -84 206t-246 70h-198v-567h182q165 0 255.5 73t90.5 218z" />
    <glyph glyph-name="Q" unicode="Q" horiz-adv-x="1529" 
d="M1401 709q0 -279 -132.5 -468t-355.5 -239l445 -166l-27 -133l-743 289q-463 180 -463 713q0 161 47 297.5t130.5 233t202.5 150.5t259 54q188 0 333 -92.5t224.5 -258.5t79.5 -380zM1255 705q0 274 -135 441t-358 167q-224 0 -358 -166t-134 -440t136 -443.5t358 -169.5
q223 0 357 168t134 443z" />
    <glyph glyph-name="R" unicode="R" horiz-adv-x="1161" 
d="M1114 16l-147 -30l-451 630h-186v-616h-142v1413h359q211 0 332.5 -103.5t121.5 -285.5q0 -157 -91.5 -256.5t-237.5 -132.5zM858 1016q0 129 -81.5 200.5t-237.5 71.5h-209v-551h184q160 0 252 73.5t92 205.5z" />
    <glyph glyph-name="S" unicode="S" horiz-adv-x="1048" 
d="M938 373q0 -178 -124 -283.5t-314 -105.5q-206 0 -375 88l20 143q71 -46 166 -76t195 -30q128 0 209.5 68t81.5 185q0 104 -61.5 168.5t-223.5 135.5q-209 92 -289 177t-80 230q0 158 115 257.5t291 99.5q184 0 311 -74l-20 -142q-137 91 -297 91q-120 0 -189 -64
t-69 -160q0 -94 59.5 -152.5t224.5 -131.5q203 -89 286 -181t83 -243z" />
    <glyph glyph-name="T" unicode="T" horiz-adv-x="1185" 
d="M1126 1284h-462v-1284h-142v1284h-454v129h1040z" />
    <glyph glyph-name="U" unicode="U" horiz-adv-x="1394" 
d="M1229 539q0 -258 -143.5 -410t-391.5 -152q-246 0 -387 150t-141 401v885h141v-866q0 -203 99.5 -323t289.5 -120q188 0 289.5 115.5t101.5 319.5v874h142v-874z" />
    <glyph glyph-name="V" unicode="V" horiz-adv-x="1392" 
d="M1313 1413l-555 -1421h-129l-549 1405l141 30l475 -1253l467 1239h150z" />
    <glyph glyph-name="W" unicode="W" horiz-adv-x="2101" 
d="M2007 1413l-426 -1417h-123l-409 1223l-408 -1223h-119l-424 1401l140 30l352 -1210l389 1196h145l394 -1196l346 1196h143z" />
    <glyph glyph-name="X" unicode="X" horiz-adv-x="1300" 
d="M1221 18l-142 -30l-432 649l-418 -637h-155l495 735l-446 660l141 28l385 -583l375 573h156l-451 -672z" />
    <glyph glyph-name="Y" unicode="Y" horiz-adv-x="1286" 
d="M1219 1413l-508 -827v-586h-142v586l-499 813l145 28l428 -714l416 700h160z" />
    <glyph glyph-name="Z" unicode="Z" horiz-adv-x="1224" 
d="M1126 0h-1020v102l836 1188h-776l-19 123h965v-102l-833 -1188h829z" />
    <glyph glyph-name="bracketleft" unicode="[" horiz-adv-x="833" 
d="M721 -215h-522v1628h512v-106h-383v-1416h377z" />
    <glyph glyph-name="backslash" unicode="\" horiz-adv-x="1058" 
d="M1130 -229l-120 -27l-967 1657l121 24z" />
    <glyph glyph-name="bracketright" unicode="]" horiz-adv-x="833" 
d="M111 1413h522v-1628h-512v106h383v1416h-377z" />
    <glyph glyph-name="asciicircum" unicode="^" horiz-adv-x="933" 
d="M739 1126h-86l-188 170l-189 -170h-86l211 297h127z" />
    <glyph glyph-name="underscore" unicode="_" horiz-adv-x="954" 
d="M952 -215h-950v111h950v-111z" />
    <glyph glyph-name="grave" unicode="`" horiz-adv-x="933" 
d="M637 1126h-92l-279 275l176 39z" />
    <glyph glyph-name="a" unicode="a" horiz-adv-x="1001" 
d="M852 0h-102l-23 129q-160 -149 -342 -149q-130 0 -209.5 69t-79.5 195q0 169 146.5 257t476.5 120v63q0 186 -201 186q-155 0 -334 -86l-18 121q194 84 360 84q326 0 326 -299v-690zM719 240v274q-140 -14 -236.5 -38.5t-151 -58.5t-77.5 -74t-23 -91q0 -76 48 -117
t127 -41q76 0 158.5 39t154.5 107z" />
    <glyph glyph-name="b" unicode="b" horiz-adv-x="1081" 
d="M981 512q0 -256 -130.5 -390t-340.5 -134q-166 0 -352 63v1395l135 24v-628q135 147 299 147q81 0 150 -29.5t123 -87t85 -150t31 -210.5zM844 506q0 172 -73.5 267t-192.5 95q-141 0 -285 -168v-557q95 -39 223 -39q151 0 239.5 101t88.5 301z" />
    <glyph glyph-name="c" unicode="c" horiz-adv-x="952" 
d="M864 88q-139 -108 -327 -108q-192 0 -315.5 135t-123.5 368q0 119 34.5 216t95 160t142 96.5t175.5 33.5q176 0 311 -98l-22 -135q-137 116 -293 116q-136 0 -220.5 -102.5t-84.5 -284.5q0 -180 87 -283.5t226 -103.5q163 0 297 115z" />
    <glyph glyph-name="d" unicode="d" horiz-adv-x="1087" 
d="M930 0h-103l-24 141q-135 -161 -311 -161q-81 0 -151 29.5t-124.5 86.5t-85.5 149.5t-31 211.5q0 129 36 231t97.5 165.5t140.5 96.5t169 33q145 0 252 -49v512l135 24v-1470zM795 274v535q-111 57 -248 57t-223 -103.5t-86 -299.5q0 -172 73.5 -267.5t192.5 -95.5
q81 0 151 44.5t140 129.5z" />
    <glyph glyph-name="e" unicode="e" horiz-adv-x="1005" 
d="M905 117q-160 -137 -370 -137q-197 0 -317 131t-120 374q0 230 116.5 367t299.5 137q127 0 217.5 -66t133 -174t42.5 -245v-29h-674q3 -181 83.5 -280t226.5 -99q175 0 342 144zM512 881q-108 0 -181 -77.5t-93 -221.5h530q-9 136 -75 217.5t-181 81.5z" />
    <glyph glyph-name="f" unicode="f" horiz-adv-x="610" 
d="M575 1333q-36 8 -81 8q-148 0 -148 -149v-223h199l18 -115h-217v-854h-133v854h-147v115h147v233q0 130 72 195t200 65q30 0 70 -4z" />
    <glyph glyph-name="g" unicode="g" horiz-adv-x="1028" 
d="M950 -78q0 -90 -63.5 -157t-167 -100.5t-230.5 -33.5t-225.5 27.5t-157.5 85t-59 139.5q0 143 221 256q-71 45 -71 103q0 70 96 129q-82 41 -130 116t-48 172q0 148 105.5 239t252.5 91q144 0 246 -82l242 78l22 -133l-195 -21q52 -77 52 -172q0 -99 -51 -175.5
t-132.5 -115t-179.5 -38.5q-47 0 -86 8q-61 -34 -61 -70q0 -29 41 -45t176 -41l71 -14q169 -31 250.5 -87t81.5 -159zM494 72q-18 4 -42.5 8t-42.5 8t-34 8q-195 -89 -195 -205q0 -74 86.5 -115.5t231.5 -41.5t234 49t89 123q0 57 -52 90.5t-181 58.5zM707 659
q0 98 -65.5 164t-168.5 66q-101 0 -163 -66.5t-62 -167.5q0 -96 63 -160.5t166 -64.5q104 0 167 64.5t63 164.5z" />
    <glyph glyph-name="h" unicode="h" 
d="M922 0h-136v668q0 96 -45 148t-135 52q-142 0 -313 -168v-700h-135v1446l135 24v-639q85 75 167 116.5t173 41.5q142 0 215.5 -77.5t73.5 -217.5v-694z" />
    <glyph glyph-name="i" unicode="i" horiz-adv-x="479" 
d="M336 1298q0 -40 -28 -69t-68 -29t-69.5 29t-29.5 69t29.5 69.5t69.5 29.5q39 0 67.5 -29.5t28.5 -69.5zM305 0h-133v969h133v-969z" />
    <glyph glyph-name="j" unicode="j" horiz-adv-x="479" 
d="M336 1298q0 -40 -28 -69t-68 -29t-69.5 29t-29.5 69t29.5 69.5t69.5 29.5q39 0 67.5 -29.5t28.5 -69.5zM305 -150q0 -111 -59.5 -165t-159.5 -54q-50 0 -78 7l-20 120q33 -8 80 -8q104 0 104 115v1104h133v-1119z" />
    <glyph glyph-name="k" unicode="k" horiz-adv-x="954" 
d="M922 12l-148 -26l-481 528v-514h-135v1446l135 24v-917l422 416h174l-453 -432z" />
    <glyph glyph-name="l" unicode="l" horiz-adv-x="479" 
d="M305 0h-133v1446l133 24v-1470z" />
    <glyph glyph-name="m" unicode="m" horiz-adv-x="1677" 
d="M1528 0h-135v668q0 200 -176 200q-139 0 -308 -166v-702h-133v668q0 200 -176 200q-141 0 -307 -163v-705h-135v969h104l23 -140q181 160 342 160q211 0 266 -168q185 168 352 168q142 0 212.5 -77t70.5 -218v-694z" />
    <glyph glyph-name="n" unicode="n" 
d="M922 0h-136v668q0 96 -45 148t-135 52q-142 0 -313 -168v-700h-135v969h104l23 -144q88 78 172 121t176 43q143 0 216 -77.5t73 -219.5v-692z" />
    <glyph glyph-name="o" unicode="o" 
d="M973 483q0 -233 -124.5 -368t-316.5 -135q-191 0 -312.5 134.5t-121.5 368.5q0 235 122.5 370.5t311.5 135.5q194 0 317.5 -135t123.5 -371zM834 483q0 178 -82.5 284.5t-219.5 106.5q-136 0 -216 -104.5t-80 -286.5q0 -176 81.5 -282.5t214.5 -106.5q138 0 220 104.5
t82 284.5z" />
    <glyph glyph-name="p" unicode="p" horiz-adv-x="1087" 
d="M987 512q0 -129 -35.5 -230.5t-97 -164.5t-140.5 -96t-169 -33q-139 0 -252 47v-387l-135 -23v1344h104l23 -140q141 160 313 160q81 0 150 -29.5t123 -87t85 -150t31 -210.5zM850 506q0 172 -73.5 267t-192.5 95q-82 0 -151 -44t-140 -130v-534q119 -58 248 -58
q137 0 223 104.5t86 299.5z" />
    <glyph glyph-name="q" unicode="q" horiz-adv-x="1081" 
d="M924 -352l-136 -23v502q-135 -147 -299 -147q-81 0 -150 29.5t-123 86.5t-85 149.5t-31 211.5q0 256 130.5 391t340.5 135q157 0 353 -63v-1272zM788 270v555q-109 41 -223 41q-151 0 -239 -101.5t-88 -301.5q0 -172 73.5 -267.5t192.5 -95.5q141 0 284 170z" />
    <glyph glyph-name="r" unicode="r" horiz-adv-x="704" 
d="M655 862q-115 -7 -212.5 -79.5t-149.5 -174.5v-608h-135v969h100l31 -199q141 214 344 219z" />
    <glyph glyph-name="s" unicode="s" horiz-adv-x="897" 
d="M801 262q0 -131 -96.5 -205.5t-264.5 -74.5q-92 0 -186.5 25t-161.5 63l23 131q166 -105 338 -105q102 0 160.5 41.5t58.5 114.5q0 72 -52.5 112t-197.5 78q-166 42 -236.5 105t-70.5 180q0 115 90 188.5t239 73.5q158 0 301 -65l-22 -129q-140 75 -283 75
q-96 0 -146 -37.5t-50 -99.5q0 -60 47 -96t170 -68q180 -48 260 -115.5t80 -191.5z" />
    <glyph glyph-name="t" unicode="t" horiz-adv-x="675" 
d="M592 0q-58 -16 -135 -16q-121 0 -186.5 55t-65.5 182v633h-150v115h150v336l133 22v-358h223l19 -115h-242v-610q0 -75 33 -108.5t110 -33.5q27 0 90 11z" />
    <glyph glyph-name="u" unicode="u" 
d="M913 0h-104l-23 143q-184 -163 -348 -163q-143 0 -215.5 77.5t-72.5 218.5v693h135v-668q0 -96 45 -147.5t135 -51.5q144 0 313 166v701h135v-969z" />
    <glyph glyph-name="v" unicode="v" horiz-adv-x="960" 
d="M901 969l-358 -977h-129l-353 964l138 25l282 -823l279 811h141z" />
    <glyph glyph-name="w" unicode="w" horiz-adv-x="1490" 
d="M1425 969l-321 -977h-119l-242 794l-239 -794h-117l-321 969l131 24l249 -813l242 801h117l244 -801l239 797h137z" />
    <glyph glyph-name="x" unicode="x" horiz-adv-x="962" 
d="M891 10l-135 -24l-277 417l-262 -403h-145l336 498l-316 460l133 27l256 -389l246 373h145l-319 -467z" />
    <glyph glyph-name="y" unicode="y" horiz-adv-x="983" 
d="M922 969l-412 -1096q-49 -135 -117.5 -188.5t-173.5 -53.5q-10 0 -59 7l-21 120q46 -8 78 -8q64 0 103.5 32.5t68.5 111.5l41 100l-367 962l134 25l299 -823l284 811h142z" />
    <glyph glyph-name="z" unicode="z" horiz-adv-x="919" 
d="M834 0h-750v104l578 752h-529l-18 113h702v-105l-577 -751h575z" />
    <glyph glyph-name="braceleft" unicode="{" horiz-adv-x="960" 
d="M850 -215h-199q-293 0 -293 266q0 46 12.5 140t12.5 145q0 211 -217 211h-60l-16 104h78q102 0 158.5 48t56.5 161q0 50 -12.5 143t-12.5 140q0 270 293 270h187v-106h-183q-168 0 -168 -162q0 -41 13.5 -139t13.5 -144q0 -119 -53 -178.5t-154 -83.5v-4q101 -24 154 -83
t53 -179q0 -46 -13.5 -145t-13.5 -140q0 -158 166 -158h178z" />
    <glyph glyph-name="bar" unicode="|" horiz-adv-x="546" 
d="M334 -367l-121 -20v1847l121 21v-1848z" />
    <glyph glyph-name="braceright" unicode="}" horiz-adv-x="960" 
d="M111 1413h198q293 0 293 -266q0 -46 -12 -140t-12 -145q0 -211 215 -211h61l16 -104h-77q-102 0 -158.5 -48t-56.5 -163q0 -49 12 -142t12 -141q0 -268 -293 -268h-188v106h184q85 0 126.5 42t41.5 118q0 41 -13.5 139t-13.5 144q0 119 53.5 179.5t153.5 82.5v4
q-101 26 -154 85t-53 179q0 46 13.5 145t13.5 140q0 158 -166 158h-178z" />
    <glyph glyph-name="asciitilde" unicode="~" horiz-adv-x="835" 
d="M721 672q-15 -102 -55.5 -155.5t-100.5 -53.5q-39 0 -70 11t-83 40q-59 32 -84 42.5t-47 10.5q-52 0 -74 -108l-92 18q15 104 55 157.5t100 53.5q38 0 69 -11.5t85 -41.5q89 -45 113 -49q10 -2 20 -2q49 0 74 108z" />
    <glyph glyph-name="nonbreakingspace" unicode="&#xa0;" horiz-adv-x="360" 
 />
    <glyph glyph-name="exclamdown" unicode="&#xa1;" horiz-adv-x="548" 
d="M354 1212h-159v201h159v-201zM356 0h-163l40 1004l82 18z" />
    <glyph glyph-name="cent" unicode="&#xa2;" horiz-adv-x="1001" 
d="M885 301q-141 -104 -330 -104h-33l-33 -217l-98 22l33 213q-140 40 -224.5 163.5t-84.5 309.5q0 227 128 362.5t326 135.5h6l35 217l101 -23l-33 -204q109 -19 199 -82l-21 -125q-105 78 -199 96l-118 -758h30q159 0 299 109zM244 690q0 -137 53 -230.5t147 -129.5
l115 745q-147 -5 -231 -106.5t-84 -278.5z" />
    <glyph glyph-name="sterling" unicode="&#xa3;" horiz-adv-x="1114" 
d="M125 741h201l96 310q60 186 159 273t263 87q77 0 162 -20l-21 -123q-71 18 -154 18q-111 0 -176 -63.5t-110 -208.5l-86 -273h377l18 -120h-432l-156 -500h727l19 -121h-887v96l162 525h-162v120z" />
    <glyph glyph-name="yen" unicode="&#xa5;" horiz-adv-x="1257" 
d="M221 498v104h324l-455 764l131 33l410 -717l397 702h148l-467 -782h315l18 -104h-352v-189h342v-106h-342v-203h-125v203h-334l-18 106h352v189h-344z" />
    <glyph glyph-name="section" unicode="&#xa7;" horiz-adv-x="1132" 
d="M1016 725q0 -99 -68 -190l-112 22q55 76 55 150q0 59 -45.5 93.5t-161.5 63.5l-154 41q-157 39 -225.5 92.5t-68.5 155.5q0 107 92.5 177.5t234.5 70.5q167 0 316 -60l-21 -124q-143 73 -301 73q-91 0 -141.5 -36.5t-50.5 -94.5q0 -52 41 -81.5t147 -59.5l192 -49
q138 -37 204.5 -93t66.5 -151zM117 659q0 101 67 191l113 -23q-55 -76 -55 -149q0 -59 44.5 -94t159.5 -64l156 -41q157 -39 226 -92.5t69 -155.5q0 -107 -93 -177t-235 -70q-168 0 -315 59l20 125q145 -74 301 -74q91 0 142 36.5t51 94.5q0 52 -41 82t-147 60l-193 49
q-138 37 -204 92.5t-66 150.5z" />
    <glyph glyph-name="dieresis" unicode="&#xa8;" horiz-adv-x="933" 
d="M729 1145h-170v182h170v-182zM375 1145h-168v182h168v-182z" />
    <glyph glyph-name="copyright" unicode="&#xa9;" horiz-adv-x="1650" 
d="M1530 707q0 -213 -87 -380t-248 -260.5t-370 -93.5t-370 93t-248.5 260t-87.5 381q0 213 87.5 380t248 260t368.5 93q209 0 370.5 -93t249 -259.5t87.5 -380.5zM1460 707q0 305 -176.5 489t-460.5 184t-458.5 -183.5t-174.5 -489.5q0 -202 80.5 -355.5t225 -236
t331.5 -82.5q284 0 458.5 184t174.5 490zM1100 383q-121 -86 -258 -86q-163 0 -266 116t-103 300t104 300.5t267 116.5q127 0 241 -73l-18 -111q-109 84 -223 84q-119 0 -190.5 -87.5t-71.5 -229.5t72 -230t190 -88q115 0 239 92z" />
    <glyph glyph-name="ordfeminine" unicode="&#xaa;" horiz-adv-x="804" 
d="M641 735h-82l-12 78q-105 -90 -217 -90q-89 0 -142 47.5t-53 130.5q0 110 97 171.5t307 80.5v35q0 115 -129 115q-93 0 -215 -56l-15 94q127 52 238 52q223 0 223 -201v-457zM657 471h-516v96h502zM539 897v174q-168 -16 -234.5 -57t-66.5 -107q0 -45 28.5 -70.5
t79.5 -25.5q94 0 193 86z" />
    <glyph glyph-name="guillemotleft" unicode="&#xab;" horiz-adv-x="1052" 
d="M530 969l-294 -484l286 -471l-100 -24l-342 495l336 484h114zM942 969l-295 -484l287 -471l-100 -24l-342 495l335 484h115z" />
    <glyph glyph-name="uni00AD" unicode="&#xad;" horiz-adv-x="745" 
d="M621 512h-496v135h496v-135z" />
    <glyph glyph-name="registered" unicode="&#xae;" horiz-adv-x="1159" 
d="M1044 956q0 -210 -129.5 -342.5t-334.5 -132.5q-206 0 -334.5 133t-128.5 344q0 210 129.5 343t335.5 133q205 0 333.5 -133.5t128.5 -344.5zM991 956q0 193 -115.5 311.5t-295.5 118.5q-181 0 -295.5 -118t-114.5 -310q0 -193 115 -311.5t295 -118.5q181 0 296 118
t115 310zM799 723l-80 -18l-158 225h-57v-219h-74v528h141q84 0 133.5 -41t49.5 -113q0 -57 -30.5 -94t-80.5 -51zM678 1081q0 43 -28 65.5t-81 22.5h-67v-178h65q52 0 81.5 23t29.5 67z" />
    <glyph glyph-name="macron" unicode="&#xaf;" horiz-adv-x="933" 
d="M733 1182h-532v114h532v-114z" />
    <glyph glyph-name="degree" unicode="&#xb0;" horiz-adv-x="876" 
d="M762 1071q0 -141 -92 -232t-232 -91t-232.5 91.5t-92.5 231.5q0 139 92.5 231.5t232.5 92.5t232 -92.5t92 -231.5zM653 1071q0 96 -61.5 161.5t-155.5 65.5q-93 0 -154 -65.5t-61 -161.5q0 -97 62 -162t155 -65q94 0 154.5 64.5t60.5 162.5z" />
    <glyph glyph-name="plusminus" unicode="&#xb1;" horiz-adv-x="1105" 
d="M934 776h-322v-330h-118v330h-322v109h322v327h118v-327h322v-109zM999 231h-893v113h893v-113z" />
    <glyph glyph-name="twosuperior" unicode="&#xb2;" horiz-adv-x="737" 
d="M651 842h-559v90l299 262q66 59 92.5 100t26.5 86q0 58 -42.5 93.5t-111.5 35.5q-103 0 -231 -82l-14 99q126 82 256 82q123 0 192.5 -61t69.5 -154q0 -67 -36.5 -123.5t-119.5 -126.5l-235 -201h395z" />
    <glyph glyph-name="threesuperior" unicode="&#xb3;" horiz-adv-x="737" 
d="M629 1042q0 -99 -81 -159t-210 -60q-140 0 -248 62l16 96q119 -61 232 -61q78 0 126 35.5t48 95.5q0 135 -229 135h-52l-14 92h74q104 0 155.5 32.5t51.5 92.5q0 51 -40 79.5t-112 28.5q-119 0 -227 -67l-15 94q125 70 246 70q126 0 195 -52.5t69 -138.5
q0 -134 -172 -184q187 -47 187 -191z" />
    <glyph glyph-name="acute" unicode="&#xb4;" horiz-adv-x="933" 
d="M668 1401l-279 -275h-94l199 314z" />
    <glyph glyph-name="paragraph" unicode="&#xb6;" horiz-adv-x="1079" 
d="M881 0h-123v1282h-168v-293l-62 -375q-207 8 -323.5 107t-116.5 285q0 180 118.5 279t325.5 99h349v-1384z" />
    <glyph glyph-name="periodcentered" unicode="&#xb7;" horiz-adv-x="438" 
d="M299 479h-160v201h160v-201z" />
    <glyph glyph-name="cedilla" unicode="&#xb8;" horiz-adv-x="933" 
d="M606 -168l-250 -233h-94l172 274z" />
    <glyph glyph-name="onesuperior" unicode="&#xb9;" horiz-adv-x="737" 
d="M655 842h-516v94h203v559l-201 -76l-14 90l246 99h80v-672h186z" />
    <glyph glyph-name="ordmasculine" unicode="&#xba;" horiz-adv-x="808" 
d="M694 1059q0 -151 -78.5 -243.5t-212.5 -92.5q-131 0 -210.5 93t-79.5 243q0 149 79.5 241.5t210.5 92.5q134 0 212.5 -92.5t78.5 -241.5zM682 471h-549v96h533zM586 1059q0 105 -47 173t-136 68q-88 0 -135 -68t-47 -173q0 -106 47 -175t135 -69q90 0 136.5 68.5
t46.5 175.5z" />
    <glyph glyph-name="guillemotright" unicode="&#xbb;" horiz-adv-x="1052" 
d="M971 483l-334 -483h-115l293 483l-285 473l101 23zM561 483l-336 -483h-114l295 483l-287 473l100 23z" />
    <glyph glyph-name="onequarter" unicode="&#xbc;" horiz-adv-x="1658" 
d="M655 637h-516v94h203v559l-201 -76l-14 91l246 98h80v-672h186zM1565 164h-119v-170h-100v170h-381v78l338 512h143v-506h119v-84zM1346 248v248l2 163h-11l-75 -124l-123 -187l-64 -94l2 -8l101 2h168zM508 -16l-96 26l428 701l413 696l97 -27l-430 -700z" />
    <glyph glyph-name="onehalf" unicode="&#xbd;" horiz-adv-x="1658" 
d="M655 637h-516v94h203v559l-201 -76l-14 91l246 98h80v-672h186zM1573 0h-559v90l299 262q66 59 92.5 100t26.5 87q0 58 -42.5 93.5t-111.5 35.5q-103 0 -231 -82l-15 98q126 82 256 82q123 0 192.5 -61t69.5 -154q0 -67 -36.5 -123.5t-118.5 -126.5l-236 -201h395z
M477 -16l-96 26l428 701l414 696l96 -27l-430 -700z" />
    <glyph glyph-name="threequarters" unicode="&#xbe;" horiz-adv-x="1658" 
d="M629 838q0 -99 -81 -159.5t-210 -60.5q-140 0 -248 62l16 96q119 -61 232 -61q78 0 126 35.5t48 95.5q0 135 -229 135h-52l-14 92h74q104 0 155.5 32.5t51.5 92.5q0 51 -40 80t-112 29q-118 0 -227 -68l-15 94q125 70 246 70q126 0 195 -52.5t69 -138.5q0 -134 -172 -184
q187 -47 187 -190zM1565 164h-119v-170h-100v170h-381v78l338 512h143v-506h119v-84zM1346 248v248l2 163h-11l-75 -124l-123 -187l-64 -94l2 -8l101 2h168zM487 -16l-96 26l428 701l414 696l96 -27l-430 -700z" />
    <glyph glyph-name="questiondown" unicode="&#xbf;" horiz-adv-x="1019" 
d="M117 322q0 63 17.5 116t46 94t78.5 81.5t102 72t128 70.5l19 248l90 20l25 -340l-58 -25q-173 -85 -240 -157.5t-67 -173.5q0 -106 72.5 -167t193.5 -61q193 0 381 150l19 -137q-186 -140 -406 -140q-179 0 -290 94.5t-111 254.5zM473 1413h160v-201h-160v201z" />
    <glyph glyph-name="Agrave" unicode="&#xc0;" horiz-adv-x="1415" 
d="M80 0l557 1421h145l553 -1405l-139 -30l-180 471h-617l-174 -457h-145zM707 1257l-258 -675h518zM764 1561h-92l-279 274l176 39z" />
    <glyph glyph-name="Aacute" unicode="&#xc1;" horiz-adv-x="1415" 
d="M80 0l557 1421h145l553 -1405l-139 -30l-180 471h-617l-174 -457h-145zM707 1257l-258 -675h518zM1020 1835l-279 -274h-94l199 313z" />
    <glyph glyph-name="Acircumflex" unicode="&#xc2;" horiz-adv-x="1415" 
d="M80 0l557 1421h145l553 -1405l-139 -30l-180 471h-617l-174 -457h-145zM707 1257l-258 -675h518zM981 1548h-86l-188 170l-189 -170h-86l211 297h127z" />
    <glyph glyph-name="Atilde" unicode="&#xc3;" horiz-adv-x="1415" 
d="M80 0l557 1421h145l553 -1405l-139 -30l-180 471h-617l-174 -457h-145zM707 1257l-258 -675h518zM1018 1784q-15 -102 -55.5 -156.5t-100.5 -54.5q-39 0 -67.5 10.5t-85.5 40.5q-9 5 -24.5 13t-22 11t-17.5 8.5t-16.5 8t-13.5 5.5t-13 4t-11.5 2t-12.5 1q-49 0 -74 -108
l-90 18q15 104 55 158.5t100 54.5q27 0 53 -7.5t42 -15t59 -30.5q45 -23 61 -31t34.5 -14t33.5 -6q27 0 45 25t31 81z" />
    <glyph glyph-name="Adieresis" unicode="&#xc4;" horiz-adv-x="1415" 
d="M80 0l557 1421h145l553 -1405l-139 -30l-180 471h-617l-174 -457h-145zM707 1257l-258 -675h518zM969 1579h-170v182h170v-182zM614 1579h-168v182h168v-182z" />
    <glyph glyph-name="Aring" unicode="&#xc5;" horiz-adv-x="1415" 
d="M909 1499q0 -54 -25 -98.5t-67 -69.5l518 -1315l-137 -30l-182 471h-619l-174 -457h-143l520 1329q-94 58 -94 170q0 85 58.5 144t144.5 59t143 -59t57 -144zM707 1257l-261 -675h521zM827 1499q0 54 -33.5 90.5t-84.5 36.5q-52 0 -86.5 -36.5t-34.5 -90.5t34.5 -89.5
t86.5 -35.5q51 0 84.5 35.5t33.5 89.5z" />
    <glyph glyph-name="AE" unicode="&#xc6;" horiz-adv-x="1787" 
d="M20 0l840 1413h813v-127h-596v-483h473l19 -127h-492v-549h617v-127h-754v457h-498l-268 -457h-154zM514 580h426v718z" />
    <glyph glyph-name="Ccedilla" unicode="&#xc7;" horiz-adv-x="1306" 
d="M1196 115q-84 -64 -197 -103t-233 -39q-287 0 -464 202.5t-177 529.5q0 215 81 382t229.5 260t340.5 93q225 0 398 -121l-23 -143q-185 137 -377 137q-231 0 -367.5 -166.5t-136.5 -437.5q0 -273 136.5 -440t365.5 -167q211 0 404 148zM864 -172l-250 -234h-94l172 275z
" />
    <glyph glyph-name="Egrave" unicode="&#xc8;" horiz-adv-x="1038" 
d="M946 0h-758v1413h738v-129h-596v-481h471l20 -127h-491v-547h616v-129zM618 1540h-92l-278 275l176 38z" />
    <glyph glyph-name="Eacute" unicode="&#xc9;" horiz-adv-x="1038" 
d="M872 1815l-278 -275h-94l198 313zM946 0h-758v1413h738v-129h-596v-481h471l20 -127h-491v-547h616v-129z" />
    <glyph glyph-name="Ecircumflex" unicode="&#xca;" horiz-adv-x="1038" 
d="M834 1540h-86l-189 170l-188 -170h-86l211 297h127zM946 0h-758v1413h738v-129h-596v-481h471l20 -127h-491v-547h616v-129z" />
    <glyph glyph-name="Edieresis" unicode="&#xcb;" horiz-adv-x="1038" 
d="M821 1559h-170v182h170v-182zM467 1559h-168v182h168v-182zM946 0h-758v1413h738v-129h-596v-481h471l20 -127h-491v-547h616v-129z" />
    <glyph glyph-name="Igrave" unicode="&#xcc;" horiz-adv-x="548" 
d="M344 0h-141v1413h141v-1413zM334 1540h-92l-279 275l176 38z" />
    <glyph glyph-name="Iacute" unicode="&#xcd;" horiz-adv-x="548" 
d="M344 0h-141v1413h141v-1413zM588 1815l-279 -275h-94l199 313z" />
    <glyph glyph-name="Icircumflex" unicode="&#xce;" horiz-adv-x="548" 
d="M344 0h-141v1413h141v-1413zM549 1540h-86l-189 170l-188 -170h-86l211 297h127z" />
    <glyph glyph-name="Idieresis" unicode="&#xcf;" horiz-adv-x="548" 
d="M344 0h-141v1413h141v-1413zM537 1559h-170v182h170v-182zM182 1559h-168v182h168v-182z" />
    <glyph glyph-name="Eth" unicode="&#xd0;" horiz-adv-x="1464" 
d="M1339 709q0 -326 -200 -517.5t-541 -191.5h-379v678h-164l-20 123h184v612h383q348 0 542.5 -192t194.5 -512zM1194 707q0 279 -159.5 429t-430.5 150h-246v-485h340v-123h-340v-551h248q274 0 431 148t157 432z" />
    <glyph glyph-name="Ntilde" unicode="&#xd1;" horiz-adv-x="1443" 
d="M1255 0h-108l-825 1190v-1190h-134v1413h134l800 -1153v1153h133v-1413zM1036 1753q-15 -103 -55 -157t-100 -54q-39 0 -68 10.5t-86 40.5q-12 6 -32 16.5t-27.5 14.5t-20 10t-19.5 8t-15.5 3.5t-16.5 1.5q-49 0 -74 -109l-90 18q15 104 55.5 158.5t100.5 54.5
q53 0 141 -47l12 -6q45 -23 61 -31t34.5 -14t33.5 -6q51 0 76 107z" />
    <glyph glyph-name="Ograve" unicode="&#xd2;" horiz-adv-x="1525" 
d="M1401 709q0 -214 -80.5 -381.5t-226.5 -261t-334 -93.5q-282 0 -458.5 204t-176.5 528q0 161 47 297.5t130.5 233t202.5 150.5t259 54q188 0 333 -92.5t224.5 -258.5t79.5 -380zM1255 705q0 272 -135.5 440t-357.5 168t-357 -167t-135 -437q0 -272 136 -440.5t358 -168.5
t356.5 167.5t134.5 437.5zM819 1561h-92l-278 274l176 39z" />
    <glyph glyph-name="Oacute" unicode="&#xd3;" horiz-adv-x="1525" 
d="M1075 1835l-278 -274h-95l199 313zM1401 709q0 -214 -80.5 -381.5t-226.5 -261t-334 -93.5q-282 0 -458.5 204t-176.5 528q0 161 47 297.5t130.5 233t202.5 150.5t259 54q188 0 333 -92.5t224.5 -258.5t79.5 -380zM1255 705q0 272 -135.5 440t-357.5 168t-357 -167
t-135 -437q0 -272 136 -440.5t358 -168.5t356.5 167.5t134.5 437.5z" />
    <glyph glyph-name="Ocircumflex" unicode="&#xd4;" horiz-adv-x="1525" 
d="M1034 1561h-86l-188 170l-189 -170h-86l211 297h127zM1401 709q0 -214 -80.5 -381.5t-226.5 -261t-334 -93.5q-282 0 -458.5 204t-176.5 528q0 161 47 297.5t130.5 233t202.5 150.5t259 54q188 0 333 -92.5t224.5 -258.5t79.5 -380zM1255 705q0 272 -135.5 440
t-357.5 168t-357 -167t-135 -437q0 -272 136 -440.5t358 -168.5t356.5 167.5t134.5 437.5z" />
    <glyph glyph-name="Otilde" unicode="&#xd5;" horiz-adv-x="1525" 
d="M1401 709q0 -214 -80.5 -381.5t-226.5 -261t-334 -93.5q-282 0 -458.5 204t-176.5 528q0 161 47 297.5t130.5 233t202.5 150.5t259 54q188 0 333 -92.5t224.5 -258.5t79.5 -380zM1255 705q0 272 -135.5 440t-357.5 168t-357 -167t-135 -437q0 -272 136 -440.5t358 -168.5
t356.5 167.5t134.5 437.5zM1071 1784q-15 -102 -55.5 -156.5t-100.5 -54.5q-39 0 -67.5 10.5t-85.5 40.5q-9 5 -24.5 13t-22 11t-17.5 8.5t-16.5 8t-13.5 5.5t-13 4t-11.5 2t-12.5 1q-49 0 -74 -108l-90 18q15 104 55.5 158.5t100.5 54.5q53 0 141 -47l12 -6q45 -23 61 -31
t34.5 -14t33.5 -6q27 0 45 25t31 81z" />
    <glyph glyph-name="Odieresis" unicode="&#xd6;" horiz-adv-x="1525" 
d="M1024 1579h-170v182h170v-182zM670 1579h-168v182h168v-182zM1401 709q0 -214 -80.5 -381.5t-226.5 -261t-334 -93.5q-282 0 -458.5 204t-176.5 528q0 161 47 297.5t130.5 233t202.5 150.5t259 54q188 0 333 -92.5t224.5 -258.5t79.5 -380zM1255 705q0 272 -135.5 440
t-357.5 168t-357 -167t-135 -437q0 -272 136 -440.5t358 -168.5t356.5 167.5t134.5 437.5z" />
    <glyph glyph-name="multiply" unicode="&#xd7;" horiz-adv-x="1167" 
d="M924 268l-342 346l-342 -344l-78 78l344 342l-346 342l82 84l344 -346l342 344l78 -78l-344 -342l346 -342z" />
    <glyph glyph-name="Oslash" unicode="&#xd8;" horiz-adv-x="1525" 
d="M1401 709q0 -214 -80.5 -381.5t-226.5 -261t-334 -93.5q-237 0 -404 148l-114 -137l-125 26l159 195q-151 200 -151 500q0 161 47 297.5t130.5 233t202.5 150.5t259 54q238 0 405 -148l113 138l127 -27l-162 -195q154 -200 154 -499zM762 1315q-223 0 -359.5 -167.5
t-136.5 -438.5q0 -242 101 -398l718 877q-130 127 -323 127zM1260 705q0 236 -103 395l-719 -877q131 -125 326 -125q223 0 359.5 168t136.5 439z" />
    <glyph glyph-name="Ugrave" unicode="&#xd9;" horiz-adv-x="1394" 
d="M1229 539q0 -258 -143.5 -410t-391.5 -152q-246 0 -387 150t-141 401v885h141v-866q0 -203 99.5 -323t289.5 -120q188 0 289.5 115.5t101.5 319.5v874h142v-874zM754 1530h-92l-279 274l176 39z" />
    <glyph glyph-name="Uacute" unicode="&#xda;" horiz-adv-x="1394" 
d="M1010 1804l-279 -274h-94l199 313zM1229 539q0 -258 -143.5 -410t-391.5 -152q-246 0 -387 150t-141 401v885h141v-866q0 -203 99.5 -323t289.5 -120q188 0 289.5 115.5t101.5 319.5v874h142v-874z" />
    <glyph glyph-name="Ucircumflex" unicode="&#xdb;" horiz-adv-x="1394" 
d="M969 1530h-86l-189 170l-188 -170h-86l211 297h127zM1229 539q0 -258 -143.5 -410t-391.5 -152q-246 0 -387 150t-141 401v885h141v-866q0 -203 99.5 -323t289.5 -120q188 0 289.5 115.5t101.5 319.5v874h142v-874z" />
    <glyph glyph-name="Udieresis" unicode="&#xdc;" horiz-adv-x="1394" 
d="M958 1548h-170v183h170v-183zM604 1548h-168v183h168v-183zM1229 539q0 -258 -143.5 -410t-391.5 -152q-246 0 -387 150t-141 401v885h141v-866q0 -203 99.5 -323t289.5 -120q188 0 289.5 115.5t101.5 319.5v874h142v-874z" />
    <glyph glyph-name="Yacute" unicode="&#xdd;" horiz-adv-x="1286" 
d="M1219 1413l-508 -827v-586h-142v586l-499 813l145 28l428 -714l416 700h160zM956 1804l-278 -274h-94l198 313z" />
    <glyph glyph-name="Thorn" unicode="&#xde;" horiz-adv-x="1103" 
d="M1008 733q0 -201 -136.5 -309.5t-361.5 -108.5h-180v-315h-142v1413h142v-283h213q216 0 340.5 -103.5t124.5 -293.5zM864 729q0 136 -84.5 207.5t-244.5 71.5h-205v-570h188q164 0 255 73.5t91 217.5z" />
    <glyph glyph-name="germandbls" unicode="&#xdf;" horiz-adv-x="1234" 
d="M1155 299q0 -150 -94 -233.5t-252 -83.5q-164 0 -299 75l20 127q154 -90 289 -90q93 0 150 52.5t57 144.5q0 41 -12 76t-43 71.5t-82 67t-133 60t-191 52.5l-16 103q96 116 143 211t47 194q0 101 -50 160.5t-140 59.5q-93 0 -148 -66.5t-55 -175.5v-1104h-133v854h-147
v115h147v125q0 169 91 268.5t245 99.5q153 0 239 -87.5t86 -239.5q0 -114 -48.5 -209.5t-151.5 -218.5q245 -58 363 -155.5t118 -252.5z" />
    <glyph glyph-name="agrave" unicode="&#xe0;" horiz-adv-x="1001" 
d="M852 0h-102l-23 129q-160 -149 -342 -149q-130 0 -209.5 69t-79.5 195q0 169 146.5 257t476.5 120v63q0 186 -201 186q-155 0 -334 -86l-18 121q194 84 360 84q326 0 326 -299v-690zM719 240v274q-140 -14 -236.5 -38.5t-151 -58.5t-77.5 -74t-23 -91q0 -76 48 -117
t127 -41q76 0 158.5 39t154.5 107zM561 1126h-92l-279 275l177 39z" />
    <glyph glyph-name="aacute" unicode="&#xe1;" horiz-adv-x="1001" 
d="M852 0h-102l-23 129q-160 -149 -342 -149q-130 0 -209.5 69t-79.5 195q0 169 146.5 257t476.5 120v63q0 186 -201 186q-155 0 -334 -86l-18 121q194 84 360 84q326 0 326 -299v-690zM719 240v274q-140 -14 -236.5 -38.5t-151 -58.5t-77.5 -74t-23 -91q0 -76 48 -117
t127 -41q76 0 158.5 39t154.5 107zM815 1401l-278 -275h-95l199 314z" />
    <glyph glyph-name="acircumflex" unicode="&#xe2;" horiz-adv-x="1001" 
d="M852 0h-102l-23 129q-160 -149 -342 -149q-130 0 -209.5 69t-79.5 195q0 169 146.5 257t476.5 120v63q0 186 -201 186q-155 0 -334 -86l-18 121q194 84 360 84q326 0 326 -299v-690zM719 240v274q-140 -14 -236.5 -38.5t-151 -58.5t-77.5 -74t-23 -91q0 -76 48 -117
t127 -41q76 0 158.5 39t154.5 107zM774 1126h-86l-188 170l-189 -170h-86l211 297h127z" />
    <glyph glyph-name="atilde" unicode="&#xe3;" horiz-adv-x="1001" 
d="M852 0h-102l-23 129q-160 -149 -342 -149q-130 0 -209.5 69t-79.5 195q0 169 146.5 257t476.5 120v63q0 186 -201 186q-155 0 -334 -86l-18 121q194 84 360 84q326 0 326 -299v-690zM719 240v274q-140 -14 -236.5 -38.5t-151 -58.5t-77.5 -74t-23 -91q0 -76 48 -117
t127 -41q76 0 158.5 39t154.5 107zM811 1350q-15 -102 -55.5 -156.5t-100.5 -54.5q-39 0 -67.5 10.5t-85.5 40.5q-9 5 -24.5 13t-22 11t-17.5 8.5t-16.5 8t-13.5 5.5t-13 4t-11.5 2t-12.5 1q-49 0 -74 -108l-90 18q15 104 55 158.5t100 54.5q27 0 53 -7.5t42 -15t59 -30.5
q45 -23 61 -31t34.5 -14t33.5 -6q27 0 45 25t31 81z" />
    <glyph glyph-name="adieresis" unicode="&#xe4;" horiz-adv-x="1001" 
d="M852 0h-102l-23 129q-160 -149 -342 -149q-130 0 -209.5 69t-79.5 195q0 169 146.5 257t476.5 120v63q0 186 -201 186q-155 0 -334 -86l-18 121q194 84 360 84q326 0 326 -299v-690zM719 240v274q-140 -14 -236.5 -38.5t-151 -58.5t-77.5 -74t-23 -91q0 -76 48 -117
t127 -41q76 0 158.5 39t154.5 107zM762 1145h-170v182h170v-182zM408 1145h-168v182h168v-182z" />
    <glyph glyph-name="aring" unicode="&#xe5;" horiz-adv-x="1001" 
d="M852 0h-102l-23 129q-160 -149 -342 -149q-130 0 -209.5 69t-79.5 195q0 169 146.5 257t476.5 120v63q0 186 -201 186q-155 0 -334 -86l-18 121q194 84 360 84q326 0 326 -299v-690zM719 240v274q-140 -14 -236.5 -38.5t-151 -58.5t-77.5 -74t-23 -91q0 -76 48 -117
t127 -41q76 0 158.5 39t154.5 107zM700 1319q0 -86 -56.5 -141.5t-143.5 -55.5t-144 55.5t-57 141.5q0 85 57.5 144t143.5 59t143 -59t57 -144zM618 1319q0 55 -33 91t-85 36q-51 0 -86 -36.5t-35 -90.5q0 -53 34.5 -88t86.5 -35t85 34.5t33 88.5z" />
    <glyph glyph-name="ae" unicode="&#xe6;" horiz-adv-x="1617" 
d="M1516 504v-29h-672q3 -178 86 -278.5t223 -100.5q175 0 342 144l18 -123q-157 -137 -368 -137q-108 0 -197 44.5t-149 129.5q-188 -174 -398 -174q-136 0 -220.5 70t-84.5 194q0 166 143.5 254t471.5 120v70q0 182 -193 182q-155 0 -334 -86l-18 121q190 84 354 84
q124 0 194.5 -42.5t98.5 -131.5q108 174 315 174q96 0 171 -38t122 -104.5t71 -153.5t24 -189zM1378 582q-11 136 -74.5 217.5t-175.5 81.5q-113 0 -186 -79.5t-92 -219.5h528zM750 248q-39 109 -39 237v29q-138 -15 -233 -39.5t-148.5 -58t-76 -72.5t-22.5 -90
q0 -75 50 -117.5t135 -42.5q167 0 334 154z" />
    <glyph glyph-name="ccedilla" unicode="&#xe7;" horiz-adv-x="952" 
d="M864 88q-139 -108 -327 -108q-192 0 -315.5 135t-123.5 368q0 119 34.5 216t95 160t142 96.5t175.5 33.5q176 0 311 -98l-22 -135q-137 116 -293 116q-136 0 -220.5 -102.5t-84.5 -284.5q0 -180 87 -283.5t226 -103.5q163 0 297 115zM645 -168l-250 -233h-94l172 274z
" />
    <glyph glyph-name="egrave" unicode="&#xe8;" horiz-adv-x="1005" 
d="M905 117q-160 -137 -370 -137q-197 0 -317 131t-120 374q0 230 116.5 367t299.5 137q127 0 217.5 -66t133 -174t42.5 -245v-29h-674q3 -181 83.5 -280t226.5 -99q175 0 342 144zM512 881q-108 0 -181 -77.5t-93 -221.5h530q-9 136 -75 217.5t-181 81.5zM578 1126h-93
l-278 275l176 39z" />
    <glyph glyph-name="eacute" unicode="&#xe9;" horiz-adv-x="1005" 
d="M905 117q-160 -137 -370 -137q-197 0 -317 131t-120 374q0 230 116.5 367t299.5 137q127 0 217.5 -66t133 -174t42.5 -245v-29h-674q3 -181 83.5 -280t226.5 -99q175 0 342 144zM512 881q-108 0 -181 -77.5t-93 -221.5h530q-9 136 -75 217.5t-181 81.5zM831 1401
l-278 -275h-94l198 314z" />
    <glyph glyph-name="ecircumflex" unicode="&#xea;" horiz-adv-x="1005" 
d="M905 117q-160 -137 -370 -137q-197 0 -317 131t-120 374q0 230 116.5 367t299.5 137q127 0 217.5 -66t133 -174t42.5 -245v-29h-674q3 -181 83.5 -280t226.5 -99q175 0 342 144zM512 881q-108 0 -181 -77.5t-93 -221.5h530q-9 136 -75 217.5t-181 81.5zM791 1126h-86
l-189 170l-188 -170h-86l211 297h127z" />
    <glyph glyph-name="edieresis" unicode="&#xeb;" horiz-adv-x="1005" 
d="M905 117q-160 -137 -370 -137q-197 0 -317 131t-120 374q0 230 116.5 367t299.5 137q127 0 217.5 -66t133 -174t42.5 -245v-29h-674q3 -181 83.5 -280t226.5 -99q175 0 342 144zM512 881q-108 0 -181 -77.5t-93 -221.5h530q-9 136 -75 217.5t-181 81.5zM780 1145h-170
v182h170v-182zM426 1145h-168v182h168v-182z" />
    <glyph glyph-name="igrave" unicode="&#xec;" horiz-adv-x="479" 
d="M305 0h-133v969h133v-969zM297 1126h-92l-279 275l176 39z" />
    <glyph glyph-name="iacute" unicode="&#xed;" horiz-adv-x="479" 
d="M553 1401l-279 -275h-94l199 314zM305 0h-133v969h133v-969z" />
    <glyph glyph-name="icircumflex" unicode="&#xee;" horiz-adv-x="479" 
d="M512 1126h-86l-188 170l-189 -170h-86l211 297h127zM305 0h-133v969h133v-969z" />
    <glyph glyph-name="idieresis" unicode="&#xef;" horiz-adv-x="479" 
d="M502 1145h-170v182h170v-182zM147 1145h-167v182h167v-182zM305 0h-133v969h133v-969z" />
    <glyph glyph-name="eth" unicode="&#xf0;" horiz-adv-x="1085" 
d="M514 1057h-125l139 211q-100 56 -221 90l19 112q155 -42 266 -106l76 117l114 -25l-102 -151q291 -230 291 -689q0 -350 -170 -520q-113 -116 -285 -116q-182 0 -300 123t-118 333q0 200 120.5 339.5t293.5 139.5q169 0 311 -114q-42 264 -209 405zM840 604q0 35 -2 51
q-64 69 -145 107.5t-169 38.5q-127 0 -207.5 -102.5t-80.5 -254.5q0 -161 78.5 -255.5t213.5 -94.5q139 0 225.5 136t86.5 374z" />
    <glyph glyph-name="ntilde" unicode="&#xf1;" 
d="M922 0h-136v668q0 96 -45 148t-135 52q-142 0 -313 -168v-700h-135v969h104l23 -144q88 78 172 121t176 43q143 0 216 -77.5t73 -219.5v-692zM846 1350q-15 -102 -55.5 -156.5t-100.5 -54.5q-39 0 -67.5 10.5t-85.5 40.5q-9 5 -24.5 13t-22 11t-17.5 8.5t-16.5 8
t-13.5 5.5t-13 4t-11.5 2t-12.5 1q-49 0 -74 -108l-90 18q15 104 55 158.5t100 54.5q27 0 53 -7.5t42 -15t59 -30.5q45 -23 61 -31t34.5 -14t33.5 -6q27 0 45 25t31 81z" />
    <glyph glyph-name="ograve" unicode="&#xf2;" 
d="M973 483q0 -233 -124.5 -368t-316.5 -135q-191 0 -312.5 134.5t-121.5 368.5q0 235 122.5 370.5t311.5 135.5q194 0 317.5 -135t123.5 -371zM834 483q0 178 -82.5 284.5t-219.5 106.5q-136 0 -216 -104.5t-80 -286.5q0 -176 81.5 -282.5t214.5 -106.5q138 0 220 104.5
t82 284.5zM594 1126h-92l-279 275l176 39z" />
    <glyph glyph-name="oacute" unicode="&#xf3;" 
d="M848 1401l-279 -275h-94l199 314zM973 483q0 -233 -124.5 -368t-316.5 -135q-191 0 -312.5 134.5t-121.5 368.5q0 235 122.5 370.5t311.5 135.5q194 0 317.5 -135t123.5 -371zM834 483q0 178 -82.5 284.5t-219.5 106.5q-136 0 -216 -104.5t-80 -286.5q0 -176 81.5 -282.5
t214.5 -106.5q138 0 220 104.5t82 284.5z" />
    <glyph glyph-name="ocircumflex" unicode="&#xf4;" 
d="M807 1126h-86l-189 170l-188 -170h-86l211 297h127zM973 483q0 -233 -124.5 -368t-316.5 -135q-191 0 -312.5 134.5t-121.5 368.5q0 235 122.5 370.5t311.5 135.5q194 0 317.5 -135t123.5 -371zM834 483q0 178 -82.5 284.5t-219.5 106.5q-136 0 -216 -104.5t-80 -286.5
q0 -176 81.5 -282.5t214.5 -106.5q138 0 220 104.5t82 284.5z" />
    <glyph glyph-name="otilde" unicode="&#xf5;" 
d="M973 483q0 -233 -124.5 -368t-316.5 -135q-191 0 -312.5 134.5t-121.5 368.5q0 235 122.5 370.5t311.5 135.5q194 0 317.5 -135t123.5 -371zM834 483q0 178 -82.5 284.5t-219.5 106.5q-136 0 -216 -104.5t-80 -286.5q0 -176 81.5 -282.5t214.5 -106.5q138 0 220 104.5
t82 284.5zM844 1350q-15 -102 -55.5 -156.5t-100.5 -54.5q-39 0 -67.5 10.5t-85.5 40.5q-8 4 -22.5 11.5t-20 10.5t-16.5 8.5t-15.5 7t-12.5 5t-12.5 5t-10.5 3t-11.5 2t-10.5 0.5q-48 0 -73 -108l-90 18q15 104 55 158.5t100 54.5q27 0 53 -7.5t42 -15t59 -30.5
q45 -23 61 -31t34.5 -14t33.5 -6q27 0 45 25t31 81z" />
    <glyph glyph-name="odieresis" unicode="&#xf6;" 
d="M797 1145h-170v182h170v-182zM442 1145h-168v182h168v-182zM973 483q0 -233 -124.5 -368t-316.5 -135q-191 0 -312.5 134.5t-121.5 368.5q0 235 122.5 370.5t311.5 135.5q194 0 317.5 -135t123.5 -371zM834 483q0 178 -82.5 284.5t-219.5 106.5q-136 0 -216 -104.5
t-80 -286.5q0 -176 81.5 -282.5t214.5 -106.5q138 0 220 104.5t82 284.5z" />
    <glyph glyph-name="divide" unicode="&#xf7;" horiz-adv-x="1167" 
d="M662 977h-156v184h156v-184zM1049 637h-932v111h932v-111zM662 223h-156v185h156v-185z" />
    <glyph glyph-name="oslash" unicode="&#xf8;" 
d="M973 483q0 -233 -124.5 -368t-316.5 -135q-155 0 -264 86l-69 -89l-115 25l111 141q-97 134 -97 340q0 235 122.5 370.5t311.5 135.5q155 0 269 -88l73 92l115 -26l-115 -144q99 -136 99 -340zM532 879q-139 0 -221 -107t-82 -289q0 -143 52 -237l444 557q-79 76 -193 76
zM840 483q0 141 -54 238l-444 -557q80 -74 190 -74q141 0 224.5 106t83.5 287z" />
    <glyph glyph-name="ugrave" unicode="&#xf9;" 
d="M913 0h-104l-23 143q-184 -163 -348 -163q-143 0 -215.5 77.5t-72.5 218.5v693h135v-668q0 -96 45 -147.5t135 -51.5q144 0 313 166v701h135v-969zM592 1122h-92l-279 275l176 39z" />
    <glyph glyph-name="uacute" unicode="&#xfa;" 
d="M844 1397l-279 -275h-94l199 314zM913 0h-104l-23 143q-184 -163 -348 -163q-143 0 -215.5 77.5t-72.5 218.5v693h135v-668q0 -96 45 -147.5t135 -51.5q144 0 313 166v701h135v-969z" />
    <glyph glyph-name="ucircumflex" unicode="&#xfb;" 
d="M805 1122h-86l-189 170l-188 -170h-86l211 297h127zM913 0h-104l-23 143q-184 -163 -348 -163q-143 0 -215.5 77.5t-72.5 218.5v693h135v-668q0 -96 45 -147.5t135 -51.5q144 0 313 166v701h135v-969z" />
    <glyph glyph-name="udieresis" unicode="&#xfc;" 
d="M793 1141h-170v182h170v-182zM438 1141h-168v182h168v-182zM913 0h-104l-23 143q-184 -163 -348 -163q-143 0 -215.5 77.5t-72.5 218.5v693h135v-668q0 -96 45 -147.5t135 -51.5q144 0 313 166v701h135v-969z" />
    <glyph glyph-name="yacute" unicode="&#xfd;" horiz-adv-x="983" 
d="M922 969l-412 -1096q-49 -135 -117.5 -188.5t-173.5 -53.5q-10 0 -59 7l-21 120q46 -8 78 -8q64 0 103.5 32.5t68.5 111.5l41 100l-367 962l134 25l299 -823l284 811h142zM809 1397l-279 -275h-94l199 314z" />
    <glyph glyph-name="thorn" unicode="&#xfe;" horiz-adv-x="1087" 
d="M987 512q0 -129 -35.5 -230.5t-97 -164.5t-140.5 -96t-169 -33q-139 0 -252 47v-387l-135 -23v1821l135 24v-632q136 151 305 151q81 0 150 -29.5t123 -87t85 -150t31 -210.5zM850 506q0 172 -73.5 267t-192.5 95q-83 0 -151.5 -44t-139.5 -132v-532q119 -58 246 -58
q139 0 225 104t86 300z" />
    <glyph glyph-name="ydieresis" unicode="&#xff;" horiz-adv-x="983" 
d="M922 969l-412 -1096q-49 -135 -117.5 -188.5t-173.5 -53.5q-10 0 -59 7l-21 120q46 -8 78 -8q64 0 103.5 32.5t68.5 111.5l41 100l-367 962l134 25l299 -823l284 811h142zM756 1141h-170v182h170v-182zM401 1141h-168v182h168v-182z" />
    <glyph glyph-name="Amacron" unicode="&#x100;" horiz-adv-x="1415" 
d="M80 0l557 1421h145l553 -1405l-139 -30l-180 471h-617l-174 -457h-145zM707 1257l-258 -675h518zM975 1616h-533v115h533v-115z" />
    <glyph glyph-name="amacron" unicode="&#x101;" horiz-adv-x="1001" 
d="M852 0h-102l-23 129q-160 -149 -342 -149q-130 0 -209.5 69t-79.5 195q0 169 146.5 257t476.5 120v63q0 186 -201 186q-155 0 -334 -86l-18 121q194 84 360 84q326 0 326 -299v-690zM719 240v274q-140 -14 -236.5 -38.5t-151 -58.5t-77.5 -74t-23 -91q0 -76 48 -117
t127 -41q76 0 158.5 39t154.5 107zM768 1182h-532v114h532v-114z" />
    <glyph glyph-name="Abreve" unicode="&#x102;" horiz-adv-x="1415" 
d="M80 0l557 1421h145l553 -1405l-139 -30l-180 471h-617l-174 -457h-145zM707 1257l-258 -675h518zM979 1796q-19 -103 -86 -166t-186 -63q-116 0 -184.5 63.5t-84.5 165.5l94 19q17 -62 62.5 -95.5t114.5 -33.5q135 0 174 129z" />
    <glyph glyph-name="abreve" unicode="&#x103;" horiz-adv-x="1001" 
d="M852 0h-102l-23 129q-160 -149 -342 -149q-130 0 -209.5 69t-79.5 195q0 169 146.5 257t476.5 120v63q0 186 -201 186q-155 0 -334 -86l-18 121q194 84 360 84q326 0 326 -299v-690zM719 240v274q-140 -14 -236.5 -38.5t-151 -58.5t-77.5 -74t-23 -91q0 -76 48 -117
t127 -41q76 0 158.5 39t154.5 107zM772 1362q-19 -103 -86 -166t-186 -63q-116 0 -184.5 63.5t-84.5 165.5l95 18q17 -62 62.5 -95.5t113.5 -33.5q135 0 174 129z" />
    <glyph glyph-name="Aogonek" unicode="&#x104;" horiz-adv-x="1415" 
d="M80 0l557 1421h145l553 -1405l-41 -10l-45 -65q-63 -89 -63 -140q0 -69 80 -69q40 0 84 12v-86q-64 -23 -123 -23q-74 0 -114 36t-40 102q0 47 24.5 94t78.5 110l14 21l-174 459h-617l-174 -457h-145zM707 1257l-258 -675h518z" />
    <glyph glyph-name="aogonek" unicode="&#x105;" horiz-adv-x="1001" 
d="M852 0h-18l-41 -59q-34 -49 -49 -80t-15 -60q0 -69 80 -69q41 0 84 12v-86q-64 -23 -123 -23q-74 0 -114 36t-40 102q0 47 24.5 94t78.5 110l29 37l-21 115q-160 -149 -342 -149q-130 0 -209.5 69t-79.5 195q0 169 146.5 257t476.5 120v63q0 186 -201 186
q-155 0 -334 -86l-18 121q194 84 360 84q326 0 326 -299v-690zM719 240v274q-140 -14 -236.5 -38.5t-151 -58.5t-77.5 -74t-23 -91q0 -76 48 -117t127 -41q76 0 158.5 39t154.5 107z" />
    <glyph glyph-name="Cacute" unicode="&#x106;" horiz-adv-x="1306" 
d="M1071 1835l-278 -274h-95l199 313zM1196 115q-84 -64 -197 -103t-233 -39q-287 0 -464 202.5t-177 529.5q0 215 81 382t229.5 260t340.5 93q225 0 398 -121l-23 -143q-185 137 -377 137q-231 0 -367.5 -166.5t-136.5 -437.5q0 -273 136.5 -440t365.5 -167q211 0 404 148z
" />
    <glyph glyph-name="cacute" unicode="&#x107;" horiz-adv-x="952" 
d="M852 1401l-279 -275h-94l199 314zM864 88q-139 -108 -327 -108q-192 0 -315.5 135t-123.5 368q0 119 34.5 216t95 160t142 96.5t175.5 33.5q176 0 311 -98l-22 -135q-137 116 -293 116q-136 0 -220.5 -102.5t-84.5 -284.5q0 -180 87 -283.5t226 -103.5q163 0 297 115z
" />
    <glyph glyph-name="Cdotaccent" unicode="&#x10a;" horiz-adv-x="1306" 
d="M1196 115q-84 -64 -197 -103t-233 -39q-287 0 -464 202.5t-177 529.5q0 215 81 382t229.5 260t340.5 93q225 0 398 -121l-23 -143q-185 137 -377 137q-231 0 -367.5 -166.5t-136.5 -437.5q0 -273 136.5 -440t365.5 -167q211 0 404 148zM844 1575h-172v182h172v-182z" />
    <glyph glyph-name="cdotaccent" unicode="&#x10b;" horiz-adv-x="952" 
d="M864 88q-139 -108 -327 -108q-192 0 -315.5 135t-123.5 368q0 119 34.5 216t95 160t142 96.5t175.5 33.5q176 0 311 -98l-22 -135q-137 116 -293 116q-136 0 -220.5 -102.5t-84.5 -284.5q0 -180 87 -283.5t226 -103.5q163 0 297 115zM627 1141h-172v182h172v-182z" />
    <glyph glyph-name="Ccaron" unicode="&#x10c;" horiz-adv-x="1306" 
d="M483 1858h86l189 -170l188 170h86l-211 -297h-127zM1196 115q-84 -64 -197 -103t-233 -39q-287 0 -464 202.5t-177 529.5q0 215 81 382t229.5 260t340.5 93q225 0 398 -121l-23 -143q-185 137 -377 137q-231 0 -367.5 -166.5t-136.5 -437.5q0 -273 136.5 -440t365.5 -167
q211 0 404 148z" />
    <glyph glyph-name="ccaron" unicode="&#x10d;" horiz-adv-x="952" 
d="M266 1423h86l189 -170l188 170h86l-211 -297h-127zM864 88q-139 -108 -327 -108q-192 0 -315.5 135t-123.5 368q0 119 34.5 216t95 160t142 96.5t175.5 33.5q176 0 311 -98l-22 -135q-137 116 -293 116q-136 0 -220.5 -102.5t-84.5 -284.5q0 -180 87 -283.5t226 -103.5
q163 0 297 115z" />
    <glyph glyph-name="Dcaron" unicode="&#x10e;" horiz-adv-x="1435" 
d="M412 1837h86l188 -170l188 170h87l-211 -297h-127zM1309 709q0 -326 -200.5 -517.5t-541.5 -191.5h-379v1413h385q174 0 313.5 -51t232 -143.5t141.5 -222.5t49 -287zM1163 707q0 187 -74 318.5t-205 196t-309 64.5h-245v-1159h245q275 0 431.5 148t156.5 432z" />
    <glyph glyph-name="dcaron" unicode="&#x10f;" horiz-adv-x="1087" 
d="M1178 1473q41 -77 41 -144q0 -128 -132 -246l-67 15q40 58 57 101.5t17 92.5q0 66 -47 158zM930 0h-103l-24 141q-135 -161 -311 -161q-81 0 -151 29.5t-124.5 86.5t-85.5 149.5t-31 211.5q0 129 36 231t97.5 165.5t140.5 96.5t169 33q145 0 252 -49v512l135 24v-1470z
M795 274v535q-111 57 -248 57t-223 -103.5t-86 -299.5q0 -172 73.5 -267.5t192.5 -95.5q81 0 151 44.5t140 129.5z" />
    <glyph glyph-name="Dcroat" unicode="&#x110;" horiz-adv-x="1464" 
d="M1339 709q0 -326 -200 -517.5t-541 -191.5h-379v678h-164l-20 123h184v612h383q348 0 542.5 -192t194.5 -512zM1194 707q0 279 -159.5 429t-430.5 150h-246v-485h340v-123h-340v-551h248q274 0 431 148t157 432z" />
    <glyph glyph-name="dcroat" unicode="&#x111;" horiz-adv-x="1087" 
d="M930 0h-103l-24 141q-135 -161 -311 -161q-81 0 -151 29.5t-124.5 86.5t-85.5 149.5t-31 211.5q0 129 36 231t97.5 165.5t140.5 96.5t169 33q145 0 252 -49v248h-297l-21 112h318v152l135 24v-176h153v-112h-153v-1182zM795 274v535q-111 57 -248 57t-223 -103.5
t-86 -299.5q0 -172 73.5 -267.5t192.5 -95.5q81 0 151 44.5t140 129.5z" />
    <glyph glyph-name="Emacron" unicode="&#x112;" horiz-adv-x="1038" 
d="M946 0h-758v1413h738v-129h-596v-481h471l20 -127h-491v-547h616v-129zM827 1595h-532v115h532v-115z" />
    <glyph glyph-name="emacron" unicode="&#x113;" horiz-adv-x="1005" 
d="M905 117q-160 -137 -370 -137q-197 0 -317 131t-120 374q0 230 116.5 367t299.5 137q127 0 217.5 -66t133 -174t42.5 -245v-29h-674q3 -181 83.5 -280t226.5 -99q175 0 342 144zM512 881q-108 0 -181 -77.5t-93 -221.5h530q-9 136 -75 217.5t-181 81.5zM784 1182h-532
v114h532v-114z" />
    <glyph glyph-name="Ebreve" unicode="&#x114;" horiz-adv-x="1038" 
d="M946 0h-758v1413h738v-129h-596v-481h471l20 -127h-491v-547h616v-129zM831 1776q-19 -103 -86 -166.5t-186 -63.5q-116 0 -184 63.5t-84 166.5l94 18q17 -62 62.5 -95.5t113.5 -33.5q135 0 174 129z" />
    <glyph glyph-name="ebreve" unicode="&#x115;" horiz-adv-x="1005" 
d="M905 117q-160 -137 -370 -137q-197 0 -317 131t-120 374q0 230 116.5 367t299.5 137q127 0 217.5 -66t133 -174t42.5 -245v-29h-674q3 -181 83.5 -280t226.5 -99q175 0 342 144zM512 881q-108 0 -181 -77.5t-93 -221.5h530q-9 136 -75 217.5t-181 81.5zM788 1362
q-19 -103 -86 -166t-186 -63q-116 0 -184 63t-84 166l94 18q17 -62 62.5 -95.5t113.5 -33.5q135 0 174 129z" />
    <glyph glyph-name="Edotaccent" unicode="&#x116;" horiz-adv-x="1038" 
d="M946 0h-758v1413h738v-129h-596v-481h471l20 -127h-491v-547h616v-129zM647 1554h-172v183h172v-183z" />
    <glyph glyph-name="edotaccent" unicode="&#x117;" horiz-adv-x="1005" 
d="M905 117q-160 -137 -370 -137q-197 0 -317 131t-120 374q0 230 116.5 367t299.5 137q127 0 217.5 -66t133 -174t42.5 -245v-29h-674q3 -181 83.5 -280t226.5 -99q175 0 342 144zM512 881q-108 0 -181 -77.5t-93 -221.5h530q-9 136 -75 217.5t-181 81.5zM604 1141h-172
v182h172v-182z" />
    <glyph glyph-name="Eogonek" unicode="&#x118;" horiz-adv-x="1034" 
d="M946 0h-55l-41 -59q-34 -49 -49 -80t-15 -60q0 -69 80 -69q40 0 84 12v-86q-64 -23 -123 -23q-73 0 -113 36t-40 102q0 48 24 94.5t78 109.5l17 23h-605v1413h738v-129h-596v-481h471l20 -127h-491v-547h616v-129z" />
    <glyph glyph-name="eogonek" unicode="&#x119;" horiz-adv-x="1005" 
d="M514 989q127 0 217.5 -66t133 -174t42.5 -245v-29h-674q3 -179 84 -279t226 -100q175 0 342 144l18 -109l-115 -154q-50 -74 -68 -109t-18 -67q0 -69 80 -69q42 0 82 12v-86q-61 -23 -121 -23q-73 0 -113 36t-40 102q0 47 23.5 92.5t76.5 109.5l25 35q-88 -30 -180 -30
q-197 0 -317 131t-120 374q0 230 116.5 367t299.5 137zM512 881q-110 0 -181.5 -79.5t-90.5 -219.5h528q-9 136 -75 217.5t-181 81.5z" />
    <glyph glyph-name="Ecaron" unicode="&#x11a;" horiz-adv-x="1038" 
d="M287 1837h86l188 -170l189 170h86l-211 -297h-127zM946 0h-758v1413h738v-129h-596v-481h471l20 -127h-491v-547h616v-129z" />
    <glyph glyph-name="ecaron" unicode="&#x11b;" horiz-adv-x="1005" 
d="M905 117q-160 -137 -370 -137q-197 0 -317 131t-120 374q0 230 116.5 367t299.5 137q127 0 217.5 -66t133 -174t42.5 -245v-29h-674q3 -181 83.5 -280t226.5 -99q175 0 342 144zM512 881q-108 0 -181 -77.5t-93 -221.5h530q-9 136 -75 217.5t-181 81.5zM244 1423h86
l188 -170l189 170h86l-211 -297h-127z" />
    <glyph glyph-name="Gbreve" unicode="&#x11e;" horiz-adv-x="1421" 
d="M1253 117q-219 -144 -465 -144q-205 0 -356.5 93t-229 258t-77.5 381t80 382.5t228 259.5t343 93q242 0 418 -123l-25 -146q-176 142 -395 142q-234 0 -369 -165t-135 -441q0 -278 137.5 -442.5t383.5 -164.5q175 0 323 90v422h-340l-20 129h499v-624zM1028 1796
q-19 -103 -86 -166t-186 -63q-116 0 -184.5 63.5t-84.5 165.5l95 19q17 -62 62.5 -95.5t113.5 -33.5q135 0 174 129z" />
    <glyph glyph-name="gbreve" unicode="&#x11f;" horiz-adv-x="1028" 
d="M950 -78q0 -90 -63.5 -157t-167 -100.5t-230.5 -33.5t-225.5 27.5t-157.5 85t-59 139.5q0 143 221 256q-71 45 -71 103q0 70 96 129q-82 41 -130 116t-48 172q0 148 105.5 239t252.5 91q144 0 246 -82l242 78l22 -133l-195 -21q52 -77 52 -172q0 -99 -51 -175.5
t-132.5 -115t-179.5 -38.5q-47 0 -86 8q-61 -34 -61 -70q0 -29 41 -45t176 -41l71 -14q169 -31 250.5 -87t81.5 -159zM494 72q-18 4 -42.5 8t-42.5 8t-34 8q-195 -89 -195 -205q0 -74 86.5 -115.5t231.5 -41.5t234 49t89 123q0 57 -52 90.5t-181 58.5zM707 659
q0 98 -65.5 164t-168.5 66q-101 0 -163 -66.5t-62 -167.5q0 -96 63 -160.5t166 -64.5q104 0 167 64.5t63 164.5zM758 1362q-19 -103 -86.5 -166t-186.5 -63q-116 0 -184 63t-84 166l94 18q17 -62 62.5 -95.5t113.5 -33.5q136 0 175 129z" />
    <glyph glyph-name="Gdotaccent" unicode="&#x120;" horiz-adv-x="1421" 
d="M1253 117q-219 -144 -465 -144q-205 0 -356.5 93t-229 258t-77.5 381t80 382.5t228 259.5t343 93q242 0 418 -123l-25 -146q-176 142 -395 142q-234 0 -369 -165t-135 -441q0 -278 137.5 -442.5t383.5 -164.5q175 0 323 90v422h-340l-20 129h499v-624zM844 1575h-172v182
h172v-182z" />
    <glyph glyph-name="gdotaccent" unicode="&#x121;" horiz-adv-x="1028" 
d="M950 -78q0 -90 -63.5 -157t-167 -100.5t-230.5 -33.5t-225.5 27.5t-157.5 85t-59 139.5q0 143 221 256q-71 45 -71 103q0 70 96 129q-82 41 -130 116t-48 172q0 148 105.5 239t252.5 91q144 0 246 -82l242 78l22 -133l-195 -21q52 -77 52 -172q0 -99 -51 -175.5
t-132.5 -115t-179.5 -38.5q-48 0 -84 8q-63 -38 -63 -70q0 -29 41 -45t176 -41l71 -14q169 -31 250.5 -87t81.5 -159zM494 72q-18 4 -42.5 8t-42.5 8t-34 8q-195 -89 -195 -205q0 -74 86.5 -115.5t231.5 -41.5t234 49t89 123q0 57 -52 90.5t-181 58.5zM707 659
q0 98 -65.5 164t-168.5 66q-101 0 -163 -66.5t-62 -167.5q0 -96 63 -160.5t166 -64.5q104 0 167 64.5t63 164.5zM573 1141h-172v182h172v-182z" />
    <glyph glyph-name="uni0122" unicode="&#x122;" horiz-adv-x="1421" 
d="M651 -184l117 47q92 -74 92 -174q0 -107 -147 -238l-88 17q112 121 112 202q0 38 -19 72t-67 74zM1253 117q-219 -144 -465 -144q-205 0 -356.5 93t-229 258t-77.5 381t80 382.5t228 259.5t343 93q242 0 418 -123l-25 -146q-176 142 -395 142q-234 0 -369 -165t-135 -441
q0 -278 137.5 -442.5t383.5 -164.5q175 0 323 90v422h-340l-20 129h499v-624z" />
    <glyph glyph-name="uni0123" unicode="&#x123;" horiz-adv-x="1028" 
d="M950 -78q0 -90 -63.5 -157t-167 -100.5t-230.5 -33.5t-225.5 27.5t-157.5 85t-59 139.5q0 143 221 256q-71 45 -71 103q0 70 96 129q-82 41 -130 116t-48 172q0 148 105.5 239t252.5 91q144 0 246 -82l242 78l22 -133l-195 -21q52 -77 52 -172q0 -99 -51 -175.5
t-132.5 -115t-179.5 -38.5q-47 0 -86 8q-61 -34 -61 -70q0 -29 41 -45t176 -41l71 -14q169 -31 250.5 -87t81.5 -159zM494 72q-18 4 -42.5 8t-42.5 8t-34 8q-195 -89 -195 -205q0 -74 86.5 -115.5t231.5 -41.5t234 49t89 123q0 57 -52 90.5t-181 58.5zM707 659
q0 98 -65.5 164t-168.5 66q-101 0 -163 -66.5t-62 -167.5q0 -96 63 -160.5t166 -64.5q104 0 167 64.5t63 164.5zM582 1165l-117 -47q-92 74 -92 174q0 107 147 238l88 -17q-112 -121 -112 -202q0 -38 19 -72t67 -74z" />
    <glyph glyph-name="Hbar" unicode="&#x126;" horiz-adv-x="1503" 
d="M1284 0h-141v672h-785v-672h-139v1075h-164l-20 119h184v219h139v-219h785v219h141v-219h174v-119h-174v-1075zM358 797h785v280h-785v-280z" />
    <glyph glyph-name="hbar" unicode="&#x127;" 
d="M602 1182h-309v-351q85 75 167 116.5t173 41.5q142 0 215.5 -77.5t73.5 -217.5v-694h-136v668q0 96 -45 148t-135 52q-142 0 -313 -168v-700h-135v1182h-144l-18 112h162v152l135 24v-176h309v-112z" />
    <glyph glyph-name="Imacron" unicode="&#x12a;" horiz-adv-x="548" 
d="M344 0h-141v1413h141v-1413zM543 1595h-533v115h533v-115z" />
    <glyph glyph-name="imacron" unicode="&#x12b;" horiz-adv-x="479" 
d="M305 0h-133v969h133v-969zM508 1182h-533v114h533v-114z" />
    <glyph glyph-name="Ibreve" unicode="&#x12c;" horiz-adv-x="548" 
d="M344 0h-141v1413h141v-1413zM547 1776q-19 -103 -86.5 -166.5t-186.5 -63.5q-116 0 -184 63.5t-84 166.5l94 18q17 -62 62.5 -95.5t113.5 -33.5q136 0 175 129z" />
    <glyph glyph-name="ibreve" unicode="&#x12d;" horiz-adv-x="479" 
d="M305 0h-133v969h133v-969zM512 1362q-19 -103 -86 -166t-186 -63q-116 0 -184.5 63.5t-84.5 165.5l95 18q17 -62 62.5 -95.5t113.5 -33.5q135 0 174 129z" />
    <glyph glyph-name="Iogonek" unicode="&#x12e;" horiz-adv-x="548" 
d="M344 0h-18l-41 -59q-34 -49 -49 -80t-15 -60q0 -69 80 -69q41 0 84 12v-86q-64 -23 -123 -23q-73 0 -113 36t-40 102q0 48 24.5 94.5t77.5 109.5l16 23h-24v1413h141v-1413z" />
    <glyph glyph-name="iogonek" unicode="&#x12f;" horiz-adv-x="479" 
d="M305 0h-12l-41 -59q-34 -49 -49 -80t-15 -60q0 -69 80 -69q40 0 84 12v-86q-64 -23 -123 -23q-73 0 -113 36t-40 102q0 48 24 94.5t78 109.5l17 23h-23v969h133v-949h2l-2 -4v-16zM336 1298q0 -40 -28 -69t-68 -29t-69.5 29t-29.5 69t29.5 69.5t69.5 29.5
q39 0 67.5 -29.5t28.5 -69.5z" />
    <glyph glyph-name="Idotaccent" unicode="&#x130;" horiz-adv-x="548" 
d="M344 0h-141v1413h141v-1413zM362 1554h-172v183h172v-183z" />
    <glyph glyph-name="dotlessi" unicode="&#x131;" horiz-adv-x="479" 
d="M305 0h-133v969h133v-969z" />
    <glyph glyph-name="uni0136" unicode="&#x136;" horiz-adv-x="1241" 
d="M516 -176l117 47q92 -74 92 -174q0 -107 -147 -238l-89 17q113 122 113 202q0 38 -19 72t-67 74zM1206 18l-159 -32l-717 743v-729h-142v1413h142v-643l655 643h182l-680 -659z" />
    <glyph glyph-name="uni0137" unicode="&#x137;" horiz-adv-x="954" 
d="M383 -180l117 47q92 -74 92 -174q0 -106 -148 -238l-88 17q113 122 113 202q0 38 -19 72t-67 74zM922 12l-148 -26l-481 528v-514h-135v1446l135 24v-917l422 416h174l-453 -432z" />
    <glyph glyph-name="Lacute" unicode="&#x139;" horiz-adv-x="954" 
d="M604 1810l-278 -274h-95l199 313zM895 0h-707v1413h142v-1282h544z" />
    <glyph glyph-name="lacute" unicode="&#x13a;" horiz-adv-x="479" 
d="M561 1839l-278 -274h-95l199 313zM305 0h-133v1446l133 24v-1470z" />
    <glyph glyph-name="uni013B" unicode="&#x13b;" horiz-adv-x="954" 
d="M422 -180l117 47q92 -74 92 -174q0 -106 -148 -238l-88 17q113 122 113 202q0 38 -19 72t-67 74zM895 0h-707v1413h142v-1282h544z" />
    <glyph glyph-name="uni013C" unicode="&#x13c;" horiz-adv-x="479" 
d="M135 -180l117 47q92 -74 92 -174q0 -107 -147 -238l-88 17q112 121 112 202q0 38 -19 72t-67 74zM305 0h-133v1446l133 24v-1470z" />
    <glyph glyph-name="Lcaron" unicode="&#x13d;" horiz-adv-x="954" 
d="M631 1419q41 -77 41 -143q0 -129 -131 -246l-68 14q40 57 57 101t17 94q0 66 -47 158zM895 0h-707v1413h142v-1282h544z" />
    <glyph glyph-name="lcaron" unicode="&#x13e;" horiz-adv-x="479" 
d="M553 1473q41 -77 41 -144q0 -129 -131 -246l-68 15q40 58 57 101.5t17 92.5q0 66 -47 158zM305 0h-133v1446l133 24v-1470z" />
    <glyph glyph-name="Ldot" unicode="&#x13f;" horiz-adv-x="954" 
d="M815 623h-168v180h168v-180zM895 0h-707v1413h142v-1282h544z" />
    <glyph glyph-name="ldot" unicode="&#x140;" horiz-adv-x="561" 
d="M305 0h-133v1446l133 24v-1470zM588 637h-135v180h135v-180z" />
    <glyph glyph-name="Lslash" unicode="&#x141;" horiz-adv-x="985" 
d="M684 825l-326 -180v-516h545l21 -129h-705v567l-164 -92l-20 127l184 100v711h139v-633l326 185v-140z" />
    <glyph glyph-name="lslash" unicode="&#x142;" horiz-adv-x="557" 
d="M344 0h-131v612l-162 -90l-20 125l182 101v698l131 24v-649l174 97v-138l-174 -96v-684z" />
    <glyph glyph-name="Nacute" unicode="&#x143;" horiz-adv-x="1443" 
d="M1038 1804l-278 -274h-94l198 313zM1255 0h-108l-825 1190v-1190h-134v1413h134l800 -1153v1153h133v-1413z" />
    <glyph glyph-name="nacute" unicode="&#x144;" 
d="M848 1401l-279 -275h-94l199 314zM922 0h-136v668q0 96 -45 148t-135 52q-142 0 -313 -168v-700h-135v969h104l23 -144q88 78 172 121t176 43q143 0 216 -77.5t73 -219.5v-692z" />
    <glyph glyph-name="uni0145" unicode="&#x145;" horiz-adv-x="1443" 
d="M621 -176l116 47q92 -74 92 -174q0 -107 -147 -238l-88 17q113 122 113 202q0 38 -19 72t-67 74zM1255 0h-108l-825 1190v-1190h-134v1413h134l800 -1153v1153h133v-1413z" />
    <glyph glyph-name="uni0146" unicode="&#x146;" 
d="M430 -180l117 47q92 -74 92 -174q0 -107 -147 -238l-89 17q113 122 113 202q0 38 -19 72t-67 74zM922 0h-136v668q0 96 -45 148t-135 52q-142 0 -313 -168v-700h-135v969h104l23 -144q88 78 172 121t176 43q143 0 216 -77.5t73 -219.5v-692z" />
    <glyph glyph-name="Ncaron" unicode="&#x147;" horiz-adv-x="1443" 
d="M453 1827h86l188 -170l188 170h86l-210 -297h-127zM1255 0h-108l-825 1190v-1190h-134v1413h134l800 -1153v1153h133v-1413z" />
    <glyph glyph-name="ncaron" unicode="&#x148;" 
d="M262 1423h86l189 -170l188 170h86l-211 -297h-127zM922 0h-136v668q0 96 -45 148t-135 52q-142 0 -313 -168v-700h-135v969h104l23 -144q88 78 172 121t176 43q143 0 216 -77.5t73 -219.5v-692z" />
    <glyph glyph-name="Omacron" unicode="&#x14c;" horiz-adv-x="1525" 
d="M1028 1616h-532v115h532v-115zM1401 709q0 -214 -80.5 -381.5t-226.5 -261t-334 -93.5q-282 0 -458.5 204t-176.5 528q0 161 47 297.5t130.5 233t202.5 150.5t259 54q188 0 333 -92.5t224.5 -258.5t79.5 -380zM1255 705q0 272 -135.5 440t-357.5 168t-357 -167t-135 -437
q0 -272 136 -440.5t358 -168.5t356.5 167.5t134.5 437.5z" />
    <glyph glyph-name="omacron" unicode="&#x14d;" 
d="M801 1182h-533v114h533v-114zM973 483q0 -233 -124.5 -368t-316.5 -135q-191 0 -312.5 134.5t-121.5 368.5q0 235 122.5 370.5t311.5 135.5q194 0 317.5 -135t123.5 -371zM834 483q0 178 -82.5 284.5t-219.5 106.5q-136 0 -216 -104.5t-80 -286.5q0 -176 81.5 -282.5
t214.5 -106.5q138 0 220 104.5t82 284.5z" />
    <glyph glyph-name="Obreve" unicode="&#x14e;" horiz-adv-x="1525" 
d="M1401 709q0 -214 -80.5 -381.5t-226.5 -261t-334 -93.5q-282 0 -458.5 204t-176.5 528q0 161 47 297.5t130.5 233t202.5 150.5t259 54q188 0 333 -92.5t224.5 -258.5t79.5 -380zM1255 705q0 272 -135.5 440t-357.5 168t-357 -167t-135 -437q0 -272 136 -440.5t358 -168.5
t356.5 167.5t134.5 437.5zM1032 1796q-19 -103 -86 -166t-186 -63q-116 0 -184 63t-84 166l94 19q17 -62 62.5 -95.5t113.5 -33.5q135 0 174 129z" />
    <glyph glyph-name="obreve" unicode="&#x14f;" 
d="M973 483q0 -233 -124.5 -368t-316.5 -135q-191 0 -312.5 134.5t-121.5 368.5q0 235 122.5 370.5t311.5 135.5q194 0 317.5 -135t123.5 -371zM834 483q0 178 -82.5 284.5t-219.5 106.5q-136 0 -216 -104.5t-80 -286.5q0 -176 81.5 -282.5t214.5 -106.5q138 0 220 104.5
t82 284.5zM805 1362q-19 -103 -86.5 -166t-186.5 -63q-116 0 -184 63t-84 166l94 18q17 -62 62.5 -95.5t114.5 -33.5q135 0 174 129z" />
    <glyph glyph-name="Ohungarumlaut" unicode="&#x150;" horiz-adv-x="1525" 
d="M1219 1841l-275 -272h-82l195 311zM891 1841l-275 -272h-84l197 311zM1401 709q0 -214 -80.5 -381.5t-226.5 -261t-334 -93.5q-282 0 -458.5 204t-176.5 528q0 161 47 297.5t130.5 233t202.5 150.5t259 54q188 0 333 -92.5t224.5 -258.5t79.5 -380zM1255 705
q0 272 -135.5 440t-357.5 168t-357 -167t-135 -437q0 -272 136 -440.5t358 -168.5t356.5 167.5t134.5 437.5z" />
    <glyph glyph-name="ohungarumlaut" unicode="&#x151;" 
d="M991 1407l-274 -272h-82l194 311zM664 1407l-275 -272h-84l197 311zM973 483q0 -233 -124.5 -368t-316.5 -135q-191 0 -312.5 134.5t-121.5 368.5q0 235 122.5 370.5t311.5 135.5q194 0 317.5 -135t123.5 -371zM834 483q0 178 -82.5 284.5t-219.5 106.5
q-136 0 -216 -104.5t-80 -286.5q0 -176 81.5 -282.5t214.5 -106.5q138 0 220 104.5t82 284.5z" />
    <glyph glyph-name="OE" unicode="&#x152;" horiz-adv-x="1796" 
d="M1702 0h-848q-344 0 -538.5 193t-194.5 512q0 326 200 517t541 191h819v-127h-589v-483h467l18 -127h-485v-549h610v-127zM950 127v1159h-98q-274 0 -431 -147.5t-157 -431.5q0 -278 160 -429t430 -151h96z" />
    <glyph glyph-name="oe" unicode="&#x153;" horiz-adv-x="1742" 
d="M1640 504v-29h-671q3 -178 85.5 -278.5t223.5 -100.5q175 0 342 144l18 -123q-160 -137 -368 -137q-130 0 -226 62t-143 175q-52 -114 -147 -175.5t-224 -61.5q-190 0 -311 134.5t-121 368.5q0 235 122 370.5t310 135.5q132 0 228.5 -62.5t144.5 -174.5
q48 112 138.5 174.5t213.5 62.5q126 0 214.5 -66.5t129.5 -173.5t41 -245zM1503 582q-11 136 -74.5 217.5t-175.5 81.5q-113 0 -186 -79.5t-92 -219.5h528zM836 483q0 172 -81.5 281.5t-224.5 109.5q-139 0 -216.5 -107.5t-77.5 -283.5q0 -172 78 -280.5t216 -108.5
q145 0 225.5 106.5t80.5 282.5z" />
    <glyph glyph-name="Racute" unicode="&#x154;" horiz-adv-x="1161" 
d="M866 1815l-278 -275h-94l198 313zM1114 16l-147 -30l-451 630h-186v-616h-142v1413h359q211 0 332.5 -103.5t121.5 -285.5q0 -157 -91.5 -256.5t-237.5 -132.5zM858 1016q0 129 -81.5 200.5t-237.5 71.5h-209v-551h184q160 0 252 73.5t92 205.5z" />
    <glyph glyph-name="racute" unicode="&#x155;" horiz-adv-x="704" 
d="M678 1401l-279 -275h-94l199 314zM655 862q-115 -7 -212.5 -79.5t-149.5 -174.5v-608h-135v969h100l31 -199q141 214 344 219z" />
    <glyph glyph-name="uni0156" unicode="&#x156;" horiz-adv-x="1161" 
d="M477 -176l117 47q92 -74 92 -174q0 -107 -147 -238l-88 17q112 121 112 202q0 38 -19 72t-67 74zM1114 16l-147 -30l-451 630h-186v-616h-142v1413h359q211 0 332.5 -103.5t121.5 -285.5q0 -157 -91.5 -256.5t-237.5 -132.5zM858 1016q0 129 -81.5 200.5t-237.5 71.5
h-209v-551h184q160 0 252 73.5t92 205.5z" />
    <glyph glyph-name="uni0157" unicode="&#x157;" horiz-adv-x="704" 
d="M147 -180l117 47q92 -74 92 -174q0 -107 -147 -238l-88 17q112 121 112 202q0 38 -19 72t-67 74zM655 862q-115 -7 -212.5 -79.5t-149.5 -174.5v-608h-135v969h100l31 -199q141 214 344 219z" />
    <glyph glyph-name="Rcaron" unicode="&#x158;" horiz-adv-x="1161" 
d="M279 1837h86l188 -170l188 170h86l-211 -297h-127zM1114 16l-147 -30l-451 630h-186v-616h-142v1413h359q211 0 332.5 -103.5t121.5 -285.5q0 -157 -91.5 -256.5t-237.5 -132.5zM858 1016q0 129 -81.5 200.5t-237.5 71.5h-209v-551h184q160 0 252 73.5t92 205.5z" />
    <glyph glyph-name="rcaron" unicode="&#x159;" horiz-adv-x="704" 
d="M92 1423h86l189 -170l188 170h86l-211 -297h-127zM655 862q-115 -7 -212.5 -79.5t-149.5 -174.5v-608h-135v969h100l31 -199q141 214 344 219z" />
    <glyph glyph-name="Sacute" unicode="&#x15a;" horiz-adv-x="1048" 
d="M852 1835l-279 -274h-94l199 313zM938 373q0 -178 -124 -283.5t-314 -105.5q-206 0 -375 88l20 143q71 -46 166 -76t195 -30q128 0 209.5 68t81.5 185q0 104 -61.5 168.5t-223.5 135.5q-209 92 -289 177t-80 230q0 158 115 257.5t291 99.5q184 0 311 -74l-20 -142
q-137 91 -297 91q-120 0 -189 -64t-69 -160q0 -94 59.5 -152.5t224.5 -131.5q203 -89 286 -181t83 -243z" />
    <glyph glyph-name="sacute" unicode="&#x15b;" horiz-adv-x="897" 
d="M770 1401l-278 -275h-95l199 314zM801 262q0 -131 -96.5 -205.5t-264.5 -74.5q-92 0 -186.5 25t-161.5 63l23 131q166 -105 338 -105q102 0 160.5 41.5t58.5 114.5q0 72 -52.5 112t-197.5 78q-166 42 -236.5 105t-70.5 180q0 115 90 188.5t239 73.5q158 0 301 -65
l-22 -129q-140 75 -283 75q-96 0 -146 -37.5t-50 -99.5q0 -60 47 -96t170 -68q180 -48 260 -115.5t80 -191.5z" />
    <glyph glyph-name="Scedilla" unicode="&#x15e;" horiz-adv-x="1048" 
d="M938 373q0 -178 -124 -283.5t-314 -105.5q-206 0 -375 88l20 143q71 -46 166 -76t195 -30q128 0 209.5 68t81.5 185q0 104 -61.5 168.5t-223.5 135.5q-209 92 -289 177t-80 230q0 158 115 257.5t291 99.5q184 0 311 -74l-20 -142q-137 91 -297 91q-120 0 -189 -64
t-69 -160q0 -94 59.5 -152.5t224.5 -131.5q203 -89 286 -181t83 -243zM645 -172l-250 -234h-94l172 275z" />
    <glyph glyph-name="scedilla" unicode="&#x15f;" horiz-adv-x="897" 
d="M801 262q0 -131 -96.5 -205.5t-264.5 -74.5q-92 0 -186.5 25t-161.5 63l23 131q166 -105 338 -105q102 0 160.5 41.5t58.5 114.5q0 72 -52.5 112t-197.5 78q-166 42 -236.5 105t-70.5 180q0 115 90 188.5t239 73.5q158 0 301 -65l-22 -129q-140 75 -283 75
q-96 0 -146 -37.5t-50 -99.5q0 -60 47 -96t170 -68q180 -48 260 -115.5t80 -191.5zM563 -168l-250 -233h-94l172 274z" />
    <glyph glyph-name="Scaron" unicode="&#x160;" horiz-adv-x="1048" 
d="M264 1858h86l189 -170l188 170h86l-211 -297h-127zM938 373q0 -178 -124 -283.5t-314 -105.5q-206 0 -375 88l20 143q71 -46 166 -76t195 -30q128 0 209.5 68t81.5 185q0 104 -61.5 168.5t-223.5 135.5q-209 92 -289 177t-80 230q0 158 115 257.5t291 99.5q184 0 311 -74
l-20 -142q-137 91 -297 91q-120 0 -189 -64t-69 -160q0 -94 59.5 -152.5t224.5 -131.5q203 -89 286 -181t83 -243z" />
    <glyph glyph-name="scaron" unicode="&#x161;" horiz-adv-x="897" 
d="M184 1423h86l189 -170l188 170h86l-211 -297h-127zM801 262q0 -131 -96.5 -205.5t-264.5 -74.5q-92 0 -186.5 25t-161.5 63l23 131q166 -105 338 -105q102 0 160.5 41.5t58.5 114.5q0 72 -52.5 112t-197.5 78q-166 42 -236.5 105t-70.5 180q0 115 90 188.5t239 73.5
q158 0 301 -65l-22 -129q-140 75 -283 75q-96 0 -146 -37.5t-50 -99.5q0 -60 47 -96t170 -68q180 -48 260 -115.5t80 -191.5z" />
    <glyph glyph-name="uni0162" unicode="&#x162;" horiz-adv-x="1185" 
d="M494 -180l116 47q92 -74 92 -174q0 -107 -147 -238l-88 17q113 122 113 202q0 38 -19 72t-67 74zM1126 1284h-462v-1284h-142v1284h-454v129h1040z" />
    <glyph glyph-name="uni0163" unicode="&#x163;" horiz-adv-x="675" 
d="M283 -180l116 47q93 -75 93 -174q0 -106 -148 -238l-88 17q113 122 113 202q0 38 -19 72t-67 74zM592 0q-58 -16 -135 -16q-121 0 -186.5 55t-65.5 182v633h-150v115h150v336l133 22v-358h223l19 -115h-242v-610q0 -75 33 -108.5t110 -33.5q27 0 90 11z" />
    <glyph glyph-name="Tcaron" unicode="&#x164;" horiz-adv-x="1185" 
d="M326 1837h86l188 -170l188 170h86l-210 -297h-127zM1126 1284h-462v-1284h-142v1284h-454v129h1040z" />
    <glyph glyph-name="tcaron" unicode="&#x165;" horiz-adv-x="675" 
d="M604 1503q41 -77 41 -143q0 -129 -131 -246l-68 14q40 57 57 101t17 94q0 66 -47 158zM592 0q-58 -16 -135 -16q-121 0 -186.5 55t-65.5 182v633h-150v115h150v336l133 22v-358h223l19 -115h-242v-610q0 -75 33 -108.5t110 -33.5q27 0 90 11z" />
    <glyph glyph-name="Umacron" unicode="&#x16a;" horiz-adv-x="1394" 
d="M1229 539q0 -258 -143.5 -410t-391.5 -152q-246 0 -387 150t-141 401v885h141v-866q0 -203 99.5 -323t289.5 -120q188 0 289.5 115.5t101.5 319.5v874h142v-874zM963 1585h-533v115h533v-115z" />
    <glyph glyph-name="umacron" unicode="&#x16b;" 
d="M913 0h-104l-23 143q-184 -163 -348 -163q-143 0 -215.5 77.5t-72.5 218.5v693h135v-668q0 -96 45 -147.5t135 -51.5q144 0 313 166v701h135v-969zM799 1178h-533v114h533v-114z" />
    <glyph glyph-name="Ubreve" unicode="&#x16c;" horiz-adv-x="1394" 
d="M1229 539q0 -258 -143.5 -410t-391.5 -152q-246 0 -387 150t-141 401v885h141v-866q0 -203 99.5 -323t289.5 -120q188 0 289.5 115.5t101.5 319.5v874h142v-874zM967 1751q-19 -103 -86.5 -166t-186.5 -63q-116 0 -184 63t-84 166l94 18q17 -62 62.5 -95.5t113.5 -33.5
q135 0 174 129z" />
    <glyph glyph-name="ubreve" unicode="&#x16d;" 
d="M913 0h-104l-23 143q-184 -163 -348 -163q-143 0 -215.5 77.5t-72.5 218.5v693h135v-668q0 -96 45 -147.5t135 -51.5q144 0 313 166v701h135v-969zM803 1358q-19 -103 -86.5 -166.5t-186.5 -63.5q-116 0 -184 63.5t-84 166.5l94 18q17 -62 62.5 -95.5t113.5 -33.5
q136 0 175 129z" />
    <glyph glyph-name="Uring" unicode="&#x16e;" horiz-adv-x="1394" 
d="M897 1698q0 -86 -57 -141.5t-144 -55.5t-143.5 55.5t-56.5 141.5q0 85 57 144t143 59t143.5 -59t57.5 -144zM815 1698q0 54 -33.5 90.5t-85.5 36.5q-51 0 -86 -36.5t-35 -90.5t34.5 -88.5t86.5 -34.5t85.5 34.5t33.5 88.5zM1229 539q0 -258 -143.5 -410t-391.5 -152
q-246 0 -387 150t-141 401v885h141v-866q0 -203 99.5 -323t289.5 -120q188 0 289.5 115.5t101.5 319.5v874h142v-874z" />
    <glyph glyph-name="uring" unicode="&#x16f;" 
d="M731 1315q0 -86 -57 -141.5t-144 -55.5t-143.5 55.5t-56.5 141.5q0 85 57 144t143 59t143.5 -59t57.5 -144zM649 1315q0 54 -33.5 90.5t-85.5 36.5q-51 0 -85.5 -36.5t-34.5 -90.5t34.5 -88.5t85.5 -34.5q52 0 85.5 34.5t33.5 88.5zM913 0h-104l-23 143
q-184 -163 -348 -163q-143 0 -215.5 77.5t-72.5 218.5v693h135v-668q0 -96 45 -147.5t135 -51.5q144 0 313 166v701h135v-969z" />
    <glyph glyph-name="Uhungarumlaut" unicode="&#x170;" horiz-adv-x="1394" 
d="M1229 539q0 -258 -143.5 -410t-391.5 -152q-246 0 -387 150t-141 401v885h141v-866q0 -203 99.5 -323t289.5 -120q188 0 289.5 115.5t101.5 319.5v874h142v-874zM1151 1810l-274 -272h-82l194 311zM823 1810l-274 -272h-84l197 311z" />
    <glyph glyph-name="uhungarumlaut" unicode="&#x171;" 
d="M913 0h-104l-23 143q-184 -163 -348 -163q-143 0 -215.5 77.5t-72.5 218.5v693h135v-668q0 -96 45 -147.5t135 -51.5q144 0 313 166v701h135v-969zM987 1403l-274 -273h-82l194 312zM659 1403l-274 -273h-84l197 312z" />
    <glyph glyph-name="Uogonek" unicode="&#x172;" horiz-adv-x="1394" 
d="M1229 539q0 -242 -126 -390t-347 -167l-27 -41q-63 -89 -63 -140q0 -69 79 -69q41 0 84 12v-86q-64 -23 -122 -23q-74 0 -114 36t-40 102q0 48 24 94.5t78 109.5v3q-230 12 -359.5 160t-129.5 388v885h141v-866q0 -203 99.5 -323t289.5 -120q188 0 289.5 115.5
t101.5 319.5v874h142v-874z" />
    <glyph glyph-name="uogonek" unicode="&#x173;" 
d="M913 0h-18l-41 -59q-63 -89 -63 -140q0 -69 79 -69q40 0 84 12v-86q-64 -23 -123 -23q-73 0 -113 36t-40 102q0 48 24.5 94.5t77.5 109.5l27 35l-21 131q-184 -163 -348 -163q-143 0 -215.5 77.5t-72.5 218.5v693h135v-668q0 -96 45 -147.5t135 -51.5q144 0 313 166v701
h135v-969z" />
    <glyph glyph-name="Wcircumflex" unicode="&#x174;" horiz-adv-x="2101" 
d="M1325 1534h-86l-188 170l-189 -170h-86l211 297h127zM2007 1413l-426 -1417h-123l-409 1223l-408 -1223h-119l-424 1401l140 30l352 -1210l389 1196h145l394 -1196l346 1196h143z" />
    <glyph glyph-name="wcircumflex" unicode="&#x175;" horiz-adv-x="1490" 
d="M1020 1116h-86l-189 170l-188 -170h-86l211 297h127zM1425 969l-321 -977h-119l-242 794l-239 -794h-117l-321 969l131 24l249 -813l242 801h117l244 -801l239 797h137z" />
    <glyph glyph-name="Ycircumflex" unicode="&#x176;" horiz-adv-x="1286" 
d="M1219 1413l-508 -827v-586h-142v586l-499 813l145 28l428 -714l416 700h160zM915 1530h-86l-188 170l-188 -170h-86l211 297h127z" />
    <glyph glyph-name="ycircumflex" unicode="&#x177;" horiz-adv-x="983" 
d="M922 969l-412 -1096q-49 -135 -117.5 -188.5t-173.5 -53.5q-10 0 -59 7l-21 120q46 -8 78 -8q64 0 103.5 32.5t68.5 111.5l41 100l-367 962l134 25l299 -823l284 811h142zM768 1122h-86l-188 170l-189 -170h-86l211 297h127z" />
    <glyph glyph-name="Ydieresis" unicode="&#x178;" horiz-adv-x="1286" 
d="M1219 1413l-508 -827v-586h-142v586l-499 813l145 28l428 -714l416 700h160zM905 1548h-170v183h170v-183zM551 1548h-168v183h168v-183z" />
    <glyph glyph-name="Zacute" unicode="&#x179;" horiz-adv-x="1224" 
d="M930 1815l-279 -275h-94l199 313zM1126 0h-1020v102l836 1188h-776l-19 123h965v-102l-833 -1188h829z" />
    <glyph glyph-name="zacute" unicode="&#x17a;" horiz-adv-x="919" 
d="M772 1401l-278 -275h-95l199 314zM834 0h-750v104l578 752h-529l-18 113h702v-105l-577 -751h575z" />
    <glyph glyph-name="Zdotaccent" unicode="&#x17b;" horiz-adv-x="1224" 
d="M1126 0h-1020v102l836 1188h-776l-19 123h965v-102l-833 -1188h829zM705 1554h-173v183h173v-183z" />
    <glyph glyph-name="zdotaccent" unicode="&#x17c;" horiz-adv-x="919" 
d="M834 0h-750v104l578 752h-529l-18 113h702v-105l-577 -751h575zM547 1141h-172v182h172v-182z" />
    <glyph glyph-name="Zcaron" unicode="&#x17d;" horiz-adv-x="1224" 
d="M344 1837h86l188 -170l189 170h86l-211 -297h-127zM1126 0h-1020v102l836 1188h-776l-19 123h965v-102l-833 -1188h829z" />
    <glyph glyph-name="zcaron" unicode="&#x17e;" horiz-adv-x="919" 
d="M186 1423h86l189 -170l188 170h86l-211 -297h-127zM834 0h-750v104l578 752h-529l-18 113h702v-105l-577 -751h575z" />
    <glyph glyph-name="uni018F" unicode="&#x18f;" horiz-adv-x="1409" 
d="M664 1313q-232 0 -463 -156l-21 137q117 72 231.5 109t256.5 37q131 0 244 -50t195.5 -141.5t129.5 -229t47 -304.5q0 -166 -46 -305.5t-126.5 -235t-190.5 -148.5t-237 -53q-252 0 -401.5 192t-149.5 513v106h1006q-19 244 -148.5 386.5t-326.5 142.5zM690 98
q185 0 310.5 150.5t138.5 408.5h-860q2 -262 108 -410.5t303 -148.5z" />
    <glyph glyph-name="florin" unicode="&#x192;" horiz-adv-x="780" 
d="M637 928v-115h-227l-129 -813h-131l126 813h-139l19 115h139l33 200q23 143 96 208t209 65q28 0 88 -6v-123q-50 8 -90 8q-78 0 -117.5 -39.5t-54.5 -130.5l-31 -182h209z" />
    <glyph glyph-name="Aringacute" unicode="&#x1fa;" horiz-adv-x="1415" 
d="M909 1499q0 -54 -25 -98.5t-67 -69.5l518 -1315l-137 -30l-182 471h-619l-174 -457h-143l520 1329q-94 58 -94 170q0 85 58.5 144t144.5 59t143 -59t57 -144zM707 1257l-261 -675h521zM827 1499q0 54 -33.5 90.5t-84.5 36.5q-52 0 -86.5 -36.5t-34.5 -90.5t34.5 -89.5
t86.5 -35.5q51 0 84.5 35.5t33.5 89.5zM1008 2034l-279 -275h-94l199 314z" />
    <glyph glyph-name="aringacute" unicode="&#x1fb;" horiz-adv-x="1001" 
d="M852 0h-102l-23 129q-160 -149 -342 -149q-130 0 -209.5 69t-79.5 195q0 169 146.5 257t476.5 120v63q0 186 -201 186q-155 0 -334 -86l-18 121q194 84 360 84q326 0 326 -299v-690zM719 240v274q-140 -14 -236.5 -38.5t-151 -58.5t-77.5 -74t-23 -91q0 -76 48 -117
t127 -41q76 0 158.5 39t154.5 107zM807 1868l-279 -275h-94l199 314zM700 1319q0 -86 -56.5 -141.5t-143.5 -55.5t-144 55.5t-57 141.5q0 85 57.5 144t143.5 59t143 -59t57 -144zM618 1319q0 55 -33 91t-85 36q-51 0 -86 -36.5t-35 -90.5q0 -53 34.5 -88t86.5 -35t85 34.5
t33 88.5z" />
    <glyph glyph-name="AEacute" unicode="&#x1fc;" horiz-adv-x="1787" 
d="M20 0l840 1413h813v-127h-596v-483h473l19 -127h-492v-549h617v-127h-754v457h-498l-268 -457h-154zM514 580h426v718zM1380 1815l-278 -275h-94l198 313z" />
    <glyph glyph-name="aeacute" unicode="&#x1fd;" horiz-adv-x="1617" 
d="M1118 1401l-278 -275h-95l199 314zM1516 504v-29h-672q3 -178 86 -278.5t223 -100.5q175 0 342 144l18 -123q-157 -137 -368 -137q-108 0 -197 44.5t-149 129.5q-188 -174 -398 -174q-136 0 -220.5 70t-84.5 194q0 166 143.5 254t471.5 120v70q0 182 -193 182
q-155 0 -334 -86l-18 121q190 84 354 84q124 0 194.5 -42.5t98.5 -131.5q108 174 315 174q96 0 171 -38t122 -104.5t71 -153.5t24 -189zM1378 582q-11 136 -74.5 217.5t-175.5 81.5q-113 0 -186 -79.5t-92 -219.5h528zM750 248q-39 109 -39 237v29q-138 -15 -233 -39.5
t-148.5 -58t-76 -72.5t-22.5 -90q0 -75 50 -117.5t135 -42.5q167 0 334 154z" />
    <glyph glyph-name="Oslashacute" unicode="&#x1fe;" horiz-adv-x="1525" 
d="M1401 709q0 -214 -80.5 -381.5t-226.5 -261t-334 -93.5q-237 0 -404 148l-114 -137l-125 26l159 195q-151 200 -151 500q0 161 47 297.5t130.5 233t202.5 150.5t259 54q238 0 405 -148l113 138l127 -27l-162 -195q154 -200 154 -499zM762 1315q-223 0 -359.5 -167.5
t-136.5 -438.5q0 -242 101 -398l718 877q-130 127 -323 127zM1260 705q0 236 -103 395l-719 -877q131 -125 326 -125q223 0 359.5 168t136.5 439zM1075 1835l-278 -274h-95l199 313z" />
    <glyph glyph-name="oslashacute" unicode="&#x1ff;" 
d="M973 483q0 -233 -124.5 -368t-316.5 -135q-155 0 -264 86l-69 -89l-115 25l111 141q-97 134 -97 340q0 235 122.5 370.5t311.5 135.5q155 0 269 -88l73 92l115 -26l-115 -144q99 -136 99 -340zM532 879q-139 0 -221 -107t-82 -289q0 -143 52 -237l444 557q-79 76 -193 76
zM840 483q0 141 -54 238l-444 -557q80 -74 190 -74q141 0 224.5 106t83.5 287zM848 1401l-279 -275h-94l199 314z" />
    <glyph glyph-name="uni0218" unicode="&#x218;" horiz-adv-x="1048" 
d="M432 -184l117 47q92 -74 92 -174q0 -107 -147 -238l-88 17q112 121 112 202q0 38 -19 72t-67 74zM938 373q0 -178 -124 -283.5t-314 -105.5q-206 0 -375 88l20 143q71 -46 166 -76t195 -30q128 0 209.5 68t81.5 185q0 104 -61.5 168.5t-223.5 135.5q-209 92 -289 177
t-80 230q0 158 115 257.5t291 99.5q184 0 311 -74l-20 -142q-137 91 -297 91q-120 0 -189 -64t-69 -160q0 -94 59.5 -152.5t224.5 -131.5q203 -89 286 -181t83 -243z" />
    <glyph glyph-name="uni0219" unicode="&#x219;" horiz-adv-x="897" 
d="M350 -180l117 47q92 -74 92 -174q0 -107 -147 -238l-88 17q112 121 112 202q0 38 -19 72t-67 74zM801 262q0 -131 -96.5 -205.5t-264.5 -74.5q-92 0 -186.5 25t-161.5 63l23 131q166 -105 338 -105q102 0 160.5 41.5t58.5 114.5q0 72 -52.5 112t-197.5 78
q-166 42 -236.5 105t-70.5 180q0 115 90 188.5t239 73.5q158 0 301 -65l-22 -129q-140 75 -283 75q-96 0 -146 -37.5t-50 -99.5q0 -60 47 -96t170 -68q180 -48 260 -115.5t80 -191.5z" />
    <glyph glyph-name="circumflex" unicode="&#x2c6;" horiz-adv-x="933" 
d="M739 1126h-86l-188 170l-189 -170h-86l211 297h127z" />
    <glyph glyph-name="caron" unicode="&#x2c7;" horiz-adv-x="933" 
d="M195 1423h86l188 -170l188 170h86l-211 -297h-126z" />
    <glyph glyph-name="breve" unicode="&#x2d8;" horiz-adv-x="933" 
d="M737 1362q-19 -103 -86 -166t-186 -63q-116 0 -184 63t-84 166l94 18q17 -62 62.5 -95.5t113.5 -33.5q135 0 174 129z" />
    <glyph glyph-name="dotaccent" unicode="&#x2d9;" horiz-adv-x="933" 
d="M553 1141h-172v182h172v-182z" />
    <glyph glyph-name="ring" unicode="&#x2da;" horiz-adv-x="933" 
d="M668 1319q0 -86 -57 -141.5t-144 -55.5t-144 55.5t-57 141.5q0 85 57.5 144t143.5 59t143.5 -59t57.5 -144zM586 1319q0 54 -33.5 90.5t-85.5 36.5q-51 0 -86 -36.5t-35 -90.5q0 -53 35 -88t86 -35q52 0 85.5 34.5t33.5 88.5z" />
    <glyph glyph-name="ogonek" unicode="&#x2db;" horiz-adv-x="933" 
d="M485 59l66 -39l-55 -79q-34 -49 -49 -80t-15 -60q0 -69 80 -69q40 0 84 12v-86q-64 -23 -123 -23q-74 0 -114 36t-40 102q0 47 24.5 94t78.5 110z" />
    <glyph glyph-name="tilde" unicode="&#x2dc;" horiz-adv-x="933" 
d="M768 1350q-15 -102 -55.5 -156.5t-100.5 -54.5q-39 0 -67.5 10.5t-85.5 40.5q-9 5 -24.5 13t-22 11t-17.5 8.5t-16.5 8t-13.5 5.5t-13 4t-11.5 2t-12.5 1q-49 0 -74 -108l-90 18q15 104 55 158.5t100 54.5q27 0 53 -7.5t42 -15t59 -30.5q45 -23 61 -31t34.5 -14t33.5 -6
q27 0 45 25t31 81z" />
    <glyph glyph-name="hungarumlaut" unicode="&#x2dd;" horiz-adv-x="933" 
d="M805 1407l-275 -272h-81l194 311zM477 1407l-274 -272h-84l196 311z" />
    <glyph glyph-name="Alphatonos" unicode="&#x386;" horiz-adv-x="1415" 
d="M80 0l557 1421h145l553 -1405l-139 -30l-180 471h-617l-174 -457h-145zM707 1257l-258 -675h518zM326 1413l-113 -346h-80l33 346h160z" />
    <glyph glyph-name="Epsilontonos" unicode="&#x388;" horiz-adv-x="1034" 
d="M86 1413l-113 -346h-79l32 346h160zM946 0h-758v1413h738v-129h-596v-481h471l20 -127h-491v-547h616v-129z" />
    <glyph glyph-name="Etatonos" unicode="&#x389;" horiz-adv-x="1443" 
d="M1255 0h-141v676h-784v-676h-142v1413h142v-610h784v610h141v-1413zM86 1413l-113 -346h-79l32 346h160z" />
    <glyph glyph-name="Iotatonos" unicode="&#x38a;" horiz-adv-x="548" 
d="M344 0h-141v1413h141v-1413zM94 1413l-112 -346h-80l32 346h160z" />
    <glyph glyph-name="Omicrontonos" unicode="&#x38c;" horiz-adv-x="1525" 
d="M147 1413l-112 -346h-80l33 346h159zM1401 709q0 -214 -80.5 -381.5t-226.5 -261t-334 -93.5q-282 0 -458.5 204t-176.5 528q0 161 47 297.5t130.5 233t202.5 150.5t259 54q188 0 333 -92.5t224.5 -258.5t79.5 -380zM1255 705q0 272 -135.5 440t-357.5 168t-357 -167
t-135 -437q0 -272 136 -440.5t358 -168.5t356.5 167.5t134.5 437.5z" />
    <glyph glyph-name="Upsilontonos" unicode="&#x38e;" horiz-adv-x="1286" 
d="M1219 1413l-508 -827v-586h-142v586l-499 813l145 28l428 -714l416 700h160zM25 1413l-113 -346h-80l33 346h160z" />
    <glyph glyph-name="Omegatonos" unicode="&#x38f;" horiz-adv-x="1523" 
d="M156 125h327l-47 43q-146 132 -225.5 282t-79.5 351q0 177 76 321.5t221.5 231t333.5 86.5q191 0 336.5 -86.5t220 -230.5t74.5 -322q0 -105 -23.5 -197.5t-68 -170t-96.5 -139t-122 -126.5l-47 -43h332v-125h-485l-17 119l109 104q132 125 201 259.5t69 320.5
q-1 142 -58 256.5t-168 184t-257 69.5q-147 0 -258.5 -69t-168 -183.5t-56.5 -257.5q0 -184 68 -317.5t202 -262.5l108 -104l-16 -119h-485v125zM125 1413l-113 -346h-80l33 346h160z" />
    <glyph glyph-name="iotadieresistonos" unicode="&#x390;" horiz-adv-x="522" 
d="M553 1145h-162v182h162v-182zM74 1145h-160v182h160v-182zM365 1454l-132 -328h-79l57 328h154zM160 969h135v-768q0 -52 21.5 -75.5t70.5 -23.5q33 0 80 15l-14 -115q-46 -16 -107 -16q-186 0 -186 207v776z" />
    <glyph glyph-name="Alpha" unicode="&#x391;" horiz-adv-x="1415" 
d="M80 0l557 1421h145l553 -1405l-139 -30l-180 471h-617l-174 -457h-145zM707 1257l-258 -675h518z" />
    <glyph glyph-name="Beta" unicode="&#x392;" horiz-adv-x="1120" 
d="M1016 408q0 -198 -134.5 -303t-367.5 -105h-326v1413h328q213 0 324.5 -94.5t111.5 -257.5q0 -111 -57.5 -189.5t-157.5 -119.5q132 -37 205.5 -122.5t73.5 -221.5zM813 1055q0 112 -75.5 173.5t-225.5 61.5h-184v-491h180q146 0 225.5 71t79.5 185zM877 399
q0 141 -94.5 212t-264.5 71h-190v-559h198q163 0 257 72.5t94 203.5z" />
    <glyph glyph-name="Gamma" unicode="&#x393;" horiz-adv-x="966" 
d="M188 1413h697l20 -131h-575v-1282h-142v1413z" />
    <glyph glyph-name="uni0394" unicode="&#x394;" horiz-adv-x="1452" 
d="M96 102l557 1319h148l555 -1308l-17 -113h-1226zM725 1255l-475 -1132h948z" />
    <glyph glyph-name="Epsilon" unicode="&#x395;" horiz-adv-x="1038" 
d="M946 0h-758v1413h738v-129h-596v-481h471l20 -127h-491v-547h616v-129z" />
    <glyph glyph-name="Zeta" unicode="&#x396;" horiz-adv-x="1224" 
d="M1126 0h-1020v102l836 1188h-776l-19 123h965v-102l-833 -1188h829z" />
    <glyph glyph-name="Eta" unicode="&#x397;" horiz-adv-x="1443" 
d="M1255 0h-141v676h-784v-676h-142v1413h142v-610h784v610h141v-1413z" />
    <glyph glyph-name="Theta" unicode="&#x398;" horiz-adv-x="1525" 
d="M1102 641h-678v129h678v-129zM1255 705q0 278 -135 444t-358 166q-222 0 -357 -168t-135 -438q0 -280 135 -445.5t359 -165.5q221 0 356 168.5t135 438.5zM1401 709q0 -214 -80.5 -381.5t-226.5 -261t-334 -93.5q-282 0 -458.5 204t-176.5 528q0 161 47 297.5t130.5 233
t202.5 150.5t259 54q188 0 333 -92.5t224.5 -258.5t79.5 -380z" />
    <glyph glyph-name="Iota" unicode="&#x399;" horiz-adv-x="548" 
d="M344 0h-141v1413h141v-1413z" />
    <glyph glyph-name="Kappa" unicode="&#x39a;" horiz-adv-x="1241" 
d="M1206 18l-159 -32l-717 743v-729h-142v1413h142v-643l655 643h182l-680 -659z" />
    <glyph glyph-name="Lambda" unicode="&#x39b;" horiz-adv-x="1398" 
d="M80 0l557 1421h131l551 -1405l-141 -30l-478 1255l-471 -1241h-149z" />
    <glyph glyph-name="Mu" unicode="&#x39c;" horiz-adv-x="1857" 
d="M1702 0h-137l-92 1212l-490 -1220h-113l-489 1220l-92 -1212h-131l112 1413h174l486 -1233l487 1233h172z" />
    <glyph glyph-name="Nu" unicode="&#x39d;" horiz-adv-x="1443" 
d="M1255 0h-108l-825 1190v-1190h-134v1413h134l800 -1153v1153h133v-1413z" />
    <glyph glyph-name="Xi" unicode="&#x39e;" horiz-adv-x="1130" 
d="M950 676h-762v127h742zM1020 1286h-909v127h909v-127zM1030 0h-930v127h930v-127z" />
    <glyph glyph-name="Omicron" unicode="&#x39f;" horiz-adv-x="1525" 
d="M1401 709q0 -214 -80.5 -381.5t-226.5 -261t-334 -93.5q-282 0 -458.5 204t-176.5 528q0 161 47 297.5t130.5 233t202.5 150.5t259 54q188 0 333 -92.5t224.5 -258.5t79.5 -380zM1255 705q0 272 -135.5 440t-357.5 168t-357 -167t-135 -437q0 -272 136 -440.5t358 -168.5
t356.5 167.5t134.5 437.5z" />
    <glyph glyph-name="Pi" unicode="&#x3a0;" horiz-adv-x="1427" 
d="M1243 0h-139v1286h-774v-1286h-142v1413h1055v-1413z" />
    <glyph glyph-name="Rho" unicode="&#x3a1;" horiz-adv-x="1087" 
d="M1001 1016q0 -203 -135.5 -311.5t-359.5 -108.5h-176v-596h-142v1413h349q218 0 341 -104t123 -293zM858 1012q0 136 -84 206t-246 70h-198v-567h182q165 0 255.5 73t90.5 218z" />
    <glyph glyph-name="Sigma" unicode="&#x3a3;" horiz-adv-x="1187" 
d="M618 735l-501 576v102h964v-123h-774l479 -549l-514 -618h822l18 -123h-1016v102z" />
    <glyph glyph-name="Tau" unicode="&#x3a4;" horiz-adv-x="1185" 
d="M1126 1284h-462v-1284h-142v1284h-454v129h1040z" />
    <glyph glyph-name="Upsilon" unicode="&#x3a5;" horiz-adv-x="1286" 
d="M1219 1413l-508 -827v-586h-142v586l-499 813l145 28l428 -714l416 700h160z" />
    <glyph glyph-name="Phi" unicode="&#x3a6;" horiz-adv-x="1781" 
d="M961 -27h-140v162q-336 9 -523 167.5t-187 406.5t188 408t522 169v154h140v-154q335 -9 522.5 -167.5t187.5 -409.5q0 -247 -189.5 -406t-520.5 -168v-162zM252 711q0 -199 149 -323t422 -130v905q-272 -6 -421.5 -130.5t-149.5 -321.5zM1528 711q0 198 -149.5 322
t-420.5 130v-905q270 6 420 130t150 323z" />
    <glyph glyph-name="Chi" unicode="&#x3a7;" horiz-adv-x="1300" 
d="M1221 18l-142 -30l-432 649l-418 -637h-155l495 735l-446 660l141 28l385 -583l375 573h156l-451 -672z" />
    <glyph glyph-name="Psi" unicode="&#x3a8;" horiz-adv-x="1492" 
d="M817 0h-141v449q-539 3 -539 495v469h137v-459q0 -198 99 -289.5t303 -93.5v842h141v-842q206 2 304 91.5t98 287.5v463h137v-463q0 -498 -539 -501v-449z" />
    <glyph glyph-name="uni03A9" unicode="&#x3a9;" horiz-adv-x="1523" 
d="M156 125h327l-47 43q-146 132 -225.5 282t-79.5 351q0 177 76 321.5t221.5 231t333.5 86.5q191 0 336.5 -86.5t220 -230.5t74.5 -322q0 -105 -23.5 -197.5t-68 -170t-96.5 -139t-122 -126.5l-47 -43h332v-125h-485l-17 119l109 104q132 125 201 259.5t69 320.5
q-1 142 -58 256.5t-168 184t-257 69.5q-147 0 -258.5 -69t-168 -183.5t-56.5 -257.5q0 -184 68 -317.5t202 -262.5l108 -104l-16 -119h-485v125z" />
    <glyph glyph-name="Iotadieresis" unicode="&#x3aa;" horiz-adv-x="548" 
d="M344 0h-141v1413h141v-1413zM537 1559h-170v182h170v-182zM182 1559h-168v182h168v-182z" />
    <glyph glyph-name="Upsilondieresis" unicode="&#x3ab;" horiz-adv-x="1286" 
d="M1219 1413l-508 -827v-586h-142v586l-499 813l145 28l428 -714l416 700h160zM905 1548h-170v183h170v-183zM551 1548h-168v183h168v-183z" />
    <glyph glyph-name="alphatonos" unicode="&#x3ac;" horiz-adv-x="1265" 
d="M485 989q144 0 227.5 -84.5t159.5 -298.5l162 363h140l-238 -508l90 -252q22 -61 45.5 -84t67.5 -23q27 0 78 15l-17 -115q-46 -16 -98 -16q-81 0 -123.5 40.5t-75.5 143.5l-49 152q-91 -187 -173 -264.5t-210 -77.5q-163 0 -268 137t-105 364t109.5 367.5t277.5 140.5z
M477 94q87 0 157 80t163 289q-76 234 -145 322.5t-171 88.5q-106 0 -175.5 -110.5t-69.5 -276.5q0 -172 68 -282.5t173 -110.5zM770 1432l-135 -306h-80l53 306h162z" />
    <glyph glyph-name="epsilontonos" unicode="&#x3ad;" horiz-adv-x="944" 
d="M129 717q0 119 99.5 195.5t273.5 76.5q178 0 342 -90l-23 -117q-164 92 -323 92q-112 0 -173 -44t-61 -115q0 -164 271 -164h147l20 -115h-176q-134 0 -206 -47t-72 -131q0 -79 60.5 -122.5t180.5 -43.5q178 0 355 94l22 -112q-81 -42 -181.5 -68t-199.5 -26
q-182 0 -278 70.5t-96 195.5q0 90 56 154t157 92q-195 52 -195 225zM670 1432l-135 -306h-80l53 306h162z" />
    <glyph glyph-name="etatonos" unicode="&#x3ae;" 
d="M698 1432l-135 -306h-80l54 306h161zM158 969h104l23 -144q88 78 172 121t176 43q143 0 216 -77.5t73 -219.5v-1042l-136 -25v1043q0 96 -45 148t-135 52q-142 0 -313 -168v-700h-135v969z" />
    <glyph glyph-name="iotatonos" unicode="&#x3af;" horiz-adv-x="522" 
d="M395 1432l-135 -306h-80l53 306h162zM160 969h135v-768q0 -52 21.5 -75.5t70.5 -23.5q33 0 80 15l-14 -115q-46 -16 -107 -16q-186 0 -186 207v776z" />
    <glyph glyph-name="upsilondieresistonos" unicode="&#x3b0;" horiz-adv-x="1054" 
d="M846 1141h-162v182h162v-182zM367 1141h-160v182h160v-182zM657 1450l-131 -328h-80l58 328h153zM907 362q0 -174 -100 -278t-281 -104q-182 0 -281.5 103t-99.5 275v611h136v-590q0 -132 62.5 -205.5t182.5 -73.5q121 0 183.5 70.5t62.5 202.5v596h135v-607z" />
    <glyph glyph-name="alpha" unicode="&#x3b1;" horiz-adv-x="1265" 
d="M485 989q144 0 227.5 -84.5t159.5 -298.5l162 363h140l-238 -508l90 -252q22 -61 45.5 -84t67.5 -23q27 0 78 15l-17 -115q-46 -16 -98 -16q-81 0 -123.5 40.5t-75.5 143.5l-49 152q-91 -187 -173 -264.5t-210 -77.5q-163 0 -268 137t-105 364t109.5 367.5t277.5 140.5z
M477 94q87 0 157 80t163 289q-76 234 -145 322.5t-171 88.5q-106 0 -175.5 -110.5t-69.5 -276.5q0 -172 68 -282.5t173 -110.5z" />
    <glyph glyph-name="beta" unicode="&#x3b2;" horiz-adv-x="1122" 
d="M608 -20q-163 0 -317 90v-422l-133 -23v1393q0 195 114 319.5t299 124.5q172 0 274.5 -102.5t102.5 -253.5q0 -268 -284 -367q174 -35 273 -130.5t99 -252.5q0 -164 -120 -270t-308 -106zM291 1024v-825q162 -105 321 -105q127 0 208 73.5t81 182.5q0 133 -96 211
t-295 117l-14 96q173 57 246 133t73 189q0 107 -67.5 178.5t-180.5 71.5q-120 0 -198 -92t-78 -230z" />
    <glyph glyph-name="gamma" unicode="&#x3b3;" horiz-adv-x="985" 
d="M424 -375v125q0 250 -66 474t-192 474l-129 258l143 25l105 -221q95 -200 142.5 -346.5t66.5 -296.5q15 152 61.5 302t140.5 341l107 209h145l-135 -267q-132 -261 -193 -480t-61 -472v-102z" />
    <glyph glyph-name="delta" unicode="&#x3b4;" horiz-adv-x="1091" 
d="M199 1348v108h704l-16 -113h-512l317 -342q164 -170 232.5 -293t68.5 -264q0 -196 -128 -330t-326 -134t-319.5 134t-121.5 326q0 360 424 561zM854 440q0 118 -56 221t-198 257q-362 -170 -362 -469q0 -151 85 -253t218 -102t223 99.5t90 246.5z" />
    <glyph glyph-name="epsilon" unicode="&#x3b5;" horiz-adv-x="944" 
d="M129 717q0 119 99.5 195.5t273.5 76.5q178 0 342 -90l-23 -117q-164 92 -323 92q-112 0 -173 -44t-61 -115q0 -164 271 -164h147l20 -115h-176q-134 0 -206 -47t-72 -131q0 -79 60.5 -122.5t180.5 -43.5q178 0 355 94l22 -112q-81 -42 -181.5 -68t-199.5 -26
q-182 0 -278 70.5t-96 195.5q0 90 56 154t157 92q-195 52 -195 225z" />
    <glyph glyph-name="zeta" unicode="&#x3b6;" horiz-adv-x="892" 
d="M844 -88q0 -51 -26 -111t-99 -180l-123 19q67 119 88 167.5t21 73.5q0 24 -16.5 41t-69.5 40.5t-164 60.5q-195 64 -274 145.5t-79 216.5q0 99 55.5 205.5t198.5 286.5l369 466h-543l19 113h667v-110l-407 -533q-129 -169 -174 -253t-45 -169q0 -89 59.5 -146t202.5 -104
q148 -49 219.5 -83t96 -65.5t24.5 -80.5z" />
    <glyph glyph-name="eta" unicode="&#x3b7;" 
d="M158 969h104l23 -144q88 78 172 121t176 43q143 0 216 -77.5t73 -219.5v-1042l-136 -25v1043q0 96 -45 148t-135 52q-142 0 -313 -168v-700h-135v969z" />
    <glyph glyph-name="theta" unicode="&#x3b8;" horiz-adv-x="1185" 
d="M594 1462q219 0 345 -197t126 -544q0 -344 -127.5 -542.5t-343.5 -198.5q-221 0 -348 196t-127 543q0 346 128 544.5t347 198.5zM594 98q154 0 241 150.5t95 417.5h-676q8 -265 97 -416.5t243 -151.5zM594 1346q-151 0 -240 -148.5t-100 -406.5h676q-9 260 -96.5 407.5
t-239.5 147.5z" />
    <glyph glyph-name="iota" unicode="&#x3b9;" horiz-adv-x="522" 
d="M160 969h135v-768q0 -52 21.5 -75.5t70.5 -23.5q33 0 80 15l-14 -115q-46 -16 -107 -16q-186 0 -186 207v776z" />
    <glyph glyph-name="kappa" unicode="&#x3ba;" horiz-adv-x="956" 
d="M872 977l19 -127q-75 -4 -127 -32.5t-123 -102.5l-205 -205l482 -498l-154 -24l-471 497v-485h-135v969h135v-447l270 287q93 98 153.5 130.5t155.5 37.5z" />
    <glyph glyph-name="lambda" unicode="&#x3bb;" horiz-adv-x="991" 
d="M932 12l-133 -24l-293 819l-293 -807h-139l366 971l-86 227q-30 81 -67 114.5t-99 33.5q-28 0 -77 -11l18 117q28 8 76 8q105 0 166 -46t104 -165z" />
    <glyph glyph-name="uni03BC" unicode="&#x3bc;" horiz-adv-x="1120" 
d="M158 -375v1344h135v-674q0 -93 45 -143t135 -50q147 0 313 166v701h136v-774q0 -93 79 -93q31 0 68 13l-16 -115q-38 -14 -88 -14q-72 0 -118.5 38t-53.5 115q-171 -157 -330 -157q-121 0 -191 88q19 -109 19 -306v-116z" />
    <glyph glyph-name="nu" unicode="&#x3bd;" horiz-adv-x="980" 
d="M741 969h136v-84q0 -256 -82 -463.5t-244 -429.5h-125l-371 964l138 25l311 -854q122 190 179.5 359t57.5 397v86z" />
    <glyph glyph-name="xi" unicode="&#x3be;" horiz-adv-x="921" 
d="M96 381q0 131 95.5 227.5t267.5 136.5q-127 35 -195.5 114.5t-68.5 187.5q0 90 50 166.5t148 129.5h-266l16 113h705v-108h-105q-199 -4 -306 -86.5t-107 -206.5q0 -119 99.5 -187.5t277.5 -68.5h75l15 -115h-80q-235 0 -358 -84.5t-123 -210.5q0 -91 65.5 -149
t226.5 -109q143 -45 211 -76t92.5 -61.5t24.5 -77.5q0 -52 -26.5 -113t-100.5 -182l-121 19q67 122 88 169.5t21 71.5t-15.5 39.5t-64.5 36t-158 55.5q-213 69 -298 151t-85 218z" />
    <glyph glyph-name="omicron" unicode="&#x3bf;" 
d="M973 483q0 -233 -124.5 -368t-316.5 -135q-191 0 -312.5 134.5t-121.5 368.5q0 235 122.5 370.5t311.5 135.5q194 0 317.5 -135t123.5 -371zM834 483q0 178 -82.5 284.5t-219.5 106.5q-136 0 -216 -104.5t-80 -286.5q0 -176 81.5 -282.5t214.5 -106.5q138 0 220 104.5
t82 284.5z" />
    <glyph glyph-name="pi" unicode="&#x3c0;" horiz-adv-x="1193" 
d="M1112 854h-194v-653q0 -51 22.5 -75t69.5 -24q31 0 82 15l-17 -115q-46 -16 -104 -16q-189 0 -189 207v661h-405v-854h-135v854h-187l-16 115h1073v-115z" />
    <glyph glyph-name="rho" unicode="&#x3c1;" horiz-adv-x="1067" 
d="M969 504q0 -127 -36 -227t-97.5 -162t-140.5 -94.5t-169 -32.5q-135 0 -254 55v-395l-133 -23v889q0 217 114 346t302 129q86 0 160 -31t131 -89.5t90 -152.5t33 -212zM829 500q0 173 -75.5 273.5t-202.5 100.5q-124 0 -201.5 -95t-77.5 -261v-352q116 -64 248 -64
q136 0 222.5 102.5t86.5 295.5z" />
    <glyph glyph-name="sigma1" unicode="&#x3c2;" horiz-adv-x="946" 
d="M98 510q0 213 126.5 346t314.5 133q179 0 317 -98l-22 -135q-137 116 -297 116q-132 0 -216.5 -101.5t-84.5 -258.5q0 -97 32.5 -164t90.5 -109t155 -79q138 -53 206.5 -90t94 -70.5t25.5 -81.5q0 -55 -27 -117t-100 -180l-123 19q68 121 90 171t22 78q0 25 -16 43
t-66 43.5t-155 65.5q-197 75 -282 177.5t-85 291.5z" />
    <glyph glyph-name="sigma" unicode="&#x3c3;" horiz-adv-x="1128" 
d="M1069 852h-231q135 -189 135 -395q0 -133 -55.5 -242t-158 -172t-231.5 -63q-188 0 -309 135.5t-121 353.5q0 224 138.5 362t377.5 138h439zM834 459q0 208 -140 393h-82q-174 0 -275 -107t-101 -280q0 -165 83 -268t207 -103q139 0 223.5 103t84.5 262z" />
    <glyph glyph-name="tau" unicode="&#x3c4;" horiz-adv-x="927" 
d="M809 23q-103 -39 -199 -39q-250 0 -250 268v602h-313v115h789l18 -115h-360v-598q0 -81 34 -118.5t105 -37.5q69 0 158 33z" />
    <glyph glyph-name="upsilon" unicode="&#x3c5;" horiz-adv-x="1054" 
d="M907 362q0 -174 -100 -278t-281 -104q-182 0 -281.5 103t-99.5 275v611h136v-590q0 -132 62.5 -205.5t182.5 -73.5q121 0 183.5 70.5t62.5 202.5v596h135v-607z" />
    <glyph glyph-name="phi" unicode="&#x3c6;" horiz-adv-x="1456" 
d="M1368 485q0 -211 -151.5 -346t-421.5 -147v-344l-133 -23v367q-274 12 -423 144t-149 347q0 213 150.5 347t421.5 147v469l133 24v-493q273 -12 423 -145t150 -347zM227 483q0 -166 113 -267.5t324 -113.5v760q-211 -12 -324 -114t-113 -265zM1229 483
q0 164 -113.5 265.5t-322.5 113.5v-760q211 12 323.5 114.5t112.5 266.5z" />
    <glyph glyph-name="chi" unicode="&#x3c7;" horiz-adv-x="980" 
d="M918 969l-353 -623l396 -694l-136 -27l-333 611l-326 -598h-143l399 706l-350 614l135 27l289 -530l278 514h144z" />
    <glyph glyph-name="psi" unicode="&#x3c8;" horiz-adv-x="1372" 
d="M758 -350l-133 -25v363q-236 3 -358 119t-122 342v520h134v-518q0 -173 86 -258.5t260 -88.5v1342l133 24v-1366q344 6 344 347v518h133v-520q0 -224 -122.5 -341t-354.5 -120v-338z" />
    <glyph glyph-name="omega" unicode="&#x3c9;" horiz-adv-x="1587" 
d="M727 791h133v-201q0 -235 70 -362.5t194 -127.5q95 0 154 94.5t59 249.5q0 130 -46 248t-150 256l133 33q106 -136 154.5 -261.5t48.5 -275.5q0 -205 -95 -334.5t-252 -129.5q-133 0 -218 82t-119 235q-34 -153 -119 -235t-217 -82q-157 0 -251.5 129.5t-94.5 334.5
q0 150 48 275.5t154 261.5l133 -33q-105 -137 -150.5 -255t-45.5 -249q0 -155 59.5 -249.5t155.5 -94.5q124 0 193 127t69 363v201z" />
    <glyph glyph-name="iotadieresis" unicode="&#x3ca;" horiz-adv-x="522" 
d="M496 1145h-170v182h170v-182zM141 1145h-168v182h168v-182zM160 969h135v-768q0 -52 21.5 -75.5t70.5 -23.5q33 0 80 15l-14 -115q-46 -16 -107 -16q-186 0 -186 207v776z" />
    <glyph glyph-name="upsilondieresis" unicode="&#x3cb;" horiz-adv-x="1054" 
d="M788 1141h-170v182h170v-182zM434 1141h-168v182h168v-182zM907 362q0 -174 -100 -278t-281 -104q-182 0 -281.5 103t-99.5 275v611h136v-590q0 -132 62.5 -205.5t182.5 -73.5q121 0 183.5 70.5t62.5 202.5v596h135v-607z" />
    <glyph glyph-name="omicrontonos" unicode="&#x3cc;" 
d="M696 1432l-135 -306h-80l54 306h161zM973 483q0 -233 -124.5 -368t-316.5 -135q-191 0 -312.5 134.5t-121.5 368.5q0 235 122.5 370.5t311.5 135.5q194 0 317.5 -135t123.5 -371zM834 483q0 178 -82.5 284.5t-219.5 106.5q-136 0 -216 -104.5t-80 -286.5
q0 -176 81.5 -282.5t214.5 -106.5q138 0 220 104.5t82 284.5z" />
    <glyph glyph-name="upsilontonos" unicode="&#x3cd;" horiz-adv-x="1054" 
d="M688 1427l-135 -305h-80l53 305h162zM907 362q0 -174 -100 -278t-281 -104q-182 0 -281.5 103t-99.5 275v611h136v-590q0 -132 62.5 -205.5t182.5 -73.5q121 0 183.5 70.5t62.5 202.5v596h135v-607z" />
    <glyph glyph-name="omegatonos" unicode="&#x3ce;" horiz-adv-x="1587" 
d="M727 791h133v-201q0 -235 70 -362.5t194 -127.5q95 0 154 94.5t59 249.5q0 130 -46 248t-150 256l133 33q106 -136 154.5 -261.5t48.5 -275.5q0 -205 -95 -334.5t-252 -129.5q-133 0 -218 82t-119 235q-34 -153 -119 -235t-217 -82q-157 0 -251.5 129.5t-94.5 334.5
q0 150 48 275.5t154 261.5l133 -33q-105 -137 -150.5 -255t-45.5 -249q0 -155 59.5 -249.5t155.5 -94.5q124 0 193 127t69 363v201zM956 1427l-135 -305h-80l54 305h161z" />
    <glyph glyph-name="uni0400" unicode="&#x400;" horiz-adv-x="1038" 
d="M946 0h-758v1413h738v-129h-596v-481h471l20 -127h-491v-547h616v-129zM618 1540h-92l-278 275l176 38z" />
    <glyph glyph-name="uni0401" unicode="&#x401;" horiz-adv-x="1038" 
d="M821 1559h-170v182h170v-182zM467 1559h-168v182h168v-182zM946 0h-758v1413h738v-129h-596v-481h471l20 -127h-491v-547h616v-129z" />
    <glyph glyph-name="uni0402" unicode="&#x402;" horiz-adv-x="1546" 
d="M1116 1284h-463v-440q142 33 289 33q235 0 369.5 -116.5t134.5 -328.5q0 -195 -129 -320.5t-338 -125.5q-65 0 -117 14l21 123q48 -10 94 -10q146 0 236 91t90 226q0 155 -96 237.5t-275 82.5q-134 0 -279 -37v-713h-141v1284h-444v129h1030z" />
    <glyph glyph-name="uni0403" unicode="&#x403;" horiz-adv-x="966" 
d="M850 1815l-279 -275h-94l199 313zM188 1413h697l20 -131h-575v-1282h-142v1413z" />
    <glyph glyph-name="uni0404" unicode="&#x404;" horiz-adv-x="1308" 
d="M1196 115q-84 -64 -197 -103t-233 -39q-290 0 -465.5 202t-175.5 530q0 216 80 382.5t228 259.5t343 93q225 0 398 -121l-23 -141q-190 137 -377 137q-220 0 -354 -146.5t-152 -390.5l727 2l21 -129l-750 2q14 -252 149 -403.5t357 -151.5q203 0 404 150z" />
    <glyph glyph-name="uni0405" unicode="&#x405;" horiz-adv-x="1048" 
d="M938 373q0 -178 -124 -283.5t-314 -105.5q-206 0 -375 88l20 143q71 -46 166 -76t195 -30q128 0 209.5 68t81.5 185q0 104 -61.5 168.5t-223.5 135.5q-209 92 -289 177t-80 230q0 158 115 257.5t291 99.5q184 0 311 -74l-20 -142q-137 91 -297 91q-120 0 -189 -64
t-69 -160q0 -94 59.5 -152.5t224.5 -131.5q203 -89 286 -181t83 -243z" />
    <glyph glyph-name="uni0406" unicode="&#x406;" horiz-adv-x="548" 
d="M344 0h-141v1413h141v-1413z" />
    <glyph glyph-name="uni0407" unicode="&#x407;" horiz-adv-x="548" 
d="M344 0h-141v1413h141v-1413zM537 1559h-170v182h170v-182zM182 1559h-168v182h168v-182z" />
    <glyph glyph-name="uni0408" unicode="&#x408;" horiz-adv-x="745" 
d="M565 344q0 -177 -98 -266.5t-266 -89.5q-55 0 -125 12l-21 131q72 -20 148 -20q106 0 163.5 58.5t57.5 176.5v1067h141v-1069z" />
    <glyph glyph-name="uni0409" unicode="&#x409;" horiz-adv-x="1970" 
d="M1884 422q0 -199 -135 -310.5t-367 -111.5h-315v1286h-455l-51 -450q-21 -184 -47.5 -312.5t-64 -226.5t-92 -160.5t-124 -101.5t-167.5 -62l-21 131q75 21 128.5 56t94.5 89.5t69.5 141.5t48.5 197.5t38 271.5l63 553h719v-588h207q222 0 346.5 -105t124.5 -298z
M1739 418q0 139 -85.5 211.5t-248.5 72.5h-199v-577h185q167 0 257.5 75.5t90.5 217.5z" />
    <glyph glyph-name="uni040A" unicode="&#x40a;" horiz-adv-x="1986" 
d="M1901 422q0 -199 -135 -310.5t-367 -111.5h-316v680h-753v-680h-142v1413h142v-604h753v604h140v-588h207q222 0 346.5 -105t124.5 -298zM1755 418q0 139 -85.5 211.5t-248.5 72.5h-198v-577h182q168 0 259 75.5t91 217.5z" />
    <glyph glyph-name="uni040B" unicode="&#x40b;" horiz-adv-x="1562" 
d="M1116 1284h-463v-444q160 32 308 32q452 0 452 -421v-451h-139v446q0 151 -82.5 225t-237.5 74q-157 0 -301 -34v-711h-141v1284h-444v129h1030z" />
    <glyph glyph-name="uni040C" unicode="&#x40c;" horiz-adv-x="1241" 
d="M934 1804l-279 -274h-94l199 313zM1206 18l-159 -32l-717 743v-729h-142v1413h142v-643l655 643h182l-680 -659z" />
    <glyph glyph-name="uni040D" unicode="&#x40d;" horiz-adv-x="1443" 
d="M778 1530h-92l-278 274l176 39zM322 0h-134v1413h140v-1177l782 1177h145v-1413h-139v1196z" />
    <glyph glyph-name="uni040E" unicode="&#x40e;" horiz-adv-x="1288" 
d="M1247 1413l-608 -1184q-72 -138 -147 -197t-181 -59q-59 0 -112 21l-19 133q77 -25 129 -25q63 0 110.5 40.5t94.5 129.5l94 179l-514 950l148 26l442 -837l408 823h155zM946 1765q-19 -103 -86 -166t-186 -63q-116 0 -184 63t-84 166l94 19q17 -62 62.5 -95.5
t113.5 -33.5q135 0 174 129z" />
    <glyph glyph-name="uni040F" unicode="&#x40f;" horiz-adv-x="1433" 
d="M784 -313l-137 -21v334h-459v1413h142v-1286h774v1286h139v-1413h-459v-313z" />
    <glyph glyph-name="uni0410" unicode="&#x410;" horiz-adv-x="1415" 
d="M80 0l557 1421h145l553 -1405l-139 -30l-180 471h-617l-174 -457h-145zM707 1257l-258 -675h518z" />
    <glyph glyph-name="uni0411" unicode="&#x411;" horiz-adv-x="1099" 
d="M1006 418q0 -199 -132.5 -308.5t-363.5 -109.5h-322v1413h697l20 -127h-575v-469h211q219 0 342 -103.5t123 -295.5zM862 412q0 138 -84 209t-246 71h-202v-567h186q166 0 256 74t90 213z" />
    <glyph glyph-name="uni0412" unicode="&#x412;" horiz-adv-x="1120" 
d="M1016 408q0 -198 -134.5 -303t-367.5 -105h-326v1413h328q213 0 324.5 -94.5t111.5 -257.5q0 -111 -57.5 -189.5t-157.5 -119.5q132 -37 205.5 -122.5t73.5 -221.5zM813 1055q0 112 -75.5 173.5t-225.5 61.5h-184v-491h180q146 0 225.5 71t79.5 185zM877 399
q0 141 -94.5 212t-264.5 71h-190v-559h198q163 0 257 72.5t94 203.5z" />
    <glyph glyph-name="uni0413" unicode="&#x413;" horiz-adv-x="966" 
d="M188 1413h697l20 -131h-575v-1282h-142v1413z" />
    <glyph glyph-name="uni0414" unicode="&#x414;" horiz-adv-x="1482" 
d="M195 -326h-134v457q150 139 239.5 269t140.5 284.5t77 372.5l41 356h703v-1284h133v-442l-133 -21v334h-1067v-326zM680 1288l-29 -250q-37 -330 -131 -531t-284 -382h884v1163h-440z" />
    <glyph glyph-name="uni0415" unicode="&#x415;" horiz-adv-x="1038" 
d="M946 0h-758v1413h738v-129h-596v-481h471l20 -127h-491v-547h616v-129z" />
    <glyph glyph-name="uni0416" unicode="&#x416;" horiz-adv-x="1843" 
d="M248 1427l608 -661l-4 647h141l-6 -649l596 649h176l-620 -659l655 -736l-152 -32l-655 751l6 -737h-141l4 735l-635 -735h-176l662 750l-611 645z" />
    <glyph glyph-name="uni0417" unicode="&#x417;" horiz-adv-x="1101" 
d="M977 387q0 -177 -134.5 -293.5t-348.5 -116.5q-208 0 -394 105l23 135q192 -113 373 -113q156 0 247 80.5t91 204.5q0 138 -100.5 212.5t-295.5 74.5h-129l-18 127h162q160 0 256 74t96 192q0 110 -75.5 175t-213.5 65q-183 0 -373 -107l-18 131q191 103 401 103
q196 0 311 -99.5t115 -259.5q0 -125 -76 -211.5t-206 -122.5q307 -74 307 -356z" />
    <glyph glyph-name="uni0418" unicode="&#x418;" horiz-adv-x="1443" 
d="M322 0h-134v1413h140v-1177l782 1177h145v-1413h-139v1196z" />
    <glyph glyph-name="uni0419" unicode="&#x419;" horiz-adv-x="1443" 
d="M322 0h-134v1413h140v-1177l782 1177h145v-1413h-139v1196zM991 1765q-19 -103 -86 -166t-186 -63q-116 0 -184 63t-84 166l94 19q17 -62 62.5 -95.5t113.5 -33.5q135 0 174 129z" />
    <glyph glyph-name="uni041A" unicode="&#x41a;" horiz-adv-x="1241" 
d="M1206 18l-159 -32l-717 743v-729h-142v1413h142v-643l655 643h182l-680 -659z" />
    <glyph glyph-name="uni041B" unicode="&#x41b;" horiz-adv-x="1404" 
d="M1217 1413v-1413h-142v1286h-463l-51 -450q-21 -184 -47.5 -312.5t-64 -226.5t-92 -160.5t-124 -101.5t-167.5 -62l-21 131q75 21 128.5 56t94.5 89.5t69.5 141.5t48.5 197.5t38 271.5l63 553h730z" />
    <glyph glyph-name="uni041C" unicode="&#x41c;" horiz-adv-x="1857" 
d="M1702 0h-137l-92 1212l-490 -1220h-113l-489 1220l-92 -1212h-131l112 1413h174l486 -1233l487 1233h172z" />
    <glyph glyph-name="uni041D" unicode="&#x41d;" horiz-adv-x="1443" 
d="M1255 0h-141v676h-784v-676h-142v1413h142v-610h784v610h141v-1413z" />
    <glyph glyph-name="uni041E" unicode="&#x41e;" horiz-adv-x="1525" 
d="M1401 709q0 -214 -80.5 -381.5t-226.5 -261t-334 -93.5q-282 0 -458.5 204t-176.5 528q0 161 47 297.5t130.5 233t202.5 150.5t259 54q188 0 333 -92.5t224.5 -258.5t79.5 -380zM1255 705q0 272 -135.5 440t-357.5 168t-357 -167t-135 -437q0 -272 136 -440.5t358 -168.5
t356.5 167.5t134.5 437.5z" />
    <glyph glyph-name="uni041F" unicode="&#x41f;" horiz-adv-x="1433" 
d="M1243 0h-139v1286h-774v-1286h-142v1413h1055v-1413z" />
    <glyph glyph-name="uni0420" unicode="&#x420;" horiz-adv-x="1087" 
d="M1001 1016q0 -203 -135.5 -311.5t-359.5 -108.5h-176v-596h-142v1413h349q218 0 341 -104t123 -293zM858 1012q0 136 -84 206t-246 70h-198v-567h182q165 0 255.5 73t90.5 218z" />
    <glyph glyph-name="uni0421" unicode="&#x421;" horiz-adv-x="1306" 
d="M1196 115q-84 -64 -197 -103t-233 -39q-287 0 -464 202.5t-177 529.5q0 215 81 382t229.5 260t340.5 93q225 0 398 -121l-23 -143q-185 137 -377 137q-231 0 -367.5 -166.5t-136.5 -437.5q0 -273 136.5 -440t365.5 -167q211 0 404 148z" />
    <glyph glyph-name="uni0422" unicode="&#x422;" horiz-adv-x="1185" 
d="M1126 1284h-462v-1284h-142v1284h-454v129h1040z" />
    <glyph glyph-name="uni0423" unicode="&#x423;" horiz-adv-x="1288" 
d="M1247 1413l-608 -1184q-72 -138 -147 -197t-181 -59q-59 0 -112 21l-19 133q77 -25 129 -25q63 0 110.5 40.5t94.5 129.5l94 179l-514 950l148 26l442 -837l408 823h155z" />
    <glyph glyph-name="uni0424" unicode="&#x424;" horiz-adv-x="1781" 
d="M961 -27h-140v162q-336 9 -523 167.5t-187 406.5t188 408t522 169v154h140v-154q335 -9 522.5 -167.5t187.5 -409.5q0 -247 -189.5 -406t-520.5 -168v-162zM252 711q0 -199 149 -323t422 -130v905q-272 -6 -421.5 -130.5t-149.5 -321.5zM1528 711q0 198 -149.5 322
t-420.5 130v-905q270 6 420 130t150 323z" />
    <glyph glyph-name="uni0425" unicode="&#x425;" horiz-adv-x="1300" 
d="M1221 18l-142 -30l-432 649l-418 -637h-155l495 735l-446 660l141 28l385 -583l375 573h156l-451 -672z" />
    <glyph glyph-name="uni0426" unicode="&#x426;" horiz-adv-x="1458" 
d="M330 127h766v1286h141v-1284h133v-442l-133 -21v334h-1049v1413h142v-1286z" />
    <glyph glyph-name="uni0427" unicode="&#x427;" horiz-adv-x="1230" 
d="M139 1413h142v-459q0 -299 319 -299q153 0 301 35v723h141v-1413h-141v561q-175 -35 -307 -35q-221 0 -338 105.5t-117 316.5v465z" />
    <glyph glyph-name="uni0428" unicode="&#x428;" horiz-adv-x="1959" 
d="M330 125h581v1288h140v-1288h581v1288h140v-1413h-1584v1413h142v-1288z" />
    <glyph glyph-name="uni0429" unicode="&#x429;" horiz-adv-x="1984" 
d="M330 125h577v1288h140v-1288h577v1288h139v-1284h133v-442l-133 -21v334h-1575v1413h142v-1288z" />
    <glyph glyph-name="uni042A" unicode="&#x42a;" horiz-adv-x="1374" 
d="M1286 422q0 -199 -134 -310.5t-366 -111.5h-317v1286h-420l21 127h540v-588h207q222 0 345.5 -104.5t123.5 -298.5zM1143 418q0 139 -85.5 211.5t-248.5 72.5h-199v-577h183q168 0 259 75.5t91 217.5z" />
    <glyph glyph-name="uni042B" unicode="&#x42b;" horiz-adv-x="1554" 
d="M1001 422q0 -200 -134 -311t-367 -111h-312v1413h142v-588h200q222 0 346.5 -105t124.5 -298zM858 418q0 139 -86.5 211.5t-249.5 72.5h-192v-577h178q167 0 258.5 75.5t91.5 217.5zM1354 0h-140v1413h140v-1413z" />
    <glyph glyph-name="uni042C" unicode="&#x42c;" horiz-adv-x="1091" 
d="M1006 422q0 -199 -134 -310.5t-366 -111.5h-318v1413h142v-588h207q222 0 345.5 -104.5t123.5 -298.5zM862 418q0 139 -85.5 211.5t-248.5 72.5h-198v-577h182q168 0 259 75.5t91 217.5z" />
    <glyph glyph-name="uni042D" unicode="&#x42d;" horiz-adv-x="1308" 
d="M147 1171l-20 136q193 133 424 133q189 0 333.5 -92t223 -258t78.5 -381q0 -213 -81 -380.5t-230 -261.5t-343 -94q-224 0 -419 138l22 137q211 -150 400 -150q224 0 358.5 152t146.5 403l-729 -2l-20 129l747 -2q-19 244 -151 390.5t-342 146.5q-208 0 -398 -144z" />
    <glyph glyph-name="uni042E" unicode="&#x42e;" horiz-adv-x="1945" 
d="M1817 709q0 -213 -74.5 -380t-211.5 -261.5t-314 -94.5q-256 0 -419 189.5t-177 492.5h-291v-655h-142v1413h142v-631h293q14 193 92 342t209.5 232.5t296.5 83.5q177 0 313 -93.5t209.5 -259.5t73.5 -378zM1673 705q0 269 -124.5 438.5t-329.5 169.5
q-136 0 -239.5 -77.5t-158.5 -214.5t-55 -312q0 -269 125 -439t330 -170q136 0 239 78t158 215t55 312z" />
    <glyph glyph-name="uni042F" unicode="&#x42f;" horiz-adv-x="1161" 
d="M49 16l430 613q-150 33 -234.5 132t-84.5 251q0 184 125 292.5t340 108.5h346v-1413h-140v616h-204l-437 -630zM301 1018q0 -132 87.5 -206.5t234.5 -74.5h208v551h-213q-152 0 -234.5 -72.5t-82.5 -197.5z" />
    <glyph glyph-name="uni0430" unicode="&#x430;" horiz-adv-x="1001" 
d="M852 0h-102l-23 129q-160 -149 -342 -149q-130 0 -209.5 69t-79.5 195q0 169 146.5 257t476.5 120v63q0 186 -201 186q-155 0 -334 -86l-18 121q194 84 360 84q326 0 326 -299v-690zM719 240v274q-140 -14 -236.5 -38.5t-151 -58.5t-77.5 -74t-23 -91q0 -76 48 -117
t127 -41q76 0 158.5 39t154.5 107z" />
    <glyph glyph-name="uni0431" unicode="&#x431;" horiz-adv-x="1083" 
d="M641 1303q-102 -15 -171.5 -46.5t-123 -92.5t-82 -157.5t-37.5 -238.5q120 199 348 199q187 0 298.5 -130.5t111.5 -347.5q0 -230 -125 -369.5t-315 -139.5q-171 0 -279 108q-79 76 -119.5 197.5t-40.5 318.5q0 285 53.5 456t163.5 256t300 114l266 40l20 -124zM848 487
q0 167 -77.5 266t-209.5 99q-142 0 -229.5 -108.5t-87.5 -272.5q0 -173 83.5 -275t217.5 -102q137 0 220 107.5t83 285.5z" />
    <glyph glyph-name="uni0432" unicode="&#x432;" horiz-adv-x="1007" 
d="M911 281q0 -137 -99 -209t-275 -72h-379v969h385q162 0 245.5 -65.5t83.5 -174.5q0 -156 -167 -217q100 -22 153 -80.5t53 -150.5zM778 285q0 82 -61.5 126t-175.5 44h-252v-344h250q116 0 177.5 44t61.5 130zM743 717q0 67 -52 104t-156 37h-246v-297h241q103 0 158 42
t55 114z" />
    <glyph glyph-name="uni0433" unicode="&#x433;" horiz-adv-x="817" 
d="M158 0v969h590l16 -119h-471v-850h-135z" />
    <glyph glyph-name="uni0434" unicode="&#x434;" horiz-adv-x="1124" 
d="M49 -303v420q70 66 113.5 116.5t82 118.5t61 150.5t36.5 195.5l33 271h561v-854h119v-412l-129 -20v317h-748v-303h-129zM492 856l-23 -176q-18 -149 -56 -257t-84 -173t-120 -137h596v743h-313z" />
    <glyph glyph-name="uni0435" unicode="&#x435;" horiz-adv-x="1005" 
d="M905 117q-160 -137 -370 -137q-197 0 -317 131t-120 374q0 230 116.5 367t299.5 137q127 0 217.5 -66t133 -174t42.5 -245v-29h-674q3 -181 83.5 -280t226.5 -99q175 0 342 144zM512 881q-108 0 -181 -77.5t-93 -221.5h530q-9 136 -75 217.5t-181 81.5z" />
    <glyph glyph-name="uni0436" unicode="&#x436;" horiz-adv-x="1431" 
d="M207 0h-168l467 510l-432 446l147 25l430 -459l-4 447h135l-4 -447l418 447h168l-440 -455l469 -502l-148 -24l-467 512l4 -500h-135l4 500z" />
    <glyph glyph-name="uni0437" unicode="&#x437;" horiz-adv-x="946" 
d="M817 727q0 -89 -54 -147.5t-153 -85.5q107 -22 166.5 -82.5t59.5 -155.5q0 -125 -103 -202t-284 -77q-179 0 -363 93l20 118q180 -94 340 -94q124 0 188 44.5t64 121.5q0 84 -72 130t-210 46h-150l-18 115h178q122 0 190 44.5t68 119.5q0 71 -57 113t-174 42
q-139 0 -326 -90l-18 119q180 88 350 88q175 0 266.5 -71.5t91.5 -188.5z" />
    <glyph glyph-name="uni0438" unicode="&#x438;" horiz-adv-x="1107" 
d="M158 0v969h133v-770l516 770h143v-969h-131v784l-528 -784h-133z" />
    <glyph glyph-name="uni0439" unicode="&#x439;" horiz-adv-x="1107" 
d="M158 0v969h133v-770l516 770h143v-969h-131v784l-528 -784h-133zM823 1358q-19 -103 -86 -166.5t-186 -63.5q-116 0 -184 63.5t-84 166.5l94 18q17 -62 62.5 -95.5t113.5 -33.5q135 0 174 129z" />
    <glyph glyph-name="uni043A" unicode="&#x43a;" horiz-adv-x="952" 
d="M764 -12l-471 501v-489h-135v969h135v-441l422 441h176l-455 -457l484 -500z" />
    <glyph glyph-name="uni043B" unicode="&#x43b;" horiz-adv-x="1091" 
d="M35 106q89 19 137 64.5t79 145t54 290.5l43 363h586v-969h-135v854h-334l-29 -266q-27 -227 -72 -350.5t-115.5 -179t-195.5 -76.5z" />
    <glyph glyph-name="uni043C" unicode="&#x43c;" horiz-adv-x="1464" 
d="M1337 0h-131l-59 811l-361 -817h-114l-361 819l-57 -813h-127l78 969h174l354 -809l357 809h170z" />
    <glyph glyph-name="uni043D" unicode="&#x43d;" horiz-adv-x="1091" 
d="M934 0h-135v446h-506v-446h-135v969h135v-406h506v406h135v-969z" />
    <glyph glyph-name="uni043E" unicode="&#x43e;" 
d="M973 483q0 -233 -124.5 -368t-316.5 -135q-191 0 -312.5 134.5t-121.5 368.5q0 235 122.5 370.5t311.5 135.5q194 0 317.5 -135t123.5 -371zM834 483q0 178 -82.5 284.5t-219.5 106.5q-136 0 -216 -104.5t-80 -286.5q0 -176 81.5 -282.5t214.5 -106.5q138 0 220 104.5
t82 284.5z" />
    <glyph glyph-name="uni043F" unicode="&#x43f;" horiz-adv-x="1085" 
d="M928 0h-135v854h-500v-854h-135v969h770v-969z" />
    <glyph glyph-name="uni0440" unicode="&#x440;" horiz-adv-x="1087" 
d="M987 512q0 -129 -35.5 -230.5t-97 -164.5t-140.5 -96t-169 -33q-139 0 -252 47v-387l-135 -23v1344h104l23 -140q141 160 313 160q81 0 150 -29.5t123 -87t85 -150t31 -210.5zM850 506q0 172 -73.5 267t-192.5 95q-82 0 -151 -44t-140 -130v-534q119 -58 248 -58
q137 0 223 104.5t86 299.5z" />
    <glyph glyph-name="uni0441" unicode="&#x441;" horiz-adv-x="952" 
d="M864 88q-139 -108 -327 -108q-192 0 -315.5 135t-123.5 368q0 119 34.5 216t95 160t142 96.5t175.5 33.5q176 0 311 -98l-22 -135q-137 116 -293 116q-136 0 -220.5 -102.5t-84.5 -284.5q0 -180 87 -283.5t226 -103.5q163 0 297 115z" />
    <glyph glyph-name="uni0442" unicode="&#x442;" horiz-adv-x="925" 
d="M395 0v852h-342v117h809l19 -117h-351v-852h-135z" />
    <glyph glyph-name="uni0443" unicode="&#x443;" horiz-adv-x="983" 
d="M922 969l-412 -1096q-49 -135 -117.5 -188.5t-173.5 -53.5q-10 0 -59 7l-21 120q46 -8 78 -8q64 0 103.5 32.5t68.5 111.5l41 100l-367 962l134 25l299 -823l284 811h142z" />
    <glyph glyph-name="uni0444" unicode="&#x444;" horiz-adv-x="1456" 
d="M1368 485q0 -211 -151.5 -346t-421.5 -147v-344l-133 -23v367q-274 12 -423 144t-149 347q0 213 150.5 347t421.5 147v469l133 24v-493q273 -12 423 -145t150 -347zM227 483q0 -166 113 -267.5t324 -113.5v760q-211 -12 -324 -114t-113 -265zM1229 483
q0 164 -113.5 265.5t-322.5 113.5v-760q211 12 323.5 114.5t112.5 266.5z" />
    <glyph glyph-name="uni0445" unicode="&#x445;" horiz-adv-x="962" 
d="M891 10l-135 -24l-277 417l-262 -403h-145l336 498l-316 460l133 27l256 -389l246 373h145l-319 -467z" />
    <glyph glyph-name="uni0446" unicode="&#x446;" horiz-adv-x="1110" 
d="M158 0v969h135v-854h493v854h136v-854h116v-410l-127 -20v315h-753z" />
    <glyph glyph-name="uni0447" unicode="&#x447;" horiz-adv-x="993" 
d="M117 969h133v-301q0 -215 223 -215q109 0 227 34v482h136v-969h-136v367q-140 -35 -241 -35q-168 0 -255 83.5t-87 248.5v305z" />
    <glyph glyph-name="uni0448" unicode="&#x448;" horiz-adv-x="1632" 
d="M750 969h133v-854h456v854h136v-969h-1317v969h135v-854h457v854z" />
    <glyph glyph-name="uni0449" unicode="&#x449;" horiz-adv-x="1658" 
d="M748 969h135v-854h452v854h135v-854h117v-410l-127 -20v315h-1302v969h135v-854h455v854z" />
    <glyph glyph-name="uni044A" unicode="&#x44a;" horiz-adv-x="1116" 
d="M1044 322q0 -151 -104 -236.5t-281 -85.5h-317v854h-305l16 115h424v-342h199q181 0 274.5 -80.5t93.5 -224.5zM911 317q0 195 -241 195h-193v-399h187q118 0 182.5 54t64.5 150z" />
    <glyph glyph-name="uni044B" unicode="&#x44b;" horiz-adv-x="1331" 
d="M1171 0h-135v969h135v-969zM846 322q0 -151 -104 -236.5t-279 -85.5h-305v969h135v-342h184q181 0 275 -80.5t94 -224.5zM713 317q0 93 -59.5 144t-180.5 51h-180v-399h172q119 0 183.5 54t64.5 150z" />
    <glyph glyph-name="uni044C" unicode="&#x44c;" horiz-adv-x="931" 
d="M860 322q0 -151 -104 -236.5t-281 -85.5h-317v969h135v-342h199q181 0 274.5 -80.5t93.5 -224.5zM727 317q0 94 -59.5 144.5t-182.5 50.5h-192v-399h186q118 0 183 54t65 150z" />
    <glyph glyph-name="uni044D" unicode="&#x44d;" horiz-adv-x="954" 
d="M123 758l-19 125q141 106 322 106q193 0 311.5 -135.5t118.5 -368.5q0 -119 -35 -216t-95.5 -159.5t-142 -96t-175.5 -33.5q-173 0 -318 102l23 131q141 -117 299 -117q127 0 212 87.5t97 248.5h-467l-18 117l483 -2q-13 152 -94 238.5t-207 86.5q-152 0 -295 -114z" />
    <glyph glyph-name="uni044E" unicode="&#x44e;" horiz-adv-x="1447" 
d="M1350 483q0 -231 -119 -367t-305 -136q-176 0 -292 122t-128 334h-213v-436h-135v969h135v-416h215q17 202 132.5 319t285.5 117q187 0 305.5 -136.5t118.5 -369.5zM1210 483q0 176 -77 283.5t-207 107.5t-206.5 -106t-76.5 -285q0 -174 77.5 -281.5t205.5 -107.5
q132 0 208 105t76 284z" />
    <glyph glyph-name="uni044F" unicode="&#x44f;" horiz-adv-x="1032" 
d="M217 -10l-143 28l295 367q-105 28 -164.5 101.5t-59.5 177.5q0 141 99.5 223t277.5 82h352v-969h-135v371h-223zM283 670q0 -89 59 -140t172 -51h225v375h-221q-114 0 -174.5 -48.5t-60.5 -135.5z" />
    <glyph glyph-name="uni0450" unicode="&#x450;" horiz-adv-x="1005" 
d="M905 117q-160 -137 -370 -137q-197 0 -317 131t-120 374q0 230 116.5 367t299.5 137q127 0 217.5 -66t133 -174t42.5 -245v-29h-674q3 -181 83.5 -280t226.5 -99q175 0 342 144zM512 881q-108 0 -181 -77.5t-93 -221.5h530q-9 136 -75 217.5t-181 81.5zM578 1126h-93
l-278 275l176 39z" />
    <glyph glyph-name="uni0451" unicode="&#x451;" horiz-adv-x="1005" 
d="M905 117q-160 -137 -370 -137q-197 0 -317 131t-120 374q0 230 116.5 367t299.5 137q127 0 217.5 -66t133 -174t42.5 -245v-29h-674q3 -181 83.5 -280t226.5 -99q175 0 342 144zM512 881q-108 0 -181 -77.5t-93 -221.5h530q-9 136 -75 217.5t-181 81.5zM780 1145h-170
v182h170v-182zM426 1145h-168v182h168v-182z" />
    <glyph glyph-name="uni0452" unicode="&#x452;" horiz-adv-x="1044" 
d="M647 1112h-340v-328q140 35 240 35q197 0 292 -105t95 -302q0 -183 -60.5 -368t-189.5 -419l-131 21q128 237 187 414.5t59 342.5q0 148 -65 220.5t-204 72.5q-111 0 -223 -32v-664h-135v1112h-197l-20 113h217v221l135 24v-245h340v-113z" />
    <glyph glyph-name="uni0453" unicode="&#x453;" horiz-adv-x="817" 
d="M739 1401l-278 -275h-94l198 314zM158 0v969h590l16 -119h-471v-850h-135z" />
    <glyph glyph-name="uni0454" unicode="&#x454;" horiz-adv-x="954" 
d="M719 432h-486q12 -159 98 -247.5t220 -88.5q159 0 295 117l18 -125q-135 -108 -327 -108q-193 0 -316 134.5t-123 368.5q0 237 125.5 371.5t321.5 134.5q176 0 311 -98l-22 -133q-135 114 -293 114q-126 0 -209.5 -84.5t-98.5 -240.5l467 2z" />
    <glyph glyph-name="uni0455" unicode="&#x455;" horiz-adv-x="897" 
d="M801 262q0 -131 -96.5 -205.5t-264.5 -74.5q-92 0 -186.5 25t-161.5 63l23 131q166 -105 338 -105q102 0 160.5 41.5t58.5 114.5q0 72 -52.5 112t-197.5 78q-166 42 -236.5 105t-70.5 180q0 115 90 188.5t239 73.5q158 0 301 -65l-22 -129q-140 75 -283 75
q-96 0 -146 -37.5t-50 -99.5q0 -60 47 -96t170 -68q180 -48 260 -115.5t80 -191.5z" />
    <glyph glyph-name="uni0456" unicode="&#x456;" horiz-adv-x="479" 
d="M336 1298q0 -40 -28 -69t-68 -29t-69.5 29t-29.5 69t29.5 69.5t69.5 29.5q39 0 67.5 -29.5t28.5 -69.5zM305 0h-133v969h133v-969z" />
    <glyph glyph-name="uni0457" unicode="&#x457;" horiz-adv-x="479" 
d="M502 1145h-170v182h170v-182zM147 1145h-167v182h167v-182zM305 0h-133v969h133v-969z" />
    <glyph glyph-name="uni0458" unicode="&#x458;" horiz-adv-x="479" 
d="M336 1298q0 -40 -28 -69t-68 -29t-69.5 29t-29.5 69t29.5 69.5t69.5 29.5q39 0 67.5 -29.5t28.5 -69.5zM305 -150q0 -111 -59.5 -165t-159.5 -54q-50 0 -78 7l-20 120q33 -8 80 -8q104 0 104 115v1104h133v-1119z" />
    <glyph glyph-name="uni0459" unicode="&#x459;" horiz-adv-x="1564" 
d="M1493 322q0 -150 -105 -236t-280 -86h-317v854h-326l-29 -266q-27 -227 -72 -350.5t-115.5 -179t-195.5 -76.5l-18 124q89 19 137 64.5t79 145t54 290.5l43 363h578v-342h198q181 0 275 -80.5t94 -224.5zM1360 317q0 94 -59.5 144.5t-182.5 50.5h-192v-399h186
q118 0 183 54t65 150z" />
    <glyph glyph-name="uni045A" unicode="&#x45a;" horiz-adv-x="1552" 
d="M1481 322q0 -151 -104 -236.5t-279 -85.5h-310v451h-495v-451h-135v969h135v-402h495v402h136v-342h188q181 0 275 -80.5t94 -224.5zM1348 317q0 93 -59.5 144t-180.5 51h-184v-399h176q118 0 183 54t65 150z" />
    <glyph glyph-name="uni045B" unicode="&#x45b;" horiz-adv-x="1062" 
d="M647 1112h-340v-328q143 35 258 35q178 0 268.5 -83.5t90.5 -248.5v-487h-136v483q0 213 -243 213q-118 0 -238 -32v-664h-135v1112h-197l-20 113h217v221l135 24v-245h340v-113z" />
    <glyph glyph-name="uni045C" unicode="&#x45c;" horiz-adv-x="952" 
d="M801 1397l-279 -275h-94l199 314zM764 -12l-471 501v-489h-135v969h135v-441l422 441h176l-455 -457l484 -500z" />
    <glyph glyph-name="uni045D" unicode="&#x45d;" horiz-adv-x="1107" 
d="M612 1122h-92l-278 275l176 39zM158 0v969h133v-770l516 770h143v-969h-131v784l-528 -784h-133z" />
    <glyph glyph-name="uni045E" unicode="&#x45e;" horiz-adv-x="983" 
d="M922 969l-412 -1096q-49 -135 -117.5 -188.5t-173.5 -53.5q-10 0 -59 7l-21 120q46 -8 78 -8q64 0 103.5 32.5t68.5 111.5l41 100l-367 962l134 25l299 -823l284 811h142zM766 1358q-19 -103 -86 -166.5t-186 -63.5q-116 0 -184.5 63.5t-84.5 166.5l94 18
q17 -62 62.5 -95.5t114.5 -33.5q135 0 174 129z" />
    <glyph glyph-name="uni045F" unicode="&#x45f;" horiz-adv-x="1085" 
d="M606 -295l-129 -20v315h-319v969h135v-854h500v854h135v-969h-322v-295z" />
    <glyph glyph-name="uni0462" unicode="&#x462;" horiz-adv-x="1384" 
d="M1292 399q0 -186 -125 -292.5t-346 -106.5h-350v1085h-420l21 123h399v228h139v-228h457v-123h-457v-305h240q211 0 326.5 -101.5t115.5 -279.5zM1151 393q0 125 -78 193.5t-231 68.5h-232v-530h217q156 0 240 71t84 197z" />
    <glyph glyph-name="uni0463" unicode="&#x463;" horiz-adv-x="1116" 
d="M1044 317q0 -149 -105 -233t-282 -84h-315v854h-305l16 115h289v477l135 24v-501h350v-115h-350v-236h195q182 0 277 -79.5t95 -221.5zM911 313q0 92 -60 142.5t-181 50.5h-193v-393h185q119 0 184 53t65 147z" />
    <glyph glyph-name="uni0472" unicode="&#x472;" horiz-adv-x="1525" 
d="M1401 709q0 -214 -80.5 -381.5t-226.5 -261t-334 -93.5q-282 0 -458.5 204t-176.5 528q0 161 47 297.5t130.5 233t202.5 150.5t259 54q188 0 333 -92.5t224.5 -258.5t79.5 -380zM764 98q211 0 345 150t148 397h-991q15 -247 151 -397t347 -150zM762 1315
q-211 0 -346 -149.5t-150 -395.5h991q-17 246 -151.5 395.5t-343.5 149.5z" />
    <glyph glyph-name="uni0473" unicode="&#x473;" 
d="M971 483q0 -232 -122 -367.5t-314 -135.5q-193 0 -315 135.5t-122 367.5q0 233 123 369.5t314 136.5q193 0 314.5 -136.5t121.5 -369.5zM535 88q126 0 209 89t96 251h-611q12 -161 95.5 -250.5t210.5 -89.5zM535 881q-127 0 -210 -88t-96 -248h609q-13 158 -96 247
t-207 89z" />
    <glyph glyph-name="uni0474" unicode="&#x474;" horiz-adv-x="1441" 
d="M1415 1430l19 -130q-113 -22 -175.5 -93t-136.5 -261l-368 -954h-129l-545 1405l141 30l469 -1253l307 815q87 236 174 328.5t244 112.5z" />
    <glyph glyph-name="uni0475" unicode="&#x475;" horiz-adv-x="1007" 
d="M993 866q-85 -17 -131 -71.5t-92 -182.5l-227 -620h-129l-353 964l138 25l282 -823l170 499q57 165 125 239t199 93z" />
    <glyph glyph-name="uni0490" unicode="&#x490;" horiz-adv-x="972" 
d="M188 1413h596v301l134 -20v-412h-588v-1282h-142v1413z" />
    <glyph glyph-name="uni0491" unicode="&#x491;" horiz-adv-x="831" 
d="M293 850v-850h-135v969h491v295l129 -21v-393h-485z" />
    <glyph glyph-name="uni0492" unicode="&#x492;" horiz-adv-x="995" 
d="M217 1413h696l21 -131h-576v-498h332v-104h-332v-680h-141v680h-168l-16 104h184v629z" />
    <glyph glyph-name="uni0493" unicode="&#x493;" horiz-adv-x="851" 
d="M190 0v424h-135l-16 102h151v443h590l17 -119h-471v-324h295v-102h-295v-424h-136z" />
    <glyph glyph-name="uni0496" unicode="&#x496;" horiz-adv-x="1861" 
d="M248 1427l608 -661l-4 647h141l-6 -649l596 649h176l-620 -659l557 -625h141v-442l-133 -21v334h-74l-643 737l6 -737h-141l4 735l-635 -735h-176l662 750l-611 645z" />
    <glyph glyph-name="uni0497" unicode="&#x497;" horiz-adv-x="1447" 
d="M924 514l374 -399h132v-410l-127 -20v315h-54h-14l-457 500l4 -500h-135l4 500l-444 -500h-168l467 510l-432 446l147 25l430 -459l-4 447h135l-4 -447l418 447h168z" />
    <glyph glyph-name="uni0498" unicode="&#x498;" horiz-adv-x="1101" 
d="M977 387q0 -157 -107.5 -267.5t-285.5 -135.5l2 -297l-135 -21l2 314q-188 8 -353 102l23 135q192 -113 373 -113q156 0 247 80.5t91 204.5q0 138 -100.5 212.5t-295.5 74.5h-129l-18 127h162q160 0 256 74t96 192q0 110 -75.5 175t-213.5 65q-183 0 -373 -107l-18 131
q191 103 401 103q196 0 311 -99.5t115 -259.5q0 -125 -76 -211.5t-206 -122.5q307 -74 307 -356z" />
    <glyph glyph-name="uni0499" unicode="&#x499;" horiz-adv-x="946" 
d="M817 727q0 -89 -54 -147.5t-153 -85.5q107 -22 166.5 -82.5t59.5 -155.5q0 -114 -86 -187.5t-240 -86.5l4 -277l-131 -20l2 295q-154 14 -299 90l20 118q180 -94 340 -94q124 0 188 44.5t64 121.5q0 84 -72 130t-210 46h-150l-18 115h178q122 0 190 44.5t68 119.5
q0 71 -57 113t-174 42q-139 0 -326 -90l-18 119q180 88 350 88q175 0 266.5 -71.5t91.5 -188.5z" />
    <glyph glyph-name="uni049A" unicode="&#x49a;" horiz-adv-x="1259" 
d="M1110 -334v334h-76l-704 729v-729h-142v1413h142v-643l655 643h182l-680 -659l611 -625h145v-442z" />
    <glyph glyph-name="uni049B" unicode="&#x49b;" horiz-adv-x="966" 
d="M293 0h-135v969h135v-441l422 441h174l-453 -457l385 -397h129v-410l-129 -20v315h-67l-461 489v-489z" />
    <glyph glyph-name="uni049C" unicode="&#x49c;" horiz-adv-x="1288" 
d="M614 1167v-358l426 604h168l-485 -665l508 -730l-146 -32l-471 688v-357h-102v365h-182v-682h-142v1413h142v-610h182v364h102z" />
    <glyph glyph-name="uni049D" unicode="&#x49d;" horiz-adv-x="1032" 
d="M508 811v-246l291 404h151l-338 -453l375 -504l-141 -24l-338 458v-245h-98v248h-119v-449h-133v969h133v-406h119v248h98z" />
    <glyph glyph-name="uni04A0" unicode="&#x4a0;" horiz-adv-x="1521" 
d="M1487 18l-160 -32l-717 743v-729h-141v1286h-420l21 127h540v-643l656 643h182l-680 -659z" />
    <glyph glyph-name="uni04A1" unicode="&#x4a1;" horiz-adv-x="1136" 
d="M948 -12l-471 501v-489h-135v854h-305l16 115h424v-441l422 441h176l-454 -457l483 -500z" />
    <glyph glyph-name="uni04A2" unicode="&#x4a2;" horiz-adv-x="1476" 
d="M1255 -334v334h-141v676h-784v-676h-142v1413h142v-610h784v610h141v-1284h134v-442z" />
    <glyph glyph-name="uni04A3" unicode="&#x4a3;" horiz-adv-x="1120" 
d="M922 -315v315h-123v446h-506v-446h-135v969h135v-406h506v406h135v-854h117v-410z" />
    <glyph glyph-name="uni04A4" unicode="&#x4a4;" horiz-adv-x="1857" 
d="M1237 0h-141v676h-766v-676h-142v1413h142v-610h766v610h680l20 -131h-559v-1282z" />
    <glyph glyph-name="uni04A5" unicode="&#x4a5;" horiz-adv-x="1415" 
d="M922 0h-136v451h-493v-451h-135v969h135v-402h493v402h557l19 -119h-440v-850z" />
    <glyph glyph-name="uni04AA" unicode="&#x4aa;" horiz-adv-x="1306" 
d="M1196 115q-173 -131 -397 -140l2 -288l-135 -21l2 316q-247 34 -395 230t-148 493q0 215 81 382t229.5 260t340.5 93q225 0 398 -121l-23 -143q-185 137 -377 137q-231 0 -367.5 -166.5t-136.5 -437.5q0 -273 136.5 -440t365.5 -167q211 0 404 148z" />
    <glyph glyph-name="uni04AB" unicode="&#x4ab;" horiz-adv-x="952" 
d="M864 88q-121 -92 -272 -106l2 -277l-129 -20l2 301q-165 24 -267 155t-102 342q0 119 34.5 216t95 160t142 96.5t175.5 33.5q176 0 311 -98l-22 -135q-137 116 -293 116q-136 0 -220.5 -102.5t-84.5 -284.5q0 -180 87 -283.5t226 -103.5q163 0 297 115z" />
    <glyph glyph-name="uni04AE" unicode="&#x4ae;" horiz-adv-x="1286" 
d="M1219 1413l-508 -827v-586h-142v586l-499 813l145 28l428 -714l416 700h160z" />
    <glyph glyph-name="uni04AF" unicode="&#x4af;" horiz-adv-x="974" 
d="M913 969l-360 -969v-352l-135 -23v375l-357 956l138 25l288 -825l285 813h141z" />
    <glyph glyph-name="uni04B0" unicode="&#x4b0;" horiz-adv-x="1286" 
d="M1219 1413l-508 -829v-123h286l17 -105h-303v-356h-140v356h-303v105h303v123l-501 815l145 28l428 -714l416 700h160z" />
    <glyph glyph-name="uni04B1" unicode="&#x4b1;" horiz-adv-x="974" 
d="M913 969l-360 -969v-23h229l17 -102h-246v-227l-135 -23v250h-234v102h234v23l-357 956l138 25l288 -825l285 813h141z" />
    <glyph glyph-name="uni04B2" unicode="&#x4b2;" horiz-adv-x="1318" 
d="M1024 1413h156l-453 -672l418 -612h133v-442l-133 -21v334h-74l-424 637l-418 -637h-155l495 735l-446 660l141 28l385 -583z" />
    <glyph glyph-name="uni04B3" unicode="&#x4b3;" horiz-adv-x="978" 
d="M727 969h145l-319 -467l266 -387h121v-410l-127 -20v315h-65l-269 403l-262 -403h-145l336 498l-316 460l133 27l256 -389z" />
    <glyph glyph-name="uni04B6" unicode="&#x4b6;" horiz-adv-x="1263" 
d="M139 1413h142v-459q0 -299 319 -299q153 0 301 35v723h141v-1313l43 29l91 -219l-82 -236l-54 144v182h-139v561q-175 -35 -307 -35q-221 0 -338 105.5t-117 316.5v465z" />
    <glyph glyph-name="uni04B7" unicode="&#x4b7;" horiz-adv-x="1021" 
d="M117 969h133v-301q0 -215 223 -215q109 0 227 34v482h136v-854h116v-410l-129 -20v315h-123v367q-140 -35 -241 -35q-168 0 -255 83.5t-87 248.5v305z" />
    <glyph glyph-name="uni04B8" unicode="&#x4b8;" horiz-adv-x="1230" 
d="M641 205h-102v323q-195 12 -297.5 117.5t-102.5 302.5v465h142v-459q0 -269 258 -297v371h102v-373q129 3 260 35v723h141v-1413h-141v561q-144 -30 -260 -35v-321z" />
    <glyph glyph-name="uni04B9" unicode="&#x4b9;" horiz-adv-x="1011" 
d="M430 98v234q-313 15 -313 332v305h133v-301q0 -195 180 -213v264h98v-266q83 5 191 34v482h135v-969h-135v367q-111 -28 -191 -33v-236h-98z" />
    <glyph glyph-name="uni04BA" unicode="&#x4ba;" horiz-adv-x="1230" 
d="M1090 0h-142v459q0 299 -319 299q-153 0 -301 -35v-723h-142v1413h142v-561q175 35 307 35q221 0 338 -105.5t117 -316.5v-465z" />
    <glyph glyph-name="uni04BB" unicode="&#x4bb;" 
d="M922 0h-136v668q0 96 -45 148t-135 52q-142 0 -313 -168v-700h-135v1446l135 24v-639q85 75 167 116.5t173 41.5q142 0 215.5 -77.5t73.5 -217.5v-694z" />
    <glyph glyph-name="uni04C0" unicode="&#x4c0;" horiz-adv-x="548" 
d="M344 0h-141v1413h141v-1413z" />
    <glyph glyph-name="uni04C1" unicode="&#x4c1;" horiz-adv-x="1843" 
d="M248 1427l608 -661l-4 647h141l-6 -649l596 649h176l-620 -659l655 -736l-152 -32l-655 751l6 -737h-141l4 735l-635 -735h-176l662 750l-611 645zM1194 1776q-19 -103 -86 -166.5t-186 -63.5q-116 0 -184.5 63.5t-84.5 166.5l95 18q17 -62 62.5 -95.5t113.5 -33.5
q135 0 174 129z" />
    <glyph glyph-name="uni04C2" unicode="&#x4c2;" horiz-adv-x="1431" 
d="M207 0h-168l467 510l-432 446l147 25l430 -459l-4 447h135l-4 -447l418 447h168l-440 -455l469 -502l-148 -24l-467 512l4 -500h-135l4 500zM987 1362q-19 -103 -86 -166t-186 -63q-116 0 -184.5 63.5t-84.5 165.5l95 18q17 -62 62.5 -95.5t113.5 -33.5q135 0 174 129z
" />
    <glyph glyph-name="uni04CF" unicode="&#x4cf;" horiz-adv-x="479" 
d="M305 0h-133v1446l133 24v-1470z" />
    <glyph glyph-name="uni04D0" unicode="&#x4d0;" horiz-adv-x="1415" 
d="M80 0l557 1421h145l553 -1405l-139 -30l-180 471h-617l-174 -457h-145zM707 1257l-258 -675h518zM979 1796q-19 -103 -86 -166t-186 -63q-116 0 -184.5 63.5t-84.5 165.5l94 19q17 -62 62.5 -95.5t114.5 -33.5q135 0 174 129z" />
    <glyph glyph-name="uni04D1" unicode="&#x4d1;" horiz-adv-x="1001" 
d="M852 0h-102l-23 129q-160 -149 -342 -149q-130 0 -209.5 69t-79.5 195q0 169 146.5 257t476.5 120v63q0 186 -201 186q-155 0 -334 -86l-18 121q194 84 360 84q326 0 326 -299v-690zM719 240v274q-140 -14 -236.5 -38.5t-151 -58.5t-77.5 -74t-23 -91q0 -76 48 -117
t127 -41q76 0 158.5 39t154.5 107zM772 1362q-19 -103 -86 -166t-186 -63q-116 0 -184.5 63.5t-84.5 165.5l95 18q17 -62 62.5 -95.5t113.5 -33.5q135 0 174 129z" />
    <glyph glyph-name="uni04D2" unicode="&#x4d2;" horiz-adv-x="1415" 
d="M80 0l557 1421h145l553 -1405l-139 -30l-180 471h-617l-174 -457h-145zM707 1257l-258 -675h518zM969 1579h-170v182h170v-182zM614 1579h-168v182h168v-182z" />
    <glyph glyph-name="uni04D3" unicode="&#x4d3;" horiz-adv-x="1001" 
d="M852 0h-102l-23 129q-160 -149 -342 -149q-130 0 -209.5 69t-79.5 195q0 169 146.5 257t476.5 120v63q0 186 -201 186q-155 0 -334 -86l-18 121q194 84 360 84q326 0 326 -299v-690zM719 240v274q-140 -14 -236.5 -38.5t-151 -58.5t-77.5 -74t-23 -91q0 -76 48 -117
t127 -41q76 0 158.5 39t154.5 107zM762 1145h-170v182h170v-182zM408 1145h-168v182h168v-182z" />
    <glyph glyph-name="uni04D4" unicode="&#x4d4;" horiz-adv-x="1783" 
d="M20 0l840 1413h813v-127h-596v-483h473l19 -127h-492v-549h617v-127h-754v457h-498l-268 -457h-154zM514 580h426v718z" />
    <glyph glyph-name="uni04D5" unicode="&#x4d5;" horiz-adv-x="1617" 
d="M1516 504v-29h-672q3 -178 86 -278.5t223 -100.5q171 0 342 144l18 -123q-164 -137 -368 -137q-108 0 -197 44.5t-149 129.5q-188 -174 -398 -174q-136 0 -220.5 70t-84.5 194q0 166 143.5 254t471.5 120v70q0 182 -193 182q-155 0 -334 -86l-18 121q190 84 354 84
q124 0 194.5 -42.5t98.5 -131.5q108 174 315 174q96 0 171 -38t122 -104.5t71 -153.5t24 -189zM1378 582q-11 136 -74.5 217.5t-175.5 81.5q-113 0 -186 -79.5t-92 -219.5h528zM750 248q-39 109 -39 237v29q-138 -15 -233 -39.5t-148.5 -58t-76 -72.5t-22.5 -90
q0 -75 50 -117.5t135 -42.5q167 0 334 154z" />
    <glyph glyph-name="uni04D6" unicode="&#x4d6;" horiz-adv-x="1038" 
d="M946 0h-758v1413h738v-129h-596v-481h471l20 -127h-491v-547h616v-129zM831 1776q-19 -103 -86 -166.5t-186 -63.5q-116 0 -184 63.5t-84 166.5l94 18q17 -62 62.5 -95.5t113.5 -33.5q135 0 174 129z" />
    <glyph glyph-name="uni04D7" unicode="&#x4d7;" horiz-adv-x="1005" 
d="M905 117q-160 -137 -370 -137q-197 0 -317 131t-120 374q0 230 116.5 367t299.5 137q127 0 217.5 -66t133 -174t42.5 -245v-29h-674q3 -181 83.5 -280t226.5 -99q175 0 342 144zM512 881q-108 0 -181 -77.5t-93 -221.5h530q-9 136 -75 217.5t-181 81.5zM788 1362
q-19 -103 -86 -166t-186 -63q-116 0 -184 63t-84 166l94 18q17 -62 62.5 -95.5t113.5 -33.5q135 0 174 129z" />
    <glyph glyph-name="uni04D8" unicode="&#x4d8;" horiz-adv-x="1409" 
d="M664 1313q-232 0 -463 -156l-21 137q117 72 231.5 109t256.5 37q131 0 244 -50t195.5 -141.5t129.5 -229t47 -304.5q0 -166 -46 -305.5t-126.5 -235t-190.5 -148.5t-237 -53q-252 0 -401.5 192t-149.5 513v106h1006q-19 244 -148.5 386.5t-326.5 142.5zM690 98
q185 0 310.5 150.5t138.5 408.5h-860q2 -262 108 -410.5t303 -148.5z" />
    <glyph glyph-name="uni04D9" unicode="&#x4d9;" horiz-adv-x="1005" 
d="M100 852q160 137 369 137q197 0 317.5 -131.5t120.5 -374.5q0 -229 -116 -366t-299 -137q-190 0 -292 137t-102 362v33h672q-6 168 -88 264t-221 96q-177 0 -340 -143zM492 94q108 0 182.5 80.5t91.5 235.5h-530q6 -149 73.5 -232.5t182.5 -83.5z" />
    <glyph glyph-name="uni04DC" unicode="&#x4dc;" horiz-adv-x="1843" 
d="M248 1427l608 -661l-4 647h141l-6 -649l596 649h176l-620 -659l655 -736l-152 -32l-655 751l6 -737h-141l4 735l-635 -735h-176l662 750l-611 645zM1186 1559h-170v182h170v-182zM831 1559h-167v182h167v-182z" />
    <glyph glyph-name="uni04DD" unicode="&#x4dd;" horiz-adv-x="1431" 
d="M207 0h-168l467 510l-432 446l147 25l430 -459l-4 447h135l-4 -447l418 447h168l-440 -455l469 -502l-148 -24l-467 512l4 -500h-135l4 500zM979 1145h-170v182h170v-182zM625 1145h-168v182h168v-182z" />
    <glyph glyph-name="uni04DE" unicode="&#x4de;" horiz-adv-x="1101" 
d="M977 387q0 -177 -134.5 -293.5t-348.5 -116.5q-208 0 -394 105l23 135q192 -113 373 -113q156 0 247 80.5t91 204.5q0 138 -100.5 212.5t-295.5 74.5h-129l-18 127h162q160 0 256 74t96 192q0 110 -75.5 175t-213.5 65q-183 0 -373 -107l-18 131q191 103 401 103
q196 0 311 -99.5t115 -259.5q0 -125 -76 -211.5t-206 -122.5q307 -74 307 -356zM805 1579h-170v182h170v-182zM451 1579h-168v182h168v-182z" />
    <glyph glyph-name="uni04DF" unicode="&#x4df;" horiz-adv-x="946" 
d="M817 727q0 -89 -54 -147.5t-153 -85.5q107 -22 166.5 -82.5t59.5 -155.5q0 -125 -103 -202t-284 -77q-179 0 -363 93l20 118q180 -94 340 -94q124 0 188 44.5t64 121.5q0 84 -72 130t-210 46h-150l-18 115h178q122 0 190 44.5t68 119.5q0 71 -57 113t-174 42
q-139 0 -326 -90l-18 119q180 88 350 88q175 0 266.5 -71.5t91.5 -188.5zM731 1145h-170v182h170v-182zM377 1145h-168v182h168v-182z" />
    <glyph glyph-name="uni04E2" unicode="&#x4e2;" horiz-adv-x="1443" 
d="M987 1585h-532v115h532v-115zM322 0h-134v1413h140v-1177l782 1177h145v-1413h-139v1196z" />
    <glyph glyph-name="uni04E3" unicode="&#x4e3;" horiz-adv-x="1107" 
d="M819 1178h-532v114h532v-114zM158 0v969h133v-770l516 770h143v-969h-131v784l-528 -784h-133z" />
    <glyph glyph-name="uni04E4" unicode="&#x4e4;" horiz-adv-x="1443" 
d="M983 1548h-170v183h170v-183zM629 1548h-168v183h168v-183zM322 0h-134v1413h140v-1177l782 1177h145v-1413h-139v1196z" />
    <glyph glyph-name="uni04E5" unicode="&#x4e5;" horiz-adv-x="1107" 
d="M815 1141h-170v182h170v-182zM461 1141h-168v182h168v-182zM158 0v969h133v-770l516 770h143v-969h-131v784l-528 -784h-133z" />
    <glyph glyph-name="uni04E6" unicode="&#x4e6;" horiz-adv-x="1525" 
d="M1024 1579h-170v182h170v-182zM670 1579h-168v182h168v-182zM1401 709q0 -214 -80.5 -381.5t-226.5 -261t-334 -93.5q-282 0 -458.5 204t-176.5 528q0 161 47 297.5t130.5 233t202.5 150.5t259 54q188 0 333 -92.5t224.5 -258.5t79.5 -380zM1255 705q0 272 -135.5 440
t-357.5 168t-357 -167t-135 -437q0 -272 136 -440.5t358 -168.5t356.5 167.5t134.5 437.5z" />
    <glyph glyph-name="uni04E7" unicode="&#x4e7;" 
d="M797 1145h-170v182h170v-182zM442 1145h-168v182h168v-182zM973 483q0 -233 -124.5 -368t-316.5 -135q-191 0 -312.5 134.5t-121.5 368.5q0 235 122.5 370.5t311.5 135.5q194 0 317.5 -135t123.5 -371zM834 483q0 178 -82.5 284.5t-219.5 106.5q-136 0 -216 -104.5
t-80 -286.5q0 -176 81.5 -282.5t214.5 -106.5q138 0 220 104.5t82 284.5z" />
    <glyph glyph-name="uni04E8" unicode="&#x4e8;" horiz-adv-x="1525" 
d="M1401 709q0 -214 -80.5 -381.5t-226.5 -261t-334 -93.5q-282 0 -458.5 204t-176.5 528q0 161 47 297.5t130.5 233t202.5 150.5t259 54q188 0 333 -92.5t224.5 -258.5t79.5 -380zM764 98q211 0 345 150t148 397h-991q15 -247 151 -397t347 -150zM762 1315
q-211 0 -346 -149.5t-150 -395.5h991q-17 246 -151.5 395.5t-343.5 149.5z" />
    <glyph glyph-name="uni04E9" unicode="&#x4e9;" 
d="M971 483q0 -232 -122 -367.5t-314 -135.5q-193 0 -315 135.5t-122 367.5q0 233 123 369.5t314 136.5q193 0 314.5 -136.5t121.5 -369.5zM535 88q126 0 209 89t96 251h-611q12 -161 95.5 -250.5t210.5 -89.5zM535 881q-127 0 -210 -88t-96 -248h609q-13 158 -96 247
t-207 89z" />
    <glyph glyph-name="uni04EE" unicode="&#x4ee;" horiz-adv-x="1288" 
d="M1247 1413l-608 -1184q-72 -138 -147 -197t-181 -59q-59 0 -112 21l-19 133q77 -25 129 -25q63 0 110.5 40.5t94.5 129.5l94 179l-514 950l148 26l442 -837l408 823h155zM942 1585h-532v115h532v-115z" />
    <glyph glyph-name="uni04EF" unicode="&#x4ef;" horiz-adv-x="983" 
d="M922 969l-412 -1096q-49 -135 -117.5 -188.5t-173.5 -53.5q-10 0 -59 7l-21 120q46 -8 78 -8q64 0 103.5 32.5t68.5 111.5l41 100l-367 962l134 25l299 -823l284 811h142zM762 1178h-533v114h533v-114z" />
    <glyph glyph-name="uni04F0" unicode="&#x4f0;" horiz-adv-x="1288" 
d="M1247 1413l-608 -1184q-72 -138 -147 -197t-181 -59q-59 0 -112 21l-19 133q77 -25 129 -25q63 0 110.5 40.5t94.5 129.5l94 179l-514 950l148 26l442 -837l408 823h155zM936 1548h-170v183h170v-183zM582 1548h-168v183h168v-183z" />
    <glyph glyph-name="uni04F1" unicode="&#x4f1;" horiz-adv-x="983" 
d="M922 969l-412 -1096q-49 -135 -117.5 -188.5t-173.5 -53.5q-10 0 -59 7l-21 120q46 -8 78 -8q64 0 103.5 32.5t68.5 111.5l41 100l-367 962l134 25l299 -823l284 811h142zM756 1141h-170v182h170v-182zM401 1141h-168v182h168v-182z" />
    <glyph glyph-name="uni04F2" unicode="&#x4f2;" horiz-adv-x="1288" 
d="M1247 1413l-608 -1184q-72 -138 -147 -197t-181 -59q-59 0 -112 21l-19 133q77 -25 129 -25q63 0 110.5 40.5t94.5 129.5l94 179l-514 950l148 26l442 -837l408 823h155zM803 1810l-275 -272h-84l197 311zM1130 1810l-274 -272h-82l195 311z" />
    <glyph glyph-name="uni04F3" unicode="&#x4f3;" horiz-adv-x="983" 
d="M922 969l-412 -1096q-49 -135 -117.5 -188.5t-173.5 -53.5q-10 0 -59 7l-21 120q46 -8 78 -8q64 0 103.5 32.5t68.5 111.5l41 100l-367 962l134 25l299 -823l284 811h142zM950 1403l-274 -273h-82l194 312zM623 1403l-275 -273h-84l197 312z" />
    <glyph glyph-name="uni04F4" unicode="&#x4f4;" horiz-adv-x="1230" 
d="M854 1548h-170v183h170v-183zM500 1548h-168v183h168v-183zM139 1413h142v-459q0 -299 319 -299q153 0 301 35v723h141v-1413h-141v561q-175 -35 -307 -35q-221 0 -338 105.5t-117 316.5v465z" />
    <glyph glyph-name="uni04F5" unicode="&#x4f5;" horiz-adv-x="993" 
d="M741 1141h-170v182h170v-182zM387 1141h-168v182h168v-182zM117 969h133v-301q0 -215 223 -215q109 0 227 34v482h136v-969h-136v367q-140 -35 -241 -35q-168 0 -255 83.5t-87 248.5v305z" />
    <glyph glyph-name="uni04F8" unicode="&#x4f8;" horiz-adv-x="1554" 
d="M1032 1548h-170v183h170v-183zM678 1548h-168v183h168v-183zM1001 422q0 -200 -134 -311t-367 -111h-312v1413h142v-588h200q222 0 346.5 -105t124.5 -298zM858 418q0 139 -86.5 211.5t-249.5 72.5h-192v-577h178q167 0 258.5 75.5t91.5 217.5zM1354 0h-140v1413h140
v-1413z" />
    <glyph glyph-name="uni04F9" unicode="&#x4f9;" horiz-adv-x="1331" 
d="M924 1141h-170v182h170v-182zM569 1141h-168v182h168v-182zM1171 0h-135v969h135v-969zM846 322q0 -151 -104 -236.5t-279 -85.5h-305v969h135v-342h184q181 0 275 -80.5t94 -224.5zM713 317q0 93 -59.5 144t-180.5 51h-180v-399h172q119 0 183.5 54t64.5 150z" />
    <glyph glyph-name="Wgrave" unicode="&#x1e80;" horiz-adv-x="2101" 
d="M2007 1413l-426 -1417h-123l-409 1223l-408 -1223h-119l-424 1401l140 30l352 -1210l389 1196h145l394 -1196l346 1196h143zM1110 1540h-92l-279 275l176 38z" />
    <glyph glyph-name="wgrave" unicode="&#x1e81;" horiz-adv-x="1490" 
d="M1425 969l-321 -977h-119l-242 794l-239 -794h-117l-321 969l131 24l249 -813l242 801h117l244 -801l239 797h137zM805 1126h-92l-279 275l176 39z" />
    <glyph glyph-name="Wacute" unicode="&#x1e82;" horiz-adv-x="2101" 
d="M1364 1815l-279 -275h-94l199 313zM2007 1413l-426 -1417h-123l-409 1223l-408 -1223h-119l-424 1401l140 30l352 -1210l389 1196h145l394 -1196l346 1196h143z" />
    <glyph glyph-name="wacute" unicode="&#x1e83;" horiz-adv-x="1490" 
d="M1059 1401l-279 -275h-94l199 314zM1425 969l-321 -977h-119l-242 794l-239 -794h-117l-321 969l131 24l249 -813l242 801h117l244 -801l239 797h137z" />
    <glyph glyph-name="Wdieresis" unicode="&#x1e84;" horiz-adv-x="2101" 
d="M1313 1559h-170v182h170v-182zM958 1559h-167v182h167v-182zM2007 1413l-426 -1417h-123l-409 1223l-408 -1223h-119l-424 1401l140 30l352 -1210l389 1196h145l394 -1196l346 1196h143z" />
    <glyph glyph-name="wdieresis" unicode="&#x1e85;" horiz-adv-x="1490" 
d="M1008 1145h-170v182h170v-182zM653 1145h-168v182h168v-182zM1425 969l-321 -977h-119l-242 794l-239 -794h-117l-321 969l131 24l249 -813l242 801h117l244 -801l239 797h137z" />
    <glyph glyph-name="Ygrave" unicode="&#x1ef2;" horiz-adv-x="1286" 
d="M1219 1413l-508 -827v-586h-142v586l-499 813l145 28l428 -714l416 700h160zM700 1530h-92l-278 274l176 39z" />
    <glyph glyph-name="ygrave" unicode="&#x1ef3;" horiz-adv-x="983" 
d="M922 969l-412 -1096q-49 -135 -117.5 -188.5t-173.5 -53.5q-10 0 -59 7l-21 120q46 -8 78 -8q64 0 103.5 32.5t68.5 111.5l41 100l-367 962l134 25l299 -823l284 811h142zM555 1122h-92l-279 275l176 39z" />
    <glyph glyph-name="uni2000" unicode="&#x2000;" horiz-adv-x="1036" 
 />
    <glyph glyph-name="uni2001" unicode="&#x2001;" horiz-adv-x="2073" 
 />
    <glyph glyph-name="uni2002" unicode="&#x2002;" horiz-adv-x="1024" 
 />
    <glyph glyph-name="uni2003" unicode="&#x2003;" horiz-adv-x="2048" 
 />
    <glyph glyph-name="uni2004" unicode="&#x2004;" horiz-adv-x="681" 
 />
    <glyph glyph-name="uni2005" unicode="&#x2005;" horiz-adv-x="512" 
 />
    <glyph glyph-name="uni2006" unicode="&#x2006;" horiz-adv-x="345" 
 />
    <glyph glyph-name="uni2007" unicode="&#x2007;" horiz-adv-x="345" 
 />
    <glyph glyph-name="uni2008" unicode="&#x2008;" horiz-adv-x="259" 
 />
    <glyph glyph-name="uni2009" unicode="&#x2009;" horiz-adv-x="272" 
 />
    <glyph glyph-name="uni200A" unicode="&#x200a;" horiz-adv-x="153" 
 />
    <glyph glyph-name="uni2010" unicode="&#x2010;" horiz-adv-x="745" 
d="M621 512h-496v135h496v-135z" />
    <glyph glyph-name="uni2011" unicode="&#x2011;" horiz-adv-x="745" 
d="M621 512h-496v135h496v-135z" />
    <glyph glyph-name="figuredash" unicode="&#x2012;" horiz-adv-x="745" 
d="M621 512h-496v135h496v-135z" />
    <glyph glyph-name="endash" unicode="&#x2013;" horiz-adv-x="933" 
d="M813 514h-694v131h694v-131z" />
    <glyph glyph-name="emdash" unicode="&#x2014;" horiz-adv-x="1867" 
d="M1747 516h-1628v129h1628v-129z" />
    <glyph glyph-name="quoteleft" unicode="&#x2018;" horiz-adv-x="448" 
d="M340 1407l-72 -438h-164l160 456z" />
    <glyph glyph-name="quoteright" unicode="&#x2019;" horiz-adv-x="448" 
d="M342 1413l-158 -457l-75 19l71 438h162z" />
    <glyph glyph-name="quotesinglbase" unicode="&#x201a;" horiz-adv-x="448" 
d="M328 201l-158 -455l-76 16l72 439h162z" />
    <glyph glyph-name="quotedblleft" unicode="&#x201c;" horiz-adv-x="794" 
d="M340 1407l-72 -438h-164l160 456zM684 1407l-70 -438h-163l159 456z" />
    <glyph glyph-name="quotedblright" unicode="&#x201d;" horiz-adv-x="794" 
d="M342 1413l-158 -457l-75 19l71 438h162zM688 1413l-158 -457l-75 19l69 438h164z" />
    <glyph glyph-name="quotedblbase" unicode="&#x201e;" horiz-adv-x="792" 
d="M336 201l-158 -455l-76 16l70 439h164zM682 201l-158 -455l-75 16l69 439h164z" />
    <glyph glyph-name="dagger" unicode="&#x2020;" horiz-adv-x="1019" 
d="M569 1212l-37 -233h-45l-34 233v201h116v-201zM915 848h-92l-237 37v43l237 37h92v-117zM436 885l-241 -37h-91v117h91l241 -37v-43zM565 -2l-37 -236h-36l-37 236v627l32 209h45l33 -209v-627z" />
    <glyph glyph-name="daggerdbl" unicode="&#x2021;" horiz-adv-x="1058" 
d="M588 1212l-37 -233h-43l-37 233v201h117v-201zM934 848h-92l-238 37v43l238 37h92v-117zM455 885l-240 -37h-92v117h92l240 -37v-43zM584 412l-33 -211h-43l-35 211v213l35 209h43l33 -209v-213zM934 72h-92l-238 34v44l238 36h92v-114zM455 106l-240 -34h-92v114h92
l240 -36v-44zM588 -379h-117v201l37 233h43l37 -233v-201z" />
    <glyph glyph-name="bullet" unicode="&#x2022;" horiz-adv-x="854" 
d="M666 713l-33 -224l-205 -34l-205 34l-35 224l35 223l205 33l205 -33z" />
    <glyph glyph-name="ellipsis" unicode="&#x2026;" horiz-adv-x="1419" 
d="M1264 0h-162v201h162v-201zM788 0h-159v201h159v-201zM317 0h-159v201h159v-201z" />
    <glyph glyph-name="uni202F" unicode="&#x202f;" horiz-adv-x="414" 
 />
    <glyph glyph-name="guilsinglleft" unicode="&#x2039;" horiz-adv-x="641" 
d="M530 969l-294 -484l286 -471l-100 -24l-342 495l336 484h114z" />
    <glyph glyph-name="guilsinglright" unicode="&#x203a;" horiz-adv-x="641" 
d="M559 483l-336 -483h-112l292 483l-284 473l98 23z" />
    <glyph glyph-name="fraction" unicode="&#x2044;" horiz-adv-x="552" 
d="M-96 -16l-97 26l429 701l413 696l96 -27l-430 -700z" />
    <glyph glyph-name="uni205F" unicode="&#x205f;" horiz-adv-x="518" 
 />
    <glyph glyph-name="Euro" unicode="&#x20ac;" horiz-adv-x="1234" 
d="M66 823v111h202q52 221 192 349t337 128q194 0 342 -104l-23 -133q-79 60 -152.5 89t-166.5 29q-147 0 -249.5 -95.5t-144.5 -262.5h512l19 -111h-553q-6 -61 -6 -131q0 -69 4 -100h547v-109h-533q39 -183 143.5 -287t256.5 -104q97 0 178.5 32t171.5 97l18 -125
q-171 -123 -375 -123q-205 0 -344 136.5t-182 373.5h-184l-17 109h185q-2 31 -2 98q0 68 6 133h-182z" />
    <glyph glyph-name="uni20B4" unicode="&#x20b4;" horiz-adv-x="1140" 
d="M1096 838l-17 -99l-340 41l-211 -190l523 -62v-102l-617 76q-82 -76 -113.5 -133t-31.5 -115q0 -164 237 -164q179 0 398 133l20 -117q-234 -131 -426 -131q-169 0 -263.5 70t-94.5 205q0 133 129 268l-244 31l16 98l324 -39l209 189l-504 61v103l598 -74q96 89 132 141
t36 113q0 70 -57 111.5t-170 41.5q-168 0 -389 -125l-23 117q227 123 420 123q165 0 256.5 -70t91.5 -192q0 -76 -35 -139t-114 -140z" />
    <glyph glyph-name="trademark" unicode="&#x2122;" horiz-adv-x="1640" 
d="M1505 707h-96l-41 548l-219 -550h-78l-217 548l-43 -546h-92l53 706h115l227 -579l223 579h113zM621 1325h-228v-618h-96v618h-221v88h532z" />
    <glyph glyph-name="uni25FC" unicode="&#x25fc;" horiz-adv-x="983" 
d="M0 983h983v-983h-983v983z" />
    <glyph glyph-name="uniFB00" unicode="&#xfb00;" horiz-adv-x="1222" 
d="M575 1333q-36 8 -81 8q-148 0 -148 -149v-223h199l18 -115h-217v-854h-133v854h-147v115h147v233q0 130 72 195t200 65q30 0 70 -4zM1186 1333q-36 8 -82 8q-148 0 -148 -149v-223h199l19 -115h-218v-854h-133v854h-147v115h147v233q0 130 72.5 195t200.5 65q29 0 69 -4z
" />
    <glyph glyph-name="fi" unicode="&#xfb01;" horiz-adv-x="1089" 
d="M946 1298q0 -40 -28 -69t-68 -29t-69 29t-29 69t29 69.5t69 29.5q39 0 67.5 -29.5t28.5 -69.5zM915 0h-133v969h133v-969zM575 1333q-36 8 -81 8q-148 0 -148 -149v-223h199l18 -115h-217v-854h-133v854h-147v115h147v233q0 130 72 195t200 65q30 0 70 -4z" />
    <glyph glyph-name="fl" unicode="&#xfb02;" horiz-adv-x="1089" 
d="M915 0h-133v1446l133 24v-1470zM575 1333q-36 8 -81 8q-148 0 -148 -149v-223h199l18 -115h-217v-854h-133v854h-147v115h147v233q0 130 72 195t200 65q30 0 70 -4z" />
    <glyph glyph-name="uniFB03" unicode="&#xfb03;" horiz-adv-x="1699" 
d="M1556 1298q0 -40 -28 -69t-68 -29t-69 29t-29 69t29 69.5t69 29.5q39 0 67.5 -29.5t28.5 -69.5zM1526 0h-133v969h133v-969zM575 1333q-36 8 -81 8q-148 0 -148 -149v-223h199l18 -115h-217v-854h-133v854h-147v115h147v233q0 130 72 195t200 65q30 0 70 -4zM1186 1333
q-36 8 -82 8q-148 0 -148 -149v-223h199l19 -115h-218v-854h-133v854h-147v115h147v233q0 130 72.5 195t200.5 65q29 0 69 -4z" />
    <glyph glyph-name="uniFB04" unicode="&#xfb04;" horiz-adv-x="1699" 
d="M1526 0h-133v1446l133 24v-1470zM575 1333q-36 8 -81 8q-148 0 -148 -149v-223h199l18 -115h-217v-854h-133v854h-147v115h147v233q0 130 72 195t200 65q30 0 70 -4zM1186 1333q-36 8 -82 8q-148 0 -148 -149v-223h199l19 -115h-218v-854h-133v854h-147v115h147v233
q0 130 72.5 195t200.5 65q29 0 69 -4z" />
    <glyph glyph-name="glyph600" horiz-adv-x="1810" 
d="M1620 0h-135v1188l-527 -1194h-112l-527 1194v-1188h-129v1413h175l540 -1235l543 1235h172v-1413z" />
    <glyph glyph-name="glyph601" horiz-adv-x="1533" 
d="M1430 106l-29 -135l-217 168q-174 -166 -424 -166q-187 0 -332.5 92.5t-225 259t-79.5 380.5q0 161 47 297.5t131 233t203.5 150.5t259.5 54t259 -54t202 -149.5t129.5 -231.5t46.5 -296q0 -279 -139 -476zM1255 705q0 272 -136 440t-359 168q-222 0 -357 -166t-135 -438
t136 -440.5t360 -168.5q187 0 315 119l-360 273l170 32l268 -211q98 156 98 392z" />
    <glyph glyph-name="glyph602" horiz-adv-x="1419" 
d="M1122 0l-24 170q-222 -186 -453 -186q-221 0 -344 115.5t-123 351.5v962h141v-946q0 -356 334 -356q216 0 437 198v1104h141v-1413h-109z" />
    <glyph glyph-name="glyph603" horiz-adv-x="2078" 
d="M1997 1413l-520 -1417h-125l-318 838l-309 -838h-125l-518 1401l143 30l443 -1241l301 824l-146 387l146 30l448 -1241l430 1227h150z" />
    <glyph glyph-name="glyph604" horiz-adv-x="1083" 
d="M926 14q0 -184 -104 -283.5t-306 -99.5q-176 0 -358 74l22 129q166 -86 346 -86q265 0 265 260v137q-135 -147 -299 -147q-81 0 -151 29.5t-124.5 86t-85.5 147.5t-31 206q0 248 131 382t340 134q159 0 355 -63v-906zM791 289v536q-109 41 -226 41q-150 0 -238.5 -99
t-88.5 -294q0 -168 73.5 -261t192.5 -93q144 0 287 170z" />
    <glyph glyph-name="glyph605" horiz-adv-x="1810" 
d="M1620 0h-135v1188l-527 -1194h-112l-527 1194v-1188h-129v1413h175l540 -1235l543 1235h172v-1413z" />
    <glyph glyph-name="glyph606" horiz-adv-x="1548" 
d="M57 129h111l530 1292h152l528 -1292h113v-442l-133 -21v334h-1168v-326h-133v455zM770 1247l-457 -1124h916z" />
    <glyph glyph-name="glyph607" horiz-adv-x="1398" 
d="M80 0l557 1421h131l551 -1405l-141 -30l-478 1255l-471 -1241h-149z" />
    <glyph glyph-name="glyph608" horiz-adv-x="1398" 
d="M80 0l557 1421h131l551 -1405l-141 -30l-478 1255l-471 -1241h-149z" />
    <glyph glyph-name="glyph609" horiz-adv-x="1810" 
d="M1620 0h-135v1188l-527 -1194h-112l-527 1194v-1188h-129v1413h175l540 -1235l543 1235h172v-1413z" />
    <glyph glyph-name="glyph610" horiz-adv-x="1732" 
d="M936 -203h-139v201q-307 13 -492.5 207t-185.5 500t186 500.5t492 209.5v201h139v-201q307 -13 492.5 -206.5t185.5 -499.5t-186 -501t-492 -210v-201zM1468 705q0 256 -144.5 413.5t-389.5 169.5v-1165q246 12 390 169.5t144 412.5zM264 709q0 -256 144.5 -414
t390.5 -172v1165q-246 -12 -390.5 -168.5t-144.5 -410.5z" />
    <glyph glyph-name="glyph611" horiz-adv-x="1105" 
d="M137 451v557q0 206 115.5 332t308.5 126q172 0 278.5 -104t106.5 -262q0 -141 -75 -234t-193 -137q153 -43 239.5 -139t86.5 -240q0 -159 -114.5 -264.5t-307.5 -105.5q-206 0 -325.5 126.5t-119.5 344.5zM440 666h-168v-211q0 -167 84.5 -263t229.5 -96q128 0 203 73.5
t75 184.5q0 142 -112.5 227t-311.5 85zM272 1012v-234h174q166 0 264.5 89t98.5 227q0 113 -68 184.5t-180 71.5q-133 0 -211 -94.5t-78 -243.5z" />
    <glyph glyph-name="glyph612" horiz-adv-x="897" 
d="M94 248q0 121 75 185.5t267 123.5q120 36 166.5 75t46.5 99q0 65 -47 102t-141 37q-143 0 -287 -82l-22 121q156 80 313 80q150 0 232.5 -70t82.5 -182q0 -116 -69.5 -179t-241.5 -114q-141 -44 -192.5 -84.5t-51.5 -107.5q0 -71 57 -113.5t162 -42.5q171 0 338 111
l23 -121q-172 -104 -369 -104q-164 0 -253 71t-89 195z" />
    <glyph glyph-name="glyph613" horiz-adv-x="1142" 
d="M971 -315v315h-799v-303h-127v418h100l353 864h149l348 -864h103v-410zM569 834l-284 -719h565z" />
    <glyph glyph-name="glyph614" horiz-adv-x="1083" 
d="M926 14q0 -184 -104 -283.5t-306 -99.5q-176 0 -358 74l22 129q166 -86 346 -86q265 0 265 260v137q-135 -147 -299 -147q-81 0 -151 29.5t-124.5 86t-85.5 147.5t-31 206q0 248 131 382t340 134q159 0 355 -63v-906zM791 289v536q-109 41 -226 41q-150 0 -238.5 -99
t-88.5 -294q0 -168 73.5 -261t192.5 -93q144 0 287 170z" />
    <glyph glyph-name="glyph615" horiz-adv-x="1431" 
d="M207 0h-168l467 510l-432 446l147 25l430 -459l-4 924l135 24l-4 -948l418 447h168l-440 -455l469 -502l-148 -24l-467 512l4 -500h-135l4 500z" />
    <glyph glyph-name="glyph616" 
d="M913 0h-104l-23 143q-184 -163 -348 -163q-143 0 -215.5 77.5t-72.5 218.5v693h135v-668q0 -96 45 -147.5t135 -51.5q144 0 313 166v701h135v-969z" />
    <glyph glyph-name="glyph617" 
d="M913 0h-104l-23 143q-184 -163 -348 -163q-143 0 -215.5 77.5t-72.5 218.5v693h135v-668q0 -96 45 -147.5t135 -51.5q144 0 313 166v701h135v-969zM803 1358q-19 -103 -86.5 -166.5t-186.5 -63.5q-116 0 -184 63.5t-84 166.5l94 18q17 -62 62.5 -95.5t113.5 -33.5
q136 0 175 129z" />
    <glyph glyph-name="glyph618" horiz-adv-x="954" 
d="M922 12l-148 -26l-481 528v-514h-135v1446l135 24v-917l422 416h174l-453 -432z" />
    <glyph glyph-name="glyph619" horiz-adv-x="1017" 
d="M61 0l383 981h134l378 -969l-137 -24l-311 827l-305 -815h-142z" />
    <glyph glyph-name="glyph620" horiz-adv-x="1017" 
d="M61 0l383 981h134l378 -969l-137 -24l-311 827l-305 -815h-142z" />
    <glyph glyph-name="glyph621" 
d="M922 0h-136v668q0 96 -45 148t-135 52q-142 0 -313 -168v-700h-135v969h104l23 -144q88 78 172 121t176 43q143 0 216 -77.5t73 -219.5v-692z" />
    <glyph glyph-name="glyph622" horiz-adv-x="1677" 
d="M1528 0h-135v668q0 200 -176 200q-139 0 -308 -166v-702h-133v668q0 200 -176 200q-141 0 -307 -163v-705h-135v969h104l23 -140q181 160 342 160q211 0 266 -168q185 168 352 168q142 0 212.5 -77t70.5 -218v-694z" />
    <glyph glyph-name="glyph623" horiz-adv-x="1101" 
d="M903 -315v315h-94l-23 143q-184 -163 -348 -163q-143 0 -215.5 77.5t-72.5 218.5v693h135v-668q0 -96 45 -147.5t135 -51.5q144 0 313 166v701h135v-854h117v-410z" />
    <glyph glyph-name="glyph624" horiz-adv-x="1677" 
d="M150 969h135v-668q0 -199 176 -199q137 0 307 164v703h133v-668q0 -199 176 -199q139 0 307 162v705h136v-969h-105l-22 139q-90 -77 -171.5 -118t-172.5 -41q-210 0 -265 167q-184 -167 -352 -167q-143 0 -212.5 76t-69.5 218v695z" />
    <glyph glyph-name="glyph625" horiz-adv-x="1705" 
d="M150 969h135v-668q0 -199 176 -199q137 0 307 164v703h133v-668q0 -199 176 -199q139 0 307 162v705h136v-854h116v-410l-129 -20v315h-92l-22 139q-90 -77 -171.5 -118t-172.5 -41q-210 0 -265 167q-184 -167 -352 -167q-143 0 -212.5 76t-69.5 218v695z" />
    <glyph glyph-name="glyph626" horiz-adv-x="1447" 
d="M1350 483q0 -231 -119 -367t-305 -136q-176 0 -292 122t-128 334h-213v-436h-135v1446l135 24v-917h215q17 202 132.5 319t285.5 117q187 0 305.5 -136.5t118.5 -369.5zM1210 483q0 176 -77 283.5t-207 107.5t-206.5 -106t-76.5 -285q0 -174 77.5 -281.5t205.5 -107.5
q132 0 208 105t76 284z" />
    <glyph glyph-name="glyph627" horiz-adv-x="1083" 
d="M926 14q0 -184 -104 -283.5t-306 -99.5q-176 0 -358 74l22 129q166 -86 346 -86q265 0 265 260v137q-135 -147 -299 -147q-81 0 -151 29.5t-124.5 86t-85.5 147.5t-31 206q0 248 131 382t340 134q159 0 355 -63v-906zM791 289v536q-109 41 -226 41q-150 0 -238.5 -99
t-88.5 -294q0 -168 73.5 -261t192.5 -93q144 0 287 170zM823 1362q-19 -103 -86 -166t-186 -63q-116 0 -184 63t-84 166l94 18q17 -62 62.5 -95.5t113.5 -33.5q135 0 174 129z" />
    <glyph glyph-name="glyph628" horiz-adv-x="1083" 
d="M649 1165l-117 -47q-92 74 -92 174q0 106 148 238l88 -17q-113 -122 -113 -202q0 -38 19 -72t67 -74zM926 14q0 -184 -104 -283.5t-306 -99.5q-176 0 -358 74l22 129q166 -86 346 -86q265 0 265 260v137q-135 -147 -299 -147q-81 0 -151 29.5t-124.5 86t-85.5 147.5
t-31 206q0 248 131 382t340 134q159 0 355 -63v-906zM791 289v536q-109 41 -226 41q-150 0 -238.5 -99t-88.5 -294q0 -168 73.5 -261t192.5 -93q144 0 287 170z" />
    <glyph glyph-name="glyph629" horiz-adv-x="1083" 
d="M926 14q0 -184 -104 -283.5t-306 -99.5q-176 0 -358 74l22 129q166 -86 346 -86q265 0 265 260v137q-135 -147 -299 -147q-81 0 -151 29.5t-124.5 86t-85.5 147.5t-31 206q0 248 131 382t340 134q159 0 355 -63v-906zM791 289v536q-109 41 -226 41q-150 0 -238.5 -99
t-88.5 -294q0 -168 73.5 -261t192.5 -93q144 0 287 170zM639 1141h-172v182h172v-182z" />
    <glyph glyph-name="glyph630" horiz-adv-x="1419" 
d="M1022 1804l-279 -274h-94l199 313zM1122 0l-24 170q-222 -186 -453 -186q-221 0 -344 115.5t-123 351.5v962h141v-946q0 -356 334 -356q216 0 437 198v1104h141v-1413h-109z" />
    <glyph glyph-name="glyph631" horiz-adv-x="1419" 
d="M1122 0l-24 170q-222 -186 -453 -186q-221 0 -344 115.5t-123 351.5v962h141v-946q0 -356 334 -356q216 0 437 198v1104h141v-1413h-109zM979 1751q-19 -103 -86 -166t-186 -63q-116 0 -184.5 63.5t-84.5 165.5l94 18q17 -62 62.5 -95.5t114.5 -33.5q135 0 174 129z" />
    <glyph glyph-name="glyph632" horiz-adv-x="1419" 
d="M981 1530h-86l-188 170l-189 -170h-86l211 297h127zM1122 0l-24 170q-222 -186 -453 -186q-221 0 -344 115.5t-123 351.5v962h141v-946q0 -356 334 -356q216 0 437 198v1104h141v-1413h-109z" />
    <glyph glyph-name="glyph633" horiz-adv-x="1419" 
d="M971 1548h-170v183h170v-183zM616 1548h-167v183h167v-183zM1122 0l-24 170q-222 -186 -453 -186q-221 0 -344 115.5t-123 351.5v962h141v-946q0 -356 334 -356q216 0 437 198v1104h141v-1413h-109z" />
    <glyph glyph-name="glyph634" horiz-adv-x="1419" 
d="M766 1530h-92l-279 274l176 39zM1122 0l-24 170q-222 -186 -453 -186q-221 0 -344 115.5t-123 351.5v962h141v-946q0 -356 334 -356q216 0 437 198v1104h141v-1413h-109z" />
    <glyph glyph-name="glyph635" horiz-adv-x="1419" 
d="M1163 1810l-274 -272h-82l194 311zM836 1810l-275 -272h-84l197 311zM1122 0l-24 170q-222 -186 -453 -186q-221 0 -344 115.5t-123 351.5v962h141v-946q0 -356 334 -356q216 0 437 198v1104h141v-1413h-109z" />
    <glyph glyph-name="glyph636" horiz-adv-x="1419" 
d="M975 1585h-533v115h533v-115zM1122 0l-24 170q-222 -186 -453 -186q-221 0 -344 115.5t-123 351.5v962h141v-946q0 -356 334 -356q216 0 437 198v1104h141v-1413h-109z" />
    <glyph glyph-name="glyph637" horiz-adv-x="1419" 
d="M977 -227q0 48 24.5 94.5t77.5 109.5l39 50l-20 143q-222 -186 -453 -186q-221 0 -344 115.5t-123 351.5v962h141v-946q0 -356 334 -356q216 0 437 198v1104h141v-1413h-37l-41 -59q-63 -89 -63 -140q0 -69 79 -69q41 0 84 12v-86q-64 -23 -123 -23q-73 0 -113 36
t-40 102z" />
    <glyph glyph-name="glyph638" horiz-adv-x="1419" 
d="M909 1698q0 -86 -56.5 -141.5t-143.5 -55.5t-144 55.5t-57 141.5q0 85 57.5 144t143.5 59t143 -59t57 -144zM827 1698q0 55 -33 91t-85 36q-51 0 -86 -36.5t-35 -90.5t35 -88.5t86 -34.5q52 0 85 34.5t33 88.5zM1122 0l-24 170q-222 -186 -453 -186q-221 0 -344 115.5
t-123 351.5v962h141v-946q0 -356 334 -356q216 0 437 198v1104h141v-1413h-109z" />
    <glyph glyph-name="glyph639" horiz-adv-x="2078" 
d="M1997 1413l-520 -1417h-125l-318 838l-309 -838h-125l-518 1401l143 30l443 -1241l301 824l-146 387l146 30l448 -1241l430 1227h150zM1343 1815l-278 -275h-94l198 313z" />
    <glyph glyph-name="glyph640" horiz-adv-x="2078" 
d="M1997 1413l-520 -1417h-125l-318 838l-309 -838h-125l-518 1401l143 30l443 -1241l301 824l-146 387l146 30l448 -1241l430 1227h150zM1303 1540h-86l-189 170l-188 -170h-86l211 297h127z" />
    <glyph glyph-name="glyph641" horiz-adv-x="2078" 
d="M1997 1413l-520 -1417h-125l-318 838l-309 -838h-125l-518 1401l143 30l443 -1241l301 824l-146 387l146 30l448 -1241l430 1227h150zM1292 1559h-170v182h170v-182zM938 1559h-168v182h168v-182z" />
    <glyph glyph-name="glyph642" horiz-adv-x="2078" 
d="M1997 1413l-520 -1417h-125l-318 838l-309 -838h-125l-518 1401l143 30l443 -1241l301 824l-146 387l146 30l448 -1241l430 1227h150zM1087 1540h-92l-278 275l176 38z" />
    <glyph glyph-name="glyph643" horiz-adv-x="1415" 
d="M80 0l557 1421h145l553 -1405l-139 -30l-180 471h-617l-174 -457h-145zM707 1257l-258 -675h518z" />
    <glyph glyph-name="glyph644" horiz-adv-x="1038" 
d="M946 0h-758v1413h738v-129h-596v-481h471l20 -127h-491v-547h616v-129z" />
    <glyph glyph-name="glyph645" horiz-adv-x="1443" 
d="M1255 0h-141v676h-784v-676h-142v1413h142v-610h784v610h141v-1413z" />
    <glyph glyph-name="glyph646" horiz-adv-x="548" 
d="M344 0h-141v1413h141v-1413z" />
    <glyph glyph-name="glyph647" horiz-adv-x="1525" 
d="M1401 709q0 -214 -80.5 -381.5t-226.5 -261t-334 -93.5q-282 0 -458.5 204t-176.5 528q0 161 47 297.5t130.5 233t202.5 150.5t259 54q188 0 333 -92.5t224.5 -258.5t79.5 -380zM1255 705q0 272 -135.5 440t-357.5 168t-357 -167t-135 -437q0 -272 136 -440.5t358 -168.5
t356.5 167.5t134.5 437.5z" />
    <glyph glyph-name="glyph648" horiz-adv-x="1286" 
d="M1219 1413l-508 -827v-586h-142v586l-499 813l145 28l428 -714l416 700h160z" />
    <glyph glyph-name="glyph649" horiz-adv-x="1523" 
d="M156 125h327l-47 43q-146 132 -225.5 282t-79.5 351q0 177 76 321.5t221.5 231t333.5 86.5q191 0 336.5 -86.5t220 -230.5t74.5 -322q0 -105 -23.5 -197.5t-68 -170t-96.5 -139t-122 -126.5l-47 -43h332v-125h-485l-17 119l109 104q132 125 201 259.5t69 320.5
q-1 142 -58 256.5t-168 184t-257 69.5q-147 0 -258.5 -69t-168 -183.5t-56.5 -257.5q0 -184 68 -317.5t202 -262.5l108 -104l-16 -119h-485v125z" />
    <glyph glyph-name="glyph650" horiz-adv-x="548" 
d="M344 0h-141v1413h141v-1413zM537 1559h-170v182h170v-182zM182 1559h-168v182h168v-182z" />
    <glyph glyph-name="glyph651" horiz-adv-x="1286" 
d="M1219 1413l-508 -827v-586h-142v586l-499 813l145 28l428 -714l416 700h160zM905 1548h-170v183h170v-183zM551 1548h-168v183h168v-183z" />
    <glyph glyph-name="glyph652" horiz-adv-x="1880" 
d="M80 0l551 1421h133l231 -596h330q222 0 345.5 -104.5t123.5 -298.5q0 -199 -134 -310.5t-366 -111.5h-96h-35l-467 1239l-467 -1239h-149zM1317 702h-275l226 -577h32q168 0 259.5 75.5t91.5 217.5q0 139 -85.5 211.5t-248.5 72.5z" />
    <glyph glyph-name="glyph653" horiz-adv-x="1087" 
d="M862 1470l21 -124l-389 -60q-82 -13 -118 -39.5t-36 -68.5q0 -44 53.5 -85.5t204.5 -113.5q201 -98 297 -221t96 -301q0 -204 -130.5 -340.5t-330.5 -136.5q-130 0 -229.5 61t-150 162t-50.5 225q0 326 336 490q-124 63 -177.5 121.5t-53.5 136.5q0 187 266 233zM852 451
q0 141 -69.5 239.5t-221.5 171.5q-156 -65 -239.5 -175.5t-83.5 -256.5q0 -143 83 -239.5t214 -96.5q136 0 226.5 103t90.5 254z" />
    <glyph glyph-name="glyph654" horiz-adv-x="1400" 
d="M805 0l-303 813l-299 -813h-142l379 981h131l138 -354h252q181 0 274.5 -80.5t93.5 -224.5q0 -151 -104 -236.5t-279 -85.5h-141zM956 512h-204l155 -399h41q118 0 183 54t65 150q0 93 -59.5 144t-180.5 51z" />
    <glyph glyph-name="glyph655" 
d="M948 387q0 -181 -130 -297.5t-341 -116.5q-103 0 -207 30t-178 79l23 135q93 -63 180.5 -92t191.5 -29q148 0 235 80.5t87 210.5q0 145 -106 217t-306 72h-61l-14 98l432 488h-625l-18 122h819v-102l-447 -498q213 -10 339 -107.5t126 -289.5z" />
    <glyph glyph-name="glyph656" horiz-adv-x="1214" 
d="M1147 328h-227v-328h-127v328h-709v94l674 975l131 -29l-649 -926h553v383l127 29v-412h227v-114z" />
    <glyph glyph-name="glyph657" horiz-adv-x="448" 
d="M158 201h147q14 -61 14 -103q0 -188 -186 -377l-74 35q115 171 115 326q0 53 -16 119z" />
    <glyph glyph-name="glyph658" horiz-adv-x="464" 
d="M319 770h-159v199h159v-199zM160 201h147q15 -66 15 -103q0 -190 -187 -377l-74 35q115 171 115 326q0 53 -16 119z" />
    <glyph glyph-name="glyph659" horiz-adv-x="786" 
d="M283 969h-146q-18 65 -18 125q0 171 151 338l74 -35q-82 -138 -82 -285q0 -72 21 -143zM625 969h-146q-18 65 -18 125q0 171 151 338l74 -35q-82 -138 -82 -285q0 -72 21 -143z" />
    <glyph glyph-name="glyph660" horiz-adv-x="786" 
d="M162 1413h145q19 -65 19 -125q0 -167 -152 -338l-74 35q82 141 82 287q0 77 -20 141zM504 1413h145q19 -65 19 -125q0 -170 -152 -338l-74 35q82 141 82 287q0 77 -20 141z" />
    <glyph glyph-name="glyph661" horiz-adv-x="444" 
d="M283 969h-146q-18 65 -18 125q0 171 151 338l74 -35q-82 -138 -82 -285q0 -72 21 -143z" />
    <glyph glyph-name="glyph662" horiz-adv-x="444" 
d="M162 1413h145q19 -65 19 -125q0 -167 -152 -338l-74 35q82 141 82 287q0 77 -20 141z" />
    <glyph glyph-name="glyph663" horiz-adv-x="786" 
d="M147 201h146q18 -62 18 -125q0 -168 -151 -338l-74 35q82 141 82 286q0 75 -21 142zM489 201h146q18 -61 18 -125q0 -171 -151 -338l-74 35q82 141 82 286q0 75 -21 142z" />
    <glyph glyph-name="glyph664" horiz-adv-x="444" 
d="M147 201h146q18 -62 18 -125q0 -168 -151 -338l-74 35q82 141 82 286q0 75 -21 142z" />
    <glyph glyph-name="glyph665" horiz-adv-x="1650" 
d="M1530 707q0 -213 -87 -380t-248 -260.5t-370 -93.5t-370 93t-248.5 260t-87.5 381q0 213 87.5 380t248 260t368.5 93q209 0 370.5 -93t249 -259.5t87.5 -380.5zM1460 707q0 305 -176.5 489t-460.5 184t-458.5 -183.5t-174.5 -489.5q0 -202 80.5 -355.5t225 -236
t331.5 -82.5q284 0 458.5 184t174.5 490zM1042 309l-247 336h-99v-330h-106v807h223q123 0 196.5 -63.5t73.5 -171.5q0 -86 -47 -143.5t-127 -81.5l250 -330zM696 1024v-285h105q80 0 126 38t46 108q0 65 -42.5 102t-121.5 37h-113z" />
    <glyph glyph-name="glyph666" horiz-adv-x="1640" 
d="M1487 707h-92v548l-234 -553h-86l-231 553v-548h-92v706h122l246 -594l244 594h123v-706zM621 1325h-228v-618h-96v618h-221v88h532z" />
    <glyph glyph-name="glyph667" horiz-adv-x="1423" 
d="M80 0l557 1421h145l561 -1421h-151l-176 457h-617l-174 -457h-145zM707 1257l-258 -675h518z" />
    <glyph glyph-name="glyph668" horiz-adv-x="1038" 
d="M946 0h-758v1413h738v-129h-596v-481h481v-127h-481v-547h616v-129z" />
    <glyph glyph-name="glyph669" horiz-adv-x="976" 
d="M897 1284h-567v-504h465v-127h-465v-653h-142v1413h709v-129z" />
    <glyph glyph-name="glyph670" horiz-adv-x="1421" 
d="M1253 117q-219 -144 -465 -144q-205 0 -356.5 93t-229 258t-77.5 381t80 382.5t228 259.5t343 93q242 0 418 -123l-25 -146q-176 142 -395 142q-234 0 -369 -165t-135 -441q0 -278 137.5 -442.5t383.5 -164.5q175 0 323 90v422h-350v129h489v-624z" />
    <glyph glyph-name="glyph671" horiz-adv-x="1243" 
d="M1225 0h-191l-704 729v-729h-142v1413h142v-643l655 643h182l-680 -659z" />
    <glyph glyph-name="glyph672" horiz-adv-x="954" 
d="M887 0h-699v1413h142v-1282h557v-131z" />
    <glyph glyph-name="glyph673" horiz-adv-x="1163" 
d="M1126 0h-170l-440 616h-186v-616h-142v1413h359q211 0 332.5 -103.5t121.5 -285.5q0 -157 -91.5 -256.5t-237.5 -132.5zM858 1016q0 129 -81.5 200.5t-237.5 71.5h-209v-551h184q160 0 252 73.5t92 205.5z" />
    <glyph glyph-name="glyph674" horiz-adv-x="1185" 
d="M1118 1284h-454v-1284h-142v1284h-454v129h1050v-129z" />
    <glyph glyph-name="glyph675" horiz-adv-x="1400" 
d="M1321 1413l-557 -1421h-127l-557 1421h153l469 -1239l469 1239h150z" />
    <glyph glyph-name="glyph676" horiz-adv-x="2101" 
d="M2007 1413l-426 -1417h-123l-409 1223l-408 -1223h-119l-430 1417h150l348 -1196l389 1196h145l394 -1196l346 1196h143z" />
    <glyph glyph-name="glyph677" horiz-adv-x="1300" 
d="M1219 0h-160l-414 631l-416 -631h-155l491 731l-454 682h161l375 -575l379 575h156l-455 -676z" />
    <glyph glyph-name="glyph678" horiz-adv-x="1292" 
d="M1227 1413l-510 -827v-586h-139v586l-512 827h163l420 -700l416 700h162z" />
    <glyph glyph-name="glyph679" horiz-adv-x="1224" 
d="M1116 0h-1010v102l836 1188h-788v123h958v-102l-833 -1188h837v-123z" />
    <glyph glyph-name="glyph680" horiz-adv-x="604" 
d="M575 1333q-36 8 -81 8q-148 0 -148 -149v-223h209v-115h-209v-854h-133v854h-147v115h147v233q0 130 72 195t200 65q30 0 70 -4z" />
    <glyph glyph-name="glyph681" horiz-adv-x="954" 
d="M934 0h-174l-467 514v-514h-135v1446l135 24v-917l422 416h174l-453 -432z" />
    <glyph glyph-name="glyph682" horiz-adv-x="675" 
d="M592 0q-58 -16 -135 -16q-121 0 -186.5 55t-65.5 182v633h-150v115h150v336l133 22v-358h235v-115h-235v-610q0 -75 33 -108.5t110 -33.5q27 0 90 11z" />
    <glyph glyph-name="glyph683" horiz-adv-x="964" 
d="M905 969l-358 -977h-129l-357 977h146l278 -811l279 811h141z" />
    <glyph glyph-name="glyph684" horiz-adv-x="1490" 
d="M1427 969l-321 -977h-119l-242 794l-239 -794h-117l-326 977h142l244 -797l241 801h117l244 -801l239 797h137z" />
    <glyph glyph-name="glyph685" horiz-adv-x="962" 
d="M889 0h-150l-260 399l-262 -399h-145l334 496l-320 473h150l245 -375l250 375h143l-321 -469z" />
    <glyph glyph-name="glyph686" horiz-adv-x="983" 
d="M922 969l-412 -1096q-51 -135 -118.5 -188.5t-172.5 -53.5q-10 0 -59 7l-21 120q46 -8 78 -8q64 0 103.5 32.5t68.5 111.5l41 100l-373 975h146l293 -811l284 811h142z" />
    <glyph glyph-name="glyph687" horiz-adv-x="919" 
d="M823 0h-739v104l578 752h-539v113h694v-105l-577 -751h583v-113z" />
    <glyph glyph-name="glyph688" horiz-adv-x="1095" 
d="M967 0h-865v100l510 543q111 120 155 203.5t44 179.5q0 124 -72.5 193t-201.5 69q-185 0 -377 -166l-21 135q183 154 406 154q190 0 298.5 -102.5t108.5 -274.5q0 -124 -54 -227t-185 -240l-426 -446h680v-121z" />
    <glyph glyph-name="glyph689" 
d="M950 375q0 -177 -131 -289.5t-340 -112.5q-217 0 -387 109l23 135q92 -63 178 -92t194 -29q147 0 234.5 75.5t87.5 201.5q0 140 -99 217.5t-302 77.5h-72v123h86q175 0 267.5 70t92.5 194q0 105 -72 169t-206 64q-198 0 -371 -133l-18 129q177 127 395 127
q201 0 307.5 -100t106.5 -250q0 -127 -73 -208t-192 -120q291 -83 291 -358z" />
    <glyph glyph-name="glyph690" horiz-adv-x="1093" 
d="M983 426q0 -138 -67 -241.5t-178.5 -156.5t-248.5 -53q-221 0 -385 101l21 131q178 -113 369 -113q149 0 250.5 86t101.5 240q0 138 -85.5 218.5t-240.5 80.5q-139 0 -262 -53l-92 22l49 696h707v-120h-592l-33 -465q121 41 235 41q207 0 329 -112.5t122 -301.5z" />
    <glyph glyph-name="glyph691" horiz-adv-x="1089" 
d="M979 1282l-567 -1282h-146l559 1262h-725v122h879v-102z" />
    <glyph glyph-name="glyph692" horiz-adv-x="1114" 
d="M125 741h201l96 310q60 186 159 273t263 87q77 0 162 -20l-21 -123q-71 18 -154 18q-111 0 -176 -63.5t-110 -208.5l-86 -273h387v-120h-424l-156 -500h738v-121h-879v96l162 525h-162v120z" />
    <glyph glyph-name="glyph693" horiz-adv-x="1234" 
d="M66 823v111h202q52 221 192 349t337 128q194 0 342 -104l-23 -133q-79 60 -152.5 89t-166.5 29q-147 0 -249.5 -95.5t-144.5 -262.5h523v-111h-545q-6 -61 -6 -131q0 -69 4 -100h547v-109h-533q39 -183 143.5 -287t256.5 -104q97 0 178.5 32t171.5 97l18 -125
q-171 -123 -375 -123q-205 0 -344 136.5t-182 373.5h-194v109h178q-2 31 -2 98q0 68 6 133h-182z" />
    <glyph glyph-name="glyph694" horiz-adv-x="1261" 
d="M225 498v104h322l-465 782h151l402 -702l397 702h148l-467 -782h323v-104h-342v-189h342v-106h-342v-203h-127v203h-342v106h342v189h-342z" />
    <glyph glyph-name="glyph695" horiz-adv-x="1327" 
d="M1071 1389l-59 -373h225v-115h-244l-65 -418h258v-114h-277l-57 -373h-109l58 373h-379l-60 -373h-108l59 373h-223v114h242l65 418h-258v115h277l59 373h109l-62 -373h381l60 373h108zM506 901l-66 -418h379l68 418h-381z" />
    <glyph glyph-name="glyph696" horiz-adv-x="804" 
d="M641 735h-82l-12 78q-105 -90 -217 -90q-89 0 -142 47.5t-53 130.5q0 110 97 171.5t307 80.5v35q0 115 -129 115q-93 0 -215 -56l-15 94q127 52 238 52q223 0 223 -201v-457zM649 471h-508v96h508v-96zM539 897v174q-168 -16 -234.5 -57t-66.5 -107q0 -45 28.5 -70.5
t79.5 -25.5q94 0 193 86z" />
    <glyph glyph-name="glyph697" horiz-adv-x="808" 
d="M694 1059q0 -151 -78.5 -243.5t-212.5 -92.5q-131 0 -210.5 93t-79.5 243q0 149 79.5 241.5t210.5 92.5q134 0 212.5 -92.5t78.5 -241.5zM674 471h-541v96h541v-96zM586 1059q0 105 -47 173t-136 68q-88 0 -135 -68t-47 -173q0 -106 47 -175t135 -69q90 0 136.5 68.5
t46.5 175.5z" />
    <glyph glyph-name="glyph698" horiz-adv-x="1802" 
d="M750 1012q0 -178 -89.5 -283.5t-226.5 -105.5q-138 0 -227.5 105.5t-89.5 283.5q0 177 89.5 283t227.5 106q137 0 226.5 -106.5t89.5 -282.5zM520 0h-123l453 705l430 679h123l-453 -704zM1686 373q0 -176 -90.5 -282.5t-227.5 -106.5q-136 0 -225.5 106.5t-89.5 282.5
t89.5 282.5t225.5 106.5q137 0 227.5 -106.5t90.5 -282.5zM629 1012q0 126 -52.5 207t-144.5 81t-143 -80t-51 -208q0 -127 52.5 -209t145.5 -82q92 0 142.5 81.5t50.5 209.5zM1563 373q0 128 -51.5 209.5t-143.5 81.5q-93 0 -143.5 -81t-50.5 -210q0 -126 52 -207.5
t144 -81.5t142.5 80.5t50.5 208.5z" />
    <glyph glyph-name="glyph699" horiz-adv-x="1411" 
d="M1397 0h-180l-213 213q-182 -236 -465 -236q-206 0 -327.5 104t-121.5 277q0 149 89 253t249 177q-78 82 -113.5 154.5t-35.5 165.5q0 141 100.5 234.5t267.5 93.5q177 0 334 -88l-27 -142q-167 107 -311 107q-104 0 -163.5 -56t-59.5 -143q0 -73 33.5 -134.5
t115.5 -145.5l414 -418q80 159 117 407l129 -26q-50 -284 -154 -473zM541 98q228 0 374 203l-405 404q-134 -56 -205.5 -140.5t-71.5 -193.5q0 -118 86.5 -195.5t221.5 -77.5z" />
    <glyph glyph-name="glyph700" horiz-adv-x="548" 
d="M356 1413l-41 -1014h-82l-40 1014h163zM354 0h-159v201h159v-201z" />
    <glyph glyph-name="glyph701" horiz-adv-x="548" 
d="M193 0l40 1014h82l41 -1014h-163zM195 1413h159v-201h-159v201z" />
    <glyph glyph-name="glyph702" horiz-adv-x="1052" 
d="M530 969l-294 -484l294 -485h-114l-336 485l336 484h114zM942 969l-295 -484l295 -485h-115l-335 485l335 484h115z" />
    <glyph glyph-name="glyph703" horiz-adv-x="1052" 
d="M522 0l293 483l-293 486h115l334 -486l-334 -483h-115zM111 0l295 483l-295 486h114l336 -486l-336 -483h-114z" />
    <glyph glyph-name="glyph704" horiz-adv-x="641" 
d="M530 969l-294 -484l294 -485h-114l-336 485l336 484h114z" />
    <glyph glyph-name="glyph705" horiz-adv-x="641" 
d="M111 0l295 483l-295 486h114l336 -486l-336 -483h-114z" />
    <glyph glyph-name="glyph706" horiz-adv-x="802" 
d="M287 641q0 -228 97 -402.5t300 -316.5l-22 -127q-519 332 -519 846q0 516 519 848l22 -127q-203 -142 -300 -316.5t-97 -404.5z" />
    <glyph glyph-name="glyph707" horiz-adv-x="802" 
d="M516 641q0 229 -98 403.5t-301 317.5l22 127q518 -329 518 -848q0 -517 -518 -846l-22 127q203 142 301 316.5t98 402.5z" />
    <glyph glyph-name="glyph708" horiz-adv-x="833" 
d="M711 -215h-512v1628h512v-106h-383v-1416h383v-106z" />
    <glyph glyph-name="glyph709" horiz-adv-x="833" 
d="M121 1413h512v-1628h-512v106h383v1416h-383v106z" />
    <glyph glyph-name="glyph710" horiz-adv-x="960" 
d="M838 -215h-187q-293 0 -293 266q0 46 12.5 140t12.5 145q0 211 -217 211h-70v104h72q102 0 158.5 48t56.5 161q0 50 -12.5 143t-12.5 140q0 270 293 270h187v-106h-183q-168 0 -168 -162q0 -41 13.5 -139t13.5 -144q0 -119 -53 -178.5t-154 -83.5v-4q101 -24 154 -83
t53 -179q0 -46 -13.5 -145t-13.5 -140q0 -158 166 -158h185v-106z" />
    <glyph glyph-name="glyph711" horiz-adv-x="960" 
d="M121 1413h188q293 0 293 -266q0 -46 -12 -140t-12 -145q0 -211 215 -211h71v-104h-71q-102 0 -158.5 -48t-56.5 -163q0 -49 12 -142t12 -141q0 -268 -293 -268h-188v106h184q85 0 126.5 42t41.5 118q0 41 -13.5 139t-13.5 144q0 119 53.5 179.5t153.5 82.5v4
q-101 26 -154 85t-53 179q0 46 13.5 145t13.5 140q0 158 -166 158h-186v106z" />
    <glyph glyph-name="glyph712" horiz-adv-x="1159" 
d="M1044 956q0 -210 -129.5 -342.5t-334.5 -132.5q-206 0 -334.5 133t-128.5 344q0 210 129.5 343t335.5 133q205 0 333.5 -133.5t128.5 -344.5zM991 956q0 193 -115.5 311.5t-295.5 118.5q-181 0 -295.5 -118t-114.5 -310q0 -193 115 -311.5t295 -118.5q181 0 296 118
t115 310zM807 711h-92l-154 219h-57v-219h-74v528h141q84 0 133.5 -41t49.5 -113q0 -57 -30.5 -94t-80.5 -51zM678 1081q0 43 -28 65.5t-81 22.5h-67v-178h65q52 0 81.5 23t29.5 67z" />
    <glyph glyph-name="glyph713" horiz-adv-x="1640" 
d="M1505 707h-96l-41 548l-219 -550h-78l-217 548l-43 -546h-92l53 706h115l227 -579l223 579h113zM614 1325h-221v-618h-96v618h-221v88h538v-88z" />
    <glyph glyph-name="glyph714" horiz-adv-x="1787" 
d="M20 0l840 1413h813v-127h-596v-483h482v-127h-482v-549h617v-127h-754v457h-498l-268 -457h-154zM514 580h426v718z" />
    <glyph glyph-name="glyph715" horiz-adv-x="1796" 
d="M1702 0h-848q-344 0 -538.5 193t-194.5 512q0 326 200 517t541 191h819v-127h-589v-483h477v-127h-477v-549h610v-127zM950 127v1159h-98q-274 0 -431 -147.5t-157 -431.5q0 -278 160 -429t430 -151h96z" />
    <glyph glyph-name="glyph716" horiz-adv-x="1464" 
d="M1339 709q0 -326 -200 -517.5t-541 -191.5h-379v678h-176v123h176v612h383q348 0 542.5 -192t194.5 -512zM1194 707q0 279 -159.5 429t-430.5 150h-246v-485h340v-123h-340v-551h248q274 0 431 148t157 432z" />
    <glyph glyph-name="glyph717" horiz-adv-x="1464" 
d="M1339 709q0 -326 -200 -517.5t-541 -191.5h-379v678h-176v123h176v612h383q348 0 542.5 -192t194.5 -512zM1194 707q0 279 -159.5 429t-430.5 150h-246v-485h340v-123h-340v-551h248q274 0 431 148t157 432z" />
    <glyph glyph-name="glyph718" horiz-adv-x="1503" 
d="M1284 0h-141v672h-785v-672h-139v1075h-176v119h176v219h139v-219h785v219h141v-219h174v-119h-174v-1075zM358 797h785v280h-785v-280z" />
    <glyph glyph-name="glyph719" horiz-adv-x="985" 
d="M684 825l-326 -180v-516h557v-129h-696v567l-176 -98v137l176 96v711h139v-633l326 185v-140z" />
    <glyph glyph-name="glyph720" horiz-adv-x="1423" 
d="M80 0l557 1421h145l561 -1421h-43l-40 -59q-34 -49 -49 -80t-15 -60q0 -69 80 -69q40 0 84 12v-86q-64 -23 -123 -23q-74 0 -114 36t-40 102q0 47 24.5 94t78.5 110l16 23h-10l-176 457h-617l-174 -457h-145zM707 1257l-258 -675h518z" />
    <glyph glyph-name="glyph721" horiz-adv-x="1034" 
d="M946 0h-55l-41 -59q-34 -49 -49 -80t-15 -60q0 -69 80 -69q40 0 84 12v-86q-64 -23 -123 -23q-73 0 -113 36t-40 102q0 48 24 94.5t78 109.5l17 23h-605v1413h738v-129h-596v-481h481v-127h-481v-547h616v-129z" />
    <glyph glyph-name="glyph722" horiz-adv-x="1423" 
d="M909 1499q0 -54 -25 -98.5t-67 -69.5l526 -1331h-149l-178 457h-619l-174 -457h-143l520 1329q-94 58 -94 170q0 85 58.5 144t144.5 59t143 -59t57 -144zM707 1257l-261 -675h521zM827 1499q0 54 -33.5 90.5t-84.5 36.5q-52 0 -86.5 -36.5t-34.5 -90.5t34.5 -89.5
t86.5 -35.5q51 0 84.5 35.5t33.5 89.5z" />
    <glyph glyph-name="glyph723" horiz-adv-x="1423" 
d="M909 1499q0 -54 -25 -98.5t-67 -69.5l526 -1331h-149l-178 457h-619l-174 -457h-143l520 1329q-94 58 -94 170q0 85 58.5 144t144.5 59t143 -59t57 -144zM707 1257l-261 -675h521zM827 1499q0 54 -33.5 90.5t-84.5 36.5q-52 0 -86.5 -36.5t-34.5 -90.5t34.5 -89.5
t86.5 -35.5q51 0 84.5 35.5t33.5 89.5zM1008 2034l-279 -275h-94l199 314z" />
    <glyph glyph-name="glyph724" horiz-adv-x="954" 
d="M815 623h-168v180h168v-180zM887 0h-699v1413h142v-1282h557v-131z" />
    <glyph glyph-name="glyph725" horiz-adv-x="1423" 
d="M80 0l557 1421h145l561 -1421h-151l-176 457h-617l-174 -457h-145zM707 1257l-258 -675h518zM1024 1835l-279 -274h-94l199 313z" />
    <glyph glyph-name="glyph726" horiz-adv-x="1423" 
d="M80 0l557 1421h145l561 -1421h-151l-176 457h-617l-174 -457h-145zM707 1257l-258 -675h518zM768 1561h-92l-279 274l176 39z" />
    <glyph glyph-name="glyph727" horiz-adv-x="1423" 
d="M80 0l557 1421h145l561 -1421h-151l-176 457h-617l-174 -457h-145zM707 1257l-258 -675h518zM983 1548h-86l-188 170l-189 -170h-86l211 297h127z" />
    <glyph glyph-name="glyph728" horiz-adv-x="1423" 
d="M80 0l557 1421h145l561 -1421h-151l-176 457h-617l-174 -457h-145zM707 1257l-258 -675h518zM981 1796q-19 -103 -86 -166t-186 -63q-116 0 -184.5 63.5t-84.5 165.5l95 19q17 -62 62.5 -95.5t113.5 -33.5q135 0 174 129z" />
    <glyph glyph-name="glyph729" horiz-adv-x="1423" 
d="M80 0l557 1421h145l561 -1421h-151l-176 457h-617l-174 -457h-145zM707 1257l-258 -675h518zM1020 1784q-15 -102 -55.5 -156.5t-100.5 -54.5q-39 0 -67.5 10.5t-85.5 40.5q-9 5 -24.5 13t-22 11t-17.5 8.5t-16.5 8t-13.5 5.5t-13 4t-11.5 2t-12.5 1q-49 0 -74 -108
l-90 18q15 104 55 158.5t100 54.5q27 0 53 -7.5t42 -15t59 -30.5q45 -23 61 -31t34.5 -14t33.5 -6q27 0 45 25t31 81z" />
    <glyph glyph-name="glyph730" horiz-adv-x="1423" 
d="M80 0l557 1421h145l561 -1421h-151l-176 457h-617l-174 -457h-145zM707 1257l-258 -675h518zM977 1616h-533v115h533v-115z" />
    <glyph glyph-name="glyph731" horiz-adv-x="1423" 
d="M80 0l557 1421h145l561 -1421h-151l-176 457h-617l-174 -457h-145zM707 1257l-258 -675h518zM973 1579h-170v182h170v-182zM618 1579h-167v182h167v-182z" />
    <glyph glyph-name="glyph732" horiz-adv-x="1038" 
d="M872 1815l-278 -275h-94l198 313zM946 0h-758v1413h738v-129h-596v-481h481v-127h-481v-547h616v-129z" />
    <glyph glyph-name="glyph733" horiz-adv-x="1038" 
d="M946 0h-758v1413h738v-129h-596v-481h481v-127h-481v-547h616v-129zM618 1540h-92l-278 275l176 38z" />
    <glyph glyph-name="glyph734" horiz-adv-x="1038" 
d="M834 1540h-86l-189 170l-188 -170h-86l211 297h127zM946 0h-758v1413h738v-129h-596v-481h481v-127h-481v-547h616v-129z" />
    <glyph glyph-name="glyph735" horiz-adv-x="1038" 
d="M287 1837h86l188 -170l189 170h86l-211 -297h-127zM946 0h-758v1413h738v-129h-596v-481h481v-127h-481v-547h616v-129z" />
    <glyph glyph-name="glyph736" horiz-adv-x="1038" 
d="M946 0h-758v1413h738v-129h-596v-481h481v-127h-481v-547h616v-129zM831 1776q-19 -103 -86 -166.5t-186 -63.5q-116 0 -184 63.5t-84 166.5l94 18q17 -62 62.5 -95.5t113.5 -33.5q135 0 174 129z" />
    <glyph glyph-name="glyph737" horiz-adv-x="1038" 
d="M946 0h-758v1413h738v-129h-596v-481h481v-127h-481v-547h616v-129zM827 1595h-532v115h532v-115z" />
    <glyph glyph-name="glyph738" horiz-adv-x="1038" 
d="M821 1559h-170v182h170v-182zM467 1559h-168v182h168v-182zM946 0h-758v1413h738v-129h-596v-481h481v-127h-481v-547h616v-129z" />
    <glyph glyph-name="glyph739" horiz-adv-x="1038" 
d="M946 0h-758v1413h738v-129h-596v-481h481v-127h-481v-547h616v-129zM647 1554h-172v183h172v-183z" />
    <glyph glyph-name="glyph740" horiz-adv-x="1421" 
d="M1253 117q-219 -144 -465 -144q-205 0 -356.5 93t-229 258t-77.5 381t80 382.5t228 259.5t343 93q242 0 418 -123l-25 -146q-176 142 -395 142q-234 0 -369 -165t-135 -441q0 -278 137.5 -442.5t383.5 -164.5q175 0 323 90v422h-350v129h489v-624zM1028 1796
q-19 -103 -86 -166t-186 -63q-116 0 -184.5 63.5t-84.5 165.5l95 19q17 -62 62.5 -95.5t113.5 -33.5q135 0 174 129z" />
    <glyph glyph-name="glyph741" horiz-adv-x="1421" 
d="M1253 117q-219 -144 -465 -144q-205 0 -356.5 93t-229 258t-77.5 381t80 382.5t228 259.5t343 93q242 0 418 -123l-25 -146q-176 142 -395 142q-234 0 -369 -165t-135 -441q0 -278 137.5 -442.5t383.5 -164.5q175 0 323 90v422h-350v129h489v-624zM844 1575h-172v182h172
v-182z" />
    <glyph glyph-name="glyph742" horiz-adv-x="1421" 
d="M651 -184l117 47q92 -74 92 -174q0 -107 -147 -238l-88 17q112 121 112 202q0 38 -19 72t-67 74zM1253 117q-219 -144 -465 -144q-205 0 -356.5 93t-229 258t-77.5 381t80 382.5t228 259.5t343 93q242 0 418 -123l-25 -146q-176 142 -395 142q-234 0 -369 -165t-135 -441
q0 -278 137.5 -442.5t383.5 -164.5q175 0 323 90v422h-350v129h489v-624z" />
    <glyph glyph-name="glyph743" horiz-adv-x="1243" 
d="M1225 0h-191l-704 729v-729h-142v1413h142v-643l655 643h182l-680 -659zM516 -176l117 47q92 -74 92 -174q0 -107 -147 -238l-89 17q113 122 113 202q0 38 -19 72t-67 74z" />
    <glyph glyph-name="glyph744" horiz-adv-x="954" 
d="M604 1810l-278 -274h-95l199 313zM887 0h-699v1413h142v-1282h557v-131z" />
    <glyph glyph-name="glyph745" horiz-adv-x="954" 
d="M631 1419q41 -77 41 -143q0 -129 -131 -246l-68 14q40 57 57 101t17 94q0 66 -47 158zM887 0h-699v1413h142v-1282h557v-131z" />
    <glyph glyph-name="glyph746" horiz-adv-x="954" 
d="M424 -180l117 47q92 -74 92 -174q0 -106 -148 -238l-88 17q113 122 113 202q0 38 -19 72t-67 74zM887 0h-699v1413h142v-1282h557v-131z" />
    <glyph glyph-name="glyph747" horiz-adv-x="1163" 
d="M866 1815l-278 -275h-94l198 313zM1126 0h-170l-440 616h-186v-616h-142v1413h359q211 0 332.5 -103.5t121.5 -285.5q0 -157 -91.5 -256.5t-237.5 -132.5zM858 1016q0 129 -81.5 200.5t-237.5 71.5h-209v-551h184q160 0 252 73.5t92 205.5z" />
    <glyph glyph-name="glyph748" horiz-adv-x="1163" 
d="M279 1837h86l188 -170l188 170h86l-211 -297h-127zM1126 0h-170l-440 616h-186v-616h-142v1413h359q211 0 332.5 -103.5t121.5 -285.5q0 -157 -91.5 -256.5t-237.5 -132.5zM858 1016q0 129 -81.5 200.5t-237.5 71.5h-209v-551h184q160 0 252 73.5t92 205.5z" />
    <glyph glyph-name="glyph749" horiz-adv-x="1163" 
d="M477 -176l117 47q92 -74 92 -174q0 -107 -147 -238l-88 17q112 121 112 202q0 38 -19 72t-67 74zM1126 0h-170l-440 616h-186v-616h-142v1413h359q211 0 332.5 -103.5t121.5 -285.5q0 -157 -91.5 -256.5t-237.5 -132.5zM858 1016q0 129 -81.5 200.5t-237.5 71.5h-209
v-551h184q160 0 252 73.5t92 205.5z" />
    <glyph glyph-name="glyph750" horiz-adv-x="1185" 
d="M326 1837h86l188 -170l188 170h86l-210 -297h-127zM1118 1284h-454v-1284h-142v1284h-454v129h1050v-129z" />
    <glyph glyph-name="glyph751" horiz-adv-x="1185" 
d="M494 -180l116 47q92 -74 92 -174q0 -107 -147 -238l-88 17q113 122 113 202q0 38 -19 72t-67 74zM1118 1284h-454v-1284h-142v1284h-454v129h1050v-129z" />
    <glyph glyph-name="glyph752" horiz-adv-x="2101" 
d="M1364 1815l-279 -275h-94l199 313zM2007 1413l-426 -1417h-123l-409 1223l-408 -1223h-119l-430 1417h150l348 -1196l389 1196h145l394 -1196l346 1196h143z" />
    <glyph glyph-name="glyph753" horiz-adv-x="2101" 
d="M2007 1413l-426 -1417h-123l-409 1223l-408 -1223h-119l-430 1417h150l348 -1196l389 1196h145l394 -1196l346 1196h143zM1110 1540h-92l-279 275l176 38z" />
    <glyph glyph-name="glyph754" horiz-adv-x="2101" 
d="M1325 1534h-86l-188 170l-189 -170h-86l211 297h127zM2007 1413l-426 -1417h-123l-409 1223l-408 -1223h-119l-430 1417h150l348 -1196l389 1196h145l394 -1196l346 1196h143z" />
    <glyph glyph-name="glyph755" horiz-adv-x="2101" 
d="M1313 1559h-170v182h170v-182zM958 1559h-167v182h167v-182zM2007 1413l-426 -1417h-123l-409 1223l-408 -1223h-119l-430 1417h150l348 -1196l389 1196h145l394 -1196l346 1196h143z" />
    <glyph glyph-name="glyph756" horiz-adv-x="1292" 
d="M958 1804l-278 -274h-94l198 313zM1227 1413l-510 -827v-586h-139v586l-512 827h163l420 -700l416 700h162z" />
    <glyph glyph-name="glyph757" horiz-adv-x="1292" 
d="M1227 1413l-510 -827v-586h-139v586l-512 827h163l420 -700l416 700h162zM702 1530h-92l-278 274l176 39z" />
    <glyph glyph-name="glyph758" horiz-adv-x="1292" 
d="M918 1530h-87l-188 170l-188 -170h-86l211 297h127zM1227 1413l-510 -827v-586h-139v586l-512 827h163l420 -700l416 700h162z" />
    <glyph glyph-name="glyph759" horiz-adv-x="1292" 
d="M907 1548h-170v183h170v-183zM553 1548h-168v183h168v-183zM1227 1413l-510 -827v-586h-139v586l-512 827h163l420 -700l416 700h162z" />
    <glyph glyph-name="glyph760" horiz-adv-x="1224" 
d="M930 1815l-279 -275h-94l199 313zM1116 0h-1010v102l836 1188h-788v123h958v-102l-833 -1188h837v-123z" />
    <glyph glyph-name="glyph761" horiz-adv-x="1224" 
d="M344 1837h86l188 -170l189 170h86l-211 -297h-127zM1116 0h-1010v102l836 1188h-788v123h958v-102l-833 -1188h837v-123z" />
    <glyph glyph-name="glyph762" horiz-adv-x="1224" 
d="M1116 0h-1010v102l836 1188h-788v123h958v-102l-833 -1188h837v-123zM705 1554h-173v183h173v-183z" />
    <glyph glyph-name="glyph763" horiz-adv-x="1783" 
d="M20 0l840 1413h813v-127h-596v-483h482v-127h-482v-549h617v-127h-754v457h-498l-268 -457h-154zM514 580h426v718zM1380 1815l-278 -275h-94l198 313z" />
    <glyph glyph-name="glyph764" horiz-adv-x="1087" 
d="M930 0h-103l-24 141q-135 -161 -311 -161q-81 0 -151 29.5t-124.5 86.5t-85.5 149.5t-31 211.5q0 129 36 231t97.5 165.5t140.5 96.5t169 33q145 0 252 -49v248h-308v112h308v152l135 24v-176h153v-112h-153v-1182zM795 274v535q-111 57 -248 57t-223 -103.5t-86 -299.5
q0 -172 73.5 -267.5t192.5 -95.5q81 0 151 44.5t140 129.5z" />
    <glyph glyph-name="glyph765" 
d="M922 0h-136v668q0 96 -45 148t-135 52q-142 0 -313 -168v-700h-135v1182h-152v112h152v152l135 24v-176h309v-112h-309v-351q85 75 167 116.5t173 41.5q142 0 215.5 -77.5t73.5 -217.5v-694z" />
    <glyph glyph-name="glyph766" horiz-adv-x="557" 
d="M344 0h-131v612l-174 -98v137l174 97v698l131 24v-649l174 97v-138l-174 -96v-684z" />
    <glyph glyph-name="glyph767" horiz-adv-x="954" 
d="M934 0h-174l-467 514v-514h-135v1446l135 24v-917l422 416h174l-453 -432zM385 -180l117 47q92 -74 92 -174q0 -106 -148 -238l-88 17q113 122 113 202q0 38 -19 72t-67 74z" />
    <glyph glyph-name="glyph768" horiz-adv-x="675" 
d="M604 1503q41 -77 41 -143q0 -129 -131 -246l-68 14q40 57 57 101t17 94q0 66 -47 158zM592 0q-58 -16 -135 -16q-121 0 -186.5 55t-65.5 182v633h-150v115h150v336l133 22v-358h235v-115h-235v-610q0 -75 33 -108.5t110 -33.5q27 0 90 11z" />
    <glyph glyph-name="glyph769" horiz-adv-x="675" 
d="M283 -180l116 47q93 -75 93 -174q0 -106 -148 -238l-88 17q113 122 113 202q0 38 -19 72t-67 74zM592 0q-58 -16 -135 -16q-121 0 -186.5 55t-65.5 182v633h-150v115h150v336l133 22v-358h235v-115h-235v-610q0 -75 33 -108.5t110 -33.5q27 0 90 11z" />
    <glyph glyph-name="glyph770" horiz-adv-x="1490" 
d="M1059 1401l-279 -275h-94l199 314zM1427 969l-321 -977h-119l-242 794l-239 -794h-117l-326 977h142l244 -797l241 801h117l244 -801l239 797h137z" />
    <glyph glyph-name="glyph771" horiz-adv-x="1490" 
d="M1427 969l-321 -977h-119l-242 794l-239 -794h-117l-326 977h142l244 -797l241 801h117l244 -801l239 797h137zM805 1126h-92l-279 275l176 39z" />
    <glyph glyph-name="glyph772" horiz-adv-x="1490" 
d="M1020 1116h-86l-189 170l-188 -170h-86l211 297h127zM1427 969l-321 -977h-119l-242 794l-239 -794h-117l-326 977h142l244 -797l241 801h117l244 -801l239 797h137z" />
    <glyph glyph-name="glyph773" horiz-adv-x="1490" 
d="M1008 1145h-170v182h170v-182zM653 1145h-168v182h168v-182zM1427 969l-321 -977h-119l-242 794l-239 -794h-117l-326 977h142l244 -797l241 801h117l244 -801l239 797h137z" />
    <glyph glyph-name="glyph774" horiz-adv-x="983" 
d="M809 1397l-279 -275h-94l199 314zM922 969l-412 -1096q-51 -135 -118.5 -188.5t-172.5 -53.5q-10 0 -59 7l-21 120q46 -8 78 -8q64 0 103.5 32.5t68.5 111.5l41 100l-373 975h146l293 -811l284 811h142z" />
    <glyph glyph-name="glyph775" horiz-adv-x="983" 
d="M922 969l-412 -1096q-51 -135 -118.5 -188.5t-172.5 -53.5q-10 0 -59 7l-21 120q46 -8 78 -8q64 0 103.5 32.5t68.5 111.5l41 100l-373 975h146l293 -811l284 811h142zM555 1122h-92l-279 275l176 39z" />
    <glyph glyph-name="glyph776" horiz-adv-x="983" 
d="M768 1122h-86l-188 170l-189 -170h-86l211 297h127zM922 969l-412 -1096q-51 -135 -118.5 -188.5t-172.5 -53.5q-10 0 -59 7l-21 120q46 -8 78 -8q64 0 103.5 32.5t68.5 111.5l41 100l-373 975h146l293 -811l284 811h142z" />
    <glyph glyph-name="glyph777" horiz-adv-x="983" 
d="M756 1141h-170v182h170v-182zM401 1141h-168v182h168v-182zM922 969l-412 -1096q-51 -135 -118.5 -188.5t-172.5 -53.5q-10 0 -59 7l-21 120q46 -8 78 -8q64 0 103.5 32.5t68.5 111.5l41 100l-373 975h146l293 -811l284 811h142z" />
    <glyph glyph-name="glyph778" horiz-adv-x="919" 
d="M772 1401l-278 -275h-95l199 314zM823 0h-739v104l578 752h-539v113h694v-105l-577 -751h583v-113z" />
    <glyph glyph-name="glyph779" horiz-adv-x="919" 
d="M186 1423h86l189 -170l188 170h86l-211 -297h-127zM823 0h-739v104l578 752h-539v113h694v-105l-577 -751h583v-113z" />
    <glyph glyph-name="glyph780" horiz-adv-x="919" 
d="M823 0h-739v104l578 752h-539v113h694v-105l-577 -751h583v-113zM547 1141h-172v182h172v-182z" />
    <glyph glyph-name="glyph781" horiz-adv-x="1208" 
d="M575 1333q-36 8 -81 8q-148 0 -148 -149v-223h209v-115h-209v-854h-133v854h-147v115h147v233q0 130 72 195t200 65q30 0 70 -4zM1180 1333q-36 8 -82 8q-148 0 -148 -149v-223h209v-115h-209v-854h-133v854h-147v115h147v233q0 130 72.5 195t200.5 65q29 0 69 -4z" />
    <glyph glyph-name="glyph782" horiz-adv-x="1687" 
d="M1544 1298q0 -40 -28 -69t-68 -29t-69 29t-29 69t29 69.5t69 29.5q39 0 67.5 -29.5t28.5 -69.5zM1513 0h-133v969h133v-969zM575 1333q-36 8 -81 8q-148 0 -148 -149v-223h209v-115h-209v-854h-133v854h-147v115h147v233q0 130 72 195t200 65q30 0 70 -4zM1180 1333
q-36 8 -82 8q-148 0 -148 -149v-223h209v-115h-209v-854h-133v854h-147v115h147v233q0 130 72.5 195t200.5 65q29 0 69 -4z" />
    <glyph glyph-name="glyph783" horiz-adv-x="1687" 
d="M1513 0h-133v1446l133 24v-1470zM575 1333q-36 8 -81 8q-148 0 -148 -149v-223h209v-115h-209v-854h-133v854h-147v115h147v233q0 130 72 195t200 65q30 0 70 -4zM1180 1333q-36 8 -82 8q-148 0 -148 -149v-223h209v-115h-209v-854h-133v854h-147v115h147v233
q0 130 72.5 195t200.5 65q29 0 69 -4z" />
    <glyph glyph-name="glyph784" horiz-adv-x="1083" 
d="M940 1298q0 -40 -28 -69t-68 -29t-69.5 29t-29.5 69t29.5 69.5t69.5 29.5q39 0 67.5 -29.5t28.5 -69.5zM909 0h-133v969h133v-969zM575 1333q-36 8 -81 8q-148 0 -148 -149v-223h209v-115h-209v-854h-133v854h-147v115h147v233q0 130 72 195t200 65q30 0 70 -4z" />
    <glyph glyph-name="glyph785" horiz-adv-x="1083" 
d="M909 0h-133v1446l133 24v-1470zM575 1333q-36 8 -81 8q-148 0 -148 -149v-223h209v-115h-209v-854h-133v854h-147v115h147v233q0 130 72 195t200 65q30 0 70 -4z" />
    <glyph glyph-name="glyph786" horiz-adv-x="737" 
d="M647 842h-508v94h203v559l-201 -76l-14 90l246 99h80v-672h194v-94z" />
    <glyph glyph-name="glyph787" horiz-adv-x="737" 
d="M643 842h-551v90l299 262q66 59 92.5 100t26.5 86q0 58 -42.5 93.5t-111.5 35.5q-103 0 -231 -82l-14 99q126 82 256 82q123 0 192.5 -61t69.5 -154q0 -67 -36.5 -123.5t-119.5 -126.5l-235 -201h405v-100z" />
    <glyph glyph-name="glyph788" horiz-adv-x="737" 
d="M629 1042q0 -99 -81 -159t-210 -60q-140 0 -248 62l16 96q119 -61 232 -61q78 0 126 35.5t48 95.5q0 135 -229 135h-60v92h68q104 0 155.5 32.5t51.5 92.5q0 51 -40 79.5t-112 28.5q-119 0 -227 -67l-15 94q125 70 246 70q126 0 195 -52.5t69 -138.5q0 -134 -172 -184
q187 -47 187 -191z" />
    <glyph glyph-name="glyph789" horiz-adv-x="1658" 
d="M647 637h-508v94h203v559l-201 -76l-14 91l246 98h80v-672h194v-94zM1565 0h-551v90l299 262q66 59 92.5 100t26.5 87q0 58 -42.5 93.5t-111.5 35.5q-103 0 -231 -82l-15 98q126 82 256 82q123 0 192.5 -61t69.5 -154q0 -67 -36.5 -123.5t-118.5 -126.5l-236 -201h406
v-100zM477 -16l-96 26l428 701l414 696l96 -27l-430 -700z" />
    <glyph glyph-name="glyph790" horiz-adv-x="1658" 
d="M1565 164h-119v-170h-100v170h-381v78l338 512h143v-506h119v-84zM1346 248v248l2 163h-11l-75 -124l-123 -187l-64 -94l2 -8l101 2h168zM647 637h-508v94h203v559l-201 -76l-14 91l246 98h80v-672h194v-94zM508 -16l-96 26l428 701l413 696l97 -27l-430 -700z" />
    </font>
</defs>
</svg>
