<?xml version="1.0" standalone="no"?>
<!DOCTYPE svg PUBLIC "-//W3C//DTD SVG 1.1//EN" "http://www.w3.org/Graphics/SVG/1.1/DTD/svg11.dtd" >
<svg xmlns="http://www.w3.org/2000/svg" xmlns:xlink="http://www.w3.org/1999/xlink" version="1.1">
<metadata>
Created by FontForge 20161003 at Sat Aug  5 02:27:19 2017
 By www-data
Copyright (C) 1996, 2009 Hoefler &#38; Co. http://www.typography.com
</metadata>
<defs>
<font id="WhitneyBold" horiz-adv-x="1097" >
  <font-face 
    font-family="WhitneyBold"
    font-weight="400"
    font-stretch="normal"
    units-per-em="2048"
    panose-1="0 0 0 0 0 0 0 0 0 0"
    ascent="1638"
    descent="-410"
    x-height="1004"
    cap-height="1413"
    bbox="-326 -563 2048 2085"
    underline-thickness="102"
    underline-position="-714"
    unicode-range="U+0020-FB04"
  />
<missing-glyph horiz-adv-x="748" 
d="M68 0v1365h544v-1365h-544zM136 68h408v1229h-408v-1229z" />
    <glyph glyph-name=".notdef" horiz-adv-x="748" 
d="M68 0v1365h544v-1365h-544zM136 68h408v1229h-408v-1229z" />
    <glyph glyph-name="glyph1" horiz-adv-x="0" 
 />
    <glyph glyph-name="glyph2" horiz-adv-x="682" 
 />
    <glyph glyph-name="space" unicode=" " horiz-adv-x="428" 
 />
    <glyph glyph-name="exclam" unicode="!" horiz-adv-x="604" 
d="M496 1413l-97 -885l-188 -41l-100 926h385zM469 0h-334v352h334v-352z" />
    <glyph glyph-name="quotedbl" unicode="&#x22;" horiz-adv-x="1064" 
d="M969 1384l-88 -614l-199 43l-84 571h371zM467 1384l-90 -614l-199 43l-82 571h371z" />
    <glyph glyph-name="numbersign" unicode="#" horiz-adv-x="1378" 
d="M1130 1360l-43 -264h213v-260h-253l-46 -287h228l39 -260h-307l-48 -293h-194l45 293h-279l-49 -307l-188 43l41 264h-211v260h252l45 287h-223l-43 260h307l47 293h196l-47 -293h281l49 307zM569 842l-47 -299h285l47 299h-285z" />
    <glyph glyph-name="dollar" unicode="$" horiz-adv-x="1124" 
d="M770 1513l-20 -135q136 -27 249 -86l-43 -252q-126 73 -256 101l-45 -299q139 -43 221.5 -94t127.5 -132.5t45 -199.5q0 -211 -137 -318.5t-369 -107.5h-2l-35 -240l-150 33l31 219q-176 27 -328 109l39 247q182 -97 338 -120l51 350q-101 32 -167.5 63.5t-120.5 78.5
t-78.5 112t-24.5 153q0 188 127 294t355 106h18l25 151zM772 381q0 58 -34.5 96t-125.5 72l-49 -320q102 0 155.5 39t53.5 113zM373 1030q0 -52 33.5 -84.5t125.5 -64.5l41 276h-22q-178 0 -178 -127z" />
    <glyph glyph-name="percent" unicode="%" horiz-adv-x="1830" 
d="M764 995q0 -192 -97 -300.5t-245 -108.5q-150 0 -247 107.5t-97 299.5q0 191 97.5 299.5t246.5 108.5q148 0 245 -108t97 -298zM563 -14l-182 43l446 682l439 688l184 -41l-449 -686zM1753 391q0 -190 -98 -298.5t-246 -108.5q-150 0 -246 107t-96 298q0 193 97 301.5
t245 108.5q150 0 247 -108t97 -300zM549 995q0 111 -32.5 172.5t-94.5 61.5q-131 0 -131 -236q0 -109 34 -171t97 -62t95 61t32 174zM1538 391q0 110 -33.5 172t-95.5 62q-65 0 -97 -61.5t-32 -174.5q0 -110 33.5 -171.5t95.5 -61.5q64 0 96.5 61.5t32.5 173.5z" />
    <glyph glyph-name="ampersand" unicode="&#x26;" horiz-adv-x="1355" 
d="M1378 33l-346 -45l-121 137q-170 -150 -395 -150q-209 0 -335 107t-126 291q0 267 275 413q-62 78 -87.5 145.5t-25.5 153.5q0 152 110.5 253.5t305.5 101.5q209 0 381 -86l-47 -285q-182 98 -299 98q-61 0 -94 -29.5t-33 -76.5q0 -36 19.5 -71.5t64.5 -86.5l288 -334
q38 106 60 275l262 -58q-37 -255 -137 -430zM559 225q107 0 197 78l-271 307q-116 -88 -116 -209q0 -79 51 -127.5t139 -48.5z" />
    <glyph glyph-name="quotesingle" unicode="'" horiz-adv-x="569" 
d="M473 1384l-88 -614l-207 43l-82 571h377z" />
    <glyph glyph-name="parenleft" unicode="(" horiz-adv-x="827" 
d="M797 -137l-238 -56q-108 84 -187.5 166.5t-145.5 183.5t-100 221.5t-34 256.5q0 570 610 852l31 -209q-149 -129 -222 -282.5t-73 -356.5q0 -221 84.5 -398.5t274.5 -377.5z" />
    <glyph glyph-name="parenright" unicode=")" horiz-adv-x="827" 
d="M31 1423l237 56q108 -84 187.5 -166t145.5 -183t100 -221t34 -256q0 -572 -610 -854l-31 209q149 129 222 282.5t73 356.5q0 221 -84 399t-274 377z" />
    <glyph glyph-name="asterisk" unicode="*" horiz-adv-x="897" 
d="M834 1118l-220 -141l97 -244l-64 -41l-198 164l-201 -164l-62 41l97 244l-220 141l23 72l262 -14l60 249h79l62 -249l262 14z" />
    <glyph glyph-name="plus" unicode="+" horiz-adv-x="1171" 
d="M1061 571h-350v-362h-250v362h-350v242h350v363h250v-363h350v-242z" />
    <glyph glyph-name="comma" unicode="," horiz-adv-x="530" 
d="M485 352l-256 -655l-184 43l90 612h350z" />
    <glyph glyph-name="hyphen" unicode="-" horiz-adv-x="724" 
d="M643 449h-559v294h559v-294z" />
    <glyph glyph-name="period" unicode="." horiz-adv-x="530" 
d="M432 0h-334v352h334v-352z" />
    <glyph glyph-name="slash" unicode="/" horiz-adv-x="1085" 
d="M1063 1376l-881 -1636l-256 55l881 1637z" />
    <glyph glyph-name="zero" unicode="0" horiz-adv-x="1298" 
d="M1225 692q0 -342 -155.5 -530.5t-418.5 -188.5q-264 0 -420.5 188.5t-156.5 530.5t156.5 530.5t420.5 188.5q263 0 418.5 -188.5t155.5 -530.5zM887 692q0 459 -236 459q-119 0 -178 -117.5t-59 -341.5t59 -341.5t178 -117.5q236 0 236 459z" />
    <glyph glyph-name="one" unicode="1" horiz-adv-x="833" 
d="M694 0h-344v1065l-276 -109l-39 267l354 163h305v-1386z" />
    <glyph glyph-name="two" unicode="2" horiz-adv-x="1130" 
d="M1059 0h-977v244l477 477q74 76 106.5 131.5t32.5 120.5q0 70 -46.5 108.5t-131.5 38.5q-171 0 -366 -141l-41 291q204 137 458 137q214 0 337.5 -105.5t123.5 -291.5q0 -133 -62 -236.5t-200 -234.5l-276 -267h522z" />
    <glyph glyph-name="three" unicode="3" horiz-adv-x="1116" 
d="M1040 387q0 -131 -68.5 -225.5t-185.5 -141.5t-268 -47q-262 0 -455 109l43 266q186 -102 381 -102q103 0 161.5 41.5t58.5 118.5q0 87 -64 131.5t-205 44.5h-116l-41 254h147q128 0 190 42.5t62 118.5q0 67 -50.5 104.5t-148.5 37.5q-188 0 -354 -115l-43 260
q187 127 448 127q228 0 357 -100t129 -264q0 -129 -64 -207t-180 -121q130 -42 198 -121.5t68 -210.5z" />
    <glyph glyph-name="four" unicode="4" horiz-adv-x="1249" 
d="M1210 276h-194v-276h-322v276h-641v213l584 897h379v-878h194v-232zM694 508v549l-354 -549h354z" />
    <glyph glyph-name="five" unicode="5" horiz-adv-x="1136" 
d="M1063 463q0 -232 -154 -361t-405 -129q-225 0 -434 95l45 284q205 -100 387 -100q107 0 174 51.5t67 142.5q0 85 -55 133t-156 48q-104 0 -198 -41l-211 47l47 751h817l43 -276h-602l-16 -246q98 25 196 25q206 0 330.5 -111t124.5 -313z" />
    <glyph glyph-name="six" unicode="6" horiz-adv-x="1181" 
d="M915 1143q-430 -98 -522 -365q153 101 334 101q111 0 198 -44.5t141 -140.5t54 -233q0 -218 -146 -353t-368 -135q-242 0 -387 152.5t-145 433.5q0 146 39.5 270.5t110 219t171 168t220 121.5t259.5 75zM608 637q-106 0 -227 -80q1 -168 63 -252t162 -84q90 0 143.5 59
t53.5 158q0 199 -195 199z" />
    <glyph glyph-name="seven" unicode="7" horiz-adv-x="1107" 
d="M1034 1120l-512 -1134l-325 57l485 1057h-580l-43 284h975v-264z" />
    <glyph glyph-name="eight" unicode="8" horiz-adv-x="1206" 
d="M72 362q0 109 64 201.5t181 157.5q-200 116 -200 315q0 174 138.5 274.5t356.5 100.5q220 0 350 -99t130 -257q0 -190 -207 -322q128 -63 188 -146t60 -208q0 -177 -144 -291.5t-387 -114.5q-127 0 -229 31t-167 84.5t-99.5 123.5t-34.5 150zM385 393q0 -84 63 -136
t160 -52q88 0 146.5 48.5t58.5 123.5q0 80 -58.5 130t-222.5 114q-147 -99 -147 -228zM422 1042q0 -66 52 -113t183 -98q129 89 129 203q0 71 -51.5 114.5t-134.5 43.5q-79 0 -128.5 -42.5t-49.5 -107.5z" />
    <glyph glyph-name="nine" unicode="9" horiz-adv-x="1181" 
d="M250 242q435 83 532 344q-157 -99 -319 -99q-181 0 -291.5 109t-110.5 319q0 225 145 360.5t369 135.5q241 0 387 -153t146 -433q0 -182 -61 -330.5t-172 -252t-258 -171t-328 -100.5zM575 729q113 0 226 76v4q0 178 -62 266t-164 88q-89 0 -142.5 -59.5t-53.5 -165.5
q0 -209 196 -209z" />
    <glyph glyph-name="colon" unicode=":" horiz-adv-x="548" 
d="M440 655h-331v349h331v-349zM440 0h-331v348h331v-348z" />
    <glyph glyph-name="semicolon" unicode=";" horiz-adv-x="548" 
d="M453 655h-332v349h332v-349zM475 348l-254 -651l-186 43l90 608h350z" />
    <glyph glyph-name="less" unicode="&#x3c;" horiz-adv-x="1171" 
d="M1032 129l-915 455v217l915 454v-266l-610 -295l610 -297v-268z" />
    <glyph glyph-name="equal" unicode="=" horiz-adv-x="1208" 
d="M1061 817h-911v246h911v-246zM1061 324h-911v243h911v-243z" />
    <glyph glyph-name="greater" unicode="&#x3e;" horiz-adv-x="1171" 
d="M1055 584l-916 -455v268l611 293l-611 297v268l916 -454v-217z" />
    <glyph glyph-name="question" unicode="?" horiz-adv-x="1036" 
d="M600 0h-332v352h332v-352zM553 584l-6 -68l-203 -47l-22 311l63 21q150 44 211 94t61 125q0 64 -45 99.5t-129 35.5q-182 0 -387 -145l-43 286q212 144 475 144q217 0 337 -103.5t120 -289.5q0 -174 -106.5 -283.5t-325.5 -179.5z" />
    <glyph glyph-name="at" unicode="@" horiz-adv-x="1710" 
d="M1225 88q-105 0 -182 47t-105 129q-81 -92 -150 -134t-145 -42q-100 0 -160.5 68.5t-60.5 195.5q0 129 42 243.5t111.5 194t162 125.5t192.5 46q175 0 342 -72l-84 -451q-12 -87 -12 -112q0 -49 30.5 -80t96.5 -31q105 0 171 114t66 308q0 150 -44.5 266.5t-125.5 189
t-190 109.5t-242 37q-152 0 -293 -66t-246 -178t-168 -270.5t-63 -333.5q0 -159 44.5 -277t127 -189t191.5 -105.5t245 -34.5q238 0 436 98l13 -73q-199 -97 -457 -97q-326 0 -508 172.5t-182 503.5q0 182 69 352t185.5 295.5t277.5 201t336 75.5q312 0 498 -178.5
t186 -495.5q0 -250 -107.5 -400.5t-297.5 -150.5zM752 297q35 0 76.5 31.5t107.5 107.5l59 314q-30 12 -80 12q-95 0 -167 -107t-72 -252q0 -106 76 -106z" />
    <glyph glyph-name="A" unicode="A" horiz-adv-x="1437" 
d="M27 0l508 1419h385l491 -1376l-354 -57l-105 307h-487l-94 -293h-344zM709 1059l-160 -492h317z" />
    <glyph glyph-name="B" unicode="B" horiz-adv-x="1214" 
d="M1143 408q0 -201 -142 -304.5t-399 -103.5h-473v1413h481q238 0 360 -95.5t122 -270.5q0 -208 -205 -299q256 -81 256 -340zM778 1008q0 153 -192 153h-125v-319h117q97 0 148.5 44t51.5 122zM813 432q0 184 -227 184h-125v-364h129q107 0 165 45.5t58 134.5z" />
    <glyph glyph-name="C" unicode="C" horiz-adv-x="1230" 
d="M1165 84q-187 -109 -409 -109q-315 0 -496.5 197t-181.5 533q0 331 188.5 532t505.5 201q214 0 373 -92l-49 -316q-146 115 -305 115q-166 0 -264.5 -118t-98.5 -320q0 -203 101.5 -321t269.5 -118q149 0 321 109z" />
    <glyph glyph-name="D" unicode="D" horiz-adv-x="1443" 
d="M1364 709q0 -158 -49 -288t-141 -224t-232.5 -145.5t-316.5 -51.5h-496v1413h487q181 0 323.5 -51t235.5 -144t141 -222t48 -287zM1012 707q0 216 -109.5 325t-296.5 109h-127v-869h127q194 0 300 107t106 328z" />
    <glyph glyph-name="E" unicode="E" 
d="M1028 0h-899v1413h881v-283h-537v-266h410l45 -280h-455v-299h555v-285z" />
    <glyph glyph-name="F" unicode="F" horiz-adv-x="1030" 
d="M975 1120h-498v-289h369l49 -292h-418v-539h-348v1413h846v-293z" />
    <glyph glyph-name="G" unicode="G" horiz-adv-x="1396" 
d="M1290 123q-230 -150 -516 -150q-220 0 -378.5 92.5t-238 256.5t-79.5 383q0 218 84.5 384t244.5 258.5t375 92.5q244 0 432 -105l-47 -305q-189 121 -376 121q-178 0 -270.5 -120t-92.5 -324q0 -206 94.5 -329.5t272.5 -123.5q102 0 190 45v252h-246l-41 260h592v-688z
" />
    <glyph glyph-name="H" unicode="H" horiz-adv-x="1447" 
d="M1321 0h-352v573h-490v-573h-350v1413h350v-534h490v534h352v-1413z" />
    <glyph glyph-name="I" unicode="I" horiz-adv-x="624" 
d="M487 0h-350v1413h350v-1413z" />
    <glyph glyph-name="J" unicode="J" horiz-adv-x="870" 
d="M754 430q0 -118 -35.5 -205t-100.5 -138.5t-149 -76t-188 -24.5q-128 0 -195 18l-47 295q86 -23 166 -23q97 0 146.5 47.5t49.5 161.5v928h353v-983z" />
    <glyph glyph-name="K" unicode="K" horiz-adv-x="1331" 
d="M1333 43l-383 -57l-471 671v-657h-350v1413h350v-604l436 604h406l-508 -659z" />
    <glyph glyph-name="L" unicode="L" horiz-adv-x="999" 
d="M961 0h-832v1413h350v-1110h434z" />
    <glyph glyph-name="M" unicode="M" horiz-adv-x="1824" 
d="M1737 0h-357l-61 946l-266 -948h-332l-266 948l-62 -946h-305l102 1413h453l275 -973l276 973h440z" />
    <glyph glyph-name="N" unicode="N" horiz-adv-x="1443" 
d="M1315 0h-303l-557 846v-846h-326v1413h340l520 -790v790h326v-1413z" />
    <glyph glyph-name="O" unicode="O" horiz-adv-x="1505" 
d="M1427 709q0 -217 -82.5 -383.5t-237 -259.5t-357.5 -93q-303 0 -487.5 202t-184.5 530q0 330 185 532.5t491 202.5q202 0 355.5 -91.5t235.5 -257t82 -382.5zM1075 707q0 213 -85 335.5t-238 122.5q-151 0 -237.5 -123t-86.5 -335t86.5 -335.5t237.5 -123.5
q152 0 237.5 123t85.5 336z" />
    <glyph glyph-name="P" unicode="P" horiz-adv-x="1181" 
d="M1139 952q0 -234 -153.5 -358.5t-416.5 -124.5h-90v-469h-350v1413h455q263 0 409 -117.5t146 -343.5zM799 946q0 203 -236 203h-88v-416h82q242 0 242 213z" />
    <glyph glyph-name="Q" unicode="Q" horiz-adv-x="1505" 
d="M1427 729q0 -217 -87 -376t-242 -242l329 -105l-65 -299l-793 285q-247 89 -369 262.5t-122 450.5q0 217 83.5 384t237 259t355.5 92q305 0 489 -194t184 -517zM1075 705q0 208 -86 334t-237 126t-237.5 -126.5t-86.5 -333.5q0 -208 87 -336.5t237 -128.5
q152 0 237.5 128t85.5 337z" />
    <glyph glyph-name="R" unicode="R" horiz-adv-x="1261" 
d="M1245 45l-371 -59l-309 499h-88v-485h-348v1413h494q259 0 400.5 -114.5t141.5 -331.5q0 -288 -266 -402zM821 946q0 99 -59.5 151t-173.5 52h-113v-412h109q114 0 175.5 54t61.5 155z" />
    <glyph glyph-name="S" unicode="S" horiz-adv-x="1132" 
d="M1071 426q0 -112 -39 -198t-109 -138.5t-160 -79t-198 -26.5q-263 0 -493 106l51 299q244 -131 448 -131q77 0 123.5 33t46.5 94t-46 99t-193 94q-113 44 -184 82t-124 88t-75.5 113.5t-22.5 150.5q0 132 65.5 228t173.5 143t245 47q130 0 228 -23.5t198 -71.5l-54 -295
q-197 115 -368 115q-77 0 -117.5 -30t-40.5 -81q0 -55 42 -89t173 -85q238 -87 334 -183t96 -261z" />
    <glyph glyph-name="T" unicode="T" horiz-adv-x="1247" 
d="M1219 1116h-416v-1116h-352v1116h-400v297h1118z" />
    <glyph glyph-name="U" unicode="U" horiz-adv-x="1409" 
d="M1296 561q0 -144 -45 -256.5t-125 -183.5t-188 -107.5t-238 -36.5q-269 0 -428 147.5t-159 434.5v854h352v-852q0 -138 61.5 -213.5t178.5 -75.5q118 0 178.5 74t60.5 211v856h352v-852z" />
    <glyph glyph-name="V" unicode="V" horiz-adv-x="1417" 
d="M1393 1413l-502 -1421h-377l-487 1378l374 57l322 -991l305 977h365z" />
    <glyph glyph-name="W" unicode="W" horiz-adv-x="2027" 
d="M1991 1413l-385 -1415h-355l-243 913l-244 -913h-352l-373 1370l379 59l213 -899l229 885h352l230 -885l200 885h349z" />
    <glyph glyph-name="X" unicode="X" horiz-adv-x="1353" 
d="M1327 45l-375 -59l-290 501l-279 -487h-358l444 719l-408 649l373 59l256 -448l242 434h362l-411 -668z" />
    <glyph glyph-name="Y" unicode="Y" horiz-adv-x="1372" 
d="M1370 1413l-510 -893v-520h-350v516l-490 860l373 51l307 -585l297 571h373z" />
    <glyph glyph-name="Z" unicode="Z" horiz-adv-x="1251" 
d="M1184 0h-1104v254l657 881h-587l-44 278h1059v-254l-657 -880h633z" />
    <glyph glyph-name="bracketleft" unicode="[" horiz-adv-x="856" 
d="M786 -213h-641v1626h629v-190h-332v-1246h314z" />
    <glyph glyph-name="backslash" unicode="\" horiz-adv-x="1085" 
d="M1159 -207l-256 -53l-880 1636l256 56z" />
    <glyph glyph-name="bracketright" unicode="]" horiz-adv-x="856" 
d="M70 1413h641v-1626h-629v190h332v1246h-314z" />
    <glyph glyph-name="asciicircum" unicode="^" horiz-adv-x="929" 
d="M815 1120h-197l-151 119l-152 -119h-196l205 301h286z" />
    <glyph glyph-name="underscore" unicode="_" horiz-adv-x="929" 
d="M934 -213h-938v143h938v-143z" />
    <glyph glyph-name="grave" unicode="`" horiz-adv-x="929" 
d="M700 1120h-204l-299 248l378 62z" />
    <glyph glyph-name="a" unicode="a" horiz-adv-x="1038" 
d="M940 0h-274l-21 125q-138 -145 -315 -145q-123 0 -198 72.5t-75 205.5q0 175 138 264.5t436 116.5v18q0 65 -37.5 96t-114.5 31q-154 0 -323 -75l-37 233q191 78 407 78q213 0 313.5 -80.5t100.5 -267.5v-672zM631 276v213q-149 -23 -209 -70.5t-60 -119.5q0 -46 27 -72
t72 -26q86 0 170 75z" />
    <glyph glyph-name="b" unicode="b" horiz-adv-x="1107" 
d="M1044 528q0 -272 -133.5 -406t-373.5 -134q-246 0 -431 71v1371l310 49v-586q125 131 268 131q162 0 261 -125.5t99 -370.5zM735 508q0 121 -40 180.5t-109 59.5q-83 0 -170 -97v-395q59 -20 114 -20q95 0 150 65t55 207z" />
    <glyph glyph-name="c" unicode="c" horiz-adv-x="925" 
d="M862 70q-143 -88 -319 -88q-220 0 -353 136t-133 376q0 128 39.5 230t108 165.5t158.5 97t194 33.5q162 0 297 -76l-41 -264q-118 74 -225 74q-99 0 -158 -65t-59 -187q0 -124 63 -189t162 -65q113 0 229 76z" />
    <glyph glyph-name="d" unicode="d" horiz-adv-x="1114" 
d="M1008 0h-275l-20 131q-135 -151 -289 -151q-162 0 -262.5 125t-100.5 368q0 139 34.5 245t95 169t134.5 94t160 31q113 0 213 -35v453l310 49v-1479zM698 356v383q-65 29 -145 29q-81 0 -130.5 -67t-49.5 -205q0 -123 41.5 -182.5t111.5 -59.5q80 0 172 102z" />
    <glyph glyph-name="e" unicode="e" horiz-adv-x="1034" 
d="M973 92q-174 -112 -400 -112q-236 0 -376 130.5t-140 387.5q0 242 132.5 384t340.5 142q113 0 199.5 -40t139.5 -111.5t79.5 -164.5t26.5 -204q0 -48 -4 -80h-606q22 -219 247 -219q152 0 330 106zM522 823q-68 0 -110.5 -58t-49.5 -171h318q-15 229 -158 229z" />
    <glyph glyph-name="f" unicode="f" horiz-adv-x="698" 
d="M709 1219q-73 10 -111 10q-123 0 -123 -123v-102h182l37 -252h-219v-752h-309v752h-139v252h139v131q0 333 381 333q51 0 125 -12z" />
    <glyph glyph-name="g" unicode="g" horiz-adv-x="1093" 
d="M1053 -12q0 -162 -158 -261.5t-403 -99.5q-217 0 -350.5 63.5t-133.5 176.5q0 65 40 117t124 98q-55 46 -55 111q0 96 149 180q-93 41 -142.5 116.5t-49.5 174.5q0 162 118.5 259t303.5 97q182 0 309 -96l235 90l39 -230l-176 -4q19 -55 19 -106q0 -105 -57 -184.5
t-150.5 -119.5t-208.5 -40q-63 0 -92 4q-27 -24 -27 -45q0 -22 29 -31.5t131 -21.5l184 -13q159 -16 240.5 -71t81.5 -164zM475 -2q-95 8 -158 18q-57 -54 -57 -110q0 -55 63 -87t193 -32q118 0 186 34t68 85q0 35 -32 53t-113 27zM645 674q0 72 -39.5 118t-107.5 46
q-66 0 -104 -48t-38 -122q0 -71 38 -115.5t104 -44.5q69 0 108 46t39 120z" />
    <glyph glyph-name="h" unicode="h" horiz-adv-x="1099" 
d="M999 0h-311v629q0 121 -102 121q-79 0 -170 -91v-659h-310v1430l310 49v-600q71 69 142 107t157 38q138 0 211 -81t73 -230v-713z" />
    <glyph glyph-name="i" unicode="i" horiz-adv-x="536" 
d="M444 1300q0 -74 -50 -119.5t-126 -45.5q-75 0 -125.5 45.5t-50.5 119.5q0 75 50.5 122.5t125.5 47.5q76 0 126 -47t50 -123zM424 0h-311v1004h311v-1004z" />
    <glyph glyph-name="j" unicode="j" horiz-adv-x="538" 
d="M444 1300q0 -74 -50 -119.5t-126 -45.5q-75 0 -125.5 45.5t-50.5 119.5q0 75 50.5 122.5t125.5 47.5q76 0 126 -47t50 -123zM424 -29q0 -179 -92.5 -261.5t-257.5 -82.5q-71 0 -111 8l-37 242q46 -8 74 -8q56 0 84.5 28.5t28.5 98.5v1008h311v-1033z" />
    <glyph glyph-name="k" unicode="k" horiz-adv-x="1034" 
d="M1028 31l-323 -45l-289 483v-469h-310v1430l310 49v-885l264 410h340l-320 -461z" />
    <glyph glyph-name="l" unicode="l" horiz-adv-x="536" 
d="M424 0h-311v1430l311 49v-1479z" />
    <glyph glyph-name="m" unicode="m" horiz-adv-x="1660" 
d="M1561 0h-312v629q0 121 -98 121q-73 0 -164 -88v-662h-309v629q0 121 -98 121q-73 0 -164 -88v-662h-310v1004h273l22 -138q75 77 148.5 117.5t163.5 40.5q185 0 250 -158q75 75 150.5 116.5t162.5 41.5q138 0 211.5 -81t73.5 -230v-713z" />
    <glyph glyph-name="n" unicode="n" horiz-adv-x="1099" 
d="M999 0h-311v629q0 121 -102 121q-79 0 -170 -91v-659h-310v1004h273l22 -138q76 76 150.5 117t163.5 41q138 0 211 -81t73 -230v-713z" />
    <glyph glyph-name="o" unicode="o" horiz-adv-x="1079" 
d="M1022 502q0 -238 -136 -380t-349 -142q-211 0 -345.5 141.5t-134.5 378.5q0 238 135.5 381t346.5 143q213 0 348 -142t135 -380zM723 500q0 124 -48 198t-136 74t-135.5 -72.5t-47.5 -197.5q0 -124 48.5 -198.5t134.5 -74.5q88 0 136 73.5t48 197.5z" />
    <glyph glyph-name="p" unicode="p" horiz-adv-x="1114" 
d="M1051 528q0 -138 -34.5 -244t-95 -168.5t-134.5 -94t-160 -31.5q-100 0 -211 35v-359l-310 -47v1385h273l20 -132q64 69 132.5 110.5t156.5 41.5q163 0 263 -125.5t100 -370.5zM739 508q0 121 -41 180.5t-110 59.5q-48 0 -88 -26t-84 -77v-381q67 -31 141 -31
q83 0 132.5 67.5t49.5 207.5z" />
    <glyph glyph-name="q" unicode="q" horiz-adv-x="1107" 
d="M1001 -334l-309 -47v490q-62 -59 -125 -94t-143 -35q-163 0 -263 124.5t-100 368.5q0 272 135 407.5t373 135.5q245 0 432 -72v-1278zM692 352v396q-53 18 -114 18q-95 0 -150 -64.5t-55 -205.5q0 -124 40 -183t109 -59q79 0 170 98z" />
    <glyph glyph-name="r" unicode="r" horiz-adv-x="772" 
d="M754 709q-210 -14 -338 -152v-557h-310v1004h271l33 -199q51 97 120.5 154.5t171.5 64.5z" />
    <glyph glyph-name="s" unicode="s" horiz-adv-x="950" 
d="M891 309q0 -159 -106 -243t-306 -84q-221 0 -413 98l36 237q89 -55 190.5 -86.5t188.5 -31.5q63 0 95 20.5t32 56.5q0 38 -33.5 61t-136.5 48q-198 52 -278 120t-80 204q0 142 102 227.5t285 85.5q205 0 369 -74l-39 -237q-174 94 -330 94q-52 0 -79.5 -18t-27.5 -48
q0 -33 33.5 -54t136.5 -50q205 -54 283 -122t78 -204z" />
    <glyph glyph-name="t" unicode="t" horiz-adv-x="743" 
d="M705 6q-70 -20 -179 -20q-84 0 -148 16.5t-114 53.5t-76 103t-26 160v433h-133v252h133v299l307 49v-348h190l39 -252h-229v-383q0 -119 123 -119q38 0 76 10z" />
    <glyph glyph-name="u" unicode="u" horiz-adv-x="1099" 
d="M993 0h-272l-23 137q-77 -76 -151.5 -116.5t-161.5 -40.5q-138 0 -211.5 81t-73.5 228v715h310v-629q0 -123 104 -123q80 0 170 90v662h309v-1004z" />
    <glyph glyph-name="v" unicode="v" horiz-adv-x="1036" 
d="M1020 1004l-348 -1008h-310l-344 983l332 39l187 -633l180 619h303z" />
    <glyph glyph-name="w" unicode="w" horiz-adv-x="1484" 
d="M1464 1004l-280 -1006h-297l-146 573l-143 -573h-299l-274 981l319 39l137 -604l142 590h278l143 -588l132 588h288z" />
    <glyph glyph-name="x" unicode="x" horiz-adv-x="1015" 
d="M985 25l-321 -39l-172 317l-166 -303h-295l303 496l-289 483l324 39l155 -291l152 277h293l-289 -474z" />
    <glyph glyph-name="y" unicode="y" horiz-adv-x="1044" 
d="M1028 1004l-358 -1029q-66 -192 -164 -270t-262 -78q-58 0 -121 13l-41 249q56 -16 123 -16q123 0 170 104l8 21l-365 981l332 39l193 -631l182 617h303z" />
    <glyph glyph-name="z" unicode="z" horiz-adv-x="956" 
d="M907 0h-852v233l445 529h-391l-37 242h811v-236l-443 -526h428z" />
    <glyph glyph-name="braceleft" unicode="{" horiz-adv-x="1036" 
d="M963 -213h-318q-156 0 -237.5 70.5t-81.5 197.5q0 49 13 138t13 133q0 98 -55 139t-164 41h-51l-31 190h84q107 0 162 40.5t55 137.5q0 46 -13 135t-13 136q0 127 81.5 197.5t237.5 70.5h307v-190h-182q-139 0 -139 -117q0 -40 13 -118.5t13 -125.5q0 -111 -58.5 -172.5
t-174.5 -87.5v-4q116 -26 174.5 -87.5t58.5 -172.5q0 -46 -13 -125t-13 -119q0 -117 139 -117h162z" />
    <glyph glyph-name="bar" unicode="|" horiz-adv-x="614" 
d="M436 -340l-258 -41v1819l258 41v-1819z" />
    <glyph glyph-name="braceright" unicode="}" horiz-adv-x="1036" 
d="M72 1413h317q156 0 238 -71t82 -197q0 -49 -14.5 -138t-14.5 -133q0 -98 55.5 -139t163.5 -41h53l29 -190h-82q-108 0 -163.5 -40.5t-55.5 -137.5q0 -46 14.5 -135t14.5 -136q0 -126 -82 -197t-238 -71h-307v190h182q139 0 139 117q0 40 -14 118.5t-14 125.5
q0 111 58.5 172.5t176.5 87.5v4q-118 26 -176.5 87.5t-58.5 172.5q0 46 14 125t14 119q0 117 -139 117h-162z" />
    <glyph glyph-name="asciitilde" unicode="~" horiz-adv-x="837" 
d="M762 727q-21 -154 -69 -220.5t-128 -66.5q-24 0 -49 6t-43 13t-53 22q-64 27 -87.5 35t-45.5 8q-24 0 -39 -19t-27 -71l-145 31q20 155 67.5 221t128.5 66q24 0 50 -6t40 -11.5t54 -21.5q61 -28 86 -36.5t49 -8.5q23 0 37.5 20t27.5 72z" />
    <glyph glyph-name="nonbreakingspace" unicode="&#xa0;" horiz-adv-x="212" 
 />
    <glyph glyph-name="exclamdown" unicode="&#xa1;" horiz-adv-x="604" 
d="M469 1061h-334v352h334v-352zM496 0h-385l94 885l188 43z" />
    <glyph glyph-name="cent" unicode="&#xa2;" horiz-adv-x="1011" 
d="M938 268q-155 -85 -326 -88l-30 -200l-154 34l27 179q-177 37 -278 167.5t-101 329.5q0 239 148.5 375.5t379.5 136.5h6l31 201l156 -35l-29 -182q84 -17 162 -58l-39 -247q-89 50 -174 67l-80 -520q134 3 268 78zM369 686q0 -186 139 -240l80 510q-108 -9 -163.5 -77.5
t-55.5 -192.5z" />
    <glyph glyph-name="sterling" unicode="&#xa3;" horiz-adv-x="1128" 
d="M96 817h193l73 236q57 187 168 272.5t297 85.5q127 0 222 -31l-41 -276q-67 22 -146 22q-80 0 -125.5 -39t-74.5 -133l-44 -137h254l41 -260h-376l-91 -291h568l43 -266h-961v207l111 350h-111v260z" />
    <glyph glyph-name="yen" unicode="&#xa5;" horiz-adv-x="1312" 
d="M160 455v155h272l-416 742l359 47l291 -580l280 565h352l-444 -774h264l25 -155h-330v-133h320v-156h-320v-166h-336v166h-303l-24 156h327v133h-317z" />
    <glyph glyph-name="section" unicode="&#xa7;" horiz-adv-x="1165" 
d="M1102 748q0 -103 -68 -195l-227 37q27 46 27 84t-33 60t-123 44l-160 39q-160 39 -235.5 103.5t-75.5 185.5q0 139 103.5 217t269.5 78q179 0 333 -53l-34 -213q-151 63 -279 63q-52 0 -78 -18t-26 -47q0 -30 24.5 -46.5t95.5 -35.5l177 -43q171 -42 240 -98t69 -162z
M66 637q0 51 18 103.5t49 90.5l225 -36q-24 -46 -24 -84q0 -39 32.5 -61t122.5 -44l158 -39q160 -39 235.5 -103t75.5 -185q0 -139 -103 -217t-267 -78q-180 0 -334 53l33 213q161 -64 280 -64q52 0 78.5 18.5t26.5 47.5q0 30 -25.5 46t-95.5 36l-178 43q-169 43 -238 98.5
t-69 161.5z" />
    <glyph glyph-name="dieresis" unicode="&#xa8;" horiz-adv-x="929" 
d="M801 1122h-266v269h266v-269zM395 1122h-266v269h266v-269z" />
    <glyph glyph-name="copyright" unicode="&#xa9;" horiz-adv-x="1636" 
d="M1526 709q0 -215 -89.5 -383t-251 -260.5t-368.5 -92.5q-315 0 -510.5 202.5t-195.5 529.5q0 216 89.5 383.5t250.5 259.5t368 92q208 0 369 -91.5t249.5 -257.5t88.5 -382zM1436 707q0 155 -47.5 281t-131 208t-196 126t-242.5 44q-132 0 -245 -44t-196 -126
t-130 -207.5t-47 -281.5q0 -155 47.5 -281t131 -208.5t196 -126.5t243.5 -44q132 0 244.5 44t195.5 126.5t130 208t47 281.5zM1116 362q-116 -65 -256 -65q-193 0 -305.5 114t-112.5 302q0 185 115 300t299 115q134 0 246 -53l-31 -201q-101 66 -201 66q-89 0 -139.5 -62
t-50.5 -163q0 -104 55.5 -166t149.5 -62q95 0 202 62z" />
    <glyph glyph-name="ordfeminine" unicode="&#xaa;" horiz-adv-x="821" 
d="M700 725h-186l-14 82q-104 -94 -219 -94q-84 0 -134.5 48.5t-50.5 129.5q0 114 94 173.5t299 74.5v12q0 48 -27.5 68t-84.5 20q-103 0 -217 -49l-23 151q132 54 285 54q140 0 209 -55t69 -173v-442zM721 455h-617v149h592zM489 911v129q-188 -27 -188 -116
q0 -31 16.5 -48.5t47.5 -17.5q61 0 124 53z" />
    <glyph glyph-name="guillemotleft" unicode="&#xab;" horiz-adv-x="1169" 
d="M608 1004l-223 -502l211 -477l-201 -43l-350 520l340 502h223zM1096 1004l-222 -502l209 -477l-200 -43l-351 520l342 502h222z" />
    <glyph glyph-name="uni00AD" unicode="&#xad;" horiz-adv-x="724" 
d="M643 449h-559v294h559v-294z" />
    <glyph glyph-name="registered" unicode="&#xae;" horiz-adv-x="1153" 
d="M1040 963q0 -211 -130.5 -343.5t-334.5 -132.5q-206 0 -335 131.5t-129 344.5q0 211 130.5 344t333.5 133q206 0 335.5 -132t129.5 -345zM973 963q0 196 -113 308.5t-285 112.5t-284.5 -112.5t-112.5 -308.5q0 -195 112.5 -307.5t284.5 -112.5q173 0 285.5 112.5
t112.5 307.5zM827 735l-153 -24l-119 188h-29v-182h-141v524h201q97 0 151 -42.5t54 -121.5q0 -104 -95 -145zM649 1067q0 34 -21 53t-59 19h-43v-146h41q82 0 82 74z" />
    <glyph glyph-name="macron" unicode="&#xaf;" horiz-adv-x="929" 
d="M776 1141h-622v215h622v-215z" />
    <glyph glyph-name="degree" unicode="&#xb0;" horiz-adv-x="913" 
d="M819 1034q0 -158 -102 -259t-260 -101q-159 0 -261 101t-102 259q0 157 102.5 260t260.5 103t260 -103t102 -260zM635 1034q0 83 -49.5 138t-128.5 55t-128.5 -55t-49.5 -138q0 -84 49.5 -137t128.5 -53t128.5 53t49.5 137z" />
    <glyph glyph-name="plusminus" unicode="&#xb1;" horiz-adv-x="1105" 
d="M950 733h-274v-287h-246v287h-276v234h276v286h246v-286h274v-234zM1008 117h-910v237h910v-237z" />
    <glyph glyph-name="twosuperior" unicode="&#xb2;" horiz-adv-x="737" 
d="M674 829h-596v170l268 244q41 36 57.5 59.5t16.5 53.5q0 33 -23 50t-63 17q-83 0 -215 -75l-27 188q135 80 287 80q129 0 201.5 -62.5t72.5 -160.5q0 -76 -37.5 -131.5t-121.5 -128.5l-138 -117h285z" />
    <glyph glyph-name="threesuperior" unicode="&#xb3;" horiz-adv-x="737" 
d="M670 1042q0 -105 -91 -166t-235 -61q-163 0 -281 59l33 175q115 -56 234 -56q54 0 84 20.5t30 55.5q0 40 -36.5 58t-124.5 18h-68l-29 149h99q145 0 145 76q0 30 -25.5 48t-74.5 18q-54 0 -113.5 -17t-105.5 -45l-33 172q136 70 282 70q138 0 216.5 -55t78.5 -150
q0 -67 -41.5 -112t-115.5 -68q172 -45 172 -189z" />
    <glyph glyph-name="acute" unicode="&#xb4;" horiz-adv-x="929" 
d="M731 1368l-301 -248h-197l123 310z" />
    <glyph glyph-name="paragraph" unicode="&#xb6;" horiz-adv-x="1126" 
d="M985 0h-184v1243h-135v-336l-74 -450q-244 8 -382 126.5t-138 340.5q0 217 140 338.5t386 121.5h387v-1384z" />
    <glyph glyph-name="periodcentered" unicode="&#xb7;" horiz-adv-x="530" 
d="M432 418h-332v354h332v-354z" />
    <glyph glyph-name="cedilla" unicode="&#xb8;" horiz-adv-x="929" 
d="M700 -166l-284 -217h-199l111 281z" />
    <glyph glyph-name="onesuperior" unicode="&#xb9;" horiz-adv-x="737" 
d="M672 829h-566v177h179v397l-166 -64l-25 174l248 101h168v-608h131z" />
    <glyph glyph-name="ordmasculine" unicode="&#xba;" horiz-adv-x="823" 
d="M745 1053q0 -156 -93 -248t-242 -92q-145 0 -238.5 92.5t-93.5 247.5q0 156 93.5 249t238.5 93q148 0 241.5 -93t93.5 -249zM733 455h-635v149h611zM535 1053q0 79 -33 126.5t-92 47.5q-57 0 -89 -48t-32 -126q0 -80 32 -127t89 -47q59 0 92 47.5t33 126.5z" />
    <glyph glyph-name="guillemotright" unicode="&#xbb;" horiz-adv-x="1169" 
d="M1124 500l-340 -500h-223l223 500l-211 477l201 43zM637 500l-340 -500h-223l221 500l-209 477l201 43z" />
    <glyph glyph-name="onequarter" unicode="&#xbc;" horiz-adv-x="1658" 
d="M672 625h-566v176h179v397l-166 -63l-25 174l248 100h168v-608h131zM1593 143h-100v-149h-213v149h-338v142l283 491h268v-481h100v-152zM1298 289v125l15 207h-15l-65 -144l-55 -96l-62 -90l6 -10l90 8h86zM526 -29l-139 37l436 699l412 694l139 -37l-438 -698z" />
    <glyph glyph-name="onehalf" unicode="&#xbd;" horiz-adv-x="1658" 
d="M672 625h-566v176h179v397l-166 -63l-25 174l248 100h168v-608h131zM1595 0h-596v168l269 246q39 33 56 57t17 55q0 32 -23.5 50t-62.5 18q-84 0 -215 -78l-26 191q133 79 286 79q129 0 202 -62.5t73 -160.5q0 -54 -22 -101t-52 -79.5t-86 -81.5l-137 -115h285zM496 -29
l-140 37l437 699l411 694l139 -37l-438 -698z" />
    <glyph glyph-name="threequarters" unicode="&#xbe;" horiz-adv-x="1658" 
d="M670 838q0 -105 -91 -166.5t-235 -61.5q-161 0 -281 60l33 174q115 -56 234 -56q54 0 84 20.5t30 55.5q0 40 -36.5 58t-124.5 18h-68l-29 150h99q145 0 145 75q0 30 -25.5 48t-74.5 18q-54 0 -113.5 -17t-105.5 -45l-33 172q136 70 282 70q138 0 216.5 -55t78.5 -150
q0 -67 -41.5 -112t-115.5 -68q172 -45 172 -188zM1593 143h-100v-149h-213v149h-338v142l283 491h268v-481h100v-152zM1298 289v125l15 207h-15l-65 -144l-55 -96l-62 -90l6 -10l90 8h86zM506 -29l-139 37l436 699l411 694l140 -37l-439 -698z" />
    <glyph glyph-name="questiondown" unicode="&#xbf;" horiz-adv-x="1036" 
d="M436 1413h332v-352h-332v352zM483 829l6 68l203 47l23 -311l-64 -21q-150 -47 -211 -96.5t-61 -122.5q0 -64 45 -99.5t129 -35.5q182 0 387 145l43 -286q-212 -144 -475 -144q-217 0 -337 104t-120 290q0 174 106.5 283t325.5 179z" />
    <glyph glyph-name="Agrave" unicode="&#xc0;" horiz-adv-x="1437" 
d="M27 0l508 1419h385l491 -1376l-354 -57l-105 307h-487l-94 -293h-344zM852 1538h-205l-299 248l379 61zM709 1059l-160 -492h317z" />
    <glyph glyph-name="Aacute" unicode="&#xc1;" horiz-adv-x="1437" 
d="M27 0l508 1419h385l491 -1376l-354 -57l-105 307h-487l-94 -293h-344zM1096 1786l-301 -248h-197l123 309zM709 1059l-160 -492h317z" />
    <glyph glyph-name="Acircumflex" unicode="&#xc2;" horiz-adv-x="1437" 
d="M27 0l508 1419h385l491 -1376l-354 -57l-105 307h-487l-94 -293h-344zM1071 1538h-197l-151 119l-152 -119h-196l205 301h286zM709 1059l-160 -492h317z" />
    <glyph glyph-name="Atilde" unicode="&#xc3;" horiz-adv-x="1437" 
d="M27 0l508 1419h385l491 -1376l-354 -57l-105 307h-487l-94 -293h-344zM1073 1823q-20 -153 -67.5 -219t-126.5 -66q-56 0 -146 41q-64 27 -87.5 35t-45.5 8q-24 0 -38.5 -19t-26.5 -71l-148 31q21 155 69 220.5t128 65.5q37 0 67 -9t78 -32q96 -43 133 -43q24 0 39 20.5
t27 72.5zM709 1059l-160 -492h317z" />
    <glyph glyph-name="Adieresis" unicode="&#xc4;" horiz-adv-x="1437" 
d="M27 0l508 1419h385l491 -1376l-354 -57l-105 307h-487l-94 -293h-344zM709 1059l-160 -492h317zM1059 1540h-266v268h266v-268zM653 1540h-266v268h266v-268z" />
    <glyph glyph-name="Aring" unicode="&#xc5;" horiz-adv-x="1437" 
d="M991 1499q0 -79 -51 -139l471 -1317l-352 -57l-105 307h-491l-94 -293h-342l481 1352q-57 57 -57 147q0 95 71 158t199 63q127 0 198.5 -63t71.5 -158zM709 1059l-162 -492h319zM823 1499q0 49 -28.5 84t-73.5 35t-74 -35t-29 -84q0 -50 29 -84.5t74 -34.5t73.5 34.5
t28.5 84.5z" />
    <glyph glyph-name="AE" unicode="&#xc6;" horiz-adv-x="1857" 
d="M2 0l694 1413h1073v-283h-536v-266h409l46 -280h-455v-299h555v-285h-885v293h-403l-138 -293h-360zM623 567h280v613z" />
    <glyph glyph-name="Ccedilla" unicode="&#xc7;" horiz-adv-x="1230" 
d="M1165 84q-187 -109 -409 -109q-315 0 -496.5 197t-181.5 533q0 331 188.5 532t505.5 201q214 0 373 -92l-49 -316q-146 115 -305 115q-166 0 -264.5 -118t-98.5 -320q0 -203 101.5 -321t269.5 -118q149 0 321 109zM938 -182l-285 -217h-198l110 280z" />
    <glyph glyph-name="Egrave" unicode="&#xc8;" 
d="M1028 0h-899v1413h881v-283h-537v-266h410l45 -280h-455v-299h555v-285zM705 1518h-205l-299 247l379 62z" />
    <glyph glyph-name="Eacute" unicode="&#xc9;" 
d="M948 1765l-301 -247h-196l122 309zM1028 0h-899v1413h881v-283h-537v-266h410l45 -280h-455v-299h555v-285z" />
    <glyph glyph-name="Ecircumflex" unicode="&#xca;" 
d="M924 1518h-197l-152 118l-151 -118h-197l205 301h287zM1028 0h-899v1413h881v-283h-537v-266h410l45 -280h-455v-299h555v-285z" />
    <glyph glyph-name="Edieresis" unicode="&#xcb;" 
d="M911 1520h-266v268h266v-268zM506 1520h-266v268h266v-268zM1028 0h-899v1413h881v-283h-537v-266h410l45 -280h-455v-299h555v-285z" />
    <glyph glyph-name="Igrave" unicode="&#xcc;" horiz-adv-x="624" 
d="M487 0h-350v1413h350v-1413zM440 1518h-204l-299 247l378 62z" />
    <glyph glyph-name="Iacute" unicode="&#xcd;" horiz-adv-x="624" 
d="M487 0h-350v1413h350v-1413zM684 1765l-301 -247h-197l123 309z" />
    <glyph glyph-name="Icircumflex" unicode="&#xce;" horiz-adv-x="624" 
d="M487 0h-350v1413h350v-1413zM659 1518h-196l-152 118l-151 -118h-197l205 301h287z" />
    <glyph glyph-name="Idieresis" unicode="&#xcf;" horiz-adv-x="624" 
d="M487 0h-350v1413h350v-1413zM649 1520h-266v268h266v-268zM244 1520h-267v268h267v-268z" />
    <glyph glyph-name="Eth" unicode="&#xd0;" horiz-adv-x="1501" 
d="M1425 709q0 -158 -49 -288t-141 -224t-232.5 -145.5t-316.5 -51.5h-498v580h-129l-47 292h176v541h488q181 0 324 -51t235.5 -144t141 -222t48.5 -287zM1071 707q0 216 -108.5 325t-296.5 109h-136v-275h250v-282h-250v-312h136q194 0 299.5 107t105.5 328z" />
    <glyph glyph-name="Ntilde" unicode="&#xd1;" horiz-adv-x="1443" 
d="M1315 0h-303l-557 846v-846h-326v1413h340l520 -790v790h326v-1413zM1071 1796q-20 -153 -67.5 -219t-126.5 -66q-56 0 -146 41q-64 27 -87.5 35t-45.5 8q-24 0 -39 -19t-27 -71l-147 31q21 155 69 221t128 66q37 0 67 -9t78 -32q96 -43 133 -43q24 0 39 20t27 72z" />
    <glyph glyph-name="Ograve" unicode="&#xd2;" horiz-adv-x="1505" 
d="M1427 709q0 -217 -82.5 -383.5t-237 -259.5t-357.5 -93q-303 0 -487.5 202t-184.5 530q0 330 185 532.5t491 202.5q202 0 355.5 -91.5t235.5 -257t82 -382.5zM1075 707q0 213 -85 335.5t-238 122.5q-151 0 -237.5 -123t-86.5 -335t86.5 -335.5t237.5 -123.5
q152 0 237.5 123t85.5 336zM881 1538h-205l-299 248l379 61z" />
    <glyph glyph-name="Oacute" unicode="&#xd3;" horiz-adv-x="1505" 
d="M1124 1786l-301 -248h-196l123 309zM1427 709q0 -217 -82.5 -383.5t-237 -259.5t-357.5 -93q-303 0 -487.5 202t-184.5 530q0 330 185 532.5t491 202.5q202 0 355.5 -91.5t235.5 -257t82 -382.5zM1075 707q0 213 -85 335.5t-238 122.5q-151 0 -237.5 -123t-86.5 -335
t86.5 -335.5t237.5 -123.5q152 0 237.5 123t85.5 336z" />
    <glyph glyph-name="Ocircumflex" unicode="&#xd4;" horiz-adv-x="1505" 
d="M1098 1538h-197l-151 119l-152 -119h-197l205 301h287zM1427 709q0 -217 -82.5 -383.5t-237 -259.5t-357.5 -93q-303 0 -487.5 202t-184.5 530q0 330 185 532.5t491 202.5q202 0 355.5 -91.5t235.5 -257t82 -382.5zM1075 707q0 213 -85 335.5t-238 122.5
q-151 0 -237.5 -123t-86.5 -335t86.5 -335.5t237.5 -123.5q152 0 237.5 123t85.5 336z" />
    <glyph glyph-name="Otilde" unicode="&#xd5;" horiz-adv-x="1505" 
d="M1427 709q0 -217 -82.5 -383.5t-237 -259.5t-357.5 -93q-303 0 -487.5 202t-184.5 530q0 330 185 532.5t491 202.5q202 0 355.5 -91.5t235.5 -257t82 -382.5zM1075 707q0 213 -85 335.5t-238 122.5q-151 0 -237.5 -123t-86.5 -335t86.5 -335.5t237.5 -123.5
q152 0 237.5 123t85.5 336zM1102 1823q-20 -153 -67.5 -219t-127.5 -66q-36 0 -66 9.5t-79 31.5q-64 27 -87.5 35t-45.5 8q-24 0 -39 -19t-27 -71l-147 31q21 155 69 220.5t127 65.5q59 0 146 -41q96 -43 133 -43q24 0 38.5 20t26.5 73z" />
    <glyph glyph-name="Odieresis" unicode="&#xd6;" horiz-adv-x="1505" 
d="M1087 1540h-266v268h266v-268zM682 1540h-266v268h266v-268zM1427 709q0 -217 -82.5 -383.5t-237 -259.5t-357.5 -93q-303 0 -487.5 202t-184.5 530q0 330 185 532.5t491 202.5q202 0 355.5 -91.5t235.5 -257t82 -382.5zM1075 707q0 213 -85 335.5t-238 122.5
q-151 0 -237.5 -123t-86.5 -335t86.5 -335.5t237.5 -123.5q152 0 237.5 123t85.5 336z" />
    <glyph glyph-name="multiply" unicode="&#xd7;" horiz-adv-x="1171" 
d="M870 231l-286 291l-285 -289l-172 173l289 284l-291 287l176 176l287 -291l284 289l172 -172l-288 -285l291 -286z" />
    <glyph glyph-name="Oslash" unicode="&#xd8;" horiz-adv-x="1505" 
d="M1427 705q0 -162 -48.5 -298t-135.5 -231.5t-212.5 -149t-274.5 -53.5q-230 0 -398 123l-94 -114l-213 47l168 204q-141 196 -141 476q0 216 84 382t237 257.5t351 91.5q225 0 397 -123l94 115l213 -48l-168 -204q141 -196 141 -475zM752 1178q-152 0 -240 -128.5
t-88 -342.5q0 -133 33 -228l504 608q-88 91 -209 91zM1081 707q0 121 -32 227l-504 -610q82 -88 207 -88q154 0 241.5 128t87.5 343z" />
    <glyph glyph-name="Ugrave" unicode="&#xd9;" horiz-adv-x="1409" 
d="M1296 561q0 -144 -45 -256.5t-125 -183.5t-188 -107.5t-238 -36.5q-269 0 -428 147.5t-159 434.5v854h352v-852q0 -138 61.5 -213.5t178.5 -75.5q118 0 178.5 74t60.5 211v856h352v-852zM831 1511h-204l-299 248l379 62z" />
    <glyph glyph-name="Uacute" unicode="&#xda;" horiz-adv-x="1409" 
d="M1073 1759l-301 -248h-197l123 310zM1296 561q0 -144 -45 -256.5t-125 -183.5t-188 -107.5t-238 -36.5q-269 0 -428 147.5t-159 434.5v854h352v-852q0 -138 61.5 -213.5t178.5 -75.5q118 0 178.5 74t60.5 211v856h352v-852z" />
    <glyph glyph-name="Ucircumflex" unicode="&#xdb;" horiz-adv-x="1409" 
d="M1049 1511h-197l-152 119l-151 -119h-197l205 301h287zM1296 561q0 -144 -45 -256.5t-125 -183.5t-188 -107.5t-238 -36.5q-269 0 -428 147.5t-159 434.5v854h352v-852q0 -138 61.5 -213.5t178.5 -75.5q118 0 178.5 74t60.5 211v856h352v-852z" />
    <glyph glyph-name="Udieresis" unicode="&#xdc;" horiz-adv-x="1409" 
d="M1038 1513h-266v269h266v-269zM633 1513h-266v269h266v-269zM1296 561q0 -144 -45 -256.5t-125 -183.5t-188 -107.5t-238 -36.5q-269 0 -428 147.5t-159 434.5v854h352v-852q0 -138 61.5 -213.5t178.5 -75.5q118 0 178.5 74t60.5 211v856h352v-852z" />
    <glyph glyph-name="Yacute" unicode="&#xdd;" horiz-adv-x="1372" 
d="M1370 1413l-510 -893v-520h-350v516l-490 860l373 51l307 -585l297 571h373zM1073 1759l-301 -248h-197l123 310z" />
    <glyph glyph-name="Thorn" unicode="&#xde;" horiz-adv-x="1193" 
d="M1137 735q0 -234 -153.5 -358.5t-416.5 -124.5h-88v-252h-350v1413h350v-217h103q264 0 409.5 -117t145.5 -344zM799 729q0 203 -236 203h-88v-416h82q242 0 242 213z" />
    <glyph glyph-name="germandbls" unicode="&#xdf;" horiz-adv-x="1255" 
d="M1210 322q0 -162 -96 -249t-264 -87q-154 0 -287 65l39 234q114 -68 209 -68q48 0 76 25t28 71q0 60 -66 114t-228 103l-31 205q125 184 125 346q0 74 -30.5 113t-88.5 39q-59 0 -90 -42.5t-31 -121.5v-1069h-309v752h-139v252h139v43q0 204 112 312.5t322 108.5
q202 0 308 -98.5t106 -261.5q0 -116 -42.5 -202.5t-127.5 -182.5q185 -62 275.5 -157t90.5 -244z" />
    <glyph glyph-name="agrave" unicode="&#xe0;" horiz-adv-x="1038" 
d="M940 0h-274l-21 125q-138 -145 -315 -145q-123 0 -198 72.5t-75 205.5q0 175 138 264.5t436 116.5v18q0 65 -37.5 96t-114.5 31q-154 0 -323 -75l-37 233q191 78 407 78q213 0 313.5 -80.5t100.5 -267.5v-672zM631 276v213q-149 -23 -209 -70.5t-60 -119.5q0 -46 27 -72
t72 -26q86 0 170 75zM653 1120h-204l-299 248l378 62z" />
    <glyph glyph-name="aacute" unicode="&#xe1;" horiz-adv-x="1038" 
d="M940 0h-274l-21 125q-138 -145 -315 -145q-123 0 -198 72.5t-75 205.5q0 175 138 264.5t436 116.5v18q0 65 -37.5 96t-114.5 31q-154 0 -323 -75l-37 233q191 78 407 78q213 0 313.5 -80.5t100.5 -267.5v-672zM631 276v213q-149 -23 -209 -70.5t-60 -119.5q0 -46 27 -72
t72 -26q86 0 170 75zM895 1368l-301 -248h-197l123 310z" />
    <glyph glyph-name="acircumflex" unicode="&#xe2;" horiz-adv-x="1038" 
d="M940 0h-274l-21 125q-138 -145 -315 -145q-123 0 -198 72.5t-75 205.5q0 175 138 264.5t436 116.5v18q0 65 -37.5 96t-114.5 31q-154 0 -323 -75l-37 233q191 78 407 78q213 0 313.5 -80.5t100.5 -267.5v-672zM631 276v213q-149 -23 -209 -70.5t-60 -119.5q0 -46 27 -72
t72 -26q86 0 170 75zM870 1120h-196l-152 119l-151 -119h-197l205 301h287z" />
    <glyph glyph-name="atilde" unicode="&#xe3;" horiz-adv-x="1038" 
d="M940 0h-274l-21 125q-138 -145 -315 -145q-123 0 -198 72.5t-75 205.5q0 175 138 264.5t436 116.5v18q0 65 -37.5 96t-114.5 31q-154 0 -323 -75l-37 233q191 78 407 78q213 0 313.5 -80.5t100.5 -267.5v-672zM631 276v213q-149 -23 -209 -70.5t-60 -119.5q0 -46 27 -72
t72 -26q86 0 170 75zM872 1405q-20 -153 -67.5 -219t-126.5 -66q-56 0 -146 41q-64 27 -87.5 35t-45.5 8q-24 0 -38.5 -19t-26.5 -71l-148 31q21 155 69 221t128 66q37 0 67 -9t78 -32q96 -43 134 -43q24 0 38.5 20t26.5 72z" />
    <glyph glyph-name="adieresis" unicode="&#xe4;" horiz-adv-x="1038" 
d="M940 0h-274l-21 125q-138 -145 -315 -145q-123 0 -198 72.5t-75 205.5q0 175 138 264.5t436 116.5v18q0 65 -37.5 96t-114.5 31q-154 0 -323 -75l-37 233q191 78 407 78q213 0 313.5 -80.5t100.5 -267.5v-672zM631 276v213q-149 -23 -209 -70.5t-60 -119.5q0 -46 27 -72
t72 -26q86 0 170 75zM860 1122h-266v269h266v-269zM455 1122h-267v269h267v-269z" />
    <glyph glyph-name="aring" unicode="&#xe5;" horiz-adv-x="1038" 
d="M940 0h-274l-21 125q-138 -145 -315 -145q-123 0 -198 72.5t-75 205.5q0 175 138 264.5t436 116.5v18q0 65 -37.5 96t-114.5 31q-154 0 -323 -75l-37 233q191 78 407 78q213 0 313.5 -80.5t100.5 -267.5v-672zM631 276v213q-149 -23 -209 -70.5t-60 -119.5q0 -46 27 -72
t72 -26q86 0 170 75zM795 1337q0 -96 -71 -158.5t-200 -62.5t-199.5 62.5t-70.5 158.5q0 95 71 158.5t199 63.5t199.5 -63.5t71.5 -158.5zM627 1337q0 49 -29 84t-74 35t-73.5 -35t-28.5 -84q0 -50 28.5 -84t73.5 -34t74 34t29 84z" />
    <glyph glyph-name="ae" unicode="&#xe6;" horiz-adv-x="1599" 
d="M1538 504q0 -52 -4 -80h-604q22 -219 246 -219q154 0 329 106l33 -219q-174 -112 -399 -112q-261 0 -398 149q-179 -149 -368 -149q-142 0 -229 70.5t-87 205.5q0 172 136.5 263.5t431.5 119.5v18q0 66 -35 96.5t-111 30.5q-154 0 -323 -75l-37 233q191 78 391 78
q121 0 193 -31t116 -102q115 137 291 137q107 0 190 -40t134.5 -111t77.5 -164.5t26 -204.5zM1243 594q-6 113 -46.5 171t-111.5 58q-65 0 -107 -58.5t-48 -170.5h313zM653 283q-30 102 -30 202v2q-144 -23 -202.5 -70.5t-58.5 -113.5q0 -102 107 -102q93 0 184 82z" />
    <glyph glyph-name="ccedilla" unicode="&#xe7;" horiz-adv-x="925" 
d="M862 70q-143 -88 -319 -88q-220 0 -353 136t-133 376q0 128 39.5 230t108 165.5t158.5 97t194 33.5q162 0 297 -76l-41 -264q-118 74 -225 74q-99 0 -158 -65t-59 -187q0 -124 63 -189t162 -65q113 0 229 76zM752 -166l-285 -217h-199l111 281z" />
    <glyph glyph-name="egrave" unicode="&#xe8;" horiz-adv-x="1034" 
d="M973 92q-174 -112 -400 -112q-236 0 -376 130.5t-140 387.5q0 242 132.5 384t340.5 142q113 0 199.5 -40t139.5 -111.5t79.5 -164.5t26.5 -204q0 -48 -4 -80h-606q22 -219 247 -219q152 0 330 106zM664 1120h-205l-299 248l379 62zM522 823q-68 0 -110.5 -58t-49.5 -171
h318q-15 229 -158 229z" />
    <glyph glyph-name="eacute" unicode="&#xe9;" horiz-adv-x="1034" 
d="M973 92q-174 -112 -400 -112q-236 0 -376 130.5t-140 387.5q0 242 132.5 384t340.5 142q113 0 199.5 -40t139.5 -111.5t79.5 -164.5t26.5 -204q0 -48 -4 -80h-606q22 -219 247 -219q152 0 330 106zM905 1368l-301 -248h-196l122 310zM522 823q-68 0 -110.5 -58
t-49.5 -171h318q-15 229 -158 229z" />
    <glyph glyph-name="ecircumflex" unicode="&#xea;" horiz-adv-x="1034" 
d="M973 92q-174 -112 -400 -112q-236 0 -376 130.5t-140 387.5q0 242 132.5 384t340.5 142q113 0 199.5 -40t139.5 -111.5t79.5 -164.5t26.5 -204q0 -48 -4 -80h-606q22 -219 247 -219q152 0 330 106zM881 1120h-197l-152 119l-151 -119h-197l205 301h287zM522 823
q-68 0 -110.5 -58t-49.5 -171h318q-15 229 -158 229z" />
    <glyph glyph-name="edieresis" unicode="&#xeb;" horiz-adv-x="1034" 
d="M973 92q-174 -112 -400 -112q-236 0 -376 130.5t-140 387.5q0 242 132.5 384t340.5 142q113 0 199.5 -40t139.5 -111.5t79.5 -164.5t26.5 -204q0 -48 -4 -80h-606q22 -219 247 -219q152 0 330 106zM465 1122h-266v269h266v-269zM870 1122h-266v269h266v-269zM522 823
q-68 0 -110.5 -58t-49.5 -171h318q-15 229 -158 229z" />
    <glyph glyph-name="igrave" unicode="&#xec;" horiz-adv-x="536" 
d="M424 0h-311v1004h311v-1004zM397 1120h-204l-299 248l378 62z" />
    <glyph glyph-name="iacute" unicode="&#xed;" horiz-adv-x="536" 
d="M641 1368l-301 -248h-197l123 310zM424 0h-311v1004h311v-1004z" />
    <glyph glyph-name="icircumflex" unicode="&#xee;" horiz-adv-x="536" 
d="M614 1120h-196l-152 119l-151 -119h-197l205 301h287zM424 0h-311v1004h311v-1004z" />
    <glyph glyph-name="idieresis" unicode="&#xef;" horiz-adv-x="536" 
d="M604 1122h-266v269h266v-269zM199 1122h-267v269h267v-269zM424 0h-311v1004h311v-1004z" />
    <glyph glyph-name="eth" unicode="&#xf0;" horiz-adv-x="1103" 
d="M506 1030h-178l106 150q-66 30 -170 57l37 240q165 -36 285 -91l63 93l176 -37l-100 -135q315 -218 315 -668q0 -350 -180 -530q-129 -132 -336 -132q-202 0 -333.5 129.5t-131.5 354.5q0 215 108.5 348t272.5 133q163 0 295 -119q-28 177 -172 283zM543 219
q95 0 147.5 100t52.5 289v6q-107 86 -215 86q-77 0 -124.5 -65t-47.5 -182q0 -108 51 -171t136 -63z" />
    <glyph glyph-name="ntilde" unicode="&#xf1;" horiz-adv-x="1099" 
d="M999 0h-311v629q0 121 -102 121q-79 0 -170 -91v-659h-310v1004h273l22 -138q76 76 150.5 117t163.5 41q138 0 211 -81t73 -230v-713zM907 1405q-20 -153 -67.5 -219t-126.5 -66q-56 0 -146 41q-64 27 -87.5 35t-45.5 8q-24 0 -38.5 -19t-26.5 -71l-148 31q21 155 69 221
t128 66q37 0 67 -9t78 -32q96 -43 133 -43q24 0 39 20t27 72z" />
    <glyph glyph-name="ograve" unicode="&#xf2;" horiz-adv-x="1079" 
d="M1022 502q0 -238 -136 -380t-349 -142q-211 0 -345.5 141.5t-134.5 378.5q0 238 135.5 381t346.5 143q213 0 348 -142t135 -380zM723 500q0 124 -48 198t-136 74t-135.5 -72.5t-47.5 -197.5q0 -124 48.5 -198.5t134.5 -74.5q88 0 136 73.5t48 197.5zM668 1120h-205
l-299 248l379 62z" />
    <glyph glyph-name="oacute" unicode="&#xf3;" horiz-adv-x="1079" 
d="M909 1368l-301 -248h-196l123 310zM1022 502q0 -238 -136 -380t-349 -142q-211 0 -345.5 141.5t-134.5 378.5q0 238 135.5 381t346.5 143q213 0 348 -142t135 -380zM723 500q0 124 -48 198t-136 74t-135.5 -72.5t-47.5 -197.5q0 -124 48.5 -198.5t134.5 -74.5
q88 0 136 73.5t48 197.5z" />
    <glyph glyph-name="ocircumflex" unicode="&#xf4;" horiz-adv-x="1079" 
d="M885 1120h-197l-151 119l-152 -119h-197l205 301h287zM1022 502q0 -238 -136 -380t-349 -142q-211 0 -345.5 141.5t-134.5 378.5q0 238 135.5 381t346.5 143q213 0 348 -142t135 -380zM723 500q0 124 -48 198t-136 74t-135.5 -72.5t-47.5 -197.5q0 -124 48.5 -198.5
t134.5 -74.5q88 0 136 73.5t48 197.5z" />
    <glyph glyph-name="otilde" unicode="&#xf5;" horiz-adv-x="1079" 
d="M1022 502q0 -238 -136 -380t-349 -142q-211 0 -345.5 141.5t-134.5 378.5q0 238 135.5 381t346.5 143q213 0 348 -142t135 -380zM723 500q0 124 -48 198t-136 74t-135.5 -72.5t-47.5 -197.5q0 -124 48.5 -198.5t134.5 -74.5q88 0 136 73.5t48 197.5zM887 1405
q-20 -153 -67.5 -219t-127.5 -66q-36 0 -66 9.5t-79 31.5q-64 27 -87.5 35t-45.5 8q-24 0 -39 -19t-27 -71l-147 31q21 155 69 221t127 66q59 0 146 -41q96 -43 133 -43q24 0 38.5 20t26.5 72z" />
    <glyph glyph-name="odieresis" unicode="&#xf6;" horiz-adv-x="1079" 
d="M874 1122h-266v269h266v-269zM469 1122h-266v269h266v-269zM1022 502q0 -238 -136 -380t-349 -142q-211 0 -345.5 141.5t-134.5 378.5q0 238 135.5 381t346.5 143q213 0 348 -142t135 -380zM723 500q0 124 -48 198t-136 74t-135.5 -72.5t-47.5 -197.5q0 -124 48.5 -198.5
t134.5 -74.5q88 0 136 73.5t48 197.5z" />
    <glyph glyph-name="divide" unicode="&#xf7;" horiz-adv-x="1171" 
d="M723 967h-274v266h274v-266zM1061 573h-950v238h950v-238zM723 152h-274v266h274v-266z" />
    <glyph glyph-name="oslash" unicode="&#xf8;" horiz-adv-x="1079" 
d="M1022 502q0 -157 -63.5 -277t-171.5 -182.5t-242 -62.5q-162 0 -281 81l-65 -81l-166 36l125 150q-99 135 -99 334q0 237 135.5 380.5t342.5 143.5q158 0 280 -86l68 86l166 -37l-127 -153q98 -138 98 -332zM733 500q0 67 -16 129l-293 -365q44 -47 115 -47q92 0 143 77
t51 206zM539 786q-90 0 -139.5 -77.5t-49.5 -206.5q0 -72 15 -127l290 362q-49 49 -116 49z" />
    <glyph glyph-name="ugrave" unicode="&#xf9;" horiz-adv-x="1099" 
d="M993 0h-272l-23 137q-77 -76 -151.5 -116.5t-161.5 -40.5q-138 0 -211.5 81t-73.5 228v715h310v-629q0 -123 104 -123q80 0 170 90v662h309v-1004zM678 1120h-205l-299 248l379 62z" />
    <glyph glyph-name="uacute" unicode="&#xfa;" horiz-adv-x="1099" 
d="M920 1368l-302 -248h-196l123 310zM993 0h-272l-23 137q-77 -76 -151.5 -116.5t-161.5 -40.5q-138 0 -211.5 81t-73.5 228v715h310v-629q0 -123 104 -123q80 0 170 90v662h309v-1004z" />
    <glyph glyph-name="ucircumflex" unicode="&#xfb;" horiz-adv-x="1099" 
d="M893 1120h-197l-151 119l-152 -119h-196l204 301h287zM993 0h-272l-23 137q-77 -76 -151.5 -116.5t-161.5 -40.5q-138 0 -211.5 81t-73.5 228v715h310v-629q0 -123 104 -123q80 0 170 90v662h309v-1004z" />
    <glyph glyph-name="udieresis" unicode="&#xfc;" horiz-adv-x="1099" 
d="M883 1122h-267v269h267v-269zM477 1122h-266v269h266v-269zM993 0h-272l-23 137q-77 -76 -151.5 -116.5t-161.5 -40.5q-138 0 -211.5 81t-73.5 228v715h310v-629q0 -123 104 -123q80 0 170 90v662h309v-1004z" />
    <glyph glyph-name="yacute" unicode="&#xfd;" horiz-adv-x="1044" 
d="M1028 1004l-358 -1029q-66 -192 -164 -270t-262 -78q-58 0 -121 13l-41 249q56 -16 123 -16q123 0 170 104l8 21l-365 981l332 39l193 -631l182 617h303zM918 1368l-302 -248h-196l123 310z" />
    <glyph glyph-name="thorn" unicode="&#xfe;" horiz-adv-x="1114" 
d="M1051 528q0 -138 -34.5 -244t-95 -168.5t-134.5 -94t-160 -31.5q-100 0 -211 35v-359l-310 -47v1811l310 49v-592q123 137 272 137q163 0 263 -125.5t100 -370.5zM739 508q0 121 -41 180.5t-110 59.5q-48 0 -88 -26t-84 -77v-381q67 -31 139 -31q84 0 134 67.5t50 207.5z
" />
    <glyph glyph-name="ydieresis" unicode="&#xff;" horiz-adv-x="1044" 
d="M1028 1004l-358 -1029q-66 -192 -164 -270t-262 -78q-58 0 -121 13l-41 249q56 -16 123 -16q123 0 170 104l8 21l-365 981l332 39l193 -631l182 617h303zM881 1122h-267v269h267v-269zM475 1122h-266v269h266v-269z" />
    <glyph glyph-name="Amacron" unicode="&#x100;" horiz-adv-x="1437" 
d="M27 0l508 1419h385l491 -1376l-354 -57l-105 307h-487l-94 -293h-344zM1034 1559h-622v215h622v-215zM709 1059l-160 -492h317z" />
    <glyph glyph-name="amacron" unicode="&#x101;" horiz-adv-x="1038" 
d="M940 0h-274l-21 125q-138 -145 -315 -145q-123 0 -198 72.5t-75 205.5q0 175 138 264.5t436 116.5v18q0 65 -37.5 96t-114.5 31q-154 0 -323 -75l-37 233q191 78 407 78q213 0 313.5 -80.5t100.5 -267.5v-672zM631 276v213q-149 -23 -209 -70.5t-60 -119.5q0 -46 27 -72
t72 -26q86 0 170 75zM836 1141h-623v215h623v-215z" />
    <glyph glyph-name="Abreve" unicode="&#x102;" horiz-adv-x="1437" 
d="M27 0l508 1419h385l491 -1376l-354 -57l-105 307h-487l-94 -293h-344zM1049 1815q-21 -133 -103 -206t-223 -73q-140 0 -221.5 73t-102.5 206l170 26q23 -62 58.5 -88.5t95.5 -26.5t95.5 26.5t58.5 88.5zM709 1059l-160 -492h317z" />
    <glyph glyph-name="abreve" unicode="&#x103;" horiz-adv-x="1038" 
d="M940 0h-274l-21 125q-138 -145 -315 -145q-123 0 -198 72.5t-75 205.5q0 175 138 264.5t436 116.5v18q0 65 -37.5 96t-114.5 31q-154 0 -323 -75l-37 233q191 78 407 78q213 0 313.5 -80.5t100.5 -267.5v-672zM631 276v213q-149 -23 -209 -70.5t-60 -119.5q0 -46 27 -72
t72 -26q86 0 170 75zM850 1397q-21 -133 -103 -206t-223 -73q-140 0 -221 73t-102 206l170 26q23 -62 58 -88t95 -26t95.5 26t58.5 88z" />
    <glyph glyph-name="Aogonek" unicode="&#x104;" horiz-adv-x="1437" 
d="M27 0l508 1419h385l491 -1376l-63 -10l-52 -82q-49 -77 -49 -121q0 -61 72 -61q32 0 86 14v-152q-106 -47 -211 -47q-88 0 -137 42.5t-49 123.5q0 94 112 246l-63 -10l-105 307h-487l-94 -293h-344zM709 1059l-160 -492h317z" />
    <glyph glyph-name="aogonek" unicode="&#x105;" horiz-adv-x="1038" 
d="M940 0h-55l-31 -49q-49 -77 -49 -121q0 -61 72 -61q32 0 86 14v-152q-106 -47 -211 -47q-88 0 -137.5 42.5t-49.5 123.5q0 94 117 250h-16l-21 125q-138 -145 -315 -145q-123 0 -198 72.5t-75 205.5q0 175 138 264.5t436 116.5v18q0 65 -37.5 96t-114.5 31
q-154 0 -323 -75l-37 233q191 78 407 78q213 0 313.5 -80.5t100.5 -267.5v-672zM631 276v213q-149 -23 -209 -70.5t-60 -119.5q0 -46 27 -72t72 -26q86 0 170 75z" />
    <glyph glyph-name="Cacute" unicode="&#x106;" horiz-adv-x="1230" 
d="M1102 1786l-301 -248h-197l123 309zM1165 84q-187 -109 -409 -109q-315 0 -496.5 197t-181.5 533q0 331 188.5 532t505.5 201q214 0 373 -92l-49 -316q-146 115 -305 115q-166 0 -264.5 -118t-98.5 -320q0 -203 101.5 -321t269.5 -118q149 0 321 109z" />
    <glyph glyph-name="cacute" unicode="&#x107;" horiz-adv-x="925" 
d="M915 1368l-301 -248h-196l123 310zM862 70q-143 -88 -319 -88q-220 0 -353 136t-133 376q0 128 39.5 230t108 165.5t158.5 97t194 33.5q162 0 297 -76l-41 -264q-118 74 -225 74q-99 0 -158 -65t-59 -187q0 -124 63 -189t162 -65q113 0 229 76z" />
    <glyph glyph-name="Cdotaccent" unicode="&#x10a;" horiz-adv-x="1230" 
d="M1165 84q-187 -109 -409 -109q-315 0 -496.5 197t-181.5 533q0 331 188.5 532t505.5 201q214 0 373 -92l-49 -316q-146 115 -305 115q-166 0 -264.5 -118t-98.5 -320q0 -203 101.5 -321t269.5 -118q149 0 321 109zM870 1540h-276v268h276v-268z" />
    <glyph glyph-name="cdotaccent" unicode="&#x10b;" horiz-adv-x="925" 
d="M862 70q-143 -88 -319 -88q-220 0 -353 136t-133 376q0 128 39.5 230t108 165.5t158.5 97t194 33.5q162 0 297 -76l-41 -264q-118 74 -225 74q-99 0 -158 -65t-59 -187q0 -124 63 -189t162 -65q113 0 229 76zM682 1122h-276v269h276v-269z" />
    <glyph glyph-name="Ccaron" unicode="&#x10c;" horiz-adv-x="1230" 
d="M383 1839h197l151 -119l152 119h196l-205 -301h-286zM1165 84q-187 -109 -409 -109q-315 0 -496.5 197t-181.5 533q0 331 188.5 532t505.5 201q214 0 373 -92l-49 -316q-146 115 -305 115q-166 0 -264.5 -118t-98.5 -320q0 -203 101.5 -321t269.5 -118q149 0 321 109z
" />
    <glyph glyph-name="ccaron" unicode="&#x10d;" horiz-adv-x="925" 
d="M195 1421h196l152 -118l151 118h197l-205 -301h-287zM862 70q-143 -88 -319 -88q-220 0 -353 136t-133 376q0 128 39.5 230t108 165.5t158.5 97t194 33.5q162 0 297 -76l-41 -264q-118 74 -225 74q-99 0 -158 -65t-59 -187q0 -124 63 -189t162 -65q113 0 229 76z" />
    <glyph glyph-name="Dcaron" unicode="&#x10e;" horiz-adv-x="1443" 
d="M336 1819h196l152 -119l152 119h196l-205 -301h-286zM1364 709q0 -158 -49 -288t-141 -224t-232.5 -145.5t-316.5 -51.5h-496v1413h487q181 0 323.5 -51t235.5 -144t141 -222t48 -287zM1012 707q0 216 -109.5 325t-296.5 109h-127v-869h127q194 0 300 107t106 328z" />
    <glyph glyph-name="dcaron" unicode="&#x10f;" horiz-adv-x="1114" 
d="M1343 1481q25 -77 25 -148q0 -149 -139 -282l-146 30q54 108 54 207q0 68 -39 160zM1008 0h-275l-20 131q-135 -151 -289 -151q-162 0 -262.5 125t-100.5 368q0 139 34.5 245t95 169t134.5 94t160 31q113 0 213 -35v453l310 49v-1479zM698 356v383q-65 29 -145 29
q-81 0 -130.5 -67t-49.5 -205q0 -123 41.5 -182.5t111.5 -59.5q80 0 172 102z" />
    <glyph glyph-name="Dcroat" unicode="&#x110;" horiz-adv-x="1501" 
d="M1425 709q0 -158 -49 -288t-141 -224t-232.5 -145.5t-316.5 -51.5h-498v580h-129l-47 292h176v541h488q181 0 324 -51t235.5 -144t141 -222t48.5 -287zM1071 707q0 216 -108.5 325t-296.5 109h-136v-275h250v-282h-250v-312h136q194 0 299.5 107t105.5 328z" />
    <glyph glyph-name="dcroat" unicode="&#x111;" horiz-adv-x="1114" 
d="M1008 0h-275l-20 131q-135 -151 -289 -151q-162 0 -262.5 125t-100.5 368q0 139 34.5 245t95 169t134.5 94t160 31q113 0 213 -35v147h-233l-31 191h264v115l310 49v-164h133v-191h-133v-1124zM698 356v383q-65 29 -145 29q-81 0 -130.5 -67t-49.5 -205
q0 -123 41.5 -182.5t111.5 -59.5q80 0 172 102z" />
    <glyph glyph-name="Emacron" unicode="&#x112;" 
d="M1028 0h-899v1413h881v-283h-537v-266h410l45 -280h-455v-299h555v-285zM887 1538h-623v215h623v-215z" />
    <glyph glyph-name="emacron" unicode="&#x113;" horiz-adv-x="1034" 
d="M973 92q-174 -112 -400 -112q-236 0 -376 130.5t-140 387.5q0 242 132.5 384t340.5 142q113 0 199.5 -40t139.5 -111.5t79.5 -164.5t26.5 -204q0 -48 -4 -80h-606q22 -219 247 -219q152 0 330 106zM846 1141h-623v215h623v-215zM522 823q-68 0 -110.5 -58t-49.5 -171h318
q-15 229 -158 229z" />
    <glyph glyph-name="Ebreve" unicode="&#x114;" 
d="M1028 0h-899v1413h881v-283h-537v-266h410l45 -280h-455v-299h555v-285zM901 1794q-21 -132 -103 -205t-223 -73q-140 0 -221 72.5t-102 205.5l170 27q23 -62 58 -88.5t95 -26.5t95.5 26.5t58.5 88.5z" />
    <glyph glyph-name="ebreve" unicode="&#x115;" horiz-adv-x="1034" 
d="M973 92q-174 -112 -400 -112q-236 0 -376 130.5t-140 387.5q0 242 132.5 384t340.5 142q113 0 199.5 -40t139.5 -111.5t79.5 -164.5t26.5 -204q0 -48 -4 -80h-606q22 -219 247 -219q152 0 330 106zM860 1397q-21 -133 -102.5 -206t-222.5 -73q-140 0 -221.5 73
t-102.5 206l170 26q23 -62 58.5 -88t95.5 -26t95 26t58 88zM522 823q-68 0 -110.5 -58t-49.5 -171h318q-15 229 -158 229z" />
    <glyph glyph-name="Edotaccent" unicode="&#x116;" 
d="M1028 0h-899v1413h881v-283h-537v-266h410l45 -280h-455v-299h555v-285zM715 1520h-277v268h277v-268z" />
    <glyph glyph-name="edotaccent" unicode="&#x117;" horiz-adv-x="1034" 
d="M973 92q-174 -112 -400 -112q-236 0 -376 130.5t-140 387.5q0 242 132.5 384t340.5 142q113 0 199.5 -40t139.5 -111.5t79.5 -164.5t26.5 -204q0 -48 -4 -80h-606q22 -219 247 -219q152 0 330 106zM674 1122h-277v269h277v-269zM522 823q-68 0 -110.5 -58t-49.5 -171h318
q-15 229 -158 229z" />
    <glyph glyph-name="Eogonek" unicode="&#x118;" 
d="M1028 0h-72l-30 -49q-49 -77 -49 -121q0 -61 71 -61q32 0 86 14v-152q-106 -47 -211 -47q-88 0 -137 42.5t-49 123.5q0 94 117 250h-625v1413h881v-283h-537v-266h410l45 -280h-455v-299h555v-285z" />
    <glyph glyph-name="eogonek" unicode="&#x119;" horiz-adv-x="1034" 
d="M530 1024q113 0 199.5 -40t139.5 -111.5t79.5 -164.5t26.5 -204q0 -52 -4 -80h-606q25 -219 247 -219q152 0 330 106l29 -196l-111 -140q-69 -90 -69 -145q0 -61 73 -61q32 0 86 14v-152q-110 -47 -211 -47q-89 0 -137.5 42.5t-48.5 123.5q0 92 106 238q-36 -8 -86 -8
q-236 0 -376 130.5t-140 387.5q0 242 132.5 384t340.5 142zM522 823q-66 0 -108 -58t-49 -171h315q-15 229 -158 229z" />
    <glyph glyph-name="Ecaron" unicode="&#x11a;" 
d="M227 1819h197l151 -119l152 119h197l-205 -301h-287zM1028 0h-899v1413h881v-283h-537v-266h410l45 -280h-455v-299h555v-285z" />
    <glyph glyph-name="ecaron" unicode="&#x11b;" horiz-adv-x="1034" 
d="M973 92q-174 -112 -400 -112q-236 0 -376 130.5t-140 387.5q0 242 132.5 384t340.5 142q113 0 199.5 -40t139.5 -111.5t79.5 -164.5t26.5 -204q0 -48 -4 -80h-606q22 -219 247 -219q152 0 330 106zM186 1421h197l152 -118l151 118h197l-205 -301h-287zM522 823
q-68 0 -110.5 -58t-49.5 -171h318q-15 229 -158 229z" />
    <glyph glyph-name="Gbreve" unicode="&#x11e;" horiz-adv-x="1396" 
d="M1290 123q-230 -150 -516 -150q-220 0 -378.5 92.5t-238 256.5t-79.5 383q0 218 84.5 384t244.5 258.5t375 92.5q244 0 432 -105l-47 -305q-189 121 -376 121q-178 0 -270.5 -120t-92.5 -324q0 -206 94.5 -329.5t272.5 -123.5q102 0 190 45v252h-246l-41 260h592v-688z
M1073 1815q-21 -133 -102.5 -206t-222.5 -73q-140 0 -221.5 73t-102.5 206l170 26q23 -62 58.5 -88.5t95.5 -26.5t95 26.5t58 88.5z" />
    <glyph glyph-name="gbreve" unicode="&#x11f;" horiz-adv-x="1093" 
d="M1053 -12q0 -162 -158 -261.5t-403 -99.5q-217 0 -350.5 63.5t-133.5 176.5q0 65 40 117t124 98q-55 46 -55 111q0 96 149 180q-93 41 -142.5 116.5t-49.5 174.5q0 162 118.5 259t303.5 97q182 0 309 -96l235 90l39 -230l-176 -4q19 -55 19 -106q0 -105 -57 -184.5
t-150.5 -119.5t-208.5 -40q-63 0 -92 4q-27 -24 -27 -45q0 -22 29 -31.5t131 -21.5l184 -13q159 -16 240.5 -71t81.5 -164zM842 1397q-21 -133 -103 -206t-223 -73q-140 0 -221 73t-102 206l169 26q23 -62 58.5 -88t95.5 -26t95.5 26t58.5 88zM475 -2q-95 8 -158 18
q-57 -54 -57 -110q0 -55 63 -87t193 -32q118 0 186 34t68 85q0 35 -32 53t-113 27zM645 674q0 72 -39.5 118t-107.5 46q-66 0 -104 -48t-38 -122q0 -71 38 -115.5t104 -44.5q69 0 108 46t39 120z" />
    <glyph glyph-name="Gdotaccent" unicode="&#x120;" horiz-adv-x="1396" 
d="M1290 123q-230 -150 -516 -150q-220 0 -378.5 92.5t-238 256.5t-79.5 383q0 218 84.5 384t244.5 258.5t375 92.5q244 0 432 -105l-47 -305q-189 121 -376 121q-178 0 -270.5 -120t-92.5 -324q0 -206 94.5 -329.5t272.5 -123.5q102 0 190 45v252h-246l-41 260h592v-688z
M887 1540h-277v268h277v-268z" />
    <glyph glyph-name="gdotaccent" unicode="&#x121;" horiz-adv-x="1093" 
d="M1053 -12q0 -162 -158 -261.5t-403 -99.5q-217 0 -350.5 63.5t-133.5 176.5q0 65 40 117t124 98q-55 46 -55 111q0 96 149 180q-93 41 -142.5 116.5t-49.5 174.5q0 162 118.5 259t303.5 97q182 0 309 -96l235 90l39 -230l-176 -4q19 -55 19 -106q0 -105 -57 -184.5
t-150.5 -119.5t-208.5 -40q-63 0 -92 4q-27 -24 -27 -45q0 -22 29 -31.5t131 -21.5l184 -13q159 -16 240.5 -71t81.5 -164zM475 -2q-95 8 -158 18q-57 -54 -57 -110q0 -55 63 -87t193 -32q118 0 186 34t68 85q0 35 -32 53t-113 27zM645 674q0 72 -39.5 118t-107.5 46
q-66 0 -104 -48t-38 -122q0 -71 38 -115.5t104 -44.5q69 0 108 46t39 120zM655 1122h-276v269h276v-269z" />
    <glyph glyph-name="uni0122" unicode="&#x122;" horiz-adv-x="1396" 
d="M580 -166l247 47q93 -84 93 -180q0 -136 -183 -264l-190 39q56 65 80 113t24 94q0 75 -71 151zM1290 123q-230 -150 -516 -150q-220 0 -378.5 92.5t-238 256.5t-79.5 383q0 218 84.5 384t244.5 258.5t375 92.5q244 0 432 -105l-47 -305q-189 121 -376 121
q-178 0 -270.5 -120t-92.5 -324q0 -206 94.5 -329.5t272.5 -123.5q102 0 190 45v252h-246l-41 260h592v-688z" />
    <glyph glyph-name="uni0123" unicode="&#x123;" horiz-adv-x="1093" 
d="M1053 -12q0 -162 -158 -261.5t-403 -99.5q-217 0 -350.5 63.5t-133.5 176.5q0 65 40 117t124 98q-55 46 -55 111q0 96 149 180q-93 41 -142.5 116.5t-49.5 174.5q0 162 118.5 259t303.5 97q182 0 309 -96l235 90l39 -230l-176 -4q19 -55 19 -106q0 -105 -57 -184.5
t-150.5 -119.5t-208.5 -40q-63 0 -92 4q-27 -24 -27 -45q0 -22 29 -31.5t131 -21.5l184 -13q159 -16 240.5 -71t81.5 -164zM680 1151l-248 -47q-92 83 -92 180q0 137 182 264l191 -39q-57 -66 -81 -113t-24 -93q0 -75 72 -152zM475 -2q-95 8 -158 18q-57 -54 -57 -110
q0 -55 63 -87t193 -32q118 0 186 34t68 85q0 35 -32 53t-113 27zM645 674q0 72 -39.5 118t-107.5 46q-66 0 -104 -48t-38 -122q0 -71 38 -115.5t104 -44.5q69 0 108 46t39 120z" />
    <glyph glyph-name="Hbar" unicode="&#x126;" horiz-adv-x="1568" 
d="M1380 0h-352v561h-487v-561h-353v1042h-145l-35 211h180v160h351v-160h493v160h348v-160h164v-211h-164v-1042zM539 858h493v193h-493v-193z" />
    <glyph glyph-name="hbar" unicode="&#x127;" horiz-adv-x="1099" 
d="M670 1124h-254v-245q71 69 142 107t157 38q138 0 211 -81t73 -230v-713h-311v629q0 121 -102 121q-79 0 -170 -91v-659h-310v1124h-112l-33 191h145v115l310 49v-164h254v-191z" />
    <glyph glyph-name="Imacron" unicode="&#x12a;" horiz-adv-x="624" 
d="M487 0h-350v1413h350v-1413zM625 1538h-623v215h623v-215z" />
    <glyph glyph-name="imacron" unicode="&#x12b;" horiz-adv-x="536" 
d="M424 0h-311v1004h311v-1004zM580 1141h-623v215h623v-215z" />
    <glyph glyph-name="Ibreve" unicode="&#x12c;" horiz-adv-x="624" 
d="M487 0h-350v1413h350v-1413zM639 1794q-21 -132 -103 -205t-223 -73q-140 0 -221 72.5t-102 205.5l170 27q23 -62 58 -88.5t95 -26.5t95.5 26.5t58.5 88.5z" />
    <glyph glyph-name="ibreve" unicode="&#x12d;" horiz-adv-x="536" 
d="M424 0h-311v1004h311v-1004zM594 1397q-21 -133 -103 -206t-223 -73q-140 0 -221 73t-102 206l170 26q23 -62 58 -88t95 -26t95.5 26t58.5 88z" />
    <glyph glyph-name="Iogonek" unicode="&#x12e;" horiz-adv-x="624" 
d="M487 0h-63l-31 -49q-49 -77 -49 -121q0 -61 72 -61q32 0 86 14v-152q-106 -47 -211 -47q-88 0 -137.5 42.5t-49.5 123.5q0 94 117 250h-84v1413h350v-1413z" />
    <glyph glyph-name="iogonek" unicode="&#x12f;" horiz-adv-x="536" 
d="M424 0h-47l-31 -49q-49 -77 -49 -121q0 -61 72 -61q32 0 86 14v-152q-106 -47 -211 -47q-88 0 -137.5 42.5t-49.5 123.5q0 94 117 250h-61v1004h311v-1004zM444 1300q0 -74 -50 -119.5t-126 -45.5q-75 0 -125.5 45.5t-50.5 119.5q0 75 50.5 122.5t125.5 47.5
q76 0 126 -47t50 -123z" />
    <glyph glyph-name="Idotaccent" unicode="&#x130;" horiz-adv-x="624" 
d="M487 0h-350v1413h350v-1413zM453 1520h-277v268h277v-268z" />
    <glyph glyph-name="dotlessi" unicode="&#x131;" horiz-adv-x="536" 
d="M424 0h-311v1004h311v-1004z" />
    <glyph glyph-name="uni0136" unicode="&#x136;" horiz-adv-x="1331" 
d="M524 -133l248 47q92 -83 92 -180q0 -137 -182 -264l-190 38q56 65 80 113t24 94q0 75 -72 152zM1333 43l-383 -57l-471 671v-657h-350v1413h350v-604l436 604h406l-508 -659z" />
    <glyph glyph-name="uni0137" unicode="&#x137;" horiz-adv-x="1034" 
d="M375 -150l248 48q92 -83 92 -181q0 -136 -183 -264l-190 39q56 65 80 113t24 94q0 75 -71 151zM1028 31l-323 -45l-289 483v-469h-310v1430l310 49v-885l264 410h340l-320 -461z" />
    <glyph glyph-name="Lacute" unicode="&#x139;" horiz-adv-x="999" 
d="M725 1778l-301 -248h-197l123 309zM961 0h-832v1413h350v-1110h434z" />
    <glyph glyph-name="lacute" unicode="&#x13a;" horiz-adv-x="536" 
d="M657 1804l-301 -248h-196l123 310zM424 0h-311v1430l311 49v-1479z" />
    <glyph glyph-name="uni013B" unicode="&#x13b;" horiz-adv-x="999" 
d="M371 -164l247 47q93 -84 93 -180q0 -136 -183 -264l-190 39q56 65 80 113t24 94q0 75 -71 151zM961 0h-832v1413h350v-1110h434z" />
    <glyph glyph-name="uni013C" unicode="&#x13c;" horiz-adv-x="536" 
d="M100 -150l248 48q92 -83 92 -181q0 -137 -182 -264l-190 39q56 65 80 113t24 94q0 74 -72 151zM424 0h-311v1430l311 49v-1479z" />
    <glyph glyph-name="Lcaron" unicode="&#x13d;" horiz-adv-x="999" 
d="M850 1438q24 -73 24 -148q0 -149 -139 -282l-145 30q53 106 53 207q0 68 -39 160zM961 0h-832v1413h350v-1110h434z" />
    <glyph glyph-name="lcaron" unicode="&#x13e;" horiz-adv-x="536" 
d="M762 1481q24 -73 24 -148q0 -149 -139 -282l-145 30q53 106 53 207q0 68 -39 160zM424 0h-311v1430l311 49v-1479z" />
    <glyph glyph-name="Ldot" unicode="&#x13f;" horiz-adv-x="999" 
d="M934 616h-260v269h260v-269zM961 0h-832v1413h350v-1110h434z" />
    <glyph glyph-name="ldot" unicode="&#x140;" horiz-adv-x="692" 
d="M424 0h-311v1430l311 49v-1479zM727 582h-221v309h221v-309z" />
    <glyph glyph-name="Lslash" unicode="&#x141;" horiz-adv-x="1058" 
d="M799 791l-260 -140v-348h434l49 -303h-834v461l-131 -72l-45 270l176 95v659h351v-469l260 143v-296z" />
    <glyph glyph-name="lslash" unicode="&#x142;" horiz-adv-x="651" 
d="M479 0h-305v485l-121 -65l-47 272l168 88v650l305 49v-539l148 80v-295l-148 -78v-647z" />
    <glyph glyph-name="Nacute" unicode="&#x143;" horiz-adv-x="1443" 
d="M1094 1759l-301 -248h-197l123 310zM1315 0h-303l-557 846v-846h-326v1413h340l520 -790v790h326v-1413z" />
    <glyph glyph-name="nacute" unicode="&#x144;" horiz-adv-x="1099" 
d="M930 1368l-301 -248h-197l123 310zM999 0h-311v629q0 121 -102 121q-79 0 -170 -91v-659h-310v1004h273l22 -138q76 76 150.5 117t163.5 41q138 0 211 -81t73 -230v-713z" />
    <glyph glyph-name="uni0145" unicode="&#x145;" horiz-adv-x="1443" 
d="M553 -133l248 47q92 -83 92 -180q0 -137 -182 -264l-191 38q57 66 81 113.5t24 93.5q0 75 -72 152zM1315 0h-303l-557 846v-846h-326v1413h340l520 -790v790h326v-1413z" />
    <glyph glyph-name="uni0146" unicode="&#x146;" horiz-adv-x="1099" 
d="M389 -150l248 48q92 -83 92 -181q0 -137 -182 -264l-191 39q57 66 81 113.5t24 93.5q0 74 -72 151zM999 0h-311v629q0 121 -102 121q-79 0 -170 -91v-659h-310v1004h273l22 -138q76 76 150.5 117t163.5 41q138 0 211 -81t73 -230v-713z" />
    <glyph glyph-name="Ncaron" unicode="&#x147;" horiz-adv-x="1443" 
d="M373 1812h196l152 -118l151 118h197l-205 -301h-286zM1315 0h-303l-557 846v-846h-326v1413h340l520 -790v790h326v-1413z" />
    <glyph glyph-name="ncaron" unicode="&#x148;" horiz-adv-x="1099" 
d="M209 1421h197l151 -118l152 118h196l-205 -301h-286zM999 0h-311v629q0 121 -102 121q-79 0 -170 -91v-659h-310v1004h273l22 -138q76 76 150.5 117t163.5 41q138 0 211 -81t73 -230v-713z" />
    <glyph glyph-name="Omacron" unicode="&#x14c;" horiz-adv-x="1505" 
d="M1063 1559h-623v215h623v-215zM1427 709q0 -217 -82.5 -383.5t-237 -259.5t-357.5 -93q-303 0 -487.5 202t-184.5 530q0 330 185 532.5t491 202.5q202 0 355.5 -91.5t235.5 -257t82 -382.5zM1075 707q0 213 -85 335.5t-238 122.5q-151 0 -237.5 -123t-86.5 -335
t86.5 -335.5t237.5 -123.5q152 0 237.5 123t85.5 336z" />
    <glyph glyph-name="omacron" unicode="&#x14d;" horiz-adv-x="1079" 
d="M850 1141h-623v215h623v-215zM1022 502q0 -238 -136 -380t-349 -142q-211 0 -345.5 141.5t-134.5 378.5q0 238 135.5 381t346.5 143q213 0 348 -142t135 -380zM723 500q0 124 -48 198t-136 74t-135.5 -72.5t-47.5 -197.5q0 -124 48.5 -198.5t134.5 -74.5q88 0 136 73.5
t48 197.5z" />
    <glyph glyph-name="Obreve" unicode="&#x14e;" horiz-adv-x="1505" 
d="M1427 709q0 -217 -82.5 -383.5t-237 -259.5t-357.5 -93q-303 0 -487.5 202t-184.5 530q0 330 185 532.5t491 202.5q202 0 355.5 -91.5t235.5 -257t82 -382.5zM1075 707q0 213 -85 335.5t-238 122.5q-151 0 -237.5 -123t-86.5 -335t86.5 -335.5t237.5 -123.5
q152 0 237.5 123t85.5 336zM1077 1815q-21 -133 -102.5 -206t-222.5 -73q-140 0 -221.5 73t-102.5 206l170 26q23 -62 58.5 -88.5t95.5 -26.5t95 26.5t58 88.5z" />
    <glyph glyph-name="obreve" unicode="&#x14f;" horiz-adv-x="1079" 
d="M1022 502q0 -238 -136 -380t-349 -142q-211 0 -345.5 141.5t-134.5 378.5q0 238 135.5 381t346.5 143q213 0 348 -142t135 -380zM723 500q0 124 -48 198t-136 74t-135.5 -72.5t-47.5 -197.5q0 -124 48.5 -198.5t134.5 -74.5q88 0 136 73.5t48 197.5zM864 1397
q-21 -133 -102.5 -206t-222.5 -73q-140 0 -221.5 73t-102.5 206l170 26q23 -62 58.5 -88t95.5 -26t95 26t58 88z" />
    <glyph glyph-name="Ohungarumlaut" unicode="&#x150;" horiz-adv-x="1505" 
d="M1427 709q0 -217 -82.5 -383.5t-237 -259.5t-357.5 -93q-303 0 -487.5 202t-184.5 530q0 330 185 532.5t491 202.5q202 0 355.5 -91.5t235.5 -257t82 -382.5zM1075 707q0 213 -85 335.5t-238 122.5q-151 0 -237.5 -123t-86.5 -335t86.5 -335.5t237.5 -123.5
q152 0 237.5 123t85.5 336zM1266 1786l-275 -246h-192l100 234l-260 -234h-193l132 307l327 -61l27 61z" />
    <glyph glyph-name="ohungarumlaut" unicode="&#x151;" horiz-adv-x="1079" 
d="M1022 502q0 -238 -136 -380t-349 -142q-211 0 -345.5 141.5t-134.5 378.5q0 238 135.5 381t346.5 143q213 0 348 -142t135 -380zM723 500q0 124 -48 198t-136 74t-135.5 -72.5t-47.5 -197.5q0 -124 48.5 -198.5t134.5 -74.5q88 0 136 73.5t48 197.5zM1051 1368l-275 -246
h-192l100 234l-260 -234h-193l131 308l328 -62l27 62z" />
    <glyph glyph-name="OE" unicode="&#x152;" horiz-adv-x="1861" 
d="M1792 0h-965q-181 0 -323.5 51t-235 144.5t-140.5 222.5t-48 287t49 288t141 223.5t232.5 145t316.5 51.5h955v-283h-537v-266h410l43 -280h-453v-299h555v-285zM897 272v869h-59q-194 0 -301 -106.5t-107 -327.5q0 -216 110 -325.5t298 -109.5h59z" />
    <glyph glyph-name="oe" unicode="&#x153;" horiz-adv-x="1699" 
d="M1638 504q0 -52 -4 -80h-604q25 -219 248 -219q152 0 330 106l30 -219q-174 -112 -391 -112q-258 0 -377 170q-128 -170 -346 -170q-201 0 -334 142t-133 378q0 237 135 380.5t343 143.5q223 0 337 -172q127 172 336 172q87 0 158 -26t121 -73t84.5 -112.5t50.5 -143
t16 -165.5zM1343 594q-15 229 -155 229q-67 0 -109.5 -58.5t-48.5 -170.5h313zM723 500q0 124 -48 197t-136 73t-135.5 -71.5t-47.5 -196.5q0 -124 48.5 -198.5t134.5 -74.5q88 0 136 73.5t48 197.5z" />
    <glyph glyph-name="Racute" unicode="&#x154;" horiz-adv-x="1261" 
d="M987 1765l-301 -247h-197l123 309zM1245 45l-371 -59l-309 499h-88v-485h-348v1413h494q259 0 400.5 -114.5t141.5 -331.5q0 -288 -266 -402zM821 946q0 99 -59.5 151t-173.5 52h-113v-412h109q114 0 175.5 54t61.5 155z" />
    <glyph glyph-name="racute" unicode="&#x155;" horiz-adv-x="772" 
d="M766 1368l-301 -248h-197l123 310zM754 709q-210 -14 -338 -152v-557h-310v1004h271l33 -199q51 97 120.5 154.5t171.5 64.5z" />
    <glyph glyph-name="uni0156" unicode="&#x156;" horiz-adv-x="1261" 
d="M467 -133l248 47q92 -83 92 -180q0 -137 -182 -264l-191 38q57 66 81 113.5t24 93.5q0 75 -72 152zM1245 45l-371 -59l-309 499h-88v-485h-348v1413h494q259 0 400.5 -114.5t141.5 -331.5q0 -288 -266 -402zM821 946q0 99 -59.5 151t-173.5 52h-113v-412h109
q114 0 175.5 54t61.5 155z" />
    <glyph glyph-name="uni0157" unicode="&#x157;" horiz-adv-x="772" 
d="M115 -150l247 48q93 -84 93 -181q0 -136 -183 -264l-190 39q56 65 80 113t24 94q0 75 -71 151zM754 709q-210 -14 -338 -152v-557h-310v1004h271l33 -199q51 97 120.5 154.5t171.5 64.5z" />
    <glyph glyph-name="Rcaron" unicode="&#x158;" horiz-adv-x="1261" 
d="M268 1819h197l151 -119l152 119h197l-205 -301h-287zM1245 45l-371 -59l-309 499h-88v-485h-348v1413h494q259 0 400.5 -114.5t141.5 -331.5q0 -288 -266 -402zM821 946q0 99 -59.5 151t-173.5 52h-113v-412h109q114 0 175.5 54t61.5 155z" />
    <glyph glyph-name="rcaron" unicode="&#x159;" horiz-adv-x="772" 
d="M49 1421h197l151 -118l152 118h196l-204 -301h-287zM754 709q-210 -14 -338 -152v-557h-310v1004h271l33 -199q51 97 120.5 154.5t171.5 64.5z" />
    <glyph glyph-name="Sacute" unicode="&#x15a;" horiz-adv-x="1132" 
d="M958 1786l-301 -248h-196l123 309zM1071 426q0 -112 -39 -198t-109 -138.5t-160 -79t-198 -26.5q-263 0 -493 106l51 299q244 -131 448 -131q77 0 123.5 33t46.5 94t-46 99t-193 94q-113 44 -184 82t-124 88t-75.5 113.5t-22.5 150.5q0 132 65.5 228t173.5 143t245 47
q130 0 228 -23.5t198 -71.5l-54 -295q-197 115 -368 115q-77 0 -117.5 -30t-40.5 -81q0 -55 42 -89t173 -85q238 -87 334 -183t96 -261z" />
    <glyph glyph-name="sacute" unicode="&#x15b;" horiz-adv-x="950" 
d="M868 1368l-301 -248h-196l123 310zM891 309q0 -159 -106 -243t-306 -84q-221 0 -413 98l36 237q89 -55 190.5 -86.5t188.5 -31.5q63 0 95 20.5t32 56.5q0 38 -33.5 61t-136.5 48q-198 52 -278 120t-80 204q0 142 102 227.5t285 85.5q205 0 369 -74l-39 -237
q-174 94 -330 94q-52 0 -79.5 -18t-27.5 -48q0 -33 33.5 -54t136.5 -50q205 -54 283 -122t78 -204z" />
    <glyph glyph-name="Scedilla" unicode="&#x15e;" horiz-adv-x="1132" 
d="M1071 426q0 -112 -39 -198t-109 -138.5t-160 -79t-198 -26.5q-263 0 -493 106l51 299q244 -131 448 -131q77 0 123.5 33t46.5 94t-46 99t-193 94q-113 44 -184 82t-124 88t-75.5 113.5t-22.5 150.5q0 132 65.5 228t173.5 143t245 47q130 0 228 -23.5t198 -71.5l-54 -295
q-197 115 -368 115q-77 0 -117.5 -30t-40.5 -81q0 -55 42 -89t173 -85q238 -87 334 -183t96 -261zM795 -182l-285 -217h-199l111 280z" />
    <glyph glyph-name="scedilla" unicode="&#x15f;" horiz-adv-x="950" 
d="M891 309q0 -159 -106 -243t-306 -84q-221 0 -413 98l36 237q89 -55 190.5 -86.5t188.5 -31.5q63 0 95 20.5t32 56.5q0 38 -33.5 61t-136.5 48q-198 52 -278 120t-80 204q0 142 102 227.5t285 85.5q205 0 369 -74l-39 -237q-174 94 -330 94q-52 0 -79.5 -18t-27.5 -48
q0 -33 33.5 -54t136.5 -50q205 -54 283 -122t78 -204zM705 -166l-285 -217h-199l111 281z" />
    <glyph glyph-name="Scaron" unicode="&#x160;" horiz-adv-x="1132" 
d="M238 1839h196l152 -119l151 119h197l-205 -301h-287zM1071 426q0 -112 -39 -198t-109 -138.5t-160 -79t-198 -26.5q-263 0 -493 106l51 299q244 -131 448 -131q77 0 123.5 33t46.5 94t-46 99t-193 94q-113 44 -184 82t-124 88t-75.5 113.5t-22.5 150.5q0 132 65.5 228
t173.5 143t245 47q130 0 228 -23.5t198 -71.5l-54 -295q-197 115 -368 115q-77 0 -117.5 -30t-40.5 -81q0 -55 42 -89t173 -85q238 -87 334 -183t96 -261z" />
    <glyph glyph-name="scaron" unicode="&#x161;" horiz-adv-x="950" 
d="M150 1421h196l152 -118l151 118h197l-205 -301h-287zM891 309q0 -159 -106 -243t-306 -84q-221 0 -413 98l36 237q89 -55 190.5 -86.5t188.5 -31.5q63 0 95 20.5t32 56.5q0 38 -33.5 61t-136.5 48q-198 52 -278 120t-80 204q0 142 102 227.5t285 85.5q205 0 369 -74
l-39 -237q-174 94 -330 94q-52 0 -79.5 -18t-27.5 -48q0 -33 33.5 -54t136.5 -50q205 -54 283 -122t78 -204z" />
    <glyph glyph-name="uni0162" unicode="&#x162;" horiz-adv-x="1247" 
d="M459 -164l248 47q92 -83 92 -180q0 -136 -183 -264l-190 39q56 65 80 113t24 94q0 75 -71 151zM1219 1116h-416v-1116h-352v1116h-400v297h1118z" />
    <glyph glyph-name="uni0163" unicode="&#x163;" horiz-adv-x="743" 
d="M238 -150l247 48q93 -84 93 -181q0 -136 -183 -264l-190 39q56 65 80 113t24 94q0 75 -71 151zM705 6q-70 -20 -179 -20q-84 0 -148 16.5t-114 53.5t-76 103t-26 160v433h-133v252h133v299l307 49v-348h190l39 -252h-229v-383q0 -119 123 -119q38 0 76 10z" />
    <glyph glyph-name="Tcaron" unicode="&#x164;" horiz-adv-x="1247" 
d="M279 1819h196l152 -119l151 119h197l-205 -301h-287zM1219 1116h-416v-1116h-352v1116h-400v297h1118z" />
    <glyph glyph-name="tcaron" unicode="&#x165;" horiz-adv-x="743" 
d="M815 1516q25 -77 25 -148q0 -149 -140 -283l-145 31q53 106 53 207q0 68 -39 160zM705 6q-70 -20 -179 -20q-84 0 -148 16.5t-114 53.5t-76 103t-26 160v433h-133v252h133v299l307 49v-348h190l39 -252h-229v-383q0 -119 123 -119q38 0 76 10z" />
    <glyph glyph-name="Umacron" unicode="&#x16a;" horiz-adv-x="1409" 
d="M1296 561q0 -144 -45 -256.5t-125 -183.5t-188 -107.5t-238 -36.5q-269 0 -428 147.5t-159 434.5v854h352v-852q0 -138 61.5 -213.5t178.5 -75.5q118 0 178.5 74t60.5 211v856h352v-852zM1014 1532h-623v215h623v-215z" />
    <glyph glyph-name="umacron" unicode="&#x16b;" horiz-adv-x="1099" 
d="M993 0h-272l-23 137q-77 -76 -151.5 -116.5t-161.5 -40.5q-138 0 -211.5 81t-73.5 228v715h310v-629q0 -123 104 -123q80 0 170 90v662h309v-1004zM858 1141h-622v215h622v-215z" />
    <glyph glyph-name="Ubreve" unicode="&#x16c;" horiz-adv-x="1409" 
d="M1296 561q0 -144 -45 -256.5t-125 -183.5t-188 -107.5t-238 -36.5q-269 0 -428 147.5t-159 434.5v854h352v-852q0 -138 61.5 -213.5t178.5 -75.5q118 0 178.5 74t60.5 211v856h352v-852zM1028 1776q-21 -133 -103 -206t-223 -73q-140 0 -221 73t-102 206l170 26
q23 -62 58 -88t95 -26t95.5 26t58.5 88z" />
    <glyph glyph-name="ubreve" unicode="&#x16d;" horiz-adv-x="1099" 
d="M993 0h-272l-23 137q-77 -76 -151.5 -116.5t-161.5 -40.5q-138 0 -211.5 81t-73.5 228v715h310v-629q0 -123 104 -123q80 0 170 90v662h309v-1004zM872 1397q-21 -133 -102.5 -206t-222.5 -73q-140 0 -221.5 73t-102.5 206l170 26q23 -62 58.5 -88t95.5 -26t95 26t58 88z
" />
    <glyph glyph-name="Uring" unicode="&#x16e;" horiz-adv-x="1409" 
d="M973 1708q0 -96 -71 -158.5t-200 -62.5t-199.5 62.5t-70.5 158.5q0 95 71 158t199 63t199.5 -63t71.5 -158zM805 1708q0 49 -29 84t-74 35t-73.5 -35t-28.5 -84q0 -50 28.5 -84.5t73.5 -34.5t74 34.5t29 84.5zM1296 561q0 -144 -45 -256.5t-125 -183.5t-188 -107.5
t-238 -36.5q-269 0 -428 147.5t-159 434.5v854h352v-852q0 -138 61.5 -213.5t178.5 -75.5q118 0 178.5 74t60.5 211v856h352v-852z" />
    <glyph glyph-name="uring" unicode="&#x16f;" horiz-adv-x="1099" 
d="M817 1323q0 -96 -70.5 -158.5t-199.5 -62.5t-200 62.5t-71 158.5q0 95 71.5 158t199.5 63t199 -63t71 -158zM649 1323q0 49 -28.5 84t-73.5 35t-74 -35t-29 -84q0 -50 29 -84.5t74 -34.5t73.5 34.5t28.5 84.5zM993 0h-272l-23 137q-77 -76 -151.5 -116.5t-161.5 -40.5
q-138 0 -211.5 81t-73.5 228v715h310v-629q0 -123 104 -123q80 0 170 90v662h309v-1004z" />
    <glyph glyph-name="Uhungarumlaut" unicode="&#x170;" horiz-adv-x="1409" 
d="M1296 561q0 -144 -45 -256.5t-125 -183.5t-188 -107.5t-238 -36.5q-269 0 -428 147.5t-159 434.5v854h352v-852q0 -138 61.5 -213.5t178.5 -75.5q118 0 178.5 74t60.5 211v856h352v-852zM1217 1759l-275 -246h-192l100 234l-260 -234h-193l131 308l328 -62l27 62z" />
    <glyph glyph-name="uhungarumlaut" unicode="&#x171;" horiz-adv-x="1099" 
d="M993 0h-272l-23 137q-77 -76 -151.5 -116.5t-161.5 -40.5q-138 0 -211.5 81t-73.5 228v715h310v-629q0 -123 104 -123q80 0 170 90v662h309v-1004zM1061 1368l-275 -246h-192l100 234l-260 -234h-192l131 308l327 -62l27 62z" />
    <glyph glyph-name="Uogonek" unicode="&#x172;" horiz-adv-x="1409" 
d="M1296 561q0 -254 -131.5 -400t-355.5 -175l-21 -35q-49 -77 -49 -121q0 -61 72 -61q32 0 86 14v-152q-106 -47 -211 -47q-88 0 -137 42.5t-49 123.5q0 92 102 234q-228 24 -358.5 169t-130.5 406v854h352v-852q0 -138 61.5 -213.5t178.5 -75.5q118 0 178.5 74t60.5 211
v856h352v-852z" />
    <glyph glyph-name="uogonek" unicode="&#x173;" horiz-adv-x="1099" 
d="M993 0h-55l-31 -49q-49 -77 -49 -121q0 -61 72 -61q32 0 86 14v-152q-106 -47 -211 -47q-88 0 -137.5 42.5t-49.5 123.5q0 94 117 250h-14l-23 137q-77 -76 -151.5 -116.5t-161.5 -40.5q-138 0 -211.5 81t-73.5 228v715h310v-629q0 -123 104 -123q80 0 170 90v662h309
v-1004z" />
    <glyph glyph-name="Wcircumflex" unicode="&#x174;" horiz-adv-x="2027" 
d="M1382 1518h-196l-152 118l-151 -118h-197l205 301h287zM1991 1413l-385 -1415h-355l-243 913l-244 -913h-352l-373 1370l379 59l213 -899l229 885h352l230 -885l200 885h349z" />
    <glyph glyph-name="wcircumflex" unicode="&#x175;" horiz-adv-x="1484" 
d="M1104 1120h-197l-151 119l-152 -119h-196l204 301h287zM1464 1004l-280 -1006h-297l-146 573l-143 -573h-299l-274 981l319 39l137 -604l142 590h278l143 -588l132 588h288z" />
    <glyph glyph-name="Ycircumflex" unicode="&#x176;" horiz-adv-x="1372" 
d="M1370 1413l-510 -893v-520h-350v516l-490 860l373 51l307 -585l297 571h373zM1047 1511h-197l-152 119l-151 -119h-197l205 301h287z" />
    <glyph glyph-name="ycircumflex" unicode="&#x177;" horiz-adv-x="1044" 
d="M1028 1004l-358 -1029q-66 -192 -164 -270t-262 -78q-58 0 -121 13l-41 249q56 -16 123 -16q123 0 170 104l8 21l-365 981l332 39l193 -631l182 617h303zM891 1120h-197l-151 119l-152 -119h-196l204 301h287z" />
    <glyph glyph-name="Ydieresis" unicode="&#x178;" horiz-adv-x="1372" 
d="M1370 1413l-510 -893v-520h-350v516l-490 860l373 51l307 -585l297 571h373zM1036 1513h-266v269h266v-269zM631 1513h-266v269h266v-269z" />
    <glyph glyph-name="Zacute" unicode="&#x179;" horiz-adv-x="1251" 
d="M1010 1765l-301 -247h-197l123 309zM1184 0h-1104v254l657 881h-587l-44 278h1059v-254l-657 -880h633z" />
    <glyph glyph-name="zacute" unicode="&#x17a;" horiz-adv-x="956" 
d="M856 1368l-301 -248h-197l123 310zM907 0h-852v233l445 529h-391l-37 242h811v-236l-443 -526h428z" />
    <glyph glyph-name="Zdotaccent" unicode="&#x17b;" horiz-adv-x="1251" 
d="M1184 0h-1104v254l657 881h-587l-44 278h1059v-254l-657 -880h633zM778 1520h-276v268h276v-268z" />
    <glyph glyph-name="zdotaccent" unicode="&#x17c;" horiz-adv-x="956" 
d="M907 0h-852v233l445 529h-391l-37 242h811v-236l-443 -526h428zM623 1122h-277v269h277v-269z" />
    <glyph glyph-name="Zcaron" unicode="&#x17d;" horiz-adv-x="1251" 
d="M291 1819h196l152 -119l152 119h196l-205 -301h-286zM1184 0h-1104v254l657 881h-587l-44 278h1059v-254l-657 -880h633z" />
    <glyph glyph-name="zcaron" unicode="&#x17e;" horiz-adv-x="956" 
d="M137 1421h197l151 -118l152 118h197l-205 -301h-287zM907 0h-852v233l445 529h-391l-37 242h811v-236l-443 -526h428z" />
    <glyph glyph-name="uni018F" unicode="&#x18f;" horiz-adv-x="1411" 
d="M614 1145q-122 0 -230.5 -31.5t-242.5 -105.5l-37 286q241 146 533 146q320 0 507 -192.5t187 -538.5q0 -168 -47.5 -306.5t-132 -232.5t-202.5 -145.5t-257 -51.5q-147 0 -261.5 53t-186.5 149.5t-109 228t-37 292.5q0 104 6 148h869q-23 138 -120 219.5t-239 81.5z
M707 244q117 0 191.5 95.5t80.5 268.5h-533q6 -364 261 -364z" />
    <glyph glyph-name="florin" unicode="&#x192;" horiz-adv-x="911" 
d="M782 936v-256h-231l-109 -680h-329l106 680h-151l36 256h156l19 119q28 188 127.5 267t285.5 79q86 0 164 -10v-254q-48 10 -98 10q-69 0 -105.5 -34t-48.5 -109l-12 -68h190z" />
    <glyph glyph-name="Aringacute" unicode="&#x1fa;" horiz-adv-x="1437" 
d="M991 1499q0 -79 -51 -139l471 -1317l-352 -57l-105 307h-491l-94 -293h-342l481 1352q-57 57 -57 147q0 95 71 158t199 63q127 0 198.5 -63t71.5 -158zM1092 2023l-301 -247h-197l123 309zM709 1059l-162 -492h319zM823 1499q0 49 -28.5 84t-73.5 35t-74 -35t-29 -84
q0 -50 29 -84.5t74 -34.5t73.5 34.5t28.5 84.5z" />
    <glyph glyph-name="aringacute" unicode="&#x1fb;" horiz-adv-x="1038" 
d="M940 0h-274l-21 125q-138 -145 -315 -145q-123 0 -198 72.5t-75 205.5q0 175 138 264.5t436 116.5v18q0 65 -37.5 96t-114.5 31q-154 0 -323 -75l-37 233q191 78 407 78q213 0 313.5 -80.5t100.5 -267.5v-672zM631 276v213q-149 -23 -209 -70.5t-60 -119.5q0 -46 27 -72
t72 -26q86 0 170 75zM918 1872l-302 -248h-196l123 309zM799 1337q0 -96 -71 -158.5t-200 -62.5t-199.5 62.5t-70.5 158.5q0 95 71 158.5t199 63.5t199.5 -63.5t71.5 -158.5zM631 1337q0 49 -29 84t-74 35t-73.5 -35t-28.5 -84q0 -50 28.5 -84t73.5 -34t74 34t29 84z" />
    <glyph glyph-name="AEacute" unicode="&#x1fc;" horiz-adv-x="1857" 
d="M2 0l694 1413h1073v-283h-536v-266h409l46 -280h-455v-299h555v-285h-885v293h-403l-138 -293h-360zM1419 1765l-301 -247h-196l122 309zM623 567h280v613z" />
    <glyph glyph-name="aeacute" unicode="&#x1fd;" horiz-adv-x="1599" 
d="M1188 1368l-301 -248h-197l123 310zM1538 504q0 -52 -4 -80h-604q22 -219 246 -219q154 0 329 106l33 -219q-174 -112 -399 -112q-261 0 -398 149q-179 -149 -368 -149q-142 0 -229 70.5t-87 205.5q0 172 136.5 263.5t431.5 119.5v18q0 66 -35 96.5t-111 30.5
q-154 0 -323 -75l-37 233q191 78 391 78q121 0 193 -31t116 -102q115 137 291 137q107 0 190 -40t134.5 -111t77.5 -164.5t26 -204.5zM1243 594q-6 113 -46.5 171t-111.5 58q-65 0 -107 -58.5t-48 -170.5h313zM653 283q-30 102 -30 202v2q-144 -23 -202.5 -70.5
t-58.5 -113.5q0 -102 107 -102q93 0 184 82z" />
    <glyph glyph-name="Oslashacute" unicode="&#x1fe;" horiz-adv-x="1505" 
d="M1427 705q0 -162 -48.5 -298t-135.5 -231.5t-212.5 -149t-274.5 -53.5q-230 0 -398 123l-94 -114l-213 47l168 204q-141 196 -141 476q0 216 84 382t237 257.5t351 91.5q225 0 397 -123l94 115l213 -48l-168 -204q141 -196 141 -475zM752 1178q-152 0 -240 -128.5
t-88 -342.5q0 -133 33 -228l504 608q-88 91 -209 91zM1081 707q0 121 -32 227l-504 -610q82 -88 207 -88q154 0 241.5 128t87.5 343zM1124 1786l-301 -248h-196l123 309z" />
    <glyph glyph-name="oslashacute" unicode="&#x1ff;" horiz-adv-x="1079" 
d="M1022 502q0 -157 -63.5 -277t-171.5 -182.5t-242 -62.5q-162 0 -281 81l-65 -81l-166 36l125 150q-99 135 -99 334q0 237 135.5 380.5t342.5 143.5q158 0 280 -86l68 86l166 -37l-127 -153q98 -138 98 -332zM909 1368l-301 -248h-196l123 310zM733 500q0 67 -16 129
l-293 -365q44 -47 115 -47q92 0 143 77t51 206zM539 786q-90 0 -139.5 -77.5t-49.5 -206.5q0 -72 15 -127l290 362q-49 49 -116 49z" />
    <glyph glyph-name="uni0218" unicode="&#x218;" horiz-adv-x="1132" 
d="M418 -166l248 47q92 -83 92 -180q0 -136 -183 -264l-190 39q56 65 80 113t24 94q0 75 -71 151zM1071 426q0 -112 -39 -198t-109 -138.5t-160 -79t-198 -26.5q-263 0 -493 106l51 299q244 -131 448 -131q77 0 123.5 33t46.5 94t-46 99t-193 94q-113 44 -184 82t-124 88
t-75.5 113.5t-22.5 150.5q0 132 65.5 228t173.5 143t245 47q130 0 228 -23.5t198 -71.5l-54 -295q-197 115 -368 115q-77 0 -117.5 -30t-40.5 -81q0 -55 42 -89t173 -85q238 -87 334 -183t96 -261z" />
    <glyph glyph-name="uni0219" unicode="&#x219;" horiz-adv-x="950" 
d="M330 -150l248 48q92 -83 92 -181q0 -136 -183 -264l-190 39q56 65 80 113t24 94q0 75 -71 151zM891 309q0 -159 -106 -243t-306 -84q-221 0 -413 98l36 237q89 -55 190.5 -86.5t188.5 -31.5q63 0 95 20.5t32 56.5q0 38 -33.5 61t-136.5 48q-198 52 -278 120t-80 204
q0 142 102 227.5t285 85.5q205 0 369 -74l-39 -237q-174 94 -330 94q-52 0 -79.5 -18t-27.5 -48q0 -33 33.5 -54t136.5 -50q205 -54 283 -122t78 -204z" />
    <glyph glyph-name="circumflex" unicode="&#x2c6;" horiz-adv-x="929" 
d="M815 1120h-197l-151 119l-152 -119h-196l205 301h286z" />
    <glyph glyph-name="caron" unicode="&#x2c7;" horiz-adv-x="929" 
d="M115 1421h196l152 -118l151 118h197l-205 -301h-287z" />
    <glyph glyph-name="breve" unicode="&#x2d8;" horiz-adv-x="929" 
d="M791 1397q-21 -133 -103 -206t-223 -73q-140 0 -221.5 73t-102.5 206l170 26q23 -62 58.5 -88t95.5 -26t95 26t58 88z" />
    <glyph glyph-name="dotaccent" unicode="&#x2d9;" horiz-adv-x="929" 
d="M604 1122h-276v269h276v-269z" />
    <glyph glyph-name="ring" unicode="&#x2da;" horiz-adv-x="929" 
d="M735 1337q0 -96 -70.5 -158.5t-199.5 -62.5t-199.5 62.5t-70.5 158.5q0 95 71 158.5t199 63.5t199 -63.5t71 -158.5zM567 1337q0 49 -28.5 84t-73.5 35t-74 -35t-29 -84q0 -50 29 -84t74 -34t73.5 34t28.5 84z" />
    <glyph glyph-name="ogonek" unicode="&#x2db;" horiz-adv-x="929" 
d="M473 86l168 -37l-61 -98q-50 -79 -50 -121q0 -61 72 -61q32 0 86 14v-152q-106 -47 -211 -47q-88 0 -137 42.5t-49 123.5q0 94 123 258z" />
    <glyph glyph-name="tilde" unicode="&#x2dc;" horiz-adv-x="929" 
d="M807 1405q-20 -153 -67.5 -219t-127.5 -66q-36 0 -66 9.5t-79 31.5q-64 27 -87.5 35t-45.5 8q-24 0 -39 -19t-27 -71l-147 31q21 155 69 221t127 66q59 0 146 -41q96 -43 133 -43q24 0 39 20t27 72z" />
    <glyph glyph-name="hungarumlaut" unicode="&#x2dd;" horiz-adv-x="929" 
d="M877 1368l-275 -246h-192l100 234l-260 -234h-193l131 308l328 -62l27 62z" />
    <glyph glyph-name="Alphatonos" unicode="&#x386;" horiz-adv-x="1437" 
d="M27 0l508 1419h385l491 -1376l-354 -57l-105 307h-487l-94 -293h-344zM303 1413l-135 -385h-199l8 385h326zM709 1059l-160 -492h317z" />
    <glyph glyph-name="Epsilontonos" unicode="&#x388;" 
d="M59 1413l-135 -385h-198l8 385h325zM1028 0h-899v1413h881v-283h-537v-266h410l45 -280h-455v-299h555v-285z" />
    <glyph glyph-name="Etatonos" unicode="&#x389;" horiz-adv-x="1447" 
d="M1321 0h-352v573h-490v-573h-350v1413h350v-534h490v534h352v-1413zM59 1413l-135 -385h-198l8 385h325z" />
    <glyph glyph-name="Iotatonos" unicode="&#x38a;" horiz-adv-x="624" 
d="M487 0h-350v1413h350v-1413zM68 1413l-136 -385h-198l8 385h326z" />
    <glyph glyph-name="Omicrontonos" unicode="&#x38c;" horiz-adv-x="1505" 
d="M139 1413l-135 -385h-199l9 385h325zM1427 709q0 -217 -82.5 -383.5t-237 -259.5t-357.5 -93q-303 0 -487.5 202t-184.5 530q0 330 185 532.5t491 202.5q202 0 355.5 -91.5t235.5 -257t82 -382.5zM1075 707q0 213 -85 335.5t-238 122.5q-151 0 -237.5 -123t-86.5 -335
t86.5 -335.5t237.5 -123.5q152 0 237.5 123t85.5 336z" />
    <glyph glyph-name="Upsilontonos" unicode="&#x38e;" horiz-adv-x="1372" 
d="M1370 1413l-510 -893v-520h-350v516l-490 860l373 51l307 -585l297 571h373zM8 1413l-135 -385h-199l9 385h325z" />
    <glyph glyph-name="Omegatonos" unicode="&#x38f;" horiz-adv-x="1501" 
d="M117 272l215 -8q-244 240 -244 541q0 130 45.5 245t129 201.5t210 136.5t279.5 50q205 0 357 -85.5t228 -227.5t76 -320q0 -300 -248 -541l219 8v-272h-546l-27 246l72 80q94 108 141 215t47 245q0 167 -84 273t-235 106q-153 0 -237.5 -106t-84.5 -273q0 -138 47 -245
t141 -215l72 -80l-26 -246h-547v272zM127 1413l-135 -385h-199l8 385h326z" />
    <glyph glyph-name="iotadieresistonos" unicode="&#x390;" horiz-adv-x="608" 
d="M731 1122h-262v269h262v-269zM55 1122h-264v269h264v-269zM461 1481l-152 -361h-186l41 393zM102 1004h310v-695q0 -80 75 -80q35 0 91 17l-33 -236q-68 -22 -172 -22q-134 0 -202.5 68t-68.5 218v730z" />
    <glyph glyph-name="Alpha" unicode="&#x391;" horiz-adv-x="1437" 
d="M27 0l508 1419h385l491 -1376l-354 -57l-105 307h-487l-94 -293h-344zM709 1059l-160 -492h317z" />
    <glyph glyph-name="Beta" unicode="&#x392;" horiz-adv-x="1214" 
d="M1143 408q0 -201 -142 -304.5t-399 -103.5h-473v1413h481q238 0 360 -95.5t122 -270.5q0 -208 -205 -299q256 -81 256 -340zM778 1008q0 153 -192 153h-125v-319h117q97 0 148.5 44t51.5 122zM813 432q0 184 -227 184h-125v-364h129q107 0 165 45.5t58 134.5z" />
    <glyph glyph-name="Gamma" unicode="&#x393;" horiz-adv-x="1024" 
d="M129 1413h807l49 -309h-506v-1104h-350v1413z" />
    <glyph glyph-name="uni0394" unicode="&#x394;" horiz-adv-x="1435" 
d="M66 256l458 1163h391l455 -1157l-33 -262h-1239zM705 1057l-293 -783h583z" />
    <glyph glyph-name="Epsilon" unicode="&#x395;" 
d="M1028 0h-899v1413h881v-283h-537v-266h410l45 -280h-455v-299h555v-285z" />
    <glyph glyph-name="Zeta" unicode="&#x396;" horiz-adv-x="1251" 
d="M1184 0h-1104v254l657 881h-587l-44 278h1059v-254l-657 -880h633z" />
    <glyph glyph-name="Eta" unicode="&#x397;" horiz-adv-x="1447" 
d="M1321 0h-352v573h-490v-573h-350v1413h350v-534h490v534h352v-1413z" />
    <glyph glyph-name="Theta" unicode="&#x398;" horiz-adv-x="1505" 
d="M983 573h-463v263h463v-263zM1090 707q0 220 -89 343.5t-249 123.5q-158 0 -248 -125.5t-90 -341.5q0 -221 89.5 -344t248.5 -123t248.5 125t89.5 342zM1427 709q0 -217 -82.5 -383.5t-237 -259.5t-357.5 -93q-303 0 -487.5 202t-184.5 530q0 330 185 532.5t491 202.5
q202 0 355.5 -91.5t235.5 -257t82 -382.5z" />
    <glyph glyph-name="Iota" unicode="&#x399;" horiz-adv-x="624" 
d="M487 0h-350v1413h350v-1413z" />
    <glyph glyph-name="Kappa" unicode="&#x39a;" horiz-adv-x="1331" 
d="M1333 43l-383 -57l-471 671v-657h-350v1413h350v-604l436 604h406l-508 -659z" />
    <glyph glyph-name="Lambda" unicode="&#x39b;" horiz-adv-x="1429" 
d="M27 0l505 1421h379l494 -1378l-375 -57l-328 993l-313 -979h-362z" />
    <glyph glyph-name="Mu" unicode="&#x39c;" horiz-adv-x="1824" 
d="M1737 0h-357l-61 946l-266 -948h-332l-266 948l-62 -946h-305l102 1413h453l275 -973l276 973h440z" />
    <glyph glyph-name="Nu" unicode="&#x39d;" horiz-adv-x="1443" 
d="M1315 0h-303l-557 846v-846h-326v1413h340l520 -790v790h326v-1413z" />
    <glyph glyph-name="Xi" unicode="&#x39e;" horiz-adv-x="1171" 
d="M1022 582h-854v286h807zM1085 1124h-997v289h997v-289zM1100 0h-1028v289h1028v-289z" />
    <glyph glyph-name="Omicron" unicode="&#x39f;" horiz-adv-x="1505" 
d="M1427 709q0 -217 -82.5 -383.5t-237 -259.5t-357.5 -93q-303 0 -487.5 202t-184.5 530q0 330 185 532.5t491 202.5q202 0 355.5 -91.5t235.5 -257t82 -382.5zM1075 707q0 213 -85 335.5t-238 122.5q-151 0 -237.5 -123t-86.5 -335t86.5 -335.5t237.5 -123.5
q152 0 237.5 123t85.5 336z" />
    <glyph glyph-name="Pi" unicode="&#x3a0;" horiz-adv-x="1435" 
d="M1311 0h-353v1116h-479v-1116h-350v1413h1182v-1413z" />
    <glyph glyph-name="Rho" unicode="&#x3a1;" horiz-adv-x="1181" 
d="M1139 952q0 -234 -153.5 -358.5t-416.5 -124.5h-90v-469h-350v1413h455q263 0 409 -117.5t146 -343.5zM799 946q0 203 -236 203h-88v-416h82q242 0 242 213z" />
    <glyph glyph-name="Sigma" unicode="&#x3a3;" horiz-adv-x="1218" 
d="M479 727l-391 432v254h1057v-278h-602l364 -406l-399 -450h616l43 -279h-1097v254z" />
    <glyph glyph-name="Tau" unicode="&#x3a4;" horiz-adv-x="1247" 
d="M1219 1116h-416v-1116h-352v1116h-400v297h1118z" />
    <glyph glyph-name="Upsilon" unicode="&#x3a5;" horiz-adv-x="1372" 
d="M1370 1413l-510 -893v-520h-350v516l-490 860l373 51l307 -585l297 571h373z" />
    <glyph glyph-name="Phi" unicode="&#x3a6;" horiz-adv-x="1816" 
d="M1083 -23h-350v152q-322 20 -498 175t-176 403q0 246 176.5 402.5t497.5 174.5v152h350v-152q321 -18 497.5 -173.5t176.5 -403.5q0 -247 -177.5 -402.5t-496.5 -175.5v-152zM1421 709q0 140 -86.5 224t-259.5 97v-645q169 12 257.5 97.5t88.5 226.5zM397 709
q0 -142 86.5 -227t259.5 -97v645q-172 -13 -259 -98t-87 -223z" />
    <glyph glyph-name="Chi" unicode="&#x3a7;" horiz-adv-x="1353" 
d="M1327 45l-375 -59l-290 501l-279 -487h-358l444 719l-408 649l373 59l256 -448l242 434h362l-411 -668z" />
    <glyph glyph-name="Psi" unicode="&#x3a8;" horiz-adv-x="1689" 
d="M1020 0h-350v358q-283 10 -428.5 142t-145.5 374v539h344v-522q0 -237 236 -240v762h338v-762q118 2 176.5 60t58.5 178v524h344v-532q0 -247 -147 -379.5t-426 -143.5v-358z" />
    <glyph glyph-name="uni03A9" unicode="&#x3a9;" horiz-adv-x="1501" 
d="M117 272l215 -8q-244 240 -244 541q0 130 45.5 245t129 201.5t210 136.5t279.5 50q205 0 357 -85.5t228 -227.5t76 -320q0 -300 -248 -541l219 8v-272h-546l-27 246l72 80q94 108 141 215t47 245q0 167 -84 273t-235 106q-153 0 -237.5 -106t-84.5 -273q0 -138 47 -245
t141 -215l72 -80l-26 -246h-547v272z" />
    <glyph glyph-name="Iotadieresis" unicode="&#x3aa;" horiz-adv-x="624" 
d="M487 0h-350v1413h350v-1413zM649 1520h-266v268h266v-268zM244 1520h-267v268h267v-268z" />
    <glyph glyph-name="Upsilondieresis" unicode="&#x3ab;" horiz-adv-x="1372" 
d="M1370 1413l-510 -893v-520h-350v516l-490 860l373 51l307 -585l297 571h373zM1036 1513h-266v269h266v-269zM631 1513h-266v269h266v-269z" />
    <glyph glyph-name="alphatonos" unicode="&#x3ac;" horiz-adv-x="1294" 
d="M483 1024q137 0 219 -60.5t140 -195.5l90 236h303l-215 -533l57 -156q18 -47 39.5 -66.5t57.5 -19.5q30 0 86 17l-33 -236q-58 -22 -125 -22q-114 0 -179 52t-110 173q-61 -124 -141.5 -178.5t-202.5 -54.5q-189 0 -299.5 145t-110.5 373q0 235 117 380.5t307 145.5z
M504 229q61 0 107 57.5t98 202.5q-51 162 -93 222.5t-104 60.5q-68 0 -112 -73t-44 -197q0 -127 41 -200t107 -73zM928 1393l-217 -273h-193l53 307z" />
    <glyph glyph-name="epsilontonos" unicode="&#x3ad;" horiz-adv-x="995" 
d="M90 727q0 133 112 214t330 81q199 0 383 -74l-36 -235q-193 71 -344 71q-150 0 -150 -84q0 -86 150 -86h213l34 -208h-262q-75 0 -112 -25.5t-37 -67.5q0 -46 36.5 -70t120.5 -24q162 0 369 86l39 -235q-203 -90 -428 -90q-218 0 -327 77.5t-109 212.5q0 160 157 234
q-139 66 -139 223zM809 1393l-217 -273h-193l54 307z" />
    <glyph glyph-name="etatonos" unicode="&#x3ae;" horiz-adv-x="1099" 
d="M860 1393l-217 -273h-192l53 307zM106 1004h273l22 -138q76 76 150.5 117t163.5 41q138 0 211 -81t73 -230v-1045l-311 -49v1010q0 121 -102 121q-79 0 -170 -91v-659h-310v1004z" />
    <glyph glyph-name="iotatonos" unicode="&#x3af;" horiz-adv-x="608" 
d="M565 1393l-217 -273h-192l53 307zM102 1004h310v-695q0 -80 75 -80q35 0 91 17l-33 -236q-68 -22 -172 -22q-134 0 -202.5 68t-68.5 218v730z" />
    <glyph glyph-name="upsilondieresistonos" unicode="&#x3b0;" horiz-adv-x="1089" 
d="M1016 1122h-262v269h262v-269zM340 1122h-264v269h264v-269zM745 1481l-151 -361h-186l41 393zM993 381q0 -192 -118.5 -296.5t-331.5 -104.5q-214 0 -330.5 104t-116.5 297v623h312v-607q0 -159 137 -159t137 159v607h311v-623z" />
    <glyph glyph-name="alpha" unicode="&#x3b1;" horiz-adv-x="1294" 
d="M483 1024q137 0 219 -60.5t140 -195.5l90 236h303l-215 -533l57 -156q18 -47 39.5 -66.5t57.5 -19.5q30 0 86 17l-33 -236q-58 -22 -125 -22q-114 0 -179 52t-110 173q-61 -124 -141.5 -178.5t-202.5 -54.5q-189 0 -299.5 145t-110.5 373q0 235 117 380.5t307 145.5z
M504 229q61 0 107 57.5t98 202.5q-51 162 -93 222.5t-104 60.5q-68 0 -112 -73t-44 -197q0 -127 41 -200t107 -73z" />
    <glyph glyph-name="beta" unicode="&#x3b2;" horiz-adv-x="1167" 
d="M686 -18q-141 0 -272 67v-383l-308 -47v1339q0 237 132.5 373.5t365.5 136.5q204 0 322 -107t118 -276q0 -241 -233 -342q299 -82 299 -360q0 -178 -117 -289.5t-307 -111.5zM414 965v-670q104 -59 213 -59q86 0 136 43t50 118q0 86 -63 142t-201 86l-25 180
q124 57 177 118t53 140q0 66 -40.5 110t-111.5 44q-88 0 -138 -69.5t-50 -182.5z" />
    <glyph glyph-name="gamma" unicode="&#x3b3;" horiz-adv-x="1079" 
d="M381 -381v143q0 179 -27 329t-82.5 301t-162.5 380l-99 207l340 39l66 -162q113 -277 145 -539q19 146 52.5 265t93.5 274l59 148h307l-108 -230q-157 -340 -216 -550.5t-59 -461.5v-96z" />
    <glyph glyph-name="delta" unicode="&#x3b4;" 
d="M156 1202v260h788l-39 -245l-409 4l223 -191q169 -141 244 -268t75 -291q0 -212 -135 -351.5t-360 -139.5q-226 0 -355 135.5t-129 343.5q0 171 85 294t251 218zM741 471q0 83 -39 160.5t-139 177.5q-207 -148 -207 -340q0 -109 51.5 -175.5t137.5 -66.5q88 0 142 67.5
t54 176.5z" />
    <glyph glyph-name="epsilon" unicode="&#x3b5;" horiz-adv-x="995" 
d="M90 727q0 133 112 214t330 81q199 0 383 -74l-36 -235q-193 71 -344 71q-150 0 -150 -84q0 -86 150 -86h213l34 -208h-262q-75 0 -112 -25.5t-37 -67.5q0 -46 36.5 -70t120.5 -24q162 0 369 86l39 -235q-203 -90 -428 -90q-218 0 -327 77.5t-109 212.5q0 160 157 234
q-139 66 -139 223z" />
    <glyph glyph-name="zeta" unicode="&#x3b6;" horiz-adv-x="944" 
d="M899 -4q0 -71 -37.5 -158.5t-120.5 -218.5l-266 33q64 126 83.5 174t19.5 74q0 32 -25 54t-109 48q-213 61 -299 143t-86 236q0 112 55.5 223t198.5 281l277 332h-473l39 245h755v-235l-387 -506q-90 -117 -122.5 -177t-32.5 -114q0 -68 45 -105.5t170 -74.5
q132 -39 199 -74.5t91.5 -75t24.5 -104.5z" />
    <glyph glyph-name="eta" unicode="&#x3b7;" horiz-adv-x="1099" 
d="M106 1004h273l22 -138q76 76 150.5 117t163.5 41q138 0 211 -81t73 -230v-1045l-311 -49v1010q0 121 -102 121q-79 0 -170 -91v-659h-310v1004z" />
    <glyph glyph-name="theta" unicode="&#x3b8;" horiz-adv-x="1222" 
d="M614 1468q249 0 390 -196t141 -549q0 -351 -142.5 -547t-392.5 -196q-249 0 -390.5 196t-141.5 547q0 353 142.5 549t393.5 196zM612 223q107 0 168.5 98t73.5 281h-487q12 -181 75 -280t170 -99zM612 1223q-105 0 -167 -96t-76 -271h485q-12 175 -74 271t-168 96z" />
    <glyph glyph-name="iota" unicode="&#x3b9;" horiz-adv-x="608" 
d="M102 1004h310v-695q0 -80 75 -80q35 0 91 17l-33 -236q-68 -22 -172 -22q-134 0 -202.5 68t-68.5 218v730z" />
    <glyph glyph-name="kappa" unicode="&#x3ba;" horiz-adv-x="1054" 
d="M963 1016l45 -268q-83 -6 -131.5 -33.5t-98.5 -96.5l-71 -98l325 -489l-325 -45l-291 473v-459h-310v1004h310v-437l133 217q55 88 106 136.5t125 72.5t183 23z" />
    <glyph glyph-name="lambda" unicode="&#x3bb;" horiz-adv-x="1062" 
d="M1042 25l-327 -39l-185 643l-192 -629h-307l358 1001l-18 64q-22 81 -61 114t-99 33q-55 0 -107 -14l46 250q56 18 147 18q149 0 227.5 -63.5t132.5 -226.5z" />
    <glyph glyph-name="uni03BC" unicode="&#x3bc;" horiz-adv-x="1163" 
d="M106 -381v1385h310v-633q0 -119 104 -119q81 0 168 90v662h311v-707q0 -68 64 -68q31 0 65 15l-32 -234q-68 -22 -150 -22q-182 0 -233 139q-51 -61 -119 -98t-137 -37q-46 0 -86 16q37 -99 37 -254v-88z" />
    <glyph glyph-name="nu" unicode="&#x3bd;" horiz-adv-x="1062" 
d="M690 1004h314v-84q0 -263 -80 -484t-232 -440h-317l-359 983l330 39l211 -688q71 128 102 264t31 321v89z" />
    <glyph glyph-name="xi" unicode="&#x3be;" horiz-adv-x="974" 
d="M59 369q0 130 77 222t208 138q-194 69 -194 238q0 153 163 250h-225l39 245h795v-239h-136q-170 -1 -255 -57t-85 -146q0 -80 69 -125t192 -45h129l36 -238h-184q-161 0 -246.5 -54t-85.5 -132q0 -60 50.5 -98t191.5 -82q198 -62 265 -114.5t67 -147.5q0 -69 -35 -153.5
t-115 -211.5l-266 33q63 123 82.5 171.5t19.5 72.5q0 32 -28 52t-123 50q-225 69 -315.5 151.5t-90.5 219.5z" />
    <glyph glyph-name="omicron" unicode="&#x3bf;" horiz-adv-x="1079" 
d="M1022 502q0 -238 -136 -380t-349 -142q-211 0 -345.5 141.5t-134.5 378.5q0 238 135.5 381t346.5 143q213 0 348 -142t135 -380zM723 500q0 124 -48 198t-136 74t-135.5 -72.5t-47.5 -197.5q0 -124 48.5 -198.5t134.5 -74.5q88 0 136 73.5t48 197.5z" />
    <glyph glyph-name="pi" unicode="&#x3c0;" horiz-adv-x="1280" 
d="M1217 752h-162v-447q0 -42 19 -61t59 -19q31 0 90 17l-33 -232q-71 -22 -174 -22q-133 0 -200.5 68t-67.5 218v482h-238v-756h-309v752h-144l-39 252h1199v-252z" />
    <glyph glyph-name="rho" unicode="&#x3c1;" horiz-adv-x="1095" 
d="M1036 508q0 -130 -33 -230.5t-91 -162.5t-133.5 -93.5t-164.5 -31.5q-98 0 -211 37v-361l-309 -47v905q0 228 129.5 364t345.5 136q208 0 337.5 -138t129.5 -378zM727 506q0 124 -43 187t-119 63q-74 0 -118 -57.5t-44 -170.5v-262q62 -33 142 -33q83 0 132.5 67
t49.5 206z" />
    <glyph glyph-name="sigma1" unicode="&#x3c2;" horiz-adv-x="917" 
d="M57 500q0 234 134.5 377t357.5 143q172 0 305 -76l-41 -264q-116 74 -229 74q-95 0 -154 -68t-59 -172q0 -100 44 -156.5t167 -111.5q160 -71 210 -118.5t50 -125.5q0 -73 -36 -158t-122 -225l-266 33q67 125 89.5 179.5t22.5 82.5q0 30 -20 50.5t-74 41.5
q-142 59 -221 120t-118.5 150.5t-39.5 223.5z" />
    <glyph glyph-name="sigma" unicode="&#x3c3;" horiz-adv-x="1163" 
d="M1126 752h-198q90 -155 90 -312q0 -202 -131 -331t-355 -129q-220 0 -347.5 139t-127.5 368q0 235 149.5 376t422.5 141h456zM717 477q0 147 -74 283h-31q-118 0 -187 -76.5t-69 -200.5q0 -116 47.5 -186t128.5 -70q86 0 135.5 67.5t49.5 182.5z" />
    <glyph glyph-name="tau" unicode="&#x3c4;" horiz-adv-x="991" 
d="M909 29q-118 -43 -250 -43q-167 0 -253.5 82t-86.5 260v424h-278v252h862l37 -252h-313v-402q0 -125 118 -125q52 0 129 25z" />
    <glyph glyph-name="upsilon" unicode="&#x3c5;" horiz-adv-x="1089" 
d="M993 381q0 -192 -118.5 -296.5t-331.5 -104.5q-214 0 -330.5 104t-116.5 297v623h312v-607q0 -159 137 -159t137 159v607h311v-623z" />
    <glyph glyph-name="phi" unicode="&#x3c6;" horiz-adv-x="1529" 
d="M1477 502q0 -219 -144 -355.5t-413 -156.5v-324l-310 -47v371q-273 20 -415 155t-142 355q0 219 143 356t414 158v416l310 49v-465q271 -20 414 -156t143 -356zM348 502q0 -117 69 -186.5t199 -82.5v533q-131 -12 -199.5 -80.5t-68.5 -183.5zM1182 500q0 115 -70 183.5
t-199 82.5v-533q131 14 200 82t69 185z" />
    <glyph glyph-name="chi" unicode="&#x3c7;" horiz-adv-x="1071" 
d="M1042 1004l-337 -639l370 -707l-321 -39l-234 481l-229 -467h-295l373 699l-340 647l323 39l201 -416l195 402h294z" />
    <glyph glyph-name="psi" unicode="&#x3c8;" horiz-adv-x="1525" 
d="M920 -332l-308 -49v371q-262 9 -391 129.5t-129 363.5v521h305v-525q0 -225 219 -237v1190l299 47v-1237q222 12 222 237v525h303v-521q0 -242 -130 -363t-390 -130v-322z" />
    <glyph glyph-name="omega" unicode="&#x3c9;" horiz-adv-x="1617" 
d="M664 819h290v-280q0 -141 41 -220t113 -79q62 0 98.5 61t36.5 170q0 110 -40 221.5t-140 272.5l301 59q101 -164 143.5 -288t42.5 -267q0 -224 -108.5 -356.5t-296.5 -132.5q-116 0 -197 50.5t-141 153.5q-117 -204 -340 -204q-184 0 -291.5 132.5t-107.5 356.5
q0 142 43 265.5t143 289.5l299 -59q-97 -154 -137.5 -266.5t-40.5 -227.5q0 -111 36 -171t99 -60q72 0 113 79t41 220v280z" />
    <glyph glyph-name="iotadieresis" unicode="&#x3ca;" horiz-adv-x="608" 
d="M598 1122h-266v269h266v-269zM193 1122h-267v269h267v-269zM102 1004h310v-695q0 -80 75 -80q35 0 91 17l-33 -236q-68 -22 -172 -22q-134 0 -202.5 68t-68.5 218v730z" />
    <glyph glyph-name="upsilondieresis" unicode="&#x3cb;" horiz-adv-x="1089" 
d="M879 1122h-267v269h267v-269zM473 1122h-266v269h266v-269zM993 381q0 -192 -118.5 -296.5t-331.5 -104.5q-214 0 -330.5 104t-116.5 297v623h312v-607q0 -159 137 -159t137 159v607h311v-623z" />
    <glyph glyph-name="omicrontonos" unicode="&#x3cc;" horiz-adv-x="1079" 
d="M842 1393l-217 -273h-193l53 307zM1022 502q0 -238 -136 -380t-349 -142q-211 0 -345.5 141.5t-134.5 378.5q0 238 135.5 381t346.5 143q213 0 348 -142t135 -380zM723 500q0 124 -48 198t-136 74t-135.5 -72.5t-47.5 -197.5q0 -124 48.5 -198.5t134.5 -74.5
q88 0 136 73.5t48 197.5z" />
    <glyph glyph-name="upsilontonos" unicode="&#x3cd;" horiz-adv-x="1089" 
d="M848 1393l-217 -273h-193l54 307zM993 381q0 -192 -118.5 -296.5t-331.5 -104.5q-214 0 -330.5 104t-116.5 297v623h312v-607q0 -159 137 -159t137 159v607h311v-623z" />
    <glyph glyph-name="omegatonos" unicode="&#x3ce;" horiz-adv-x="1617" 
d="M664 819h290v-280q0 -141 41 -220t113 -79q62 0 98.5 61t36.5 170q0 110 -40 221.5t-140 272.5l301 59q101 -164 143.5 -288t42.5 -267q0 -224 -108.5 -356.5t-296.5 -132.5q-116 0 -197 50.5t-141 153.5q-117 -204 -340 -204q-184 0 -291.5 132.5t-107.5 356.5
q0 142 43 265.5t143 289.5l299 -59q-97 -154 -137.5 -266.5t-40.5 -227.5q0 -111 36 -171t99 -60q72 0 113 79t41 220v280zM1110 1378l-217 -272h-193l54 307z" />
    <glyph glyph-name="uni0400" unicode="&#x400;" 
d="M1028 0h-899v1413h881v-283h-537v-266h410l45 -280h-455v-299h555v-285zM705 1518h-205l-299 247l379 62z" />
    <glyph glyph-name="uni0401" unicode="&#x401;" 
d="M911 1520h-266v268h266v-268zM506 1520h-266v268h266v-268zM1028 0h-899v1413h881v-283h-537v-266h410l45 -280h-455v-299h555v-285z" />
    <glyph glyph-name="uni0402" unicode="&#x402;" horiz-adv-x="1579" 
d="M1212 1116h-417v-266q120 20 225 20q244 0 376 -113t132 -329q0 -207 -132 -321.5t-360 -116.5q-47 0 -92 10l8 258q21 -6 39 -6q94 1 148.5 46.5t54.5 119.5q0 166 -217 166q-88 0 -182 -23v-561h-351v1116h-389v297h1108z" />
    <glyph glyph-name="uni0403" unicode="&#x403;" horiz-adv-x="1024" 
d="M889 1765l-301 -247h-197l123 309zM129 1413h807l49 -309h-506v-1104h-350v1413z" />
    <glyph glyph-name="uni0404" unicode="&#x404;" horiz-adv-x="1277" 
d="M1208 94q-201 -119 -438 -119q-324 0 -508 194.5t-184 535.5q0 334 188.5 533.5t511.5 199.5q228 0 410 -105l-49 -299q-171 115 -344 115q-152 0 -243.5 -75t-119.5 -222l539 6l43 -280l-586 4q24 -159 119.5 -238.5t247.5 -79.5q174 0 366 117z" />
    <glyph glyph-name="uni0405" unicode="&#x405;" horiz-adv-x="1132" 
d="M1071 426q0 -112 -39 -198t-109 -138.5t-160 -79t-198 -26.5q-263 0 -493 106l51 299q244 -131 448 -131q77 0 123.5 33t46.5 94t-46 99t-193 94q-113 44 -184 82t-124 88t-75.5 113.5t-22.5 150.5q0 132 65.5 228t173.5 143t245 47q130 0 228 -23.5t198 -71.5l-54 -295
q-197 115 -368 115q-77 0 -117.5 -30t-40.5 -81q0 -55 42 -89t173 -85q238 -87 334 -183t96 -261z" />
    <glyph glyph-name="uni0406" unicode="&#x406;" horiz-adv-x="624" 
d="M487 0h-350v1413h350v-1413z" />
    <glyph glyph-name="uni0407" unicode="&#x407;" horiz-adv-x="624" 
d="M487 0h-350v1413h350v-1413zM649 1520h-266v268h266v-268zM244 1520h-267v268h267v-268z" />
    <glyph glyph-name="uni0408" unicode="&#x408;" horiz-adv-x="870" 
d="M754 430q0 -118 -35.5 -205t-100.5 -138.5t-149 -76t-188 -24.5q-128 0 -195 18l-47 295q86 -23 166 -23q97 0 146.5 47.5t49.5 161.5v928h353v-983z" />
    <glyph glyph-name="uni0409" unicode="&#x409;" horiz-adv-x="2045" 
d="M2003 483q0 -234 -154.5 -358.5t-421.5 -124.5h-436v1118h-260l-49 -393q-25 -204 -65 -335.5t-111.5 -221t-172 -133t-253.5 -62.5l-47 297q156 29 218 134t95 374l78 635h917v-463h117q255 0 400 -119.5t145 -347.5zM1665 479q0 207 -244 207h-84v-422h82q118 0 182 54
t64 161z" />
    <glyph glyph-name="uni040A" unicode="&#x40a;" horiz-adv-x="2011" 
d="M1968 483q0 -234 -154 -358.5t-421 -124.5h-439v573h-475v-573h-350v1413h350v-534h475v534h351v-463h118q255 0 400 -119.5t145 -347.5zM1628 479q0 207 -242 207h-83v-422h81q117 0 180.5 54t63.5 161z" />
    <glyph glyph-name="uni040B" unicode="&#x40b;" horiz-adv-x="1630" 
d="M1212 1116h-417v-270q135 22 245 22q247 0 369.5 -107.5t122.5 -340.5v-420h-352v387q0 96 -48.5 138t-148.5 42q-80 0 -188 -18v-549h-351v1116h-389v297h1108z" />
    <glyph glyph-name="uni040C" unicode="&#x40c;" horiz-adv-x="1331" 
d="M1065 1759l-301 -248h-197l123 310zM1333 43l-383 -57l-471 671v-657h-350v1413h350v-604l436 604h406l-508 -659z" />
    <glyph glyph-name="uni040D" unicode="&#x40d;" horiz-adv-x="1458" 
d="M856 1511h-205l-299 248l379 62zM451 0h-322v1413h344v-835l506 835h350v-1413h-342v879z" />
    <glyph glyph-name="uni040E" unicode="&#x40e;" horiz-adv-x="1372" 
d="M1368 1413l-526 -1124q-78 -168 -180.5 -241t-258.5 -73q-107 0 -196 21l-45 295q99 -23 162 -23q80 0 129 32t82 114l-492 958l383 55l303 -671l275 657h364zM1053 1788q-21 -133 -103 -206t-223 -73q-140 0 -221.5 73t-102.5 206l170 27q23 -62 58.5 -88.5t95.5 -26.5
t95.5 26.5t58.5 88.5z" />
    <glyph glyph-name="uni040F" unicode="&#x40f;" horiz-adv-x="1437" 
d="M887 -293l-336 -39v332h-422v1413h350v-1116h479v1116h353v-1413h-424v-293z" />
    <glyph glyph-name="uni0410" unicode="&#x410;" horiz-adv-x="1437" 
d="M27 0l508 1419h385l491 -1376l-354 -57l-105 307h-487l-94 -293h-344zM709 1059l-160 -492h317z" />
    <glyph glyph-name="uni0411" unicode="&#x411;" horiz-adv-x="1200" 
d="M1139 446q0 -218 -144.5 -332t-412.5 -114h-453v1413h872l50 -293h-584v-243h131q270 0 405.5 -113.5t135.5 -317.5zM803 440q0 174 -223 174h-115v-360h110q228 0 228 186z" />
    <glyph glyph-name="uni0412" unicode="&#x412;" horiz-adv-x="1214" 
d="M1143 408q0 -201 -142 -304.5t-399 -103.5h-473v1413h481q238 0 360 -95.5t122 -270.5q0 -208 -205 -299q256 -81 256 -340zM778 1008q0 153 -192 153h-125v-319h117q97 0 148.5 44t51.5 122zM813 432q0 184 -227 184h-125v-364h129q107 0 165 45.5t58 134.5z" />
    <glyph glyph-name="uni0413" unicode="&#x413;" horiz-adv-x="1024" 
d="M129 1413h807l49 -309h-506v-1104h-350v1413z" />
    <glyph glyph-name="uni0414" unicode="&#x414;" horiz-adv-x="1552" 
d="M360 -317h-331v587q188 200 273 378t118 456l37 309h899v-1106h164v-600l-334 -39v332h-826v-317zM750 1126l-17 -147q-29 -236 -92 -389t-188 -299h555v835h-258z" />
    <glyph glyph-name="uni0415" unicode="&#x415;" 
d="M1028 0h-899v1413h881v-283h-537v-266h410l45 -280h-455v-299h555v-285z" />
    <glyph glyph-name="uni0416" unicode="&#x416;" horiz-adv-x="1976" 
d="M422 1427l399 -618l-8 604h352l-10 -618l406 618h393l-461 -661l473 -709l-375 -57l-436 686l10 -672h-352l8 682l-413 -682h-394l471 735l-438 635z" />
    <glyph glyph-name="uni0417" unicode="&#x417;" horiz-adv-x="1171" 
d="M1092 395q0 -198 -149.5 -309t-397.5 -111q-250 0 -473 107l45 287q224 -109 409 -109q107 0 167.5 43.5t60.5 120.5q0 84 -69.5 124t-227.5 40h-154l-41 270h199q134 0 200 41.5t66 114.5q0 67 -53 104t-154 37q-181 0 -381 -119l-45 281q204 121 479 121
q232 0 364 -100t132 -275q0 -234 -248 -328q271 -84 271 -340z" />
    <glyph glyph-name="uni0418" unicode="&#x418;" horiz-adv-x="1458" 
d="M451 0h-322v1413h344v-835l506 835h350v-1413h-342v879z" />
    <glyph glyph-name="uni0419" unicode="&#x419;" horiz-adv-x="1458" 
d="M451 0h-322v1413h344v-835l506 835h350v-1413h-342v879zM1053 1788q-21 -133 -103 -206t-223 -73q-140 0 -221.5 73t-102.5 206l170 27q23 -62 58.5 -88.5t95.5 -26.5t95.5 26.5t58.5 88.5z" />
    <glyph glyph-name="uni041A" unicode="&#x41a;" horiz-adv-x="1331" 
d="M1333 43l-383 -57l-471 671v-657h-350v1413h350v-604l436 604h406l-508 -659z" />
    <glyph glyph-name="uni041B" unicode="&#x41b;" horiz-adv-x="1476" 
d="M1348 1413v-1413h-351v1118h-266l-49 -393q-25 -204 -65 -335.5t-111.5 -221t-172 -133t-253.5 -62.5l-47 297q156 29 218 134t95 374l78 635h924z" />
    <glyph glyph-name="uni041C" unicode="&#x41c;" horiz-adv-x="1824" 
d="M1737 0h-357l-61 946l-266 -948h-332l-266 948l-62 -946h-305l102 1413h453l275 -973l276 973h440z" />
    <glyph glyph-name="uni041D" unicode="&#x41d;" horiz-adv-x="1447" 
d="M1321 0h-352v573h-490v-573h-350v1413h350v-534h490v534h352v-1413z" />
    <glyph glyph-name="uni041E" unicode="&#x41e;" horiz-adv-x="1505" 
d="M1427 709q0 -217 -82.5 -383.5t-237 -259.5t-357.5 -93q-303 0 -487.5 202t-184.5 530q0 330 185 532.5t491 202.5q202 0 355.5 -91.5t235.5 -257t82 -382.5zM1075 707q0 213 -85 335.5t-238 122.5q-151 0 -237.5 -123t-86.5 -335t86.5 -335.5t237.5 -123.5
q152 0 237.5 123t85.5 336z" />
    <glyph glyph-name="uni041F" unicode="&#x41f;" horiz-adv-x="1437" 
d="M1311 0h-353v1116h-479v-1116h-350v1413h1182v-1413z" />
    <glyph glyph-name="uni0420" unicode="&#x420;" horiz-adv-x="1181" 
d="M1139 952q0 -234 -153.5 -358.5t-416.5 -124.5h-90v-469h-350v1413h455q263 0 409 -117.5t146 -343.5zM799 946q0 203 -236 203h-88v-416h82q242 0 242 213z" />
    <glyph glyph-name="uni0421" unicode="&#x421;" horiz-adv-x="1230" 
d="M1165 84q-187 -109 -409 -109q-315 0 -496.5 197t-181.5 533q0 331 188.5 532t505.5 201q214 0 373 -92l-49 -316q-146 115 -305 115q-166 0 -264.5 -118t-98.5 -320q0 -203 101.5 -321t269.5 -118q149 0 321 109z" />
    <glyph glyph-name="uni0422" unicode="&#x422;" horiz-adv-x="1247" 
d="M1219 1116h-416v-1116h-352v1116h-400v297h1118z" />
    <glyph glyph-name="uni0423" unicode="&#x423;" horiz-adv-x="1372" 
d="M1368 1413l-526 -1124q-78 -168 -180.5 -241t-258.5 -73q-107 0 -196 21l-45 295q99 -23 162 -23q80 0 129 32t82 114l-492 958l383 55l303 -671l275 657h364z" />
    <glyph glyph-name="uni0424" unicode="&#x424;" horiz-adv-x="1816" 
d="M1083 -23h-350v152q-322 20 -498 175t-176 403q0 246 176.5 402.5t497.5 174.5v152h350v-152q321 -18 497.5 -173.5t176.5 -403.5q0 -247 -177.5 -402.5t-496.5 -175.5v-152zM1421 709q0 140 -86.5 224t-259.5 97v-645q169 12 257.5 97.5t88.5 226.5zM397 709
q0 -142 86.5 -227t259.5 -97v645q-172 -13 -259 -98t-87 -223z" />
    <glyph glyph-name="uni0425" unicode="&#x425;" horiz-adv-x="1353" 
d="M1327 45l-375 -59l-290 501l-279 -487h-358l444 719l-408 649l373 59l256 -448l242 434h362l-411 -668z" />
    <glyph glyph-name="uni0426" unicode="&#x426;" horiz-adv-x="1501" 
d="M479 297h473v1116h353v-1106h163v-600l-333 -39v332h-1006v1413h350v-1116z" />
    <glyph glyph-name="uni0427" unicode="&#x427;" horiz-adv-x="1312" 
d="M96 1413h350v-493q0 -96 49 -138.5t150 -42.5q91 0 186 19v655h353v-1413h-353v459q-161 -23 -245 -23q-244 0 -367 108.5t-123 340.5v528z" />
    <glyph glyph-name="uni0428" unicode="&#x428;" horiz-adv-x="2015" 
d="M479 295h352v1118h353v-1118h352v1118h352v-1413h-1759v1413h350v-1118z" />
    <glyph glyph-name="uni0429" unicode="&#x429;" horiz-adv-x="2082" 
d="M479 295h352v1118h351v-1118h352v1118h350v-1106h164v-600l-332 -39v332h-1587v1413h350v-1118z" />
    <glyph glyph-name="uni042A" unicode="&#x42a;" horiz-adv-x="1441" 
d="M1401 483q0 -234 -155.5 -358.5t-422.5 -124.5h-436v1116h-367l50 297h667v-463h117q256 0 401.5 -120t145.5 -347zM1061 479q0 207 -244 207h-84v-422h84q117 0 180.5 54t63.5 161z" />
    <glyph glyph-name="uni042B" unicode="&#x42b;" horiz-adv-x="1757" 
d="M1133 481q0 -237 -151 -359t-419 -122h-434v1413h350v-463h107q255 0 401 -120.5t146 -348.5zM793 477q0 209 -242 209h-76v-422h74q244 0 244 213zM1624 0h-352v1413h352v-1413z" />
    <glyph glyph-name="uni042C" unicode="&#x42c;" horiz-adv-x="1183" 
d="M1143 483q0 -234 -155.5 -358.5t-422.5 -124.5h-436v1413h350v-463h117q256 0 401.5 -120t145.5 -347zM803 479q0 207 -244 207h-84v-422h84q117 0 180.5 54t63.5 161z" />
    <glyph glyph-name="uni042D" unicode="&#x42d;" horiz-adv-x="1277" 
d="M139 1040l-47 289q193 109 432 109q314 0 496 -193.5t182 -531.5q0 -339 -187 -538.5t-511 -199.5q-235 0 -434 117l49 297q94 -62 181 -93.5t189 -31.5q151 0 245 80.5t118 237.5l-545 -4l-43 280l584 -6q-29 145 -122.5 221t-233.5 76q-98 0 -181 -27t-172 -82z" />
    <glyph glyph-name="uni042E" unicode="&#x42e;" horiz-adv-x="2013" 
d="M1933 709q0 -216 -79 -383t-225.5 -260t-338.5 -93q-260 0 -426 161t-200 435h-185v-569h-350v1413h350v-536h189q43 260 208.5 411.5t417.5 151.5q289 0 464 -201.5t175 -529.5zM1583 707q0 213 -77 335.5t-214 122.5q-139 0 -216 -122t-77 -336t77 -336.5t216 -122.5
q137 0 214 122.5t77 336.5z" />
    <glyph glyph-name="uni042F" unicode="&#x42f;" horiz-adv-x="1261" 
d="M14 45l338 512q-132 52 -194 148.5t-62 242.5q0 214 155.5 339.5t422.5 125.5h459v-1413h-349v485h-112l-299 -499zM438 948q0 -103 64 -157t176 -54h108v412h-110q-111 0 -174.5 -52.5t-63.5 -148.5z" />
    <glyph glyph-name="uni0430" unicode="&#x430;" horiz-adv-x="1038" 
d="M940 0h-274l-21 125q-138 -145 -315 -145q-123 0 -198 72.5t-75 205.5q0 175 138 264.5t436 116.5v18q0 65 -37.5 96t-114.5 31q-154 0 -323 -75l-37 233q191 78 407 78q213 0 313.5 -80.5t100.5 -267.5v-672zM631 276v213q-149 -23 -209 -70.5t-60 -119.5q0 -46 27 -72
t72 -26q86 0 170 75z" />
    <glyph glyph-name="uni0431" unicode="&#x431;" horiz-adv-x="1103" 
d="M639 1147q-170 -30 -249.5 -106t-102.5 -240q118 172 346 172q184 0 299 -126.5t115 -348.5q0 -237 -135.5 -377.5t-360.5 -140.5q-190 0 -313 120q-82 82 -122 210t-40 333q0 251 53.5 408.5t171 246.5t315.5 123l322 58l41 -273zM750 485q0 111 -49 179.5t-136 68.5
q-90 0 -142 -73t-52 -185q0 -115 48.5 -182.5t135.5 -67.5q89 0 142 72.5t53 187.5z" />
    <glyph glyph-name="uni0432" unicode="&#x432;" horiz-adv-x="1062" 
d="M1008 285q0 -139 -108 -212t-314 -73h-480v1004h492q177 0 275 -65.5t98 -197.5q0 -150 -154 -219q91 -30 141 -86.5t50 -150.5zM715 311q0 55 -38.5 85t-115.5 30h-174v-225h172q74 0 115 28t41 82zM698 700q0 101 -139 101h-172v-207h168q143 0 143 106z" />
    <glyph glyph-name="uni0433" unicode="&#x433;" horiz-adv-x="833" 
d="M106 0v1004h660l37 -263h-387v-741h-310z" />
    <glyph glyph-name="uni0434" unicode="&#x434;" horiz-adv-x="1222" 
d="M23 -293v506q126 121 184.5 234.5t85.5 308.5l35 248h731v-752h131v-528l-285 -35v311h-596v-293h-286zM575 774l-16 -117q-22 -144 -63 -237t-123 -182h389v536h-187z" />
    <glyph glyph-name="uni0435" unicode="&#x435;" horiz-adv-x="1034" 
d="M973 92q-174 -112 -400 -112q-236 0 -376 130.5t-140 387.5q0 242 132.5 384t340.5 142q113 0 199.5 -40t139.5 -111.5t79.5 -164.5t26.5 -204q0 -48 -4 -80h-606q22 -219 247 -219q152 0 330 106zM522 823q-68 0 -110.5 -58t-49.5 -171h318q-15 229 -158 229z" />
    <glyph glyph-name="uni0436" unicode="&#x436;" horiz-adv-x="1550" 
d="M344 0h-330l330 516l-315 457l319 45l277 -447l-4 433h309l-6 -435l268 435h332l-316 -474l330 -499l-321 -45l-293 487l6 -473h-309l4 475z" />
    <glyph glyph-name="uni0437" unicode="&#x437;" horiz-adv-x="989" 
d="M903 752q0 -162 -172 -232q195 -65 195 -244q0 -136 -115.5 -216t-339.5 -80q-218 0 -410 88l39 241q201 -88 363 -88q158 0 158 92q0 93 -162 93h-185l-38 208h217q76 0 112.5 23.5t36.5 64.5q0 82 -156 82q-141 0 -329 -73l-37 237q191 74 403 74t316 -73.5t104 -196.5
z" />
    <glyph glyph-name="uni0438" unicode="&#x438;" horiz-adv-x="1146" 
d="M106 0v1004h300v-539l323 539h311v-1004h-299v571l-346 -571h-289z" />
    <glyph glyph-name="uni0439" unicode="&#x439;" horiz-adv-x="1146" 
d="M106 0v1004h300v-539l323 539h311v-1004h-299v571l-346 -571h-289zM897 1397q-21 -133 -103 -206t-223 -73q-140 0 -221 73t-102 206l170 26q23 -62 58 -88t95 -26t95.5 26t58.5 88z" />
    <glyph glyph-name="uni043A" unicode="&#x43a;" horiz-adv-x="1042" 
d="M702 -14l-286 469v-455h-310v1004h310v-426l268 426h342l-326 -476l330 -497z" />
    <glyph glyph-name="uni043B" unicode="&#x43b;" horiz-adv-x="1175" 
d="M20 223q122 26 168.5 99t71.5 268l53 414h756v-1004h-309v760h-182l-27 -215q-24 -202 -81 -320.5t-154.5 -175t-258.5 -72.5z" />
    <glyph glyph-name="uni043C" unicode="&#x43c;" horiz-adv-x="1519" 
d="M1440 0h-295l-37 727l-213 -729h-303l-215 729l-35 -727h-262l65 1004h420l193 -644l192 644h424z" />
    <glyph glyph-name="uni043D" unicode="&#x43d;" horiz-adv-x="1126" 
d="M1020 0h-311v387h-293v-387h-310v1004h310v-365h293v365h311v-1004z" />
    <glyph glyph-name="uni043E" unicode="&#x43e;" horiz-adv-x="1079" 
d="M1022 502q0 -238 -136 -380t-349 -142q-211 0 -345.5 141.5t-134.5 378.5q0 238 135.5 381t346.5 143q213 0 348 -142t135 -380zM723 500q0 124 -48 198t-136 74t-135.5 -72.5t-47.5 -197.5q0 -124 48.5 -198.5t134.5 -74.5q88 0 136 73.5t48 197.5z" />
    <glyph glyph-name="uni043F" unicode="&#x43f;" horiz-adv-x="1118" 
d="M1012 0h-312v752h-284v-752h-310v1004h906v-1004z" />
    <glyph glyph-name="uni0440" unicode="&#x440;" horiz-adv-x="1114" 
d="M1051 528q0 -138 -34.5 -244t-95 -168.5t-134.5 -94t-160 -31.5q-100 0 -211 35v-359l-310 -47v1385h273l20 -132q64 69 132.5 110.5t156.5 41.5q163 0 263 -125.5t100 -370.5zM739 508q0 121 -41 180.5t-110 59.5q-48 0 -88 -26t-84 -77v-381q67 -31 141 -31
q83 0 132.5 67.5t49.5 207.5z" />
    <glyph glyph-name="uni0441" unicode="&#x441;" horiz-adv-x="925" 
d="M862 70q-143 -88 -319 -88q-220 0 -353 136t-133 376q0 128 39.5 230t108 165.5t158.5 97t194 33.5q162 0 297 -76l-41 -264q-118 74 -225 74q-99 0 -158 -65t-59 -187q0 -124 63 -189t162 -65q113 0 229 76z" />
    <glyph glyph-name="uni0442" unicode="&#x442;" horiz-adv-x="974" 
d="M334 0v750h-291v254h870l37 -254h-307v-750h-309z" />
    <glyph glyph-name="uni0443" unicode="&#x443;" horiz-adv-x="1044" 
d="M1028 1004l-358 -1029q-66 -192 -164 -270t-262 -78q-58 0 -121 13l-41 249q56 -16 123 -16q123 0 170 104l8 21l-365 981l332 39l193 -631l182 617h303z" />
    <glyph glyph-name="uni0444" unicode="&#x444;" horiz-adv-x="1529" 
d="M1477 502q0 -219 -144 -355.5t-413 -156.5v-324l-310 -47v371q-273 20 -415 155t-142 355q0 219 143 356t414 158v416l310 49v-465q271 -20 414 -156t143 -356zM348 502q0 -117 69 -186.5t199 -82.5v533q-131 -12 -199.5 -80.5t-68.5 -183.5zM1182 500q0 115 -70 183.5
t-199 82.5v-533q131 14 200 82t69 185z" />
    <glyph glyph-name="uni0445" unicode="&#x445;" horiz-adv-x="1015" 
d="M985 25l-321 -39l-172 317l-166 -303h-295l303 496l-289 483l324 39l155 -291l152 277h293l-289 -474z" />
    <glyph glyph-name="uni0446" unicode="&#x446;" horiz-adv-x="1169" 
d="M106 0v1004h310v-752h280v752h310v-752h131v-526l-289 -37v311h-742z" />
    <glyph glyph-name="uni0447" unicode="&#x447;" horiz-adv-x="1064" 
d="M76 1004h309v-326q0 -72 38 -103.5t124 -31.5q63 0 102 8v453h309v-1004h-309v291q-108 -19 -184 -19q-197 0 -293 90.5t-96 286.5v355z" />
    <glyph glyph-name="uni0448" unicode="&#x448;" horiz-adv-x="1675" 
d="M684 1004h309v-752h267v752h309v-1004h-1463v1004h312v-752h266v752z" />
    <glyph glyph-name="uni0449" unicode="&#x449;" horiz-adv-x="1728" 
d="M682 1004h311v-752h264v752h310v-752h129v-526l-287 -37v311h-1303v1004h312v-752h264v752z" />
    <glyph glyph-name="uni044A" unicode="&#x44a;" horiz-adv-x="1167" 
d="M1128 365q0 -173 -120 -269t-338 -96h-394v752h-266l39 252h535v-291h118q209 0 317.5 -90t108.5 -258zM838 356q0 150 -172 150h-82v-297h80q85 0 129.5 39.5t44.5 107.5z" />
    <glyph glyph-name="uni044B" unicode="&#x44b;" horiz-adv-x="1490" 
d="M1384 0h-311v1004h311v-1004zM954 365q0 -173 -120 -269t-338 -96h-390v1004h308v-291h116q208 0 316 -90t108 -258zM664 356q0 150 -170 150h-80v-297h75q87 0 131 39.5t44 107.5z" />
    <glyph glyph-name="uni044C" unicode="&#x44c;" horiz-adv-x="997" 
d="M958 365q0 -173 -120 -269t-338 -96h-394v1004h308v-291h118q209 0 317.5 -90t108.5 -258zM668 356q0 150 -172 150h-82v-297h80q85 0 129.5 39.5t44.5 107.5z" />
    <glyph glyph-name="uni044D" unicode="&#x44d;" horiz-adv-x="972" 
d="M106 707l-32 235q147 82 338 82q231 0 366 -138.5t135 -383.5q0 -252 -144.5 -387t-387.5 -135q-171 0 -313 73l41 240q123 -74 274 -74q213 0 246 182l-408 -2l-31 209l437 -4q-19 87 -82.5 132.5t-165.5 45.5q-135 0 -273 -75z" />
    <glyph glyph-name="uni044E" unicode="&#x44e;" horiz-adv-x="1533" 
d="M1477 502q0 -238 -131.5 -380t-341.5 -142q-176 0 -297.5 108t-153.5 297h-137v-385h-310v1004h310v-367h143q34 180 155 283.5t294 103.5q208 0 338.5 -142t130.5 -380zM1180 500q0 123 -44.5 196.5t-129.5 73.5t-127.5 -71.5t-42.5 -196.5q0 -124 43.5 -198.5
t126.5 -74.5q86 0 130 73.5t44 197.5z" />
    <glyph glyph-name="uni044F" unicode="&#x44f;" horiz-adv-x="1087" 
d="M334 -20l-309 53l256 334q-82 42 -128.5 115t-46.5 169q0 162 118 257.5t343 95.5h414v-1004h-307v299h-109zM397 653q0 -143 178 -143h103v281h-100q-85 0 -133 -36.5t-48 -101.5z" />
    <glyph glyph-name="uni0450" unicode="&#x450;" horiz-adv-x="1034" 
d="M973 92q-174 -112 -400 -112q-236 0 -376 130.5t-140 387.5q0 242 132.5 384t340.5 142q113 0 199.5 -40t139.5 -111.5t79.5 -164.5t26.5 -204q0 -48 -4 -80h-606q22 -219 247 -219q152 0 330 106zM664 1120h-205l-299 248l379 62zM522 823q-68 0 -110.5 -58t-49.5 -171
h318q-15 229 -158 229z" />
    <glyph glyph-name="uni0451" unicode="&#x451;" horiz-adv-x="1034" 
d="M973 92q-174 -112 -400 -112q-236 0 -376 130.5t-140 387.5q0 242 132.5 384t340.5 142q113 0 199.5 -40t139.5 -111.5t79.5 -164.5t26.5 -204q0 -48 -4 -80h-606q22 -219 247 -219q152 0 330 106zM465 1122h-266v269h266v-269zM870 1122h-266v269h266v-269zM522 823
q-68 0 -110.5 -58t-49.5 -171h318q-15 229 -158 229z" />
    <glyph glyph-name="uni0452" unicode="&#x452;" horiz-adv-x="1083" 
d="M698 1061h-278v-207q102 18 180 18q206 0 309 -108.5t103 -339.5q0 -358 -217 -805l-291 47q198 449 198 737q0 104 -44 151.5t-142 47.5q-47 0 -96 -8v-594h-309v1061h-136l-36 221h172v148l309 49v-197h278v-221z" />
    <glyph glyph-name="uni0453" unicode="&#x453;" horiz-adv-x="833" 
d="M805 1368l-301 -248h-197l123 310zM106 0v1004h660l37 -263h-387v-741h-310z" />
    <glyph glyph-name="uni0454" unicode="&#x454;" horiz-adv-x="972" 
d="M780 399l-436 2q20 -88 87 -134t167 -46q140 0 272 76l33 -236q-142 -81 -340 -81q-231 0 -368.5 139t-137.5 381q0 250 145 387t382 137q178 0 315 -74l-39 -239q-127 73 -258 73q-218 0 -258 -178l408 4z" />
    <glyph glyph-name="uni0455" unicode="&#x455;" horiz-adv-x="950" 
d="M891 309q0 -159 -106 -243t-306 -84q-221 0 -413 98l36 237q89 -55 190.5 -86.5t188.5 -31.5q63 0 95 20.5t32 56.5q0 38 -33.5 61t-136.5 48q-198 52 -278 120t-80 204q0 142 102 227.5t285 85.5q205 0 369 -74l-39 -237q-174 94 -330 94q-52 0 -79.5 -18t-27.5 -48
q0 -33 33.5 -54t136.5 -50q205 -54 283 -122t78 -204z" />
    <glyph glyph-name="uni0456" unicode="&#x456;" horiz-adv-x="536" 
d="M444 1300q0 -74 -50 -119.5t-126 -45.5q-75 0 -125.5 45.5t-50.5 119.5q0 75 50.5 122.5t125.5 47.5q76 0 126 -47t50 -123zM424 0h-311v1004h311v-1004z" />
    <glyph glyph-name="uni0457" unicode="&#x457;" horiz-adv-x="536" 
d="M604 1122h-266v269h266v-269zM199 1122h-267v269h267v-269zM424 0h-311v1004h311v-1004z" />
    <glyph glyph-name="uni0458" unicode="&#x458;" horiz-adv-x="538" 
d="M444 1300q0 -74 -50 -119.5t-126 -45.5q-75 0 -125.5 45.5t-50.5 119.5q0 75 50.5 122.5t125.5 47.5q76 0 126 -47t50 -123zM424 -29q0 -179 -92.5 -261.5t-257.5 -82.5q-71 0 -111 8l-37 242q46 -8 74 -8q56 0 84.5 28.5t28.5 98.5v1008h311v-1033z" />
    <glyph glyph-name="uni0459" unicode="&#x459;" horiz-adv-x="1644" 
d="M1606 365q0 -173 -120.5 -269t-338.5 -96h-393v760h-176l-27 -215q-24 -202 -81 -320.5t-154.5 -175t-258.5 -72.5l-37 246q122 26 168.5 99t71.5 268l53 414h750v-291h117q209 0 317.5 -90t108.5 -258zM1315 356q0 150 -172 150h-82v-297h80q87 0 130.5 39.5t43.5 107.5
z" />
    <glyph glyph-name="uni045A" unicode="&#x45a;" horiz-adv-x="1585" 
d="M1544 365q0 -173 -120.5 -269t-338.5 -96h-387v389h-282v-389h-310v1004h310v-363h282v363h310v-291h112q208 0 316 -90t108 -258zM1253 356q0 150 -170 150h-77v-297h75q85 0 128.5 39.5t43.5 107.5z" />
    <glyph glyph-name="uni045B" unicode="&#x45b;" horiz-adv-x="1093" 
d="M698 1061h-278v-207q102 18 188 18q199 0 295 -90t96 -286v-496h-309v467q0 72 -39 103.5t-131 31.5q-48 0 -100 -8v-594h-309v1061h-136l-36 221h172v148l309 49v-197h278v-221z" />
    <glyph glyph-name="uni045C" unicode="&#x45c;" horiz-adv-x="1042" 
d="M915 1368l-301 -248h-196l123 310zM702 -14l-286 469v-455h-310v1004h310v-426l268 426h342l-326 -476l330 -497z" />
    <glyph glyph-name="uni045D" unicode="&#x45d;" horiz-adv-x="1146" 
d="M700 1120h-204l-299 248l378 62zM106 0v1004h300v-539l323 539h311v-1004h-299v571l-346 -571h-289z" />
    <glyph glyph-name="uni045E" unicode="&#x45e;" horiz-adv-x="1044" 
d="M1028 1004l-358 -1029q-66 -192 -164 -270t-262 -78q-58 0 -121 13l-41 249q56 -16 123 -16q123 0 170 104l8 21l-365 981l332 39l193 -631l182 617h303zM870 1397q-21 -133 -102.5 -206t-222.5 -73q-140 0 -221.5 73t-102.5 206l170 26q23 -62 58.5 -88t95.5 -26t95 26
t58 88z" />
    <glyph glyph-name="uni045F" unicode="&#x45f;" horiz-adv-x="1118" 
d="M700 1004h312v-1004h-310l3 -274l-291 -37v311h-308v1004h310v-752h284v752z" />
    <glyph glyph-name="uni0462" unicode="&#x462;" horiz-adv-x="1443" 
d="M1397 424q0 -202 -141.5 -313t-395.5 -111h-473v1006h-364l38 249h326v181h346v-181h404v-245h-404v-179h139q259 0 392 -107t133 -300zM1061 422q0 72 -50.5 115t-148.5 43h-131v-322h127q98 0 150.5 44.5t52.5 119.5z" />
    <glyph glyph-name="uni0463" unicode="&#x463;" horiz-adv-x="1167" 
d="M1128 336q0 -160 -117.5 -248t-324.5 -88h-410v782h-266l33 222h233v426l306 49v-475h321v-220h-321v-129h129q204 0 310.5 -82t106.5 -237zM840 332q0 58 -40.5 89.5t-115.5 31.5h-104v-246h100q77 0 118.5 32.5t41.5 92.5z" />
    <glyph glyph-name="uni0472" unicode="&#x472;" horiz-adv-x="1505" 
d="M1427 709q0 -217 -82.5 -383.5t-237 -259.5t-357.5 -93q-303 0 -487.5 202t-184.5 530q0 330 185 532.5t491 202.5q202 0 355.5 -91.5t235.5 -257t82 -382.5zM752 244q140 0 227.5 87t110.5 244h-674q23 -157 110.5 -244t225.5 -87zM752 1169q-137 0 -224 -85.5
t-112 -237.5h671q-25 153 -111 238t-224 85z" />
    <glyph glyph-name="uni0473" unicode="&#x473;" horiz-adv-x="1079" 
d="M1020 502q0 -237 -135 -379.5t-348 -142.5q-212 0 -346 142t-134 378q0 237 135.5 380.5t348.5 143.5q212 0 345.5 -142.5t133.5 -379.5zM539 801q-83 0 -137.5 -53t-69.5 -154h416q-17 101 -71 154t-138 53zM539 201q83 0 137.5 51.5t71.5 150.5h-416q17 -98 71.5 -150
t135.5 -52z" />
    <glyph glyph-name="uni0474" unicode="&#x474;" horiz-adv-x="1454" 
d="M1407 1436l45 -308q-109 -23 -168.5 -95t-118.5 -242l-280 -799h-373l-485 1378l374 57l318 -991l143 451q34 113 69 194t80.5 148.5t101 109t128.5 66.5t166 31z" />
    <glyph glyph-name="uni0475" unicode="&#x475;" horiz-adv-x="1073" 
d="M1073 748q-100 -16 -147.5 -70.5t-83.5 -173.5l-160 -508h-330l-334 983l334 39l183 -633l71 246q37 136 84.5 215.5t130.5 124.5t211 51z" />
    <glyph glyph-name="uni0490" unicode="&#x490;" horiz-adv-x="1048" 
d="M129 1413h543v281l334 -39v-551h-527v-1104h-350v1413z" />
    <glyph glyph-name="uni0491" unicode="&#x491;" horiz-adv-x="878" 
d="M414 741v-741h-308v1004h453v286l287 -35v-514h-432z" />
    <glyph glyph-name="uni0492" unicode="&#x492;" horiz-adv-x="1085" 
d="M188 1413h807l49 -309h-505v-377h272v-143h-272v-584h-351v584h-143l-25 143h168v686z" />
    <glyph glyph-name="uni0493" unicode="&#x493;" horiz-adv-x="886" 
d="M160 0v365h-127l-23 135h150v504h659l37 -263h-387v-241h227v-135h-227v-365h-309z" />
    <glyph glyph-name="uni0496" unicode="&#x496;" horiz-adv-x="2021" 
d="M422 1427l399 -618l-8 604h352l-10 -618l406 618h393l-461 -661l295 -445h221v-600l-332 -39v332h-96l-426 672l10 -672h-352l8 682l-413 -682h-394l471 735l-438 635z" />
    <glyph glyph-name="uni0497" unicode="&#x497;" horiz-adv-x="1585" 
d="M1208 530l183 -278h186v-526l-289 -37v311h-22v2l-58 -2l-284 473l6 -473h-309l4 475l-281 -475h-330l330 516l-315 457l319 45l277 -447l-4 433h309l-6 -435l268 435h332z" />
    <glyph glyph-name="uni0498" unicode="&#x498;" horiz-adv-x="1171" 
d="M1092 395q0 -161 -101.5 -265.5t-277.5 -137.5l10 -285l-334 -39l8 318q-168 19 -325 96l45 287q224 -109 409 -109q107 0 167.5 43.5t60.5 120.5q0 84 -69.5 124t-227.5 40h-154l-41 270h199q134 0 200 41.5t66 114.5q0 67 -53 104t-154 37q-181 0 -381 -119l-45 281
q204 121 479 121q232 0 364 -100t132 -275q0 -234 -248 -328q271 -84 271 -340z" />
    <glyph glyph-name="uni0499" unicode="&#x499;" horiz-adv-x="989" 
d="M903 752q0 -162 -172 -232q195 -65 195 -244q0 -113 -81 -189t-239 -99l10 -262l-290 -37l10 299q-141 18 -275 80l39 241q201 -88 363 -88q158 0 158 92q0 93 -162 93h-185l-38 208h217q76 0 112.5 23.5t36.5 64.5q0 82 -156 82q-141 0 -329 -73l-37 237q191 74 403 74
t316 -73.5t104 -196.5z" />
    <glyph glyph-name="uni049A" unicode="&#x49a;" horiz-adv-x="1376" 
d="M1038 -332v332h-98l-461 657v-657h-350v1413h350v-604l436 604h406l-508 -659l326 -447h231v-600z" />
    <glyph glyph-name="uni049B" unicode="&#x49b;" horiz-adv-x="1077" 
d="M416 0h-310v1004h310v-426l268 426h340l-324 -476l183 -276h184v-526l-289 -37v311h-82l-280 455v-455z" />
    <glyph glyph-name="uni049C" unicode="&#x49c;" horiz-adv-x="1439" 
d="M741 1202v-299l279 510h399l-397 -663l412 -707l-381 -57l-312 575v-305h-133v317h-129v-573h-350v1413h350v-534h129v323h133z" />
    <glyph glyph-name="uni049D" unicode="&#x49d;" horiz-adv-x="1179" 
d="M629 870v-225l186 359h330l-268 -474l280 -499l-321 -45l-207 405v-227h-123v225h-94v-389h-306v1004h306v-363h94v229h123z" />
    <glyph glyph-name="uni04A0" unicode="&#x4a0;" horiz-adv-x="1589" 
d="M1591 43l-383 -57l-471 671v-657h-350v1116h-367l50 297h667v-604l437 604h405l-508 -659z" />
    <glyph glyph-name="uni04A1" unicode="&#x4a1;" horiz-adv-x="1212" 
d="M872 -14l-286 469v-455h-310v752h-266l39 252h537v-426l268 426h342l-326 -476l330 -497z" />
    <glyph glyph-name="uni04A2" unicode="&#x4a2;" horiz-adv-x="1517" 
d="M1151 -332v332h-182v573h-490v-573h-350v1413h350v-534h490v534h352v-1106h162v-600z" />
    <glyph glyph-name="uni04A3" unicode="&#x4a3;" horiz-adv-x="1181" 
d="M862 -311v311h-153v387h-293v-387h-310v1004h310v-365h293v365h311v-752h131v-526z" />
    <glyph glyph-name="uni04A4" unicode="&#x4a4;" horiz-adv-x="1835" 
d="M1300 0h-352v573h-469v-573h-350v1413h350v-534h469v534h799l49 -309h-496v-1104z" />
    <glyph glyph-name="uni04A5" unicode="&#x4a5;" horiz-adv-x="1427" 
d="M1014 0h-309v389h-289v-389h-310v1004h310v-363h289v363h655l39 -263h-385v-741z" />
    <glyph glyph-name="uni04AA" unicode="&#x4aa;" horiz-adv-x="1230" 
d="M1165 84q-143 -83 -303 -102l10 -275l-335 -39l10 332q-223 60 -346 244.5t-123 460.5q0 331 188.5 532t505.5 201q214 0 373 -92l-49 -316q-146 115 -305 115q-166 0 -264.5 -118t-98.5 -320q0 -203 101.5 -321t269.5 -118q149 0 321 109z" />
    <glyph glyph-name="uni04AB" unicode="&#x4ab;" horiz-adv-x="925" 
d="M862 70q-105 -64 -225 -82l10 -262l-289 -37l11 317q-147 48 -229.5 174t-82.5 314q0 128 39.5 230t108 165.5t158.5 97t194 33.5q162 0 297 -76l-41 -264q-118 74 -225 74q-99 0 -158 -65t-59 -187q0 -124 63 -189t162 -65q113 0 229 76z" />
    <glyph glyph-name="uni04AE" unicode="&#x4ae;" horiz-adv-x="1372" 
d="M1370 1413l-510 -893v-520h-350v516l-490 860l373 51l307 -585l297 571h373z" />
    <glyph glyph-name="uni04AF" unicode="&#x4af;" horiz-adv-x="1044" 
d="M1030 1004l-356 -1004v-334l-309 -47v381l-347 979l334 39l191 -635l186 621h301z" />
    <glyph glyph-name="uni04B0" unicode="&#x4b0;" horiz-adv-x="1372" 
d="M1370 1413l-510 -893v-90h254l23 -135h-277v-295h-350v295h-264v135h264v84l-490 862l373 51l307 -585l297 571h373z" />
    <glyph glyph-name="uni04B1" unicode="&#x4b1;" horiz-adv-x="1044" 
d="M1030 1004l-354 -996h213l24 -133h-239v-209l-309 -47v256h-228v133h223l-342 971l334 39l191 -635l186 621h301z" />
    <glyph glyph-name="uni04B2" unicode="&#x4b2;" horiz-adv-x="1392" 
d="M932 1413h362l-411 -668l278 -438h217v-600l-331 -39v332h-103l-282 487l-279 -487h-358l444 719l-408 649l373 59l256 -448z" />
    <glyph glyph-name="uni04B3" unicode="&#x4b3;" horiz-adv-x="1050" 
d="M676 1004h293l-289 -474l168 -278h188v-526l-288 -37v311h-91l-165 303l-166 -303h-295l303 496l-289 483l324 39l155 -291z" />
    <glyph glyph-name="uni04B6" unicode="&#x4b6;" horiz-adv-x="1380" 
d="M96 1413h350v-493q0 -96 49 -138.5t150 -42.5q91 0 186 19v655h353v-1106h164v-600l-334 -39v332h-183v459q-161 -23 -245 -23q-244 0 -367 108.5t-123 340.5v528z" />
    <glyph glyph-name="uni04B7" unicode="&#x4b7;" horiz-adv-x="1120" 
d="M76 1004h309v-326q0 -72 38 -103.5t124 -31.5q63 0 102 8v453h309v-752h132v-526l-289 -37v311h-152v291q-108 -19 -184 -19q-197 0 -293 90.5t-96 286.5v355z" />
    <glyph glyph-name="uni04B8" unicode="&#x4b8;" horiz-adv-x="1341" 
d="M721 152h-133v284h-2q-244 0 -367 108.5t-123 340.5v528h350v-493q0 -83 36 -125.5t110 -53.5v340h127v-342q53 2 141 19v655h352v-1413h-352v459q-82 -14 -139 -19v-288z" />
    <glyph glyph-name="uni04B9" unicode="&#x4b9;" horiz-adv-x="1134" 
d="M487 74v198h-22q-197 0 -293 90.5t-96 286.5v355h309v-326q0 -61 25.5 -92.5t83.5 -38.5v239h116v-243h6q64 0 103 8v453h309v-1004h-309v291q-50 -10 -109 -17v-200h-123z" />
    <glyph glyph-name="uni04BA" unicode="&#x4ba;" horiz-adv-x="1312" 
d="M1214 0h-350v494q0 96 -48.5 138t-149.5 42q-92 0 -187 -19v-655h-352v1413h352v-459q161 23 246 23q244 0 366.5 -108.5t122.5 -340.5v-528z" />
    <glyph glyph-name="uni04BB" unicode="&#x4bb;" horiz-adv-x="1099" 
d="M999 0h-311v629q0 121 -102 121q-79 0 -170 -91v-659h-310v1430l310 49v-600q71 69 142 107t157 38q138 0 211 -81t73 -230v-713z" />
    <glyph glyph-name="uni04C0" unicode="&#x4c0;" horiz-adv-x="624" 
d="M487 0h-350v1413h350v-1413z" />
    <glyph glyph-name="uni04C1" unicode="&#x4c1;" horiz-adv-x="1976" 
d="M422 1427l399 -618l-8 604h352l-10 -618l406 618h393l-461 -661l473 -709l-375 -57l-436 686l10 -672h-352l8 682l-413 -682h-394l471 735l-438 635zM1317 1794q-21 -132 -103 -205t-223 -73q-140 0 -221 72.5t-102 205.5l170 27q23 -62 58 -88.5t95 -26.5t95.5 26.5
t58.5 88.5z" />
    <glyph glyph-name="uni04C2" unicode="&#x4c2;" horiz-adv-x="1550" 
d="M344 0h-330l330 516l-315 457l319 45l277 -447l-4 433h309l-6 -435l268 435h332l-316 -474l330 -499l-321 -45l-293 487l6 -473h-309l4 475zM1100 1397q-21 -133 -103 -206t-223 -73q-140 0 -221 73t-102 206l170 26q23 -62 58 -88t95 -26t95.5 26t58.5 88z" />
    <glyph glyph-name="uni04CF" unicode="&#x4cf;" horiz-adv-x="536" 
d="M424 0h-311v1430l311 49v-1479z" />
    <glyph glyph-name="uni04D0" unicode="&#x4d0;" horiz-adv-x="1437" 
d="M27 0l508 1419h385l491 -1376l-354 -57l-105 307h-487l-94 -293h-344zM1049 1815q-21 -133 -103 -206t-223 -73q-140 0 -221.5 73t-102.5 206l170 26q23 -62 58.5 -88.5t95.5 -26.5t95.5 26.5t58.5 88.5zM709 1059l-160 -492h317z" />
    <glyph glyph-name="uni04D1" unicode="&#x4d1;" horiz-adv-x="1038" 
d="M940 0h-274l-21 125q-138 -145 -315 -145q-123 0 -198 72.5t-75 205.5q0 175 138 264.5t436 116.5v18q0 65 -37.5 96t-114.5 31q-154 0 -323 -75l-37 233q191 78 407 78q213 0 313.5 -80.5t100.5 -267.5v-672zM631 276v213q-149 -23 -209 -70.5t-60 -119.5q0 -46 27 -72
t72 -26q86 0 170 75zM850 1397q-21 -133 -103 -206t-223 -73q-140 0 -221 73t-102 206l170 26q23 -62 58 -88t95 -26t95.5 26t58.5 88z" />
    <glyph glyph-name="uni04D2" unicode="&#x4d2;" horiz-adv-x="1437" 
d="M27 0l508 1419h385l491 -1376l-354 -57l-105 307h-487l-94 -293h-344zM709 1059l-160 -492h317zM1059 1540h-266v268h266v-268zM653 1540h-266v268h266v-268z" />
    <glyph glyph-name="uni04D3" unicode="&#x4d3;" horiz-adv-x="1038" 
d="M940 0h-274l-21 125q-138 -145 -315 -145q-123 0 -198 72.5t-75 205.5q0 175 138 264.5t436 116.5v18q0 65 -37.5 96t-114.5 31q-154 0 -323 -75l-37 233q191 78 407 78q213 0 313.5 -80.5t100.5 -267.5v-672zM631 276v213q-149 -23 -209 -70.5t-60 -119.5q0 -46 27 -72
t72 -26q86 0 170 75zM860 1122h-266v269h266v-269zM455 1122h-267v269h267v-269z" />
    <glyph glyph-name="uni04D4" unicode="&#x4d4;" horiz-adv-x="1857" 
d="M2 0l694 1413h1073v-283h-536v-266h409l46 -280h-455v-299h555v-285h-885v293h-403l-138 -293h-360zM623 567h280v613z" />
    <glyph glyph-name="uni04D5" unicode="&#x4d5;" horiz-adv-x="1599" 
d="M1538 504q0 -52 -4 -80h-604q22 -219 246 -219q154 0 329 106l33 -219q-174 -112 -399 -112q-261 0 -398 149q-179 -149 -368 -149q-142 0 -229 70.5t-87 205.5q0 172 136.5 263.5t431.5 119.5v18q0 66 -35 96.5t-111 30.5q-154 0 -323 -75l-37 233q191 78 391 78
q121 0 193 -31t116 -102q115 137 291 137q107 0 190 -40t134.5 -111t77.5 -164.5t26 -204.5zM1243 594q-6 113 -46.5 171t-111.5 58q-65 0 -107 -58.5t-48 -170.5h313zM653 283q-30 102 -30 202v2q-144 -23 -202.5 -70.5t-58.5 -113.5q0 -102 107 -102q93 0 184 82z" />
    <glyph glyph-name="uni04D6" unicode="&#x4d6;" 
d="M1028 0h-899v1413h881v-283h-537v-266h410l45 -280h-455v-299h555v-285zM901 1794q-21 -132 -103 -205t-223 -73q-140 0 -221 72.5t-102 205.5l170 27q23 -62 58 -88.5t95 -26.5t95.5 26.5t58.5 88.5z" />
    <glyph glyph-name="uni04D7" unicode="&#x4d7;" horiz-adv-x="1034" 
d="M973 92q-174 -112 -400 -112q-236 0 -376 130.5t-140 387.5q0 242 132.5 384t340.5 142q113 0 199.5 -40t139.5 -111.5t79.5 -164.5t26.5 -204q0 -48 -4 -80h-606q22 -219 247 -219q152 0 330 106zM860 1397q-21 -133 -102.5 -206t-222.5 -73q-140 0 -221.5 73
t-102.5 206l170 26q23 -62 58.5 -88t95.5 -26t95 26t58 88zM522 823q-68 0 -110.5 -58t-49.5 -171h318q-15 229 -158 229z" />
    <glyph glyph-name="uni04D8" unicode="&#x4d8;" horiz-adv-x="1411" 
d="M614 1145q-122 0 -230.5 -31.5t-242.5 -105.5l-37 286q241 146 533 146q320 0 507 -192.5t187 -538.5q0 -168 -47.5 -306.5t-132 -232.5t-202.5 -145.5t-257 -51.5q-147 0 -261.5 53t-186.5 149.5t-109 228t-37 292.5q0 104 6 148h869q-23 138 -120 219.5t-239 81.5z
M707 244q117 0 191.5 95.5t80.5 268.5h-533q6 -364 261 -364z" />
    <glyph glyph-name="uni04D9" unicode="&#x4d9;" horiz-adv-x="1034" 
d="M61 911q181 113 400 113q115 0 208 -31.5t162.5 -93.5t107.5 -162t38 -231q0 -241 -132 -383.5t-339 -142.5q-112 0 -198.5 39.5t-139.5 111t-80 166.5t-27 211q0 66 5 84h604q-28 207 -248 207q-150 0 -330 -107zM514 182q65 0 109.5 60.5t48.5 179.5h-316
q3 -121 44 -180.5t114 -59.5z" />
    <glyph glyph-name="uni04DC" unicode="&#x4dc;" horiz-adv-x="1976" 
d="M422 1427l399 -618l-8 604h352l-10 -618l406 618h393l-461 -661l473 -709l-375 -57l-436 686l10 -672h-352l8 682l-413 -682h-394l471 735l-438 635zM922 1520h-267v268h267v-268zM1327 1520h-266v268h266v-268z" />
    <glyph glyph-name="uni04DD" unicode="&#x4dd;" horiz-adv-x="1550" 
d="M344 0h-330l330 516l-315 457l319 45l277 -447l-4 433h309l-6 -435l268 435h332l-316 -474l330 -499l-321 -45l-293 487l6 -473h-309l4 475zM705 1122h-267v269h267v-269zM1110 1122h-266v269h266v-269z" />
    <glyph glyph-name="uni04DE" unicode="&#x4de;" horiz-adv-x="1171" 
d="M1092 395q0 -198 -149.5 -309t-397.5 -111q-250 0 -473 107l45 287q224 -109 409 -109q107 0 167.5 43.5t60.5 120.5q0 84 -69.5 124t-227.5 40h-154l-41 270h199q134 0 200 41.5t66 114.5q0 67 -53 104t-154 37q-181 0 -381 -119l-45 281q204 121 479 121
q232 0 364 -100t132 -275q0 -234 -248 -328q271 -84 271 -340zM918 1540h-267v268h267v-268zM512 1540h-266v268h266v-268z" />
    <glyph glyph-name="uni04DF" unicode="&#x4df;" horiz-adv-x="989" 
d="M903 752q0 -162 -172 -232q195 -65 195 -244q0 -136 -115.5 -216t-339.5 -80q-218 0 -410 88l39 241q201 -88 363 -88q158 0 158 92q0 93 -162 93h-185l-38 208h217q76 0 112.5 23.5t36.5 64.5q0 82 -156 82q-141 0 -329 -73l-37 237q191 74 403 74t316 -73.5t104 -196.5
zM424 1122h-266v269h266v-269zM829 1122h-266v269h266v-269z" />
    <glyph glyph-name="uni04E2" unicode="&#x4e2;" horiz-adv-x="1458" 
d="M1038 1532h-622v215h622v-215zM451 0h-322v1413h344v-835l506 835h350v-1413h-342v879z" />
    <glyph glyph-name="uni04E3" unicode="&#x4e3;" horiz-adv-x="1146" 
d="M883 1141h-623v215h623v-215zM106 0v1004h300v-539l323 539h311v-1004h-299v571l-346 -571h-289z" />
    <glyph glyph-name="uni04E4" unicode="&#x4e4;" horiz-adv-x="1458" 
d="M1063 1513h-266v269h266v-269zM657 1513h-266v269h266v-269zM451 0h-322v1413h344v-835l506 835h350v-1413h-342v879z" />
    <glyph glyph-name="uni04E5" unicode="&#x4e5;" horiz-adv-x="1146" 
d="M907 1122h-266v269h266v-269zM502 1122h-266v269h266v-269zM106 0v1004h300v-539l323 539h311v-1004h-299v571l-346 -571h-289z" />
    <glyph glyph-name="uni04E6" unicode="&#x4e6;" horiz-adv-x="1505" 
d="M1087 1540h-266v268h266v-268zM682 1540h-266v268h266v-268zM1427 709q0 -217 -82.5 -383.5t-237 -259.5t-357.5 -93q-303 0 -487.5 202t-184.5 530q0 330 185 532.5t491 202.5q202 0 355.5 -91.5t235.5 -257t82 -382.5zM1075 707q0 213 -85 335.5t-238 122.5
q-151 0 -237.5 -123t-86.5 -335t86.5 -335.5t237.5 -123.5q152 0 237.5 123t85.5 336z" />
    <glyph glyph-name="uni04E7" unicode="&#x4e7;" horiz-adv-x="1079" 
d="M874 1122h-266v269h266v-269zM469 1122h-266v269h266v-269zM1022 502q0 -238 -136 -380t-349 -142q-211 0 -345.5 141.5t-134.5 378.5q0 238 135.5 381t346.5 143q213 0 348 -142t135 -380zM723 500q0 124 -48 198t-136 74t-135.5 -72.5t-47.5 -197.5q0 -124 48.5 -198.5
t134.5 -74.5q88 0 136 73.5t48 197.5z" />
    <glyph glyph-name="uni04E8" unicode="&#x4e8;" horiz-adv-x="1505" 
d="M1427 709q0 -217 -82.5 -383.5t-237 -259.5t-357.5 -93q-303 0 -487.5 202t-184.5 530q0 330 185 532.5t491 202.5q202 0 355.5 -91.5t235.5 -257t82 -382.5zM752 244q140 0 227.5 87t110.5 244h-674q23 -157 110.5 -244t225.5 -87zM752 1169q-137 0 -224 -85.5
t-112 -237.5h671q-25 153 -111 238t-224 85z" />
    <glyph glyph-name="uni04E9" unicode="&#x4e9;" horiz-adv-x="1079" 
d="M1020 502q0 -237 -135 -379.5t-348 -142.5q-212 0 -346 142t-134 378q0 237 135.5 380.5t348.5 143.5q212 0 345.5 -142.5t133.5 -379.5zM539 801q-83 0 -137.5 -53t-69.5 -154h416q-17 101 -71 154t-138 53zM539 201q83 0 137.5 51.5t71.5 150.5h-416q17 -98 71.5 -150
t135.5 -52z" />
    <glyph glyph-name="uni04EE" unicode="&#x4ee;" horiz-adv-x="1372" 
d="M1368 1413l-526 -1124q-78 -168 -180.5 -241t-258.5 -73q-107 0 -196 21l-45 295q99 -23 162 -23q80 0 129 32t82 114l-492 958l383 55l303 -671l275 657h364zM1038 1532h-622v215h622v-215z" />
    <glyph glyph-name="uni04EF" unicode="&#x4ef;" horiz-adv-x="1044" 
d="M1028 1004l-358 -1029q-66 -192 -164 -270t-262 -78q-58 0 -121 13l-41 249q56 -16 123 -16q123 0 170 104l8 21l-365 981l332 39l193 -631l182 617h303zM856 1141h-623v215h623v-215z" />
    <glyph glyph-name="uni04F0" unicode="&#x4f0;" horiz-adv-x="1372" 
d="M1368 1413l-526 -1124q-78 -168 -180.5 -241t-258.5 -73q-107 0 -196 21l-45 295q99 -23 162 -23q80 0 129 32t82 114l-492 958l383 55l303 -671l275 657h364zM657 1513h-266v269h266v-269zM1063 1513h-266v269h266v-269z" />
    <glyph glyph-name="uni04F1" unicode="&#x4f1;" horiz-adv-x="1044" 
d="M1028 1004l-358 -1029q-66 -192 -164 -270t-262 -78q-58 0 -121 13l-41 249q56 -16 123 -16q123 0 170 104l8 21l-365 981l332 39l193 -631l182 617h303zM881 1122h-267v269h267v-269zM475 1122h-266v269h266v-269z" />
    <glyph glyph-name="uni04F2" unicode="&#x4f2;" horiz-adv-x="1372" 
d="M1368 1413l-526 -1124q-78 -168 -180.5 -241t-258.5 -73q-107 0 -196 21l-45 295q99 -23 162 -23q80 0 129 32t82 114l-492 958l383 55l303 -671l275 657h364zM1239 1759l-274 -246h-193l100 234l-260 -234h-192l131 308l328 -62l26 62z" />
    <glyph glyph-name="uni04F3" unicode="&#x4f3;" horiz-adv-x="1044" 
d="M1028 1004l-358 -1029q-66 -192 -164 -270t-262 -78q-58 0 -121 13l-41 249q56 -16 123 -16q123 0 170 104l8 21l-365 981l332 39l193 -631l182 617h303zM1059 1368l-275 -246h-192l100 234l-260 -234h-192l131 308l327 -62l27 62z" />
    <glyph glyph-name="uni04F4" unicode="&#x4f4;" horiz-adv-x="1312" 
d="M973 1513h-266v269h266v-269zM567 1513h-266v269h266v-269zM96 1413h350v-493q0 -96 49 -138.5t150 -42.5q91 0 186 19v655h353v-1413h-353v459q-161 -23 -245 -23q-244 0 -367 108.5t-123 340.5v528z" />
    <glyph glyph-name="uni04F5" unicode="&#x4f5;" horiz-adv-x="1064" 
d="M858 1122h-266v269h266v-269zM453 1122h-267v269h267v-269zM76 1004h309v-326q0 -72 38 -103.5t124 -31.5q63 0 102 8v453h309v-1004h-309v291q-108 -19 -184 -19q-197 0 -293 90.5t-96 286.5v355z" />
    <glyph glyph-name="uni04F8" unicode="&#x4f8;" horiz-adv-x="1757" 
d="M1210 1513h-266v269h266v-269zM805 1513h-266v269h266v-269zM1133 481q0 -237 -151 -359t-419 -122h-434v1413h350v-463h107q255 0 401 -120.5t146 -348.5zM793 477q0 209 -242 209h-76v-422h74q244 0 244 213zM1624 0h-352v1413h352v-1413z" />
    <glyph glyph-name="uni04F9" unicode="&#x4f9;" horiz-adv-x="1490" 
d="M1079 1122h-266v269h266v-269zM674 1122h-266v269h266v-269zM1384 0h-311v1004h311v-1004zM954 365q0 -173 -120 -269t-338 -96h-390v1004h308v-291h116q208 0 316 -90t108 -258zM664 356q0 150 -170 150h-80v-297h75q87 0 131 39.5t44 107.5z" />
    <glyph glyph-name="Wgrave" unicode="&#x1e80;" horiz-adv-x="2027" 
d="M1991 1413l-385 -1415h-355l-243 913l-244 -913h-352l-373 1370l379 59l213 -899l229 885h352l230 -885l200 885h349zM1163 1518h-205l-299 247l379 62z" />
    <glyph glyph-name="wgrave" unicode="&#x1e81;" horiz-adv-x="1484" 
d="M1464 1004l-280 -1006h-297l-146 573l-143 -573h-299l-274 981l319 39l137 -604l142 590h278l143 -588l132 588h288zM887 1120h-205l-299 248l379 62z" />
    <glyph glyph-name="Wacute" unicode="&#x1e82;" horiz-adv-x="2027" 
d="M1407 1765l-301 -247h-197l123 309zM1991 1413l-385 -1415h-355l-243 913l-244 -913h-352l-373 1370l379 59l213 -899l229 885h352l230 -885l200 885h349z" />
    <glyph glyph-name="wacute" unicode="&#x1e83;" horiz-adv-x="1484" 
d="M1130 1368l-301 -248h-196l123 310zM1464 1004l-280 -1006h-297l-146 573l-143 -573h-299l-274 981l319 39l137 -604l142 590h278l143 -588l132 588h288z" />
    <glyph glyph-name="Wdieresis" unicode="&#x1e84;" horiz-adv-x="2027" 
d="M1370 1520h-266v268h266v-268zM965 1520h-267v268h267v-268zM1991 1413l-385 -1415h-355l-243 913l-244 -913h-352l-373 1370l379 59l213 -899l229 885h352l230 -885l200 885h349z" />
    <glyph glyph-name="wdieresis" unicode="&#x1e85;" horiz-adv-x="1484" 
d="M1094 1122h-267v269h267v-269zM688 1122h-266v269h266v-269zM1464 1004l-280 -1006h-297l-146 573l-143 -573h-299l-274 981l319 39l137 -604l142 590h278l143 -588l132 588h288z" />
    <glyph glyph-name="Ygrave" unicode="&#x1ef2;" horiz-adv-x="1372" 
d="M1370 1413l-510 -893v-520h-350v516l-490 860l373 51l307 -585l297 571h373zM829 1511h-204l-299 248l379 62z" />
    <glyph glyph-name="ygrave" unicode="&#x1ef3;" horiz-adv-x="1044" 
d="M1028 1004l-358 -1029q-66 -192 -164 -270t-262 -78q-58 0 -121 13l-41 249q56 -16 123 -16q123 0 170 104l8 21l-365 981l332 39l193 -631l182 617h303zM676 1120h-205l-299 248l379 62z" />
    <glyph glyph-name="uni2000" unicode="&#x2000;" horiz-adv-x="1042" 
 />
    <glyph glyph-name="uni2001" unicode="&#x2001;" horiz-adv-x="2085" 
 />
    <glyph glyph-name="uni2002" unicode="&#x2002;" horiz-adv-x="1024" 
 />
    <glyph glyph-name="uni2003" unicode="&#x2003;" horiz-adv-x="2048" 
 />
    <glyph glyph-name="uni2004" unicode="&#x2004;" horiz-adv-x="681" 
 />
    <glyph glyph-name="uni2005" unicode="&#x2005;" horiz-adv-x="512" 
 />
    <glyph glyph-name="uni2006" unicode="&#x2006;" horiz-adv-x="347" 
 />
    <glyph glyph-name="uni2007" unicode="&#x2007;" horiz-adv-x="347" 
 />
    <glyph glyph-name="uni2008" unicode="&#x2008;" horiz-adv-x="260" 
 />
    <glyph glyph-name="uni2009" unicode="&#x2009;" horiz-adv-x="272" 
 />
    <glyph glyph-name="uni200A" unicode="&#x200a;" horiz-adv-x="153" 
 />
    <glyph glyph-name="uni2010" unicode="&#x2010;" horiz-adv-x="724" 
d="M643 449h-559v294h559v-294z" />
    <glyph glyph-name="uni2011" unicode="&#x2011;" horiz-adv-x="724" 
d="M643 449h-559v294h559v-294z" />
    <glyph glyph-name="figuredash" unicode="&#x2012;" horiz-adv-x="724" 
d="M643 449h-559v294h559v-294z" />
    <glyph glyph-name="endash" unicode="&#x2013;" horiz-adv-x="929" 
d="M846 451h-762v288h762v-288z" />
    <glyph glyph-name="emdash" unicode="&#x2014;" horiz-adv-x="1859" 
d="M1776 453h-1692v284h1692v-284z" />
    <glyph glyph-name="quoteleft" unicode="&#x2018;" horiz-adv-x="530" 
d="M442 1389l-45 -603h-350l207 646z" />
    <glyph glyph-name="quoteright" unicode="&#x2019;" horiz-adv-x="530" 
d="M481 1413l-205 -645l-188 43l43 602h350z" />
    <glyph glyph-name="quotesinglbase" unicode="&#x201a;" horiz-adv-x="530" 
d="M471 352l-207 -645l-188 43l45 602h350z" />
    <glyph glyph-name="quotedblleft" unicode="&#x201c;" horiz-adv-x="985" 
d="M436 1389l-43 -603h-346l207 646zM897 1389l-43 -603h-344l205 646z" />
    <glyph glyph-name="quotedblright" unicode="&#x201d;" horiz-adv-x="985" 
d="M475 1413l-205 -645l-182 43l43 602h344zM938 1413l-205 -645l-184 43l45 602h344z" />
    <glyph glyph-name="quotedblbase" unicode="&#x201e;" horiz-adv-x="985" 
d="M465 352l-205 -645l-184 43l45 602h344zM926 352l-205 -645l-182 43l43 602h344z" />
    <glyph glyph-name="dagger" unicode="&#x2020;" horiz-adv-x="1048" 
d="M664 1251l-105 -276h-70l-102 276v162h277v-162zM969 764h-86l-277 96v68l277 96h86v-260zM442 860l-276 -96h-86v260h86l276 -96v-68zM637 23l-82 -256h-63l-82 256v548l79 244h70l78 -244v-548z" />
    <glyph glyph-name="daggerdbl" unicode="&#x2021;" horiz-adv-x="1087" 
d="M682 1251l-104 -276h-70l-102 276v162h276v-162zM987 772h-86l-276 88v68l276 90h86v-246zM461 860l-277 -88h-86v246h86l277 -90v-68zM670 471l-92 -244h-70l-92 244v100l92 244h70l92 -244v-100zM987 25h-86l-276 88v67l276 90h86v-245zM461 113l-277 -88h-86v245h86
l277 -90v-67zM682 -373h-276v162l102 279h70l104 -279v-162z" />
    <glyph glyph-name="bullet" unicode="&#x2022;" horiz-adv-x="987" 
d="M844 705l-49 -320l-301 -47l-299 47l-52 320l52 321l299 47l301 -47z" />
    <glyph glyph-name="ellipsis" unicode="&#x2026;" horiz-adv-x="1595" 
d="M1491 0h-328v350h328v-350zM961 0h-326v350h326v-350zM432 0h-328v350h328v-350z" />
    <glyph glyph-name="uni202F" unicode="&#x202f;" horiz-adv-x="417" 
 />
    <glyph glyph-name="guilsinglleft" unicode="&#x2039;" horiz-adv-x="681" 
d="M608 1004l-223 -502l211 -477l-201 -43l-350 520l340 502h223z" />
    <glyph glyph-name="guilsinglright" unicode="&#x203a;" horiz-adv-x="681" 
d="M637 500l-340 -500h-223l221 500l-209 477l199 43z" />
    <glyph glyph-name="fraction" unicode="&#x2044;" horiz-adv-x="552" 
d="M-78 -29l-139 37l436 699l412 694l139 -37l-438 -698z" />
    <glyph glyph-name="uni205F" unicode="&#x205f;" horiz-adv-x="521" 
 />
    <glyph glyph-name="Euro" unicode="&#x20ac;" horiz-adv-x="1247" 
d="M51 778v158h180q57 219 210 345t384 126q206 0 353 -80l-45 -272q-71 41 -134.5 60.5t-144.5 19.5q-99 0 -169.5 -51.5t-104.5 -147.5h397l27 -158h-455q-2 -29 -2 -86q0 -46 2 -69h440v-158h-414q67 -215 302 -215q136 0 280 80l43 -264q-183 -89 -373 -89
q-252 0 -405 126t-199 362h-160l-24 158h166q-2 23 -2 67q0 30 4 88h-156z" />
    <glyph glyph-name="uni20B4" unicode="&#x20b4;" horiz-adv-x="1193" 
d="M1157 866l-24 -151l-283 28l-131 -125l397 -40v-156l-536 55q-58 -58 -78.5 -90.5t-20.5 -64.5q0 -97 144 -97q147 0 352 109l41 -246q-224 -113 -461 -113q-211 0 -317.5 83.5t-106.5 228.5q0 112 88 227l-184 21l24 151l295 -31l131 125l-407 43v156l545 -57
q45 45 65.5 78t20.5 67q0 92 -133 92q-138 0 -338 -88l-41 250q216 88 426 88q215 0 323.5 -82.5t108.5 -226.5q0 -110 -76 -215z" />
    <glyph glyph-name="trademark" unicode="&#x2122;" horiz-adv-x="1662" 
d="M1591 707h-196l-29 442l-131 -447h-176l-131 447l-31 -442h-168l53 706h246l137 -461l138 461h235zM682 1260h-223v-553h-191v553h-211v153h602z" />
    <glyph glyph-name="uni25FC" unicode="&#x25fc;" horiz-adv-x="1013" 
d="M0 1014h1014v-1014h-1014v1014z" />
    <glyph glyph-name="uniFB00" unicode="&#xfb00;" horiz-adv-x="1423" 
d="M709 1219q-73 10 -111 10q-123 0 -123 -123v-102h182l37 -252h-219v-752h-309v752h-139v252h139v131q0 333 381 333q51 0 125 -12zM1432 1219q-73 10 -111 10q-123 0 -123 -123v-102h182l37 -252h-219v-752h-309v752h-139v252h139v131q0 333 381 333q51 0 125 -12z" />
    <glyph glyph-name="fi" unicode="&#xfb01;" horiz-adv-x="1234" 
d="M1143 1300q0 -74 -50 -119.5t-126 -45.5q-75 0 -125.5 45.5t-50.5 119.5q0 75 50.5 122.5t125.5 47.5q76 0 126 -47t50 -123zM1122 0h-311v1004h311v-1004zM709 1219q-73 10 -111 10q-123 0 -123 -123v-102h182l37 -252h-219v-752h-309v752h-139v252h139v131
q0 333 381 333q51 0 125 -12z" />
    <glyph glyph-name="fl" unicode="&#xfb02;" horiz-adv-x="1234" 
d="M1122 0h-311v1430l311 49v-1479zM709 1219q-73 10 -111 10q-123 0 -123 -123v-102h182l37 -252h-219v-752h-309v752h-139v252h139v131q0 333 381 333q51 0 125 -12z" />
    <glyph glyph-name="uniFB03" unicode="&#xfb03;" horiz-adv-x="1959" 
d="M1866 1300q0 -74 -50 -119.5t-126 -45.5q-75 0 -126 45.5t-51 119.5q0 75 51 122.5t126 47.5q76 0 126 -47t50 -123zM1845 0h-311v1004h311v-1004zM709 1219q-73 10 -111 10q-123 0 -123 -123v-102h182l37 -252h-219v-752h-309v752h-139v252h139v131q0 333 381 333
q51 0 125 -12zM1432 1219q-73 10 -111 10q-123 0 -123 -123v-102h182l37 -252h-219v-752h-309v752h-139v252h139v131q0 333 381 333q51 0 125 -12z" />
    <glyph glyph-name="uniFB04" unicode="&#xfb04;" horiz-adv-x="1959" 
d="M1845 0h-311v1430l311 49v-1479zM709 1219q-73 10 -111 10q-123 0 -123 -123v-102h182l37 -252h-219v-752h-309v752h-139v252h139v131q0 333 381 333q51 0 125 -12zM1432 1219q-73 10 -111 10q-123 0 -123 -123v-102h182l37 -252h-219v-752h-309v752h-139v252h139v131
q0 333 381 333q51 0 125 -12z" />
    <glyph glyph-name="glyph600" horiz-adv-x="1812" 
d="M1683 0h-333v934l-310 -940h-307l-307 940v-934h-297v1413h469l315 -964l314 964h456v-1413z" />
    <glyph glyph-name="glyph601" horiz-adv-x="1529" 
d="M1479 291l-60 -320l-221 174q-182 -165 -448 -165q-202 0 -355 90t-236 254.5t-83 380.5q0 330 186 532.5t492 202.5q208 0 361.5 -93t232.5 -254.5t79 -371.5q0 -192 -69 -348zM1081 715q0 207 -86 328.5t-239 121.5q-155 0 -241.5 -123t-86.5 -337t87 -337.5
t241 -123.5q126 0 209 86l-312 235l348 78l72 -57q8 82 8 129z" />
    <glyph glyph-name="glyph602" horiz-adv-x="1429" 
d="M1006 0l-21 135q-105 -74 -205.5 -111.5t-214.5 -37.5q-210 0 -326 110t-116 346v971h352v-921q0 -207 193 -207q128 0 282 116v1012h350v-1413h-294z" />
    <glyph glyph-name="glyph603" horiz-adv-x="2070" 
d="M2044 1413l-459 -1419h-352l-203 608l-213 -608h-344l-444 1376l370 57l295 -976l197 561l-115 362l373 58l274 -981l271 962h350z" />
    <glyph glyph-name="glyph604" horiz-adv-x="1107" 
d="M1001 61q0 -215 -122 -324.5t-363 -109.5q-201 0 -389 74l45 233q151 -77 305 -77q215 0 215 194v86q-61 -58 -124 -92.5t-144 -34.5q-163 0 -263 122t-100 357q0 263 135 395t373 132q245 0 432 -72v-883zM692 369v379q-53 18 -114 18q-95 0 -150 -63t-55 -199
q0 -116 40 -174t109 -58q77 0 170 97z" />
    <glyph glyph-name="glyph605" horiz-adv-x="1812" 
d="M1683 0h-333v934l-310 -940h-307l-307 940v-934h-297v1413h469l315 -964l314 964h456v-1413z" />
    <glyph glyph-name="glyph606" horiz-adv-x="1587" 
d="M29 307h133l424 1112h415l424 -1112h134v-600l-334 -39v332h-865v-317h-331v624zM782 1061l-286 -787h571z" />
    <glyph glyph-name="glyph607" horiz-adv-x="1429" 
d="M27 0l505 1421h379l494 -1378l-375 -57l-328 993l-313 -979h-362z" />
    <glyph glyph-name="glyph608" horiz-adv-x="1429" 
d="M27 0l505 1421h379l494 -1378l-375 -57l-328 993l-313 -979h-362z" />
    <glyph glyph-name="glyph609" horiz-adv-x="1812" 
d="M1683 0h-333v934l-310 -940h-307l-307 940v-934h-297v1413h469l315 -964l314 964h456v-1413z" />
    <glyph glyph-name="glyph610" horiz-adv-x="1853" 
d="M1102 -197h-350v195q-307 26 -491.5 217.5t-184.5 489.5t184 489t492 219v191h350v-189q309 -26 493.5 -217t184.5 -489q0 -297 -185 -490t-493 -219v-197zM1432 707q0 182 -91 298t-249 138v-875q158 23 249 140t91 299zM424 707q0 -183 90 -299.5t248 -139.5v875
q-159 -23 -248.5 -138.5t-89.5 -297.5z" />
    <glyph glyph-name="glyph611" horiz-adv-x="1153" 
d="M98 467v502q0 236 129 367.5t359 131.5q211 0 333.5 -108.5t122.5 -288.5q0 -257 -243 -348q134 -39 213.5 -127.5t79.5 -226.5q0 -172 -130.5 -280.5t-351.5 -108.5q-242 0 -377 130.5t-135 356.5zM492 604h-89v-133q0 -115 57.5 -181.5t157.5 -66.5q84 0 133.5 47
t49.5 119q0 98 -82 156.5t-227 58.5zM403 981v-158h84q125 0 195 62.5t70 163.5q0 80 -43.5 128t-116.5 48q-88 0 -138.5 -64.5t-50.5 -179.5z" />
    <glyph glyph-name="glyph612" horiz-adv-x="950" 
d="M59 289q0 129 77.5 203t258.5 129q117 37 155 60t38 58q0 66 -105 66q-152 0 -329 -96l-37 225q188 88 381 88q182 0 277 -80.5t95 -214.5q0 -130 -72 -202t-253 -126q-121 -36 -161 -60t-40 -63q0 -36 32 -56.5t95 -20.5q84 0 186.5 32.5t192.5 87.5l37 -225
q-208 -112 -430 -112q-194 0 -296 80.5t-102 226.5z" />
    <glyph glyph-name="glyph613" horiz-adv-x="1265" 
d="M963 -311v311h-660v-293h-285v545h125l295 756h389l293 -756h127v-526zM627 731l-189 -493h377z" />
    <glyph glyph-name="glyph614" horiz-adv-x="1107" 
d="M1001 61q0 -215 -122 -324.5t-363 -109.5q-201 0 -389 74l45 233q151 -77 305 -77q215 0 215 194v86q-61 -58 -124 -92.5t-144 -34.5q-163 0 -263 122t-100 357q0 263 135 395t373 132q245 0 432 -72v-883zM692 369v379q-53 18 -114 18q-95 0 -150 -63t-55 -199
q0 -116 40 -174t109 -58q77 0 170 97z" />
    <glyph glyph-name="glyph615" horiz-adv-x="1550" 
d="M344 0h-330l330 516l-315 457l319 45l279 -449l-6 861l309 49l-6 -910l268 435h332l-316 -474l330 -499l-321 -45l-293 487l6 -473h-309l4 475z" />
    <glyph glyph-name="glyph616" horiz-adv-x="1099" 
d="M993 0h-272l-23 137q-77 -76 -151.5 -116.5t-161.5 -40.5q-138 0 -211.5 81t-73.5 228v715h310v-629q0 -123 104 -123q80 0 170 90v662h309v-1004z" />
    <glyph glyph-name="glyph617" horiz-adv-x="1099" 
d="M993 0h-272l-23 137q-77 -76 -151.5 -116.5t-161.5 -40.5q-138 0 -211.5 81t-73.5 228v715h310v-629q0 -123 104 -123q80 0 170 90v662h309v-1004zM872 1397q-21 -133 -102.5 -206t-222.5 -73q-140 0 -221.5 73t-102.5 206l170 26q23 -62 58.5 -88t95.5 -26t95 26t58 88z
" />
    <glyph glyph-name="glyph618" horiz-adv-x="1034" 
d="M1028 31l-323 -45l-289 483v-469h-310v1430l310 49v-885l264 410h340l-320 -461z" />
    <glyph glyph-name="glyph619" horiz-adv-x="1077" 
d="M16 0l369 1008h311l363 -983l-334 -39l-207 632l-201 -618h-301z" />
    <glyph glyph-name="glyph620" horiz-adv-x="1077" 
d="M16 0l369 1008h311l363 -983l-334 -39l-207 632l-201 -618h-301z" />
    <glyph glyph-name="glyph621" horiz-adv-x="1099" 
d="M999 0h-311v629q0 121 -102 121q-79 0 -170 -91v-659h-310v1004h273l22 -138q76 76 150.5 117t163.5 41q138 0 211 -81t73 -230v-713z" />
    <glyph glyph-name="glyph622" horiz-adv-x="1660" 
d="M1561 0h-312v629q0 121 -98 121q-73 0 -164 -88v-662h-309v629q0 121 -98 121q-73 0 -164 -88v-662h-310v1004h273l22 -138q75 77 148.5 117.5t163.5 40.5q185 0 250 -158q75 75 150.5 116.5t162.5 41.5q138 0 211.5 -81t73.5 -230v-713z" />
    <glyph glyph-name="glyph623" horiz-adv-x="1157" 
d="M836 -311v311h-115l-23 137q-77 -76 -151.5 -116.5t-161.5 -40.5q-138 0 -211.5 81t-73.5 228v715h310v-629q0 -123 104 -123q80 0 170 90v662h309v-752h131v-526z" />
    <glyph glyph-name="glyph624" horiz-adv-x="1660" 
d="M100 1004h310v-629q0 -123 100 -123q75 0 162 90v662h311v-629q0 -123 98 -123q74 0 164 90v662h309v-1004h-272l-22 137q-77 -77 -149.5 -117t-162.5 -40q-185 0 -250 157q-154 -157 -313 -157q-138 0 -211.5 81t-73.5 228v715z" />
    <glyph glyph-name="glyph625" horiz-adv-x="1718" 
d="M100 1004h310v-629q0 -123 100 -123q75 0 162 90v662h311v-629q0 -123 98 -123q74 0 164 90v662h309v-752h132v-526l-289 -37v311h-115l-22 137q-77 -77 -149.5 -117t-162.5 -40q-185 0 -250 157q-154 -157 -313 -157q-138 0 -211.5 81t-73.5 228v715z" />
    <glyph glyph-name="glyph626" horiz-adv-x="1533" 
d="M1477 502q0 -238 -131.5 -380t-341.5 -142q-176 0 -297.5 108t-153.5 297h-137v-385h-310v1430l310 49v-842h143q34 180 155 283.5t294 103.5q208 0 338.5 -142t130.5 -380zM1180 500q0 123 -44.5 196.5t-129.5 73.5t-127.5 -71.5t-42.5 -196.5q0 -124 43.5 -198.5
t126.5 -74.5q86 0 130 73.5t44 197.5z" />
    <glyph glyph-name="glyph627" horiz-adv-x="1107" 
d="M1001 61q0 -215 -122 -324.5t-363 -109.5q-201 0 -389 74l45 233q151 -77 305 -77q215 0 215 194v86q-61 -58 -124 -92.5t-144 -34.5q-163 0 -263 122t-100 357q0 263 135 395t373 132q245 0 432 -72v-883zM692 369v379q-53 18 -114 18q-95 0 -150 -63t-55 -199
q0 -116 40 -174t109 -58q77 0 170 97zM891 1397q-21 -133 -103 -206t-223 -73q-140 0 -221 73t-102 206l170 26q23 -62 58 -88t95 -26t95.5 26t58.5 88z" />
    <glyph glyph-name="glyph628" horiz-adv-x="1107" 
d="M735 1151l-248 -47q-92 83 -92 180q0 136 183 264l190 -39q-57 -66 -80.5 -113t-23.5 -93q0 -76 71 -152zM1001 61q0 -215 -122 -324.5t-363 -109.5q-201 0 -389 74l45 233q151 -77 305 -77q215 0 215 194v86q-61 -58 -124 -92.5t-144 -34.5q-163 0 -263 122t-100 357
q0 263 135 395t373 132q245 0 432 -72v-883zM692 369v379q-53 18 -114 18q-95 0 -150 -63t-55 -199q0 -116 40 -174t109 -58q77 0 170 97z" />
    <glyph glyph-name="glyph629" horiz-adv-x="1107" 
d="M1001 61q0 -215 -122 -324.5t-363 -109.5q-201 0 -389 74l45 233q151 -77 305 -77q215 0 215 194v86q-61 -58 -124 -92.5t-144 -34.5q-163 0 -263 122t-100 357q0 263 135 395t373 132q245 0 432 -72v-883zM692 369v379q-53 18 -114 18q-95 0 -150 -63t-55 -199
q0 -116 40 -174t109 -58q77 0 170 97zM705 1122h-277v269h277v-269z" />
    <glyph glyph-name="glyph630" horiz-adv-x="1429" 
d="M1083 1759l-301 -248h-196l123 310zM1006 0l-21 135q-105 -74 -205.5 -111.5t-214.5 -37.5q-210 0 -326 110t-116 346v971h352v-921q0 -207 193 -207q128 0 282 116v1012h350v-1413h-294z" />
    <glyph glyph-name="glyph631" horiz-adv-x="1429" 
d="M1006 0l-21 135q-105 -74 -205.5 -111.5t-214.5 -37.5q-210 0 -326 110t-116 346v971h352v-921q0 -207 193 -207q128 0 282 116v1012h350v-1413h-294zM1036 1776q-21 -133 -102.5 -206t-222.5 -73q-140 0 -221.5 73t-102.5 206l170 26q23 -62 58.5 -88t95.5 -26t95 26
t58 88z" />
    <glyph glyph-name="glyph632" horiz-adv-x="1429" 
d="M1059 1511h-197l-151 119l-152 -119h-197l205 301h287zM1006 0l-21 135q-105 -74 -205.5 -111.5t-214.5 -37.5q-210 0 -326 110t-116 346v971h352v-921q0 -207 193 -207q128 0 282 116v1012h350v-1413h-294z" />
    <glyph glyph-name="glyph633" horiz-adv-x="1429" 
d="M1047 1513h-267v269h267v-269zM641 1513h-266v269h266v-269zM1006 0l-21 135q-105 -74 -205.5 -111.5t-214.5 -37.5q-210 0 -326 110t-116 346v971h352v-921q0 -207 193 -207q128 0 282 116v1012h350v-1413h-294z" />
    <glyph glyph-name="glyph634" horiz-adv-x="1429" 
d="M840 1511h-205l-299 248l379 62zM1006 0l-21 135q-105 -74 -205.5 -111.5t-214.5 -37.5q-210 0 -326 110t-116 346v971h352v-921q0 -207 193 -207q128 0 282 116v1012h350v-1413h-294z" />
    <glyph glyph-name="glyph635" horiz-adv-x="1429" 
d="M1006 0l-21 135q-105 -74 -205.5 -111.5t-214.5 -37.5q-210 0 -326 110t-116 346v971h352v-921q0 -207 193 -207q128 0 282 116v1012h350v-1413h-294zM1225 1759l-275 -246h-192l100 234l-260 -234h-192l131 308l327 -62l27 62z" />
    <glyph glyph-name="glyph636" horiz-adv-x="1429" 
d="M1022 1532h-623v215h623v-215zM1006 0l-21 135q-105 -74 -205.5 -111.5t-214.5 -37.5q-210 0 -326 110t-116 346v971h352v-921q0 -207 193 -207q128 0 282 116v1012h350v-1413h-294z" />
    <glyph glyph-name="glyph637" horiz-adv-x="1429" 
d="M1006 0l-21 135q-105 -74 -205.5 -111.5t-214.5 -37.5q-210 0 -326 110t-116 346v971h352v-921q0 -207 193 -207q128 0 282 116v1012h350v-1413h-69l-31 -49q-49 -77 -49 -121q0 -61 72 -61q32 0 86 14v-152q-106 -47 -211 -47q-88 0 -137.5 42.5t-49.5 123.5
q0 94 117 250h-22z" />
    <glyph glyph-name="glyph638" horiz-adv-x="1429" 
d="M981 1708q0 -96 -70.5 -158.5t-199.5 -62.5t-200 62.5t-71 158.5q0 95 71.5 158t199.5 63t199 -63t71 -158zM813 1708q0 49 -28.5 84t-73.5 35t-74 -35t-29 -84q0 -50 29 -84.5t74 -34.5t73.5 34.5t28.5 84.5zM1006 0l-21 135q-105 -74 -205.5 -111.5t-214.5 -37.5
q-210 0 -326 110t-116 346v971h352v-921q0 -207 193 -207q128 0 282 116v1012h350v-1413h-294z" />
    <glyph glyph-name="glyph639" horiz-adv-x="2070" 
d="M2044 1413l-459 -1419h-352l-203 608l-213 -608h-344l-444 1376l370 57l295 -976l197 561l-115 362l373 58l274 -981l271 962h350zM1407 1765l-301 -247h-197l123 309z" />
    <glyph glyph-name="glyph640" horiz-adv-x="2070" 
d="M2044 1413l-459 -1419h-352l-203 608l-213 -608h-344l-444 1376l370 57l295 -976l197 561l-115 362l373 58l274 -981l271 962h350zM1380 1518h-196l-152 118l-151 -118h-197l205 301h287z" />
    <glyph glyph-name="glyph641" horiz-adv-x="2070" 
d="M2044 1413l-459 -1419h-352l-203 608l-213 -608h-344l-444 1376l370 57l295 -976l197 561l-115 362l373 58l274 -981l271 962h350zM965 1520h-267v268h267v-268zM1370 1520h-266v268h266v-268z" />
    <glyph glyph-name="glyph642" horiz-adv-x="2070" 
d="M2044 1413l-459 -1419h-352l-203 608l-213 -608h-344l-444 1376l370 57l295 -976l197 561l-115 362l373 58l274 -981l271 962h350zM1163 1518h-205l-299 247l379 62z" />
    <glyph glyph-name="glyph643" horiz-adv-x="1437" 
d="M27 0l508 1419h385l491 -1376l-354 -57l-105 307h-487l-94 -293h-344zM709 1059l-160 -492h317z" />
    <glyph glyph-name="glyph644" 
d="M1028 0h-899v1413h881v-283h-537v-266h410l45 -280h-455v-299h555v-285z" />
    <glyph glyph-name="glyph645" horiz-adv-x="1447" 
d="M1321 0h-352v573h-490v-573h-350v1413h350v-534h490v534h352v-1413z" />
    <glyph glyph-name="glyph646" horiz-adv-x="624" 
d="M487 0h-350v1413h350v-1413z" />
    <glyph glyph-name="glyph647" horiz-adv-x="1505" 
d="M1427 709q0 -217 -82.5 -383.5t-237 -259.5t-357.5 -93q-303 0 -487.5 202t-184.5 530q0 330 185 532.5t491 202.5q202 0 355.5 -91.5t235.5 -257t82 -382.5zM1075 707q0 213 -85 335.5t-238 122.5q-151 0 -237.5 -123t-86.5 -335t86.5 -335.5t237.5 -123.5
q152 0 237.5 123t85.5 336z" />
    <glyph glyph-name="glyph648" horiz-adv-x="1372" 
d="M1370 1413l-510 -893v-520h-350v516l-490 860l373 51l307 -585l297 571h373z" />
    <glyph glyph-name="glyph649" horiz-adv-x="1501" 
d="M117 272l215 -8q-244 240 -244 541q0 130 45.5 245t129 201.5t210 136.5t279.5 50q205 0 357 -85.5t228 -227.5t76 -320q0 -300 -248 -541l219 8v-272h-546l-27 246l72 80q94 108 141 215t47 245q0 167 -84 273t-235 106q-153 0 -237.5 -106t-84.5 -273q0 -138 47 -245
t141 -215l72 -80l-26 -246h-547v272z" />
    <glyph glyph-name="glyph650" horiz-adv-x="624" 
d="M487 0h-350v1413h350v-1413zM244 1520h-267v268h267v-268zM649 1520h-266v268h266v-268z" />
    <glyph glyph-name="glyph651" horiz-adv-x="1372" 
d="M1370 1413l-510 -893v-520h-350v516l-490 860l373 51l307 -585l297 571h373zM1036 1513h-266v269h266v-269zM631 1513h-266v269h266v-269z" />
    <glyph glyph-name="glyph652" horiz-adv-x="1957" 
d="M27 0l503 1421h377l166 -471h264q272 0 425 -119.5t153 -347.5q0 -235 -162.5 -359t-445.5 -124h-289l-320 977l-309 -977h-362zM1315 686h-150l150 -422h8q122 0 187 54t65 161q0 207 -260 207z" />
    <glyph glyph-name="glyph653" horiz-adv-x="1081" 
d="M895 1479l41 -260l-430 -58q-62 -8 -62 -41q0 -17 28 -36.5t118 -63.5q114 -57 191.5 -110.5t134 -119t82.5 -144t26 -177.5q0 -218 -137.5 -353.5t-354.5 -135.5q-218 0 -345.5 127t-127.5 329q0 271 267 434q-164 111 -164 258q0 118 77 188.5t238 96.5zM729 467
q0 188 -182 289q-94 -52 -143.5 -131t-49.5 -174q0 -100 50.5 -162t134.5 -62t137 66.5t53 173.5z" />
    <glyph glyph-name="glyph654" horiz-adv-x="1482" 
d="M713 0l-197 618l-199 -618h-301l365 1008h311l107 -295h219q209 0 317.5 -90t108.5 -258q0 -173 -120.5 -269t-338.5 -96h-272zM981 506h-109l107 -297q87 0 130.5 39.5t43.5 107.5q0 150 -172 150z" />
    <glyph glyph-name="glyph655" horiz-adv-x="1116" 
d="M1040 422q0 -204 -139 -326.5t-377 -122.5q-249 0 -461 107l46 270q189 -102 374 -102q111 0 169.5 45.5t58.5 132.5q0 174 -295 174h-113l-33 203l338 311h-481l-45 270h926v-247l-357 -320q186 -33 287.5 -125.5t101.5 -269.5z" />
    <glyph glyph-name="glyph656" horiz-adv-x="1249" 
d="M1210 276h-194v-276h-316v276h-647v230l588 893l297 -70l-553 -817h320v299l311 70v-369h194v-236z" />
    <glyph glyph-name="glyph657" horiz-adv-x="530" 
d="M113 352h317q27 -86 27 -172q0 -122 -60.5 -241t-193.5 -248l-172 73q114 202 114 379q0 97 -32 209z" />
    <glyph glyph-name="glyph658" horiz-adv-x="548" 
d="M449 655h-332v349h332v-349zM113 348h317q27 -83 27 -168q0 -122 -60.5 -241t-193.5 -248l-172 73q114 202 114 379q0 96 -32 205z" />
    <glyph glyph-name="glyph659" horiz-adv-x="974" 
d="M410 786h-306q-30 94 -30 191q0 232 200 459l164 -74q-63 -168 -63 -328q0 -123 35 -248zM866 786h-307q-29 102 -29 191q0 231 201 459l164 -74q-66 -169 -66 -328q0 -116 37 -248z" />
    <glyph glyph-name="glyph660" horiz-adv-x="974" 
d="M109 1413h305q30 -95 30 -190q0 -232 -200 -459l-164 74q63 168 63 327q0 127 -34 248zM563 1413h307q29 -101 29 -190q0 -231 -201 -459l-163 74q65 166 65 327q0 116 -37 248z" />
    <glyph glyph-name="glyph661" horiz-adv-x="518" 
d="M424 786h-307q-31 108 -31 191q0 228 201 459l166 -74q-66 -169 -66 -328q0 -116 37 -248z" />
    <glyph glyph-name="glyph662" horiz-adv-x="518" 
d="M109 1413h305q30 -95 30 -190q0 -232 -200 -459l-164 74q63 168 63 327q0 127 -34 248z" />
    <glyph glyph-name="glyph663" horiz-adv-x="985" 
d="M96 352h307q29 -102 29 -188q0 -233 -201 -461l-163 74q65 166 65 327q0 116 -37 248zM553 352h305q31 -98 31 -188q0 -233 -201 -461l-164 74q64 171 64 327q0 123 -35 248z" />
    <glyph glyph-name="glyph664" horiz-adv-x="530" 
d="M96 352h307q29 -102 29 -188q0 -233 -201 -461l-163 74q65 166 65 327q0 116 -37 248z" />
    <glyph glyph-name="glyph665" horiz-adv-x="1636" 
d="M1526 709q0 -215 -89.5 -383t-251 -260.5t-368.5 -92.5q-315 0 -510.5 202.5t-195.5 529.5q0 216 89.5 383.5t250.5 259.5t368 92q208 0 369 -91.5t249.5 -257.5t88.5 -382zM1436 707q0 155 -47.5 281t-131 208t-196 126t-242.5 44q-132 0 -245 -44t-196 -126
t-130 -207.5t-47 -281.5q0 -155 47.5 -281t131 -208.5t196 -126.5t243.5 -44q132 0 244.5 44t195.5 126.5t130 208t47 281.5zM975 307l-182 273h-48v-263h-221v807h289q157 0 243.5 -69t86.5 -195q0 -152 -137 -227l200 -285zM743 963v-232h56q131 0 131 117
q0 56 -33.5 85.5t-97.5 29.5h-56z" />
    <glyph glyph-name="glyph666" horiz-adv-x="1693" 
d="M1595 707h-184v454l-160 -461h-155l-158 461v-454h-176v706h252l170 -467l159 467h252v-706zM682 1260h-223v-553h-191v553h-211v153h602z" />
    <glyph glyph-name="glyph667" horiz-adv-x="1452" 
d="M27 0l508 1419h385l505 -1419h-374l-99 293h-487l-94 -293h-344zM709 1059l-160 -492h317z" />
    <glyph glyph-name="glyph668" 
d="M1028 0h-899v1413h881v-283h-537v-266h432v-280h-432v-299h555v-285z" />
    <glyph glyph-name="glyph669" horiz-adv-x="1030" 
d="M975 1120h-498v-289h393v-292h-393v-539h-348v1413h846v-293z" />
    <glyph glyph-name="glyph670" horiz-adv-x="1396" 
d="M1290 123q-230 -150 -516 -150q-220 0 -378.5 92.5t-238 256.5t-79.5 383q0 218 84.5 384t244.5 258.5t375 92.5q244 0 432 -105l-47 -305q-189 121 -376 121q-178 0 -270.5 -120t-92.5 -324q0 -206 94.5 -329.5t272.5 -123.5q102 0 190 45v252h-264v260h569v-688z" />
    <glyph glyph-name="glyph671" horiz-adv-x="1347" 
d="M1366 0h-426l-461 657v-657h-350v1413h350v-604l439 604h403l-508 -659z" />
    <glyph glyph-name="glyph672" horiz-adv-x="1009" 
d="M948 0h-819v1413h350v-1110h469v-303z" />
    <glyph glyph-name="glyph673" horiz-adv-x="1269" 
d="M1274 0h-408l-301 485h-88v-485h-348v1413h494q259 0 400.5 -114.5t141.5 -331.5q0 -288 -266 -402zM821 946q0 99 -59.5 151t-173.5 52h-113v-412h109q114 0 175.5 54t61.5 155z" />
    <glyph glyph-name="glyph674" horiz-adv-x="1253" 
d="M1202 1116h-399v-1116h-352v1116h-400v297h1151v-297z" />
    <glyph glyph-name="glyph675" horiz-adv-x="1433" 
d="M1407 1413l-510 -1421h-360l-510 1421h401l309 -977l305 977h365z" />
    <glyph glyph-name="glyph676" horiz-adv-x="2037" 
d="M2001 1413l-385 -1415h-354l-244 913l-244 -913h-352l-385 1415h395l209 -885l229 885h353l229 -885l201 885h348z" />
    <glyph glyph-name="glyph677" horiz-adv-x="1353" 
d="M1325 0h-410l-260 471l-272 -471h-358l440 707l-424 706h410l239 -442l252 442h363l-424 -680z" />
    <glyph glyph-name="glyph678" horiz-adv-x="1376" 
d="M1372 1413l-508 -893v-520h-352v516l-508 897h399l299 -571l299 571h371z" />
    <glyph glyph-name="glyph679" horiz-adv-x="1251" 
d="M1165 0h-1085v254l657 881h-614v278h1042v-254l-657 -880h657v-279z" />
    <glyph glyph-name="glyph680" horiz-adv-x="694" 
d="M709 1219q-73 10 -111 10q-123 0 -123 -123v-102h203v-252h-203v-752h-309v752h-139v252h139v131q0 333 381 333q51 0 125 -12z" />
    <glyph glyph-name="glyph681" horiz-adv-x="1040" 
d="M1047 0h-353l-278 469v-469h-310v1430l310 49v-885l264 410h340l-320 -461z" />
    <glyph glyph-name="glyph682" horiz-adv-x="743" 
d="M705 6q-70 -20 -179 -20q-84 0 -148 16.5t-114 53.5t-76 103t-26 160v433h-133v252h133v299l307 49v-348h219v-252h-219v-383q0 -119 123 -119q38 0 76 10z" />
    <glyph glyph-name="glyph683" horiz-adv-x="1042" 
d="M1026 1004l-348 -1008h-311l-351 1008h344l181 -619l182 619h303z" />
    <glyph glyph-name="glyph684" horiz-adv-x="1484" 
d="M1466 1004l-280 -1006h-297l-146 573l-143 -573h-299l-283 1006h330l135 -590l140 590h280l141 -588l134 588h288z" />
    <glyph glyph-name="glyph685" horiz-adv-x="1015" 
d="M983 0h-342l-152 293l-163 -293h-295l303 489l-297 515h342l145 -285l158 285h293l-297 -480z" />
    <glyph glyph-name="glyph686" horiz-adv-x="1048" 
d="M1034 1004l-358 -1029q-66 -192 -164 -270t-262 -78q-62 0 -121 13l-41 249q56 -16 123 -16q121 0 170 104l8 21l-373 1006h344l189 -617l182 617h303z" />
    <glyph glyph-name="glyph687" horiz-adv-x="956" 
d="M887 0h-832v233l445 529h-412v242h795v-236l-443 -526h447v-242z" />
    <glyph glyph-name="glyph688" horiz-adv-x="1130" 
d="M1036 0h-954v244l477 477q74 76 106.5 131.5t32.5 120.5q0 70 -46.5 108.5t-131.5 38.5q-171 0 -366 -141l-41 291q204 137 458 137q214 0 337.5 -105.5t123.5 -291.5q0 -133 -62 -236.5t-200 -234.5l-276 -267h542v-272z" />
    <glyph glyph-name="glyph689" horiz-adv-x="1116" 
d="M1040 387q0 -131 -68.5 -225.5t-185.5 -141.5t-268 -47q-262 0 -455 109l43 266q186 -102 381 -102q103 0 161.5 41.5t58.5 118.5q0 87 -64 131.5t-205 44.5h-139v254h129q128 0 190 42.5t62 118.5q0 67 -50.5 104.5t-148.5 37.5q-188 0 -354 -115l-43 260
q187 127 448 127q228 0 357 -100t129 -264q0 -129 -64 -207t-180 -121q130 -42 198 -121.5t68 -210.5z" />
    <glyph glyph-name="glyph690" horiz-adv-x="1136" 
d="M1063 463q0 -232 -154 -361t-405 -129q-225 0 -434 95l45 284q205 -100 387 -100q107 0 174 51.5t67 142.5q0 85 -55 133t-156 48q-104 0 -198 -41l-211 47l47 751h838v-276h-580l-16 -246q98 25 196 25q206 0 330.5 -111t124.5 -313z" />
    <glyph glyph-name="glyph691" horiz-adv-x="1107" 
d="M1034 1120l-506 -1120h-352l506 1100h-606v284h958v-264z" />
    <glyph glyph-name="glyph692" horiz-adv-x="1128" 
d="M96 817h193l73 236q57 187 168 272.5t297 85.5q127 0 222 -31l-41 -276q-67 22 -146 22q-80 0 -125.5 -39t-74.5 -133l-44 -137h275v-260h-356l-91 -291h590v-266h-940v207l111 350h-111v260z" />
    <glyph glyph-name="glyph693" horiz-adv-x="1247" 
d="M51 778v158h180q57 219 210 345t384 126q206 0 353 -80l-45 -272q-71 41 -134.5 60.5t-144.5 19.5q-99 0 -169.5 -51.5t-104.5 -147.5h409v-158h-440q-2 -29 -2 -86q0 -46 2 -69h440v-158h-414q67 -215 302 -215q136 0 280 80l43 -264q-183 -89 -373 -89q-252 0 -405 126
t-199 362h-172v158h154q-2 23 -2 67q0 30 4 88h-156z" />
    <glyph glyph-name="glyph694" horiz-adv-x="1329" 
d="M178 455v155h271l-435 774h383l285 -565l281 565h352l-445 -774h279v-155h-320v-133h320v-156h-320v-166h-335v166h-316v156h316v133h-316z" />
    <glyph glyph-name="glyph695" horiz-adv-x="1378" 
d="M1135 1389l-48 -293h213v-260h-253l-48 -287h252v-260h-293l-45 -293h-194l45 293h-279l-47 -293h-196l45 293h-209v260h250l47 287h-248v260h289l47 293h196l-47 -293h281l47 293h195zM569 842l-47 -299h285l49 299h-287z" />
    <glyph glyph-name="glyph696" horiz-adv-x="821" 
d="M700 725h-186l-14 82q-104 -94 -219 -94q-84 0 -134.5 48.5t-50.5 129.5q0 114 94 173.5t299 74.5v12q0 48 -27.5 68t-84.5 20q-103 0 -217 -49l-23 151q132 54 285 54q140 0 209 -55t69 -173v-442zM709 455h-605v149h605v-149zM489 911v129q-188 -27 -188 -116
q0 -31 16.5 -48.5t47.5 -17.5q61 0 124 53z" />
    <glyph glyph-name="glyph697" horiz-adv-x="823" 
d="M745 1053q0 -156 -93 -248t-242 -92q-145 0 -238.5 92.5t-93.5 247.5q0 156 93.5 249t238.5 93q148 0 241.5 -93t93.5 -249zM725 455h-627v149h627v-149zM535 1053q0 79 -33 126.5t-92 47.5q-57 0 -89 -48t-32 -126q0 -80 32 -127t89 -47q59 0 92 47.5t33 126.5z" />
    <glyph glyph-name="glyph698" horiz-adv-x="1830" 
d="M764 995q0 -192 -97 -300.5t-245 -108.5q-150 0 -247 107.5t-97 299.5q0 191 97.5 299.5t246.5 108.5q148 0 245 -108t97 -298zM571 0h-209l465 711l430 673h211l-467 -712zM1753 391q0 -190 -98 -298.5t-246 -108.5q-150 0 -246 107t-96 298q0 193 97 301.5t245 108.5
q150 0 247 -108t97 -300zM549 995q0 111 -32.5 172.5t-94.5 61.5q-131 0 -131 -236q0 -109 34 -171t97 -62t95 61t32 174zM1538 391q0 110 -33.5 172t-95.5 62q-65 0 -97 -61.5t-32 -174.5q0 -110 33.5 -171.5t95.5 -61.5q64 0 96.5 61.5t32.5 173.5z" />
    <glyph glyph-name="glyph699" horiz-adv-x="1374" 
d="M1405 0h-383l-111 125q-167 -150 -395 -150q-209 0 -335 107t-126 291q0 267 275 413q-62 78 -87.5 145.5t-25.5 153.5q0 152 110.5 253.5t305.5 101.5q209 0 381 -86l-47 -285q-182 98 -299 98q-61 0 -94 -29.5t-33 -76.5q0 -36 19.5 -71.5t64.5 -86.5l288 -336
q41 127 60 277l262 -58q-38 -261 -139 -430zM559 225q107 0 197 78l-271 307q-116 -88 -116 -209q0 -79 51 -127.5t139 -48.5z" />
    <glyph glyph-name="glyph700" horiz-adv-x="604" 
d="M496 1413l-101 -905h-186l-98 905h385zM469 0h-334v352h334v-352z" />
    <glyph glyph-name="glyph701" horiz-adv-x="604" 
d="M111 0l98 905h186l101 -905h-385zM137 1413h332v-352h-332v352z" />
    <glyph glyph-name="glyph702" horiz-adv-x="1169" 
d="M608 1004l-223 -502l223 -502h-223l-340 502l340 502h223zM1098 1004l-224 -502l224 -502h-224l-342 502l342 502h224z" />
    <glyph glyph-name="glyph703" horiz-adv-x="1169" 
d="M561 0l223 500l-223 504h223l340 -504l-340 -500h-223zM74 0l221 500l-221 504h221l342 -504l-342 -500h-221z" />
    <glyph glyph-name="glyph704" horiz-adv-x="681" 
d="M608 1004l-223 -502l223 -502h-223l-340 502l340 502h223z" />
    <glyph glyph-name="glyph705" horiz-adv-x="681" 
d="M74 0l221 500l-221 504h221l342 -504l-342 -500h-221z" />
    <glyph glyph-name="glyph706" horiz-adv-x="827" 
d="M438 643q0 -200 73 -353t222 -282l-31 -209q-610 282 -610 844t610 844l31 -209q-149 -129 -222 -282t-73 -353z" />
    <glyph glyph-name="glyph707" horiz-adv-x="827" 
d="M389 643q0 200 -73 353t-222 282l31 209q610 -282 610 -844t-610 -844l-31 209q149 129 222 282t73 353z" />
    <glyph glyph-name="glyph708" horiz-adv-x="856" 
d="M774 -213h-629v1626h629v-190h-332v-1246h332v-190z" />
    <glyph glyph-name="glyph709" horiz-adv-x="856" 
d="M82 1413h629v-1626h-629v190h332v1246h-332v190z" />
    <glyph glyph-name="glyph710" horiz-adv-x="1036" 
d="M952 -213h-307q-156 0 -237.5 70.5t-81.5 197.5q0 49 13 138t13 133q0 98 -55 139t-164 41h-67v190h69q107 0 162 40.5t55 137.5q0 46 -13 135t-13 136q0 127 81.5 197.5t237.5 70.5h307v-190h-182q-139 0 -139 -117q0 -40 13 -118.5t13 -125.5q0 -111 -58.5 -172.5
t-174.5 -87.5v-4q116 -26 174.5 -87.5t58.5 -172.5q0 -46 -13 -125t-13 -119q0 -117 139 -117h182v-190z" />
    <glyph glyph-name="glyph711" horiz-adv-x="1036" 
d="M82 1413h307q156 0 238 -71t82 -197q0 -49 -14.5 -138t-14.5 -133q0 -98 55.5 -139t163.5 -41h70v-190h-70q-108 0 -163.5 -40.5t-55.5 -137.5q0 -46 14.5 -135t14.5 -136q0 -126 -82 -197t-238 -71h-307v190h182q139 0 139 117q0 40 -14 118.5t-14 125.5
q0 111 58.5 172.5t176.5 87.5v4q-118 26 -176.5 87.5t-58.5 172.5q0 46 14 125t14 119q0 117 -139 117h-182v190z" />
    <glyph glyph-name="glyph712" horiz-adv-x="1153" 
d="M1040 963q0 -211 -130.5 -343.5t-334.5 -132.5q-206 0 -335 131.5t-129 344.5q0 211 130.5 344t333.5 133q206 0 335.5 -132t129.5 -345zM973 963q0 196 -113 308.5t-285 112.5t-284.5 -112.5t-112.5 -308.5q0 -195 112.5 -307.5t284.5 -112.5q173 0 285.5 112.5
t112.5 307.5zM840 717h-168l-117 182h-29v-182h-141v524h201q97 0 151 -42.5t54 -121.5q0 -104 -95 -145zM649 1067q0 34 -21 53t-59 19h-43v-146h41q82 0 82 74z" />
    <glyph glyph-name="glyph713" horiz-adv-x="1662" 
d="M1591 707h-196l-29 442l-131 -447h-176l-131 447l-31 -442h-168l53 706h246l137 -461l138 461h235zM672 1260h-213v-553h-191v553h-211v153h615v-153z" />
    <glyph glyph-name="glyph714" horiz-adv-x="1857" 
d="M2 0l694 1413h1073v-283h-536v-266h432v-280h-432v-299h555v-285h-885v293h-403l-138 -293h-360zM623 567h280v613z" />
    <glyph glyph-name="glyph715" horiz-adv-x="1861" 
d="M1792 0h-965q-181 0 -323.5 51t-235 144.5t-140.5 222.5t-48 287t49 288t141 223.5t232.5 145t316.5 51.5h955v-283h-537v-266h432v-280h-432v-299h555v-285zM897 272v869h-59q-194 0 -301 -106.5t-107 -327.5q0 -216 110 -325.5t298 -109.5h59z" />
    <glyph glyph-name="glyph716" horiz-adv-x="1501" 
d="M1425 709q0 -158 -49 -288t-141 -224t-232.5 -145.5t-316.5 -51.5h-498v580h-155v292h155v541h488q181 0 324 -51t235.5 -144t141 -222t48.5 -287zM1071 707q0 216 -108.5 325t-296.5 109h-136v-275h250v-282h-250v-312h136q194 0 299.5 107t105.5 328z" />
    <glyph glyph-name="glyph717" horiz-adv-x="1501" 
d="M1425 709q0 -158 -49 -288t-141 -224t-232.5 -145.5t-316.5 -51.5h-498v580h-155v292h155v541h488q181 0 324 -51t235.5 -144t141 -222t48.5 -287zM1071 707q0 216 -108.5 325t-296.5 109h-136v-275h250v-282h-250v-312h136q194 0 299.5 107t105.5 328z" />
    <glyph glyph-name="glyph718" horiz-adv-x="1568" 
d="M1380 0h-352v561h-487v-561h-353v1042h-163v211h163v160h351v-160h493v160h348v-160h164v-211h-164v-1042zM539 858h493v193h-493v-193z" />
    <glyph glyph-name="glyph719" horiz-adv-x="1069" 
d="M799 791l-260 -140v-348h471v-303h-822v461l-155 -84v295l155 82v659h351v-469l260 143v-296z" />
    <glyph glyph-name="glyph720" horiz-adv-x="1452" 
d="M27 0l508 1419h385l505 -1419h-82l-30 -49q-49 -77 -49 -121q0 -61 71 -61q32 0 86 14v-152q-106 -47 -211 -47q-88 0 -137 42.5t-49 123.5q0 94 117 250h-90l-99 293h-487l-94 -293h-344zM709 1059l-160 -492h317z" />
    <glyph glyph-name="glyph721" 
d="M1028 0h-72l-30 -49q-49 -77 -49 -121q0 -61 71 -61q32 0 86 14v-152q-106 -47 -211 -47q-88 0 -137 42.5t-49 123.5q0 94 117 250h-625v1413h881v-283h-537v-266h432v-280h-432v-299h555v-285z" />
    <glyph glyph-name="glyph722" horiz-adv-x="1452" 
d="M991 1499q0 -79 -51 -139l485 -1360h-372l-101 293h-489l-94 -293h-342l481 1352q-57 57 -57 147q0 95 71 158t199 63q127 0 198.5 -63t71.5 -158zM709 1059l-162 -492h319zM823 1499q0 49 -28.5 84t-73.5 35t-74 -35t-29 -84q0 -50 29 -84.5t74 -34.5t73.5 34.5
t28.5 84.5z" />
    <glyph glyph-name="glyph723" horiz-adv-x="1452" 
d="M991 1499q0 -79 -51 -139l485 -1360h-372l-101 293h-489l-94 -293h-342l481 1352q-57 57 -57 147q0 95 71 158t199 63q127 0 198.5 -63t71.5 -158zM1092 2023l-301 -247h-197l123 309zM709 1059l-162 -492h319zM823 1499q0 49 -28.5 84t-73.5 35t-74 -35t-29 -84
q0 -50 29 -84.5t74 -34.5t73.5 34.5t28.5 84.5z" />
    <glyph glyph-name="glyph724" horiz-adv-x="1009" 
d="M938 616h-260v269h260v-269zM948 0h-819v1413h350v-1110h469v-303z" />
    <glyph glyph-name="glyph725" horiz-adv-x="1452" 
d="M27 0l508 1419h385l505 -1419h-374l-99 293h-487l-94 -293h-344zM1092 1786l-301 -248h-197l123 309zM709 1059l-160 -492h317z" />
    <glyph glyph-name="glyph726" horiz-adv-x="1452" 
d="M27 0l508 1419h385l505 -1419h-374l-99 293h-487l-94 -293h-344zM848 1538h-205l-299 248l379 61zM709 1059l-160 -492h317z" />
    <glyph glyph-name="glyph727" horiz-adv-x="1452" 
d="M27 0l508 1419h385l505 -1419h-374l-99 293h-487l-94 -293h-344zM1065 1538h-197l-151 119l-152 -119h-196l204 301h287zM709 1059l-160 -492h317z" />
    <glyph glyph-name="glyph728" horiz-adv-x="1452" 
d="M27 0l508 1419h385l505 -1419h-374l-99 293h-487l-94 -293h-344zM1044 1815q-21 -133 -102.5 -206t-222.5 -73q-140 0 -221.5 73t-102.5 206l170 26q23 -62 58.5 -88.5t95.5 -26.5t95 26.5t58 88.5zM709 1059l-160 -492h317z" />
    <glyph glyph-name="glyph729" horiz-adv-x="1452" 
d="M27 0l508 1419h385l505 -1419h-374l-99 293h-487l-94 -293h-344zM1069 1823q-20 -153 -67.5 -219t-127.5 -66q-36 0 -66 9.5t-79 31.5q-64 27 -87.5 35t-45.5 8q-24 0 -39 -19t-27 -71l-147 31q21 155 69 220.5t128 65.5q37 0 67 -9t78 -32q96 -43 133 -43q24 0 39 20.5
t27 72.5zM709 1059l-160 -492h317z" />
    <glyph glyph-name="glyph730" horiz-adv-x="1452" 
d="M27 0l508 1419h385l505 -1419h-374l-99 293h-487l-94 -293h-344zM1030 1559h-622v215h622v-215zM709 1059l-160 -492h317z" />
    <glyph glyph-name="glyph731" horiz-adv-x="1452" 
d="M27 0l508 1419h385l505 -1419h-374l-99 293h-487l-94 -293h-344zM709 1059l-160 -492h317zM649 1540h-266v268h266v-268zM1055 1540h-267v268h267v-268z" />
    <glyph glyph-name="glyph732" 
d="M948 1765l-301 -247h-196l122 309zM1028 0h-899v1413h881v-283h-537v-266h432v-280h-432v-299h555v-285z" />
    <glyph glyph-name="glyph733" 
d="M1028 0h-899v1413h881v-283h-537v-266h432v-280h-432v-299h555v-285zM705 1518h-205l-299 247l379 62z" />
    <glyph glyph-name="glyph734" 
d="M924 1518h-197l-152 118l-151 -118h-197l205 301h287zM1028 0h-899v1413h881v-283h-537v-266h432v-280h-432v-299h555v-285z" />
    <glyph glyph-name="glyph735" 
d="M227 1819h197l151 -119l152 119h197l-205 -301h-287zM1028 0h-899v1413h881v-283h-537v-266h432v-280h-432v-299h555v-285z" />
    <glyph glyph-name="glyph736" 
d="M1028 0h-899v1413h881v-283h-537v-266h432v-280h-432v-299h555v-285zM901 1794q-21 -132 -103 -205t-223 -73q-140 0 -221 72.5t-102 205.5l170 27q23 -62 58 -88.5t95 -26.5t95.5 26.5t58.5 88.5z" />
    <glyph glyph-name="glyph737" 
d="M1028 0h-899v1413h881v-283h-537v-266h432v-280h-432v-299h555v-285zM887 1538h-623v215h623v-215z" />
    <glyph glyph-name="glyph738" 
d="M911 1520h-266v268h266v-268zM506 1520h-266v268h266v-268zM1028 0h-899v1413h881v-283h-537v-266h432v-280h-432v-299h555v-285z" />
    <glyph glyph-name="glyph739" 
d="M1028 0h-899v1413h881v-283h-537v-266h432v-280h-432v-299h555v-285zM715 1520h-277v268h277v-268z" />
    <glyph glyph-name="glyph740" horiz-adv-x="1396" 
d="M1290 123q-230 -150 -516 -150q-220 0 -378.5 92.5t-238 256.5t-79.5 383q0 218 84.5 384t244.5 258.5t375 92.5q244 0 432 -105l-47 -305q-189 121 -376 121q-178 0 -270.5 -120t-92.5 -324q0 -206 94.5 -329.5t272.5 -123.5q102 0 190 45v252h-264v260h569v-688z
M1073 1815q-21 -133 -102.5 -206t-222.5 -73q-140 0 -221.5 73t-102.5 206l170 26q23 -62 58.5 -88.5t95.5 -26.5t95 26.5t58 88.5z" />
    <glyph glyph-name="glyph741" horiz-adv-x="1396" 
d="M1290 123q-230 -150 -516 -150q-220 0 -378.5 92.5t-238 256.5t-79.5 383q0 218 84.5 384t244.5 258.5t375 92.5q244 0 432 -105l-47 -305q-189 121 -376 121q-178 0 -270.5 -120t-92.5 -324q0 -206 94.5 -329.5t272.5 -123.5q102 0 190 45v252h-264v260h569v-688z
M887 1540h-277v268h277v-268z" />
    <glyph glyph-name="glyph742" horiz-adv-x="1396" 
d="M580 -166l247 47q93 -84 93 -180q0 -136 -183 -264l-190 39q56 65 80 113t24 94q0 75 -71 151zM1290 123q-230 -150 -516 -150q-220 0 -378.5 92.5t-238 256.5t-79.5 383q0 218 84.5 384t244.5 258.5t375 92.5q244 0 432 -105l-47 -305q-189 121 -376 121
q-178 0 -270.5 -120t-92.5 -324q0 -206 94.5 -329.5t272.5 -123.5q102 0 190 45v252h-264v260h569v-688z" />
    <glyph glyph-name="glyph743" horiz-adv-x="1347" 
d="M1366 0h-426l-461 657v-657h-350v1413h350v-604l439 604h403l-508 -659zM524 -133l248 47q92 -83 92 -180q0 -137 -182 -264l-190 38q56 65 80 113t24 94q0 75 -72 152z" />
    <glyph glyph-name="glyph744" horiz-adv-x="1009" 
d="M725 1778l-301 -248h-197l123 309zM948 0h-819v1413h350v-1110h469v-303z" />
    <glyph glyph-name="glyph745" horiz-adv-x="1009" 
d="M850 1438q24 -73 24 -148q0 -149 -139 -282l-145 30q53 106 53 207q0 68 -39 160zM948 0h-819v1413h350v-1110h469v-303z" />
    <glyph glyph-name="glyph746" horiz-adv-x="1009" 
d="M371 -164l247 47q93 -84 93 -180q0 -136 -183 -264l-190 39q56 65 80 113t24 94q0 75 -71 151zM948 0h-819v1413h350v-1110h469v-303z" />
    <glyph glyph-name="glyph747" horiz-adv-x="1269" 
d="M987 1765l-301 -247h-197l123 309zM1274 0h-408l-301 485h-88v-485h-348v1413h494q259 0 400.5 -114.5t141.5 -331.5q0 -288 -266 -402zM821 946q0 99 -59.5 151t-173.5 52h-113v-412h109q114 0 175.5 54t61.5 155z" />
    <glyph glyph-name="glyph748" horiz-adv-x="1269" 
d="M268 1819h197l151 -119l152 119h197l-205 -301h-287zM1274 0h-408l-301 485h-88v-485h-348v1413h494q259 0 400.5 -114.5t141.5 -331.5q0 -288 -266 -402zM821 946q0 99 -59.5 151t-173.5 52h-113v-412h109q114 0 175.5 54t61.5 155z" />
    <glyph glyph-name="glyph749" horiz-adv-x="1269" 
d="M467 -133l248 47q92 -83 92 -180q0 -137 -182 -264l-191 38q57 66 81 113.5t24 93.5q0 75 -72 152zM1274 0h-408l-301 485h-88v-485h-348v1413h494q259 0 400.5 -114.5t141.5 -331.5q0 -288 -266 -402zM821 946q0 99 -59.5 151t-173.5 52h-113v-412h109q114 0 175.5 54
t61.5 155z" />
    <glyph glyph-name="glyph750" horiz-adv-x="1253" 
d="M279 1819h196l152 -119l151 119h197l-205 -301h-287zM1202 1116h-399v-1116h-352v1116h-400v297h1151v-297z" />
    <glyph glyph-name="glyph751" horiz-adv-x="1253" 
d="M459 -164l248 47q92 -83 92 -180q0 -136 -183 -264l-190 39q56 65 80 113t24 94q0 75 -71 151zM1202 1116h-399v-1116h-352v1116h-400v297h1151v-297z" />
    <glyph glyph-name="glyph752" horiz-adv-x="2037" 
d="M1419 1765l-301 -247h-196l122 309zM2001 1413l-385 -1415h-354l-244 913l-244 -913h-352l-385 1415h395l209 -885l229 885h353l229 -885l201 885h348z" />
    <glyph glyph-name="glyph753" horiz-adv-x="2037" 
d="M2001 1413l-385 -1415h-354l-244 913l-244 -913h-352l-385 1415h395l209 -885l229 885h353l229 -885l201 885h348zM1176 1518h-205l-299 247l379 62z" />
    <glyph glyph-name="glyph754" horiz-adv-x="2037" 
d="M1393 1518h-197l-152 118l-151 -118h-197l205 301h287zM2001 1413l-385 -1415h-354l-244 913l-244 -913h-352l-385 1415h395l209 -885l229 885h353l229 -885l201 885h348z" />
    <glyph glyph-name="glyph755" horiz-adv-x="2037" 
d="M1382 1520h-266v268h266v-268zM977 1520h-266v268h266v-268zM2001 1413l-385 -1415h-354l-244 913l-244 -913h-352l-385 1415h395l209 -885l229 885h353l229 -885l201 885h348z" />
    <glyph glyph-name="glyph756" horiz-adv-x="1376" 
d="M1073 1759l-301 -248h-197l123 310zM1372 1413l-508 -893v-520h-352v516l-508 897h399l299 -571l299 571h371z" />
    <glyph glyph-name="glyph757" horiz-adv-x="1376" 
d="M1372 1413l-508 -893v-520h-352v516l-508 897h399l299 -571l299 571h371zM829 1511h-204l-299 248l379 62z" />
    <glyph glyph-name="glyph758" horiz-adv-x="1376" 
d="M1047 1511h-197l-152 119l-151 -119h-197l205 301h287zM1372 1413l-508 -893v-520h-352v516l-508 897h399l299 -571l299 571h371z" />
    <glyph glyph-name="glyph759" horiz-adv-x="1376" 
d="M1036 1513h-266v269h266v-269zM631 1513h-266v269h266v-269zM1372 1413l-508 -893v-520h-352v516l-508 897h399l299 -571l299 571h371z" />
    <glyph glyph-name="glyph760" horiz-adv-x="1251" 
d="M1010 1765l-301 -247h-197l123 309zM1165 0h-1085v254l657 881h-614v278h1042v-254l-657 -880h657v-279z" />
    <glyph glyph-name="glyph761" horiz-adv-x="1251" 
d="M291 1819h196l152 -119l152 119h196l-205 -301h-286zM1165 0h-1085v254l657 881h-614v278h1042v-254l-657 -880h657v-279z" />
    <glyph glyph-name="glyph762" horiz-adv-x="1251" 
d="M1165 0h-1085v254l657 881h-614v278h1042v-254l-657 -880h657v-279zM778 1520h-276v268h276v-268z" />
    <glyph glyph-name="glyph763" horiz-adv-x="1857" 
d="M2 0l694 1413h1073v-283h-536v-266h432v-280h-432v-299h555v-285h-885v293h-403l-138 -293h-360zM1419 1765l-301 -247h-196l122 309zM623 567h280v613z" />
    <glyph glyph-name="glyph764" horiz-adv-x="1114" 
d="M1008 0h-275l-20 131q-135 -151 -289 -151q-162 0 -262.5 125t-100.5 368q0 139 34.5 245t95 169t134.5 94t160 31q113 0 213 -35v147h-247v191h247v115l310 49v-164h133v-191h-133v-1124zM698 356v383q-65 29 -145 29q-81 0 -130.5 -67t-49.5 -205q0 -123 41.5 -182.5
t111.5 -59.5q80 0 172 102z" />
    <glyph glyph-name="glyph765" horiz-adv-x="1099" 
d="M999 0h-311v629q0 121 -102 121q-79 0 -170 -91v-659h-310v1124h-126v191h126v115l310 49v-164h254v-191h-254v-245q71 69 142 107t157 38q138 0 211 -81t73 -230v-713z" />
    <glyph glyph-name="glyph766" horiz-adv-x="651" 
d="M479 0h-305v487l-147 -79v297l147 75v650l305 49v-539l148 80v-295l-148 -78v-647z" />
    <glyph glyph-name="glyph767" horiz-adv-x="1040" 
d="M1047 0h-353l-278 469v-469h-310v1430l310 49v-885l264 410h340l-320 -461zM375 -150l248 48q92 -83 92 -181q0 -136 -183 -264l-190 39q56 65 80 113t24 94q0 75 -71 151z" />
    <glyph glyph-name="glyph768" horiz-adv-x="743" 
d="M815 1516q25 -77 25 -148q0 -149 -140 -283l-145 31q53 106 53 207q0 68 -39 160zM705 6q-70 -20 -179 -20q-84 0 -148 16.5t-114 53.5t-76 103t-26 160v433h-133v252h133v299l307 49v-348h219v-252h-219v-383q0 -119 123 -119q38 0 76 10z" />
    <glyph glyph-name="glyph769" horiz-adv-x="743" 
d="M238 -150l247 48q93 -84 93 -181q0 -136 -183 -264l-190 39q56 65 80 113t24 94q0 75 -71 151zM705 6q-70 -20 -179 -20q-84 0 -148 16.5t-114 53.5t-76 103t-26 160v433h-133v252h133v299l307 49v-348h219v-252h-219v-383q0 -119 123 -119q38 0 76 10z" />
    <glyph glyph-name="glyph770" horiz-adv-x="1484" 
d="M1130 1368l-301 -248h-196l123 310zM1466 1004l-280 -1006h-297l-146 573l-143 -573h-299l-283 1006h330l135 -590l140 590h280l141 -588l134 588h288z" />
    <glyph glyph-name="glyph771" horiz-adv-x="1484" 
d="M1466 1004l-280 -1006h-297l-146 573l-143 -573h-299l-283 1006h330l135 -590l140 590h280l141 -588l134 588h288zM887 1120h-205l-299 248l379 62z" />
    <glyph glyph-name="glyph772" horiz-adv-x="1484" 
d="M1104 1120h-197l-151 119l-152 -119h-196l204 301h287zM1466 1004l-280 -1006h-297l-146 573l-143 -573h-299l-283 1006h330l135 -590l140 590h280l141 -588l134 588h288z" />
    <glyph glyph-name="glyph773" horiz-adv-x="1484" 
d="M1094 1122h-267v269h267v-269zM688 1122h-266v269h266v-269zM1466 1004l-280 -1006h-297l-146 573l-143 -573h-299l-283 1006h330l135 -590l140 590h280l141 -588l134 588h288z" />
    <glyph glyph-name="glyph774" horiz-adv-x="1048" 
d="M922 1368l-301 -248h-197l123 310zM1034 1004l-358 -1029q-66 -192 -164 -270t-262 -78q-62 0 -121 13l-41 249q56 -16 123 -16q121 0 170 104l8 21l-373 1006h344l189 -617l182 617h303z" />
    <glyph glyph-name="glyph775" horiz-adv-x="1048" 
d="M1034 1004l-358 -1029q-66 -192 -164 -270t-262 -78q-62 0 -121 13l-41 249q56 -16 123 -16q121 0 170 104l8 21l-373 1006h344l189 -617l182 617h303zM680 1120h-205l-299 248l379 62z" />
    <glyph glyph-name="glyph776" horiz-adv-x="1048" 
d="M897 1120h-197l-151 119l-152 -119h-196l205 301h286zM1034 1004l-358 -1029q-66 -192 -164 -270t-262 -78q-62 0 -121 13l-41 249q56 -16 123 -16q121 0 170 104l8 21l-373 1006h344l189 -617l182 617h303z" />
    <glyph glyph-name="glyph777" horiz-adv-x="1048" 
d="M887 1122h-266v269h266v-269zM481 1122h-266v269h266v-269zM1034 1004l-358 -1029q-66 -192 -164 -270t-262 -78q-62 0 -121 13l-41 249q56 -16 123 -16q121 0 170 104l8 21l-373 1006h344l189 -617l182 617h303z" />
    <glyph glyph-name="glyph778" horiz-adv-x="956" 
d="M856 1368l-301 -248h-197l123 310zM887 0h-832v233l445 529h-412v242h795v-236l-443 -526h447v-242z" />
    <glyph glyph-name="glyph779" horiz-adv-x="956" 
d="M137 1421h197l151 -118l152 118h197l-205 -301h-287zM887 0h-832v233l445 529h-412v242h795v-236l-443 -526h447v-242z" />
    <glyph glyph-name="glyph780" horiz-adv-x="956" 
d="M887 0h-832v233l445 529h-412v242h795v-236l-443 -526h447v-242zM623 1122h-277v269h277v-269z" />
    <glyph glyph-name="glyph781" horiz-adv-x="1415" 
d="M709 1219q-73 10 -111 10q-123 0 -123 -123v-102h203v-252h-203v-752h-309v752h-139v252h139v131q0 333 381 333q51 0 125 -12zM1427 1219q-73 10 -110 10q-123 0 -123 -123v-102h203v-252h-203v-752h-309v752h-140v252h140v131q0 333 381 333q51 0 125 -12z" />
    <glyph glyph-name="glyph782" horiz-adv-x="1951" 
d="M1858 1300q0 -74 -50.5 -119.5t-126.5 -45.5q-75 0 -125.5 45.5t-50.5 119.5q0 75 50.5 122.5t125.5 47.5q76 0 126.5 -47.5t50.5 -122.5zM1837 0h-311v1004h311v-1004zM709 1219q-73 10 -111 10q-123 0 -123 -123v-102h203v-252h-203v-752h-309v752h-139v252h139v131
q0 333 381 333q51 0 125 -12zM1427 1219q-73 10 -110 10q-123 0 -123 -123v-102h203v-252h-203v-752h-309v752h-140v252h140v131q0 333 381 333q51 0 125 -12z" />
    <glyph glyph-name="glyph783" horiz-adv-x="1951" 
d="M1837 0h-311v1430l311 49v-1479zM709 1219q-73 10 -111 10q-123 0 -123 -123v-102h203v-252h-203v-752h-309v752h-139v252h139v131q0 333 381 333q51 0 125 -12zM1427 1219q-73 10 -110 10q-123 0 -123 -123v-102h203v-252h-203v-752h-309v752h-140v252h140v131
q0 333 381 333q51 0 125 -12z" />
    <glyph glyph-name="glyph784" horiz-adv-x="1230" 
d="M1139 1300q0 -74 -50 -119.5t-126 -45.5q-75 0 -126 45.5t-51 119.5q0 75 51 122.5t126 47.5q76 0 126 -47t50 -123zM1118 0h-311v1004h311v-1004zM709 1219q-73 10 -111 10q-123 0 -123 -123v-102h203v-252h-203v-752h-309v752h-139v252h139v131q0 333 381 333
q51 0 125 -12z" />
    <glyph glyph-name="glyph785" horiz-adv-x="1230" 
d="M1118 0h-311v1430l311 49v-1479zM709 1219q-73 10 -111 10q-123 0 -123 -123v-102h203v-252h-203v-752h-309v752h-139v252h139v131q0 333 381 333q51 0 125 -12z" />
    <glyph glyph-name="glyph786" horiz-adv-x="737" 
d="M659 829h-553v177h179v397l-166 -64l-25 174l248 101h168v-608h149v-177z" />
    <glyph glyph-name="glyph787" horiz-adv-x="737" 
d="M659 829h-581v170l268 244q41 36 57.5 59.5t16.5 53.5q0 33 -23 50t-63 17q-83 0 -215 -75l-27 188q135 80 287 80q129 0 201.5 -62.5t72.5 -160.5q0 -76 -37.5 -131.5t-121.5 -128.5l-138 -117h303v-187z" />
    <glyph glyph-name="glyph788" horiz-adv-x="737" 
d="M670 1042q0 -105 -91 -166t-235 -61q-163 0 -281 59l33 175q115 -56 234 -56q54 0 84 20.5t30 55.5q0 40 -36.5 58t-124.5 18h-82v149h84q145 0 145 76q0 30 -25.5 48t-74.5 18q-54 0 -113.5 -17t-105.5 -45l-33 172q136 70 282 70q138 0 216.5 -55t78.5 -150
q0 -67 -41.5 -112t-115.5 -68q172 -45 172 -189z" />
    <glyph glyph-name="glyph789" horiz-adv-x="1658" 
d="M659 625h-553v176h179v397l-166 -63l-25 174l248 100h168v-608h149v-176zM1581 0h-582v168l269 246q39 33 56 57t17 55q0 32 -23.5 50t-62.5 18q-84 0 -215 -78l-26 191q133 79 286 79q129 0 202 -62.5t73 -160.5q0 -54 -22 -101t-52 -79.5t-86 -81.5l-137 -115h303v-186
zM496 -29l-140 37l437 699l411 694l139 -37l-438 -698z" />
    <glyph glyph-name="glyph790" horiz-adv-x="1658" 
d="M1593 143h-100v-149h-213v149h-338v142l283 491h268v-481h100v-152zM1298 289v125l15 207h-15l-65 -144l-55 -96l-62 -90l6 -10l90 8h86zM659 625h-553v176h179v397l-166 -63l-25 174l248 100h168v-608h149v-176zM526 -29l-139 37l436 699l412 694l139 -37l-438 -698z
" />
    <glyph glyph-name="glyph791" horiz-adv-x="1658" 
d="M1593 143h-100v-149h-213v149h-338v142l283 491h268v-481h100v-152zM1298 289v125l15 207h-15l-65 -144l-55 -96l-62 -90l6 -10l90 8h86zM670 838q0 -105 -91 -166.5t-235 -61.5q-161 0 -281 60l33 174q115 -56 234 -56q54 0 84 20.5t30 55.5q0 40 -36.5 58t-124.5 18
h-82v150h84q145 0 145 75q0 30 -25.5 48t-74.5 18q-54 0 -113.5 -17t-105.5 -45l-33 172q136 70 282 70q138 0 216.5 -55t78.5 -150q0 -67 -41.5 -112t-115.5 -68q172 -45 172 -188zM506 -29l-139 37l436 699l411 694l140 -37l-439 -698z" />
    <glyph glyph-name="glyph792" horiz-adv-x="536" 
d="M444 1300q0 -74 -50 -119.5t-126 -45.5q-75 0 -125.5 45.5t-50.5 119.5q0 75 50.5 122.5t125.5 47.5q76 0 126 -47t50 -123zM424 0h-311v1004h311v-1004z" />
    <glyph glyph-name=".null" horiz-adv-x="929" 
d="M588 1448q24 -73 24 -148q0 -149 -139 -282l-145 31q53 106 53 206q0 68 -39 160z" />
  </font>
</defs>
</svg>
